<svg xmlns="http://www.w3.org/2000/svg" viewBox="0 0 500 500"><defs><style>.cls-1{fill:#a6e2e2;}.cls-2{fill:#fff;}.cls-3{fill:#d7f2ed;}.cls-4{fill:#2e303d;}.cls-5{fill:#ff9971;}.cls-6{fill:#f9785a;}.cls-7{fill:#8e8e8e;}.cls-8{fill:#b7b7b7;}.cls-9{fill:#d5e0e0;}.cls-10{fill:#27c8cc;}.cls-11{fill:#e56b45;}.cls-12{fill:#0cbcbc;}.cls-13{fill:#ed694f;}.cls-14{fill:#ff9076;}</style></defs><g id="OBJECTS"><ellipse class="cls-1" cx="218.8" cy="214.98" rx="190.54" ry="214.98"/><path class="cls-2" d="M246.31,294.48s-53.12,72.73-71.9,70.83S142.75,328,142.75,328s.64-.39,1.74-1.13c5.5-3.66,22.41-15.78,26.36-28.72,3.83-7,31.7-58,40.18-71,9.12-14,19.85-14.52,19.85-14.52,6.05,11.23,13.69,19.77,23.16,21.38a32.19,32.19,0,0,0,3.77.42c.58,4.57,4.38,27.88,22.94,39.81,0,0,.71-16.24,10.23-17.68,0,0,10.07-6.23,18.39,2.88,0,0,13.18-16,0-60.79L300,189v0l-4.31-11.57s48.14-2.72,59.27,8.92,82.37,118,82.37,118L333.67,395.1S270.85,324.8,246.31,294.48Z"/><path class="cls-3" d="M309.37,198.62c13.18,44.83,0,60.79,0,60.79-8.32-9.11-18.39-2.88-18.39-2.88L304.41,201,300,189Z"/><path class="cls-3" d="M277.05,246.16,291,256.53c-9.52,1.44-10.23,17.68-10.23,17.68-18.56-11.93-22.36-35.24-22.94-39.81a25.47,25.47,0,0,0,3.39,0Z"/><path class="cls-4" d="M246,293.9,228.6,269.69c-.47-.65-1.28.27-.82.92l17.39,24.21C245.64,295.47,246.45,294.54,246,293.9Z"/><path class="cls-4" d="M240.91,295.49l-12.31-6c-.68-.33-1.26.79-.58,1.12l12.31,6C241,296.94,241.59,295.82,240.91,295.49Z"/><path class="cls-4" d="M332.49,332.51q-7.82-14.61-15.65-29.21l-15.57-29.07q-4.41-8.24-8.83-16.48c-.38-.71-1.38-.06-1,.66q7.82,14.61,15.65,29.21l15.57,29.07q4.43,8.24,8.83,16.47C331.88,333.88,332.88,333.23,332.49,332.51Z"/><path class="cls-5" d="M171.69,293.33a17.87,17.87,0,0,1-.84,4.79c-3.95,12.94-20.86,25.06-26.36,28.72l-1.74-7.18s-8.92,2.26-15.44-4.11a2.47,2.47,0,0,1-.77.95,4.72,4.72,0,0,1-3.16.53,24.32,24.32,0,0,1-13.53-6,14.43,14.43,0,0,1-5-7.82c-.61-3,.41-6.62,2.79-8.1a10.2,10.2,0,0,1-.17-1.46,10.9,10.9,0,0,1,3-7.49,24.47,24.47,0,0,1,5.72-4.4c0-.12,0-.22.07-.33a9.49,9.49,0,0,1,3.23-4.89,23,23,0,0,1,4.37-2.7c-7.37-4.28-14.45-9-13.73-11.16,1.44-4.32,16.54-2.79,31.82,3.24S162.21,281,162.21,281C167,278.58,172.17,279.05,171.69,293.33Z"/><path class="cls-4" d="M166.1,295.76l-10.68,5.17L150,303.55c-1.48.71-3.28,1.88-4.95,1.3s-1.8-2.89-1.12-4.51a25,25,0,0,1,2.75-4.49,49.39,49.39,0,0,1,6.58-7.51,45.1,45.1,0,0,1,9.15-6.58c.67-.36.09-1.48-.58-1.12a47.89,47.89,0,0,0-16.26,14.71c-1.69,2.42-4.87,6.7-2.33,9.74a4,4,0,0,0,4.52.87,55.26,55.26,0,0,0,5.46-2.57l13.45-6.51C167.36,296.55,166.77,295.43,166.1,295.76Z"/><path class="cls-4" d="M138,282.8l-13.38-9c-.64-.43-1.22.69-.59,1.12l13.39,9C138.09,284.35,138.67,283.23,138,282.8Z"/><path class="cls-4" d="M140.12,307.12a14.35,14.35,0,0,0-1-3.49c-.45-1.24-.91-2.48-1.37-3.72q-3.18-8.57-6.34-17.11a.58.58,0,1,0-1.11.34L135.39,297q1.29,3.5,2.59,7c.52,1.42,2.13,5.14-.19,5.74-1.64.42-3.54-1.42-4.78-2.4a41.9,41.9,0,0,1-4.08-3.71,47.23,47.23,0,0,1-6.73-8.92,50.32,50.32,0,0,1-5-12,.58.58,0,1,0-1.11.35,49.94,49.94,0,0,0,12,21.45,45.4,45.4,0,0,0,4.31,3.91c1.43,1.14,3.15,2.65,5,2.62S140.31,309.07,140.12,307.12Z"/><path class="cls-4" d="M130.45,307.8a.59.59,0,1,0-1,.65,3.26,3.26,0,0,1-.06,3.86,2.66,2.66,0,0,1-3.41.53,16.14,16.14,0,0,1-3.22-2.47c-1-.93-2.07-1.88-3.08-2.86a95.12,95.12,0,0,1-11-12.85c-.47-.65-1.28.27-.82.92a96.67,96.67,0,0,0,10,11.88c1.77,1.78,3.61,3.48,5.5,5.08,1.67,1.41,3.84,2.75,5.89,1.49A4.54,4.54,0,0,0,130.45,307.8Z"/><path class="cls-5" d="M304.41,201,291,256.53l-13.93-10.37c14.33-23,11.53-50.25,11.53-50.25s-2.23,36.74-27.38,38.47a25.47,25.47,0,0,1-3.39,0A32.19,32.19,0,0,1,254,234c-9.47-1.61-17.11-10.15-23.16-21.38-12-22.3-17.83-55.14-19.41-65.22,14.17-2.09,27.92-8.8,41.36-14.85,4.15-1.87,8.54-3.73,13-3.17s8.64,3.62,11.7,7.48a58,58,0,0,1,6.57,11.37c.53-3.66,2.72-14.64,10.08-11.47a6.26,6.26,0,0,1,2.27,1.68c6.11,7,3.87,28.56-3.06,33l2.26,6L300,189v0Z"/><path class="cls-4" d="M288.58,195.91s2.8,27.28-11.53,50.25L261.2,234.38C286.35,232.65,288.58,195.91,288.58,195.91Z"/><path class="cls-4" d="M295.2,118.8c-.68-4.88-1.74-10-4.63-13.67-2.58-3.31-7.05-5.07-10.56-3.44a19.64,19.64,0,0,0-1.47-13.06,16.08,16.08,0,0,0-9.56-8.3c-9.76-2.87-18.67,4.37-26.59,9.66a45.19,45.19,0,0,1-13.45,6.37,39.11,39.11,0,0,1-14.32,1.1A39.6,39.6,0,0,1,207.43,96a35.55,35.55,0,0,0-7.15-1.75c-4.06-.37-8.19,1.37-9.83,5.85-1.52,4.17-.74,9,.75,13.07a27.77,27.77,0,0,0,4.32,7.72,11.53,11.53,0,0,0-11.31,6.41c-2.51,5-1.62,11.79,2,15.73,3.16,3.42,7.74,4.51,12.1,4.87a55.84,55.84,0,0,0,13.12-.49c14.17-2.09,27.92-8.8,41.36-14.85,4.15-1.87,8.54-3.73,13-3.17s8.64,3.62,11.7,7.48a58,58,0,0,1,6.57,11.37c.53-3.66,2.72-14.64,10.08-11.47a6.26,6.26,0,0,1,2.27,1.68A130.08,130.08,0,0,0,295.2,118.8ZM270.78,87c-5.5-2.23-11.67-.78-17,1.84s-10.26,6.32-15.64,8.85a39.83,39.83,0,0,1-31.21,1.1c-3.73-1.46-7.8-3.48-11.43-1.74-2.81,1.34-4.37,4.67-4.67,8.16a15.16,15.16,0,0,1,.15-2.34,9.06,9.06,0,0,1,2.59-5.41,8.21,8.21,0,0,1,5.74-2,24.24,24.24,0,0,1,6.94,1.47,44.7,44.7,0,0,0,6.7,1.6,40.5,40.5,0,0,0,25.91-4.85C247,89.08,254.46,81.37,264,81a14.11,14.11,0,0,1,11.39,5,17.61,17.61,0,0,1,3.83,13.37c0,.17-.07.33-.09.5A14.12,14.12,0,0,0,270.78,87Z"/><path class="cls-2" d="M271,196.35s6.4,13.19-3.35,20.84S251,214,251,214Z"/><path class="cls-6" d="M237.74,172.45,251,202.23s-10.79,6.85-13.26,2.88S237.74,172.45,237.74,172.45Z"/><path class="cls-4" d="M232.85,179.18c1,3.88-.09,7.68-2.49,8.48s-5.15-1.71-6.17-5.6.1-7.68,2.49-8.48S231.84,175.29,232.85,179.18Z"/><path class="cls-4" d="M260.85,168.52c1,3.89-.1,7.69-2.49,8.48s-5.16-1.7-6.18-5.59.1-7.68,2.49-8.48S259.83,164.64,260.85,168.52Z"/><path class="cls-4" d="M227,163.45a23.26,23.26,0,0,0-6.25,2.78,2.82,2.82,0,0,0-.74,3.57,2.21,2.21,0,0,0,3.17.84c.49-.31,1-.58,1.49-.84a21.27,21.27,0,0,1,3.63-1.37,2.68,2.68,0,0,0,1.56-3.22A2.34,2.34,0,0,0,227,163.45Z"/><path class="cls-4" d="M259.82,154.72a2.51,2.51,0,0,0-1.62-.7,15.83,15.83,0,0,0-8.28,1.38,2.56,2.56,0,0,0-1.37,1.25,2.91,2.91,0,0,0-.18,2c.37,1.22,1.66,2.31,2.86,1.76a12.72,12.72,0,0,1,7.06-1.17,2.18,2.18,0,0,0,1.63-.82,2.82,2.82,0,0,0-.1-3.67Z"/><path class="cls-4" d="M279.7,79.86c-.3-.77-1.29-.11-1,.65a48.58,48.58,0,0,1,3.15,17.72.58.58,0,1,0,1.15,0A50.35,50.35,0,0,0,279.7,79.86Z"/><path class="cls-4" d="M285,91.05q-.75,3.42-1.48,6.84c-.17.82.94,1.16,1.11.35q.73-3.42,1.48-6.85C286.25,90.58,285.14,90.24,285,91.05Z"/><polygon class="cls-7" points="277.15 475.45 277.15 483.74 174.51 483.74 96.27 435.76 96.27 428.3 176.01 475.45 277.15 475.45"/><polygon class="cls-8" points="277.15 475.45 176.01 475.45 96.27 428.3 197.41 428.3 277.15 475.45"/><polygon class="cls-7" points="186.71 471.82 174.26 471.82 164.44 466.02 176.89 466.02 186.71 471.82"/><polygon class="cls-7" points="173.55 464.06 161.09 464.06 151.27 458.26 163.73 458.26 173.55 464.06"/><polygon class="cls-7" points="162.41 456.61 149.96 456.61 140.14 450.8 152.59 450.8 162.41 456.61"/><polygon class="cls-7" points="149.25 448.85 136.79 448.85 126.97 443.05 139.43 443.05 149.25 448.85"/><polygon class="cls-7" points="201.74 470.7 189.29 470.7 179.47 464.89 191.92 464.89 201.74 470.7"/><polygon class="cls-7" points="190.6 463.24 178.15 463.24 168.33 457.44 180.79 457.44 190.6 463.24"/><polygon class="cls-7" points="177.44 455.48 164.99 455.48 155.17 449.68 167.62 449.68 177.44 455.48"/><polygon class="cls-7" points="204.46 461.86 192 461.86 182.19 456.05 194.64 456.05 204.46 461.86"/><polygon class="cls-7" points="193.32 454.4 180.87 454.4 171.05 448.6 183.5 448.6 193.32 454.4"/><polygon class="cls-7" points="180.16 446.64 167.71 446.64 157.89 440.84 170.34 440.84 180.16 446.64"/><polygon class="cls-7" points="250.34 472.52 237.89 472.52 228.07 466.72 240.52 466.72 250.34 472.52"/><polygon class="cls-7" points="237.18 464.77 224.72 464.77 214.91 458.96 227.36 458.96 237.18 464.77"/><polygon class="cls-7" points="226.04 457.31 213.59 457.31 203.77 451.5 216.22 451.5 226.04 457.31"/><polygon class="cls-7" points="212.88 449.55 200.42 449.55 190.6 443.75 203.06 443.75 212.88 449.55"/><polygon class="cls-7" points="265.37 471.4 252.92 471.4 243.1 465.59 255.55 465.59 265.37 471.4"/><polygon class="cls-7" points="254.24 463.94 241.78 463.94 231.96 458.14 244.42 458.14 254.24 463.94"/><polygon class="cls-7" points="241.07 456.18 228.62 456.18 218.8 450.38 231.25 450.38 241.07 456.18"/><polygon class="cls-9" points="330.03 450.15 242.11 450.15 197.22 426.57 285.14 426.57 330.03 450.15"/><polygon class="cls-10" points="269.05 447.31 243.47 447.31 230.4 440.45 255.99 440.45 269.05 447.31"/><path class="cls-8" d="M277,446.88a1,1,0,0,1-.46-.11l-30.34-15.94a1,1,0,0,1,.93-1.77L277.51,445a1,1,0,0,1-.47,1.88Z"/><path class="cls-8" d="M287.25,446.3a.93.93,0,0,1-.46-.12l-30.34-15.93a1,1,0,1,1,.93-1.78l30.34,15.94a1,1,0,0,1-.47,1.89Z"/><path class="cls-8" d="M301.13,447.18a1,1,0,0,1-.47-.12l-30.34-15.93a1,1,0,1,1,.93-1.77l30.34,15.93a1,1,0,0,1-.46,1.89Z"/><path class="cls-8" d="M311.33,446.59a1.11,1.11,0,0,1-.46-.11l-30.34-15.94a1,1,0,1,1,.93-1.77L311.8,444.7a1,1,0,0,1-.47,1.89Z"/><path class="cls-1" d="M425.71,166.33l19.69-11.56a38.65,38.65,0,0,0,24.66-.9c22.87-8.53,35.28-36.36,27.73-62.16s-32.22-39.81-55.1-31.29S407.42,96.77,415,122.58a50.43,50.43,0,0,0,10.4,19.18Z"/><polygon class="cls-7" points="468.67 141.29 468.67 144.52 466.21 144.52 449.59 144.52 447.03 144.52 447.03 135.31 468.67 141.29"/><path class="cls-8" d="M449.59,144.52h16.62s-.39,3.88-8.36,3.88S449.59,144.52,449.59,144.52Z"/><polygon class="cls-8" points="468.67 132.53 468.67 141.29 447.03 135.31 447.03 132.53 448.58 132.53 467.61 132.53 468.67 132.53"/><path class="cls-10" d="M483.62,93.91c0,10.61-5.09,19.89-12.67,24.88l-3.34,13.74h-19l-3.33-13.74c-7.58-5-12.67-14.27-12.67-24.88,0-15.9,11.43-28.79,25.52-28.79S483.62,78,483.62,93.91Z"/><path class="cls-2" d="M447.85,100.59c-.09-.69-1-.4-.92.29q2.13,15.47,4.27,31c.1.69,1,.39.93-.29Q450,116.06,447.85,100.59Z"/><path class="cls-2" d="M468.09,99.54q-2.31,16.29-4.61,32.58c-.1.69.82,1,.92.29L469,99.83C469.11,99.15,468.19,98.85,468.09,99.54Z"/><path class="cls-2" d="M470.69,107.39a4.59,4.59,0,0,1-5.06,3.3,6.54,6.54,0,0,1-4.05-3.57,15.25,15.25,0,0,0,1.81-4.56,14.86,14.86,0,0,0,.23-4.89c-.16-1.24-.67-2.82-1.94-3-1.48-.22-2.25,1.46-2.49,2.84a16.59,16.59,0,0,0,0,5.4,15.7,15.7,0,0,0,1.23,4.1c-.13.17-.25.35-.39.52a4.68,4.68,0,0,1-3.13,2,3,3,0,0,1-2.68-1.83,10.43,10.43,0,0,0,1.32-3.5,23.66,23.66,0,0,0,.37-5.64c-.09-1.42-1-3.1-2.45-2.62s-1.78,2.59-1.88,4.1a15.36,15.36,0,0,0,.55,5.14,15,15,0,0,0,.93,2.49,4,4,0,0,1-2.48,1.61c-2.89.54-4-2.8-4.54-5.34-.15-.67-1.07-.39-.92.29.62,2.82,1.83,6.2,4.88,6.18a4.65,4.65,0,0,0,3.58-1.82,6.29,6.29,0,0,0,.77,1,3.43,3.43,0,0,0,4,.69,7.08,7.08,0,0,0,2.64-2.23,7.94,7.94,0,0,0,3.6,3.43c2.83,1.21,6.06-.63,7.08-3.8A.49.49,0,1,0,470.69,107.39ZM452.6,99.28a3.46,3.46,0,0,1,.69-2c.59-.59,1.25-.2,1.5.54a6.4,6.4,0,0,1,.13,2.23c0,.76-.05,1.52-.11,2.28a12.23,12.23,0,0,1-1.13,4.35A14,14,0,0,1,452.6,99.28Zm8.36,6.53a14.92,14.92,0,0,1-.76-8.47c.14-.63.4-1.37,1-1.58s1,.37,1.2.91a9,9,0,0,1,.32,3.73A13.2,13.2,0,0,1,461,106C461,105.94,461,105.88,461,105.81Z"/><path class="cls-2" d="M179.53,173.6l-20.47,3.59a40.82,40.82,0,0,1-19,14.71c-21.38,7.85-44.37-5.34-51.33-29.47s4.73-50.06,26.12-57.91,44.35,5.34,51.32,29.47a51.5,51.5,0,0,1,1.57,20.92Z"/><polygon class="cls-10" points="159.81 133.47 121.68 176.49 100.95 153.09 111 141.74 121.68 153.79 149.75 122.13 159.81 133.47"/><path class="cls-5" d="M398.23,275.88l-26,32.88L365.61,329l-1.35-19-2.73-23.09.28-4.27,1.55-24.13a40.61,40.61,0,0,1-12.46-.48c-15.53-3.11-27.38-16.49-28.86-45.45-.91-17.64,1-30.93,3.63-40.51,3.83-14.07,9.16-20.1,9.16-20.1s19.43,36.72,45.17,40.78c0,0,4.72-12.55,12.07-8.85s7.36,28.67-4.3,31.94A121.35,121.35,0,0,0,394.22,267,53.59,53.59,0,0,0,398.23,275.88Z"/><ellipse class="cls-6" cx="372.83" cy="214.98" rx="10.41" ry="11.75"/><path class="cls-4" d="M376.32,255.64l-13.78,15.52.82-12.63A59.27,59.27,0,0,0,376.32,255.64Z"/><path class="cls-4" d="M362.54,271.16l-.73,11.5A50.33,50.33,0,0,0,340,308.06a37.88,37.88,0,0,1-.25-16.92c1.2-6.23,3.48-12.11,5.78-17.91a133.81,133.81,0,0,0,5.34-15.18,40.61,40.61,0,0,0,12.46.48Z"/><path class="cls-6" d="M337.87,198.35l5.92,28.15s-10.32,3.52-11.68.72S337.87,198.35,337.87,198.35Z"/><path class="cls-4" d="M483.06,282c-3.08-14.24-10.57-26.55-19.1-37.37-6.91-8.75-14.58-16.66-21.86-25-2.28-4.19-4.41-8.47-6.31-12.91-7.14-16.6-10.87-34.86-18.21-51.33s-19.68-31.83-35.83-34.67c-23.72-4.18-46.36,19.55-69.95,14.55-.93,13.54,4,27.45,13,36.51l.88.31c3.29-12.07,7.67-18.21,8.85-19.72,1.42,8,6.32,14.53,11.18,20.32,5.67,6.77,12.06,13.07,19.82,16.56A29,29,0,0,0,376,191.86a32.11,32.11,0,0,0,4,.91s4.72-12.55,12.07-8.85,7.36,28.67-4.3,31.94A121.35,121.35,0,0,0,394.22,267a53.59,53.59,0,0,0,4,8.93,25.61,25.61,0,0,0,3.46,4.72h0a20.12,20.12,0,0,0,1.49,1.43c10.12,8.71,25,3.49,36.92,8.54,11,4.67,17.85,17.76,19.65,30.89S459.21,348,456.88,361l.21.08c.23-.78.45-1.57.67-2.35,15.45-6.17,24.61-25.08,25.34-43.68A80.43,80.43,0,0,0,483.06,282ZM356.71,182.19a75.24,75.24,0,0,1-9-9,80.05,80.05,0,0,1-7.66-10.08,33.42,33.42,0,0,1-4-8.89c4,6.78,16.88,27,33.94,35.29A38.11,38.11,0,0,1,356.71,182.19ZM483,308.51c-1.12-18.8-9.19-36.35-18.49-52.09-6.33-10.71-13.34-21-19.57-31.74,4.43,4.95,8.93,9.82,13.26,14.88,9.13,10.69,17.78,22.63,22.18,36.83A76.87,76.87,0,0,1,483,308.51Z"/><path class="cls-4" d="M333.53,198.6c0,4.05-2,7.33-4.52,7.33s-4.52-3.28-4.52-7.33,2-7.34,4.52-7.34S333.53,194.54,333.53,198.6Z"/><path class="cls-4" d="M356.94,197.54c0,4.06-2,7.34-4.52,7.34s-4.52-3.28-4.52-7.34,2-7.33,4.52-7.33S356.94,193.49,356.94,197.54Z"/><path class="cls-4" d="M331.9,181.66a21.91,21.91,0,0,0-6.69.66,2.68,2.68,0,0,0-1.6,3.19,2.34,2.34,0,0,0,2.83,1.82c.54-.14,1.08-.24,1.63-.33a19.62,19.62,0,0,1,3.83-.15,2.49,2.49,0,0,0,2.3-2.6A2.52,2.52,0,0,0,331.9,181.66Z"/><path class="cls-4" d="M359.42,184a2.78,2.78,0,0,0-1.37-1.19,16,16,0,0,0-8.29-1.33,2.39,2.39,0,0,0-1.63.77,2.77,2.77,0,0,0-.67,1.83c.05,1.29,1,2.74,2.3,2.6a14.22,14.22,0,0,1,3.45,0,14.93,14.93,0,0,1,3.61,1.11,2.09,2.09,0,0,0,1.78-.27,2.61,2.61,0,0,0,1-1.55A2.88,2.88,0,0,0,359.42,184Z"/><path class="cls-11" d="M361.17,236c1.66,4.65.1,9.75-3.51,11.4s-7.87-.79-9.54-5.44-.1-9.76,3.5-11.4S359.5,231.38,361.17,236Z"/><path class="cls-2" d="M362.42,229.57s3.44,11.09-6.48,14.79c-8.08,3-11.47-3-12.38-5Z"/><path class="cls-10" d="M456.88,361l.21.08c-3.2,11.2-6.83,22.44-10.5,33.05h0c-11.34,32.76-23,59.48-23.39,60.27-11.2-17.45-32.07-29-38.85-32.48-1.39-.7-2.18-1.07-2.18-1.07l-4.27,14.44L379,436.4l-38.69,5.82v-18s-.95-2.34-2.37-6.05c-1.93-5.06-4.73-12.69-7.06-20.38-2.57-8.43-4.58-16.94-4.34-22.17.65-13.47,26.81-65.42,26.81-65.42a64.91,64.91,0,0,0,1.5,13.53,9.83,9.83,0,0,1,.77-2.53c.12.56,3.82,17.8,10.74,30.85l14.72-28.32c.61,1.78,1.21,3.77,1.75,5.95,0,0,16.34-29.8,18.89-49.08a20.12,20.12,0,0,0,1.49,1.43c10.12,8.71,25,3.49,36.92,8.54,11,4.67,17.85,17.76,19.65,30.89S459.21,348,456.88,361Z"/><path class="cls-10" d="M446.59,394.13l6.89,68.33h-31l2.58-5c-.56-1-1.17-2-1.82-3C423.56,453.61,435.25,426.89,446.59,394.13Z"/><path class="cls-12" d="M423.2,454.4c.65,1,1.26,2,1.82,3l-2.58,5-13,25.51S404.89,463.74,379,436.4l-1.07-1.11,4.27-14.44s.79.37,2.18,1.07C391.13,425.36,412,437,423.2,454.4Z"/><path class="cls-5" d="M409.45,488s-29.71.6-112.78-4.82c0,0-19.41,15.16-27.29,14.2s-23.45-17.44-27.29-24.29S248.27,456,248.27,456s.11-5.16,6.4-8.17c2.81-1.34,10.5-1.16,18.19-.55,9.57.78,19.12,2.23,19.12,2.23L315.09,446l25.19-3.79L379,436.4C404.89,463.74,409.45,488,409.45,488Z"/><path class="cls-2" d="M401.69,280.6h0c-2.55,19.28-18.89,49.08-18.89,49.08-.54-2.18-1.14-4.17-1.75-5.95-3.94-11.52-8.8-15-8.8-15l26-32.88A25.61,25.61,0,0,0,401.69,280.6Z"/><path class="cls-3" d="M381.05,323.74l-14.72,28.32c-6.92-13.05-10.62-30.29-10.74-30.85h0c2.32-5.27,8.67-11.18,8.67-11.18l1.35,19,6.64-20.21S377.11,312.22,381.05,323.74Z"/><path class="cls-2" d="M353.27,392.12h18l.71,41.48H345.39l-.54-41.48Zm12.33,23.46V396.1H351.18v19.48Z"/><rect class="cls-10" x="351.18" y="396.1" width="14.43" height="19.48"/><path class="cls-2" d="M361.53,286.93,364.26,310s-6.35,5.91-8.67,11.18h0a9.83,9.83,0,0,0-.77,2.53,64.91,64.91,0,0,1-1.5-13.53C353.28,302.25,354.86,292.64,361.53,286.93Z"/><polygon class="cls-8" points="357.89 385.8 362.32 392.12 353.27 392.12 357.89 385.8"/><path class="cls-10" d="M340,308.06a50.33,50.33,0,0,1,21.78-25.4l-.28,4.27c-6.67,5.71-8.25,15.32-8.21,23.28,0,0-26.16,52-26.81,65.42-.24,5.23,1.77,13.74,4.34,22.17l-1.57.44-11.22-6.15.35-.82s14.29-57.13,20-78.42A44.79,44.79,0,0,1,340,308.06Z"/><path class="cls-5" d="M340.28,424.23v18L315.09,446l-76.68-.18c-13,6.29-19.68,6.63-24.7,3.81-2.05.16-9.72,1.12-11.77,1.26-.2,2.49-.88,4.71-2.71,4.71-4.15,0-8.78-10.46-8.78-10.46s-1.28,10.46-5.45,7.94-3-16.84-3-16.84-9.44,10.43-10.71,6.5,5-22.68,20.46-24.3,50.53,5.41,50.53,5.41l69.45-13.11,26.21,7.43C339.33,421.89,340.28,424.23,340.28,424.23Z"/><path class="cls-12" d="M337.91,418.18l-26.21-7.43c-1.62-14.54,2.66-20.68,2.66-20.68l3.7,2,12.79,5.71h0C333.18,405.49,336,413.12,337.91,418.18Z"/><path class="cls-13" d="M285.14,418a4.72,4.72,0,0,1,1.09,5.76c-8.11-1.18-10-5.35-10-5.35.67-1.27,2-2.77,3.29-2.85C281.07,415.51,283.14,416.48,285.14,418Z"/><path class="cls-14" d="M286.23,423.79l-4.9,9.54a16.2,16.2,0,0,1-9.9-5.87l4.76-9S278.12,422.61,286.23,423.79Z"/><path class="cls-10" d="M281.33,433.33l-7.64,14.87-13-.31,10.78-20.43A16.2,16.2,0,0,0,281.33,433.33Z"/><path class="cls-4" d="M407,330.89l-9.47,33.65q-4.71,16.75-9.43,33.5l-5.34,19a.58.58,0,1,0,1.11.35q4.73-16.83,9.47-33.65t9.43-33.5l5.34-19A.58.58,0,1,0,407,330.89Z"/><path class="cls-4" d="M446,396q-9.93,22.26-18.21,45.38-2.34,6.52-4.54,13.09a.58.58,0,1,0,1.11.35q7.75-23.15,17.16-45.53,2.67-6.36,5.47-12.63C447.34,395.88,446.35,395.23,446,396Z"/><path class="cls-4" d="M351.75,311.71c-5.47,11.44-11.08,22.82-16.39,34.36-4.79,10.41-9,21.58-9,33.51a40.06,40.06,0,0,0,3.94,17.84c.37.72,1.36.07,1-.66-5-9.86-4.52-21.89-1.66-32.44a108.31,108.31,0,0,1,6.15-16.4c2.51-5.53,5.18-11,7.79-16.43q4.57-9.56,9.14-19.12C353.09,311.63,352.1,311,351.75,311.71Z"/><path class="cls-4" d="M381,325.26q-9.33,23.79-18.65,47.59-2.27,5.79-4.54,11.59a281.71,281.71,0,0,1-2.94-47.88q.18-7.14.71-14.25c.06-.83-1.09-.83-1.16,0a283.74,283.74,0,0,0,.77,50.65q.72,6.89,1.78,13.73a.72.72,0,0,0,.07.33.46.46,0,0,0,.35.36.45.45,0,0,0,.63-.28v0a1.19,1.19,0,0,0,.08-.2q9.27-23.69,18.55-47.35,2.67-6.79,5.33-13.6C382.29,325.16,381.29,324.49,381,325.26Z"/><path class="cls-4" d="M339.47,442.53,315,445.23c-.73.08-.74,1.38,0,1.3l24.46-2.71C340.2,443.74,340.21,442.44,339.47,442.53Z"/><path class="cls-4" d="M225.72,444.94a88.88,88.88,0,0,1-21.12,4.79c-.82.09-1.64.16-2.47.22a7,7,0,0,1-2.09,0c-.52-.12-1.11-.41-1.07-1.12,0-.89,1-1.71,1.56-2.27a64.86,64.86,0,0,1,7.57-6.91,61.36,61.36,0,0,1,9.57-6.13c.67-.35.09-1.47-.58-1.12a64.49,64.49,0,0,0-17.65,13.54c-1,1-2.23,2.6-1.3,4.17.66,1.13,2.08,1.26,3.17,1.21a80.28,80.28,0,0,0,11.63-1.5A90.9,90.9,0,0,0,226,446.19C226.72,445.94,226.42,444.68,225.72,444.94Z"/><path class="cls-4" d="M191,445a35.13,35.13,0,0,1-.06-17.58.58.58,0,1,0-1.11-.34,36.43,36.43,0,0,0,.06,18.26A.58.58,0,1,0,191,445Z"/><path class="cls-4" d="M186.7,425.31a.56.56,0,0,0-.79.24,27,27,0,0,0-4.24,10.78c-.14.81,1,1.16,1.1.34a26.29,26.29,0,0,1,4.14-10.47A.71.71,0,0,0,186.7,425.31Z"/><path class="cls-4" d="M363.79,310a126.59,126.59,0,0,0-9.34,11.79c-.46.65.35,1.57.81.92a126.59,126.59,0,0,1,9.34-11.79C365.13,310.31,364.31,309.39,363.79,310Z"/><path class="cls-4" d="M383,328.35a54.65,54.65,0,0,0-9.91-20c-.49-.62-1.3.3-.81.92a53.17,53.17,0,0,1,9.61,19.45A.58.58,0,1,0,383,328.35Z"/><path class="cls-4" d="M366.53,330.05a.58.58,0,1,0-1.15,0q.33,8.64.65,17.27a.58.58,0,1,0,1.16,0Z"/><path class="cls-4" d="M370.69,333.37a1.46,1.46,0,0,0-1.85-.85,1.81,1.81,0,0,0-.55.4l-.07.05-.08.15a1.25,1.25,0,0,0-.16.22c0,.05,0,.1,0,.15l0,.13a2,2,0,0,0-.09.48s0,0,0,.06a.61.61,0,0,0,0,.13,1.15,1.15,0,0,0,0,.32s0,.07.05.11a1.45,1.45,0,0,0,.09.22,2.57,2.57,0,0,0,.18.33.25.25,0,0,1,0,.07c0,.05.1.07.14.11a1.45,1.45,0,0,0,.17.18l.08,0,.24.1a1.31,1.31,0,0,0,.28.09,1.29,1.29,0,0,0,1-.25,1.82,1.82,0,0,0,.63-1A1.85,1.85,0,0,0,370.69,333.37Z"/><polygon class="cls-7" points="77.29 448.25 73.88 480.02 132.72 475.94 132.72 489.18 47.02 500 23.78 480.02 50.28 409.25 59.81 383.81 83.47 390.79 80.5 418.45 77.29 448.25"/><polygon class="cls-7" points="108.73 208.1 148.5 441.9 131.44 441.9 91.47 208.1 108.73 208.1"/><polygon class="cls-8" points="132.72 475.94 73.88 480.02 77.29 448.25 132.72 475.94"/><polygon class="cls-8" points="91.47 208.1 131.44 441.9 80.5 418.45 83.47 390.79 59.81 383.81 50.28 409.25 46.06 407.23 0 208.1 91.47 208.1"/><path class="cls-4" d="M123.05,390q-3.31-22-6.79-43.88t-7.18-44q-3.66-21.89-7.48-43.73t-7.84-43.66q-.49-2.73-1-5.46c-.15-.81-1.26-.47-1.11.35q4,21.81,7.88,43.65t7.53,43.73q3.69,22,7.21,44t6.84,43.87q3.33,21.94,6.49,43.94l.78,5.49c.12.83,1.23.48,1.11-.34Q126.36,411.91,123.05,390Z"/><path class="cls-4" d="M76.37,390.24q-5.25,21.11-10.93,42.08T53.71,474q-3.43,11.73-7,23.42a.58.58,0,1,0,1.11.34Q54.15,477,60.06,456.11t11.36-41.77q3.1-11.86,6.06-23.76A.58.58,0,1,0,76.37,390.24Z"/></g></svg>