<svg xmlns="http://www.w3.org/2000/svg" xmlns:xlink="http://www.w3.org/1999/xlink" viewBox="0 0 3710 3702.33"><defs><style>.cls-1{fill:url(#linear-gradient);}.cls-2{fill:url(#linear-gradient-2);}.cls-3{fill:url(#linear-gradient-3);}.cls-4{fill:url(#linear-gradient-4);}.cls-5{fill:url(#linear-gradient-5);}.cls-6{fill:url(#linear-gradient-6);}.cls-7{fill:url(#linear-gradient-7);}.cls-8{fill:url(#linear-gradient-8);}.cls-9{fill:url(#linear-gradient-9);}.cls-10{fill:url(#linear-gradient-10);}.cls-11{fill:url(#linear-gradient-11);}.cls-12{fill:url(#linear-gradient-12);}.cls-13{fill:url(#linear-gradient-13);}.cls-14{fill:url(#linear-gradient-14);}.cls-15{fill:url(#linear-gradient-15);}.cls-16{fill:url(#linear-gradient-16);}.cls-17{fill:url(#linear-gradient-17);}.cls-18{fill:url(#linear-gradient-18);}.cls-19{fill:url(#linear-gradient-19);}.cls-20{fill:#91b3fa;}.cls-21{fill:url(#linear-gradient-20);}.cls-22{fill:url(#linear-gradient-21);}.cls-23{fill:url(#linear-gradient-22);}.cls-24{fill:url(#linear-gradient-23);}.cls-25{fill:url(#linear-gradient-24);}.cls-26{fill:url(#linear-gradient-25);}.cls-27{fill:url(#linear-gradient-26);}.cls-28{fill:url(#linear-gradient-27);}.cls-29{fill:url(#linear-gradient-28);}.cls-30{fill:url(#linear-gradient-29);}.cls-31{fill:url(#linear-gradient-30);}.cls-32{fill:url(#linear-gradient-31);}.cls-33,.cls-45{fill:#fff;}.cls-34{fill:url(#linear-gradient-32);}.cls-35{fill:url(#linear-gradient-33);}.cls-36{fill:url(#linear-gradient-34);}.cls-37{fill:url(#linear-gradient-35);}.cls-38{fill:url(#linear-gradient-36);}.cls-39{fill:url(#linear-gradient-37);}.cls-40{fill:url(#linear-gradient-38);}.cls-41{fill:url(#linear-gradient-39);}.cls-42{fill:url(#linear-gradient-40);}.cls-43{fill:url(#linear-gradient-41);}.cls-44{fill:#bdd0fb;}.cls-45{opacity:0.56;}</style><linearGradient id="linear-gradient" x1="4181.83" y1="4804.48" x2="882.83" y2="707.33" gradientUnits="userSpaceOnUse"><stop offset="0" stop-color="#dae3fe"/><stop offset="1" stop-color="#e9effd"/></linearGradient><linearGradient id="linear-gradient-2" x1="10997.88" y1="3529.62" x2="10418.1" y2="4160.26" gradientTransform="translate(-10391.2 -63.47) rotate(0.54)" gradientUnits="userSpaceOnUse"><stop offset="0" stop-color="#09005d"/><stop offset="1" stop-color="#1a0f91"/></linearGradient><linearGradient id="linear-gradient-3" x1="10806.82" y1="3580.97" x2="10862.33" y2="3580.97" gradientTransform="translate(-10391.2 -63.47) rotate(0.54)" gradientUnits="userSpaceOnUse"><stop offset="0" stop-color="#febbba"/><stop offset="1" stop-color="#ff928e"/></linearGradient><linearGradient id="linear-gradient-4" x1="11056.97" y1="2767.51" x2="10528.97" y2="3483.15" xlink:href="#linear-gradient-2"/><linearGradient id="linear-gradient-5" x1="10851.24" y1="3417.12" x2="10277.15" y2="4041.57" xlink:href="#linear-gradient-2"/><linearGradient id="linear-gradient-6" x1="10606.76" y1="3578.15" x2="10654.68" y2="3578.15" xlink:href="#linear-gradient-3"/><linearGradient id="linear-gradient-7" x1="10962.23" y1="2697.45" x2="10433.7" y2="3413.81" xlink:href="#linear-gradient-2"/><linearGradient id="linear-gradient-8" x1="1828.65" y1="2223.44" x2="1502.23" y2="3480.15" gradientTransform="matrix(-1, 0, 0, 1, 2152.41, 0)" gradientUnits="userSpaceOnUse"><stop offset="0" stop-color="#4f52ff"/><stop offset="1" stop-color="#4042e2"/></linearGradient><linearGradient id="linear-gradient-9" x1="11035.41" y1="2143.26" x2="11319.03" y2="2143.26" xlink:href="#linear-gradient-3"/><linearGradient id="linear-gradient-10" x1="-809.54" y1="2095.34" x2="-620.38" y2="2525.74" gradientTransform="matrix(-1, -0.01, -0.01, 1, 55.53, 36.7)" xlink:href="#linear-gradient-3"/><linearGradient id="linear-gradient-11" x1="11317.71" y1="1952.89" x2="11396.6" y2="1831.59" xlink:href="#linear-gradient-3"/><linearGradient id="linear-gradient-12" x1="2083.31" y1="2289.6" x2="1757.22" y2="3545.07" xlink:href="#linear-gradient-8"/><linearGradient id="linear-gradient-13" x1="10414.8" y1="2542.07" x2="10773.69" y2="2542.07" xlink:href="#linear-gradient-3"/><linearGradient id="linear-gradient-14" x1="10690.41" y1="2161.17" x2="10832.32" y2="2161.17" xlink:href="#linear-gradient-3"/><linearGradient id="linear-gradient-15" x1="2367.75" y1="5967.72" x2="2314.84" y2="5793.22" gradientTransform="matrix(0.75, -0.66, 0.66, 0.75, -5257.8, -818.16)" xlink:href="#linear-gradient-3"/><linearGradient id="linear-gradient-16" x1="2319.79" y1="5663.97" x2="2363.96" y2="5915.9" gradientTransform="matrix(0.75, -0.66, 0.66, 0.75, -5257.8, -818.16)" xlink:href="#linear-gradient-2"/><linearGradient id="linear-gradient-17" x1="2313.71" y1="5966.81" x2="2266.1" y2="5809.75" gradientTransform="matrix(0.75, -0.66, 0.66, 0.75, -5257.8, -818.16)" xlink:href="#linear-gradient-3"/><linearGradient id="linear-gradient-18" x1="10577.77" y1="2350.98" x2="10774.48" y2="3170.62" gradientTransform="translate(-10122.91)" xlink:href="#linear-gradient-2"/><linearGradient id="linear-gradient-19" x1="10441.79" y1="2567.87" x2="10553.99" y2="2567.87" gradientTransform="translate(-10122.91)" xlink:href="#linear-gradient-3"/><linearGradient id="linear-gradient-20" x1="10229.36" y1="3427.65" x2="10507.28" y2="1679.41" gradientTransform="matrix(1, 0, 0, -1, -8451.66, 5592.46)" xlink:href="#linear-gradient-2"/><linearGradient id="linear-gradient-21" x1="-194.51" y1="2494.75" x2="-103.86" y2="1924.48" gradientTransform="matrix(-1, 0, 0, 1, 1720.7, 0)" xlink:href="#linear-gradient-2"/><linearGradient id="linear-gradient-22" x1="10336.32" y1="3436.74" x2="10628.59" y2="1598.26" gradientTransform="matrix(1, 0, 0, -1, -8451.66, 6952.83)" xlink:href="#linear-gradient-2"/><linearGradient id="linear-gradient-23" x1="-691.09" y1="3600.46" x2="-658.82" y2="3397.45" gradientTransform="matrix(-1, 0, 0, 1, 1720.7, 0)" xlink:href="#linear-gradient-8"/><linearGradient id="linear-gradient-24" x1="-683.12" y1="3561.67" x2="-666.98" y2="3460.16" gradientTransform="matrix(-1, 0, 0, 1, 1720.7, 0)" xlink:href="#linear-gradient-2"/><linearGradient id="linear-gradient-25" x1="312.37" y1="3600.46" x2="344.64" y2="3397.45" gradientTransform="matrix(-1, 0, 0, 1, 1720.7, 0)" xlink:href="#linear-gradient-8"/><linearGradient id="linear-gradient-26" x1="320.34" y1="3561.67" x2="336.48" y2="3460.16" gradientTransform="matrix(-1, 0, 0, 1, 1720.7, 0)" xlink:href="#linear-gradient-2"/><linearGradient id="linear-gradient-27" x1="2237.89" y1="855.22" x2="1555.74" y2="2336.21" gradientUnits="userSpaceOnUse"><stop offset="0" stop-color="#ff928e"/><stop offset="1" stop-color="#fe7062"/></linearGradient><linearGradient id="linear-gradient-28" x1="5597.28" y1="804.22" x2="4191.01" y2="932.07" gradientUnits="userSpaceOnUse"><stop offset="0" stop-color="#e1473d"/><stop offset="1" stop-color="#e9605a"/></linearGradient><linearGradient id="linear-gradient-29" x1="-2839.15" y1="-474.75" x2="-3646.9" y2="1899.55" gradientTransform="matrix(0.94, 0.12, -0.12, 0.89, 5309.01, 841.37)" xlink:href="#linear-gradient-27"/><linearGradient id="linear-gradient-30" x1="2306.18" y1="1791.15" x2="2164.26" y2="2226.16" gradientTransform="translate(888.09)" xlink:href="#linear-gradient-3"/><linearGradient id="linear-gradient-31" x1="1078.52" y1="894.86" x2="3582.45" y2="2247.7" gradientTransform="translate(888.09)" xlink:href="#linear-gradient-8"/><linearGradient id="linear-gradient-32" x1="2276.63" y1="3336.2" x2="2577.62" y2="3336.2" gradientTransform="translate(888.09)" xlink:href="#linear-gradient-3"/><linearGradient id="linear-gradient-33" x1="2689.35" y1="2667.4" x2="2541.28" y2="3629.84" gradientTransform="translate(888.09)" xlink:href="#linear-gradient-2"/><linearGradient id="linear-gradient-34" x1="2374.02" y1="2617.98" x2="2225.78" y2="3581.5" gradientTransform="translate(888.09)" xlink:href="#linear-gradient-2"/><linearGradient id="linear-gradient-35" x1="2093.99" y1="3358.42" x2="2268.28" y2="3358.42" gradientTransform="translate(888.09)" xlink:href="#linear-gradient-3"/><linearGradient id="linear-gradient-36" x1="1718.52" y1="2060.23" x2="2059.74" y2="2060.23" gradientTransform="translate(888.09)" xlink:href="#linear-gradient-3"/><linearGradient id="linear-gradient-37" x1="1747.34" y1="1559.93" x2="2383.45" y2="2819.8" gradientTransform="translate(888.09)" xlink:href="#linear-gradient-8"/><linearGradient id="linear-gradient-38" x1="1941.34" y1="2576.13" x2="2497.8" y2="3203.69" gradientTransform="translate(888.09)" xlink:href="#linear-gradient-2"/><linearGradient id="linear-gradient-39" x1="2146.83" y1="2226.54" x2="2253.49" y2="2226.54" gradientTransform="translate(888.09)" xlink:href="#linear-gradient-3"/><linearGradient id="linear-gradient-40" x1="2316.36" y1="2089.75" x2="3092.83" y2="2142.55" gradientTransform="translate(888.09)" xlink:href="#linear-gradient-3"/><linearGradient id="linear-gradient-41" x1="2443.33" y1="2043.35" x2="2171.88" y2="2586.26" gradientTransform="translate(888.09)" xlink:href="#linear-gradient-2"/></defs><g id="Illustration"><path class="cls-1" d="M3280.36,3184.48c-76.11,79.54-148.13,130.84-205,171.37-668.82,476.4-1460.23,337.53-1628.42,303.62-248.37-50.08-728.47-146.88-1075.57-552.1-525.14-613-443.37-1578.91-36-2216.48,74.5-116.62,468.07-763.91,1268-867.71C2087.41-39.64,2651.73,87.06,3060.38,427,3918.2,1140.4,3857.13,2581.69,3280.36,3184.48Z" transform="translate(0 -7.67)"/><path class="cls-2" d="M586.9,3705,417,3625.49l-30.09-5.13s-6.82,36.31-10.34,72.29Z" transform="translate(0 -7.67)"/><path class="cls-3" d="M381.81,3598.94l4.78,43.56s29.76,14.1,50.33-1.27L425,3592.63Z" transform="translate(0 -7.67)"/><path class="cls-4" d="M393.57,2781c-2.35,11.34-17.5,566.86,39.93,816.42a8.44,8.44,0,0,1-5.08,9.79,149.32,149.32,0,0,1-48.82,9.36A14.65,14.65,0,0,1,365.15,3606c-16.54-57.93-95.71-348.15-103.74-624.75-9-309.07.1-10.52.1-10.52l8.84-190.91Z" transform="translate(0 -7.67)"/><path class="cls-5" d="M258.07,3710c-2-17.83-8.51-47.12-29.26-70.09l-38.41-2.43s-10.48,18.26-20.92,67Z" transform="translate(0 -7.67)"/><path class="cls-6" d="M181.89,3581.43l11.52,65.91s11.93,9,35.76,2.78l-5.12-70.84Z" transform="translate(0 -7.67)"/><path class="cls-7" d="M156.61,2795.82c-51.74,292.69,3.66,724.65,22.93,809.27a13.22,13.22,0,0,0,10.61,10.1c8.95,1.56,23.7,2.91,38.29-1.15a12.08,12.08,0,0,0,8.84-11c3.35-68.24,2.53-487.35,49.71-652.53a37.61,37.61,0,0,1,14.82-20.62l89.09-61.61,7.76-100.89Z" transform="translate(0 -7.67)"/><path class="cls-8" d="M473.74,2243.32c-146.61-3.8-308.8,35.3-308.8,35.3-46.14,252.77-12.88,545.14-12.88,545.14C265.3,2854.39,393.81,2808,393.81,2808c19.89-105.65,110.78-402.64,110.78-402.64,71.73-8.15,131-28.11,179.81-54.78-36.66-43-53.62-97.46-60.9-129.62C571.5,2236.44,519,2244.49,473.74,2243.32Z" transform="translate(0 -7.67)"/><path class="cls-9" d="M908.93,2033c-14.24-17.4-32.55-9.41-32.55-9.41-22.45,90.29-136.29,162.58-252.88,197.35,7.28,32.16,24.24,86.61,60.9,129.62C878.35,2244.71,908.93,2033,908.93,2033Z" transform="translate(0 -7.67)"/><path class="cls-10" d="M905.39,2037.36c1.46,4.77-16.06,11.85-26.15-7.7-.27-9.33-5.6-49.33.09-56.87,30.28-40.17,88.72-90.33,88.72-90.33,9.7,9.68,1.54,19,1.54,19L941.2,1930.3c5.78,10.6,12.86,19.58,16.1,32.37a38.86,38.86,0,0,1-4.2,28.74c-5,8.78-11.87,20.19-18.32,29.11C922.57,2037.4,905.39,2037.36,905.39,2037.36Z" transform="translate(0 -7.67)"/><path class="cls-11" d="M928.72,1949.05l-25.83,21.31-8.25,21.39,22.6,25.37s8.09-42.51,13.89-51.68S934,1951.79,928.72,1949.05Z" transform="translate(0 -7.67)"/><path class="cls-12" d="M219.83,2420.1l-54.89-141.48s-137.85,91.08-161.5,208c25.86,2.14,72.89,9.27,118.76,32.81C132.86,2464.22,219.83,2420.1,219.83,2420.1Z" transform="translate(0 -7.67)"/><path class="cls-13" d="M338.25,2553.87s-154.61,84.82-205.79,10.66c-10.62-15.4-13.05-30.63-10.26-45.1-45.87-23.54-92.9-30.67-118.76-32.81-7.13,35.25-3.9,72.84,16.63,111,89.31,165.91,338.17-5.92,338.17-5.92Z" transform="translate(0 -7.67)"/><path class="cls-14" d="M326.34,2123.73,278.4,2257.24a4.81,4.81,0,0,0,2.16,5.83c12.65,7.1,58.28,27.71,113.83-6.52a22.72,22.72,0,0,0,10.7-16.13l16.22-115.79Z" transform="translate(0 -7.67)"/><path class="cls-15" d="M429.05,2000.65s50.32,96.23,43.38,134.84-70.41,35.24-125.55,3.3l-37.76-103.74Z" transform="translate(0 -7.67)"/><path class="cls-16" d="M349.81,2088.05a3.93,3.93,0,0,0,1.8-5.76c-4.05-6.27-11.62-19-14-30.18,0,0-9.15-6,23.57-13.4s81.54-19,92-46.52c10.24-26.81-15.33-94.71-57.68-41.2a4,4,0,0,1-6.3,0c-6.77-8.92-24.62-27.48-49.76-16.57-23.52,10.21-26.32,27.23-26.08,35.82a4,4,0,0,1-4.73,4c-11.82-2.35-40.22-4.55-53.76,24.27-11.15,23.73-4.18,37.29,2.22,44a3.92,3.92,0,0,1-1.76,6.52c-7.8,2.29-17.91,8.75-17.08,26.86,1.15,25,29.35,23.1,37.39,22a4,4,0,0,1,3.52,1.27c6.8,7.63,37.49,40,71,44.2a4,4,0,0,0,4.25-5.22l-14.11-42a4,4,0,0,1,2.2-4.9Z" transform="translate(0 -7.67)"/><path class="cls-17" d="M355.59,2094.05s-36.24-25.19-39.1-4.3,32.56,30.62,50.22,23Z" transform="translate(0 -7.67)"/><path class="cls-18" d="M306.65,2687.91l84.22-292a8.56,8.56,0,0,1,7.25-6.13c15.26-1.77,59.48-6.73,110.53-11,61.49-5.16,132.91-9.35,175.58-5.79a8.54,8.54,0,0,1,7,12.3c-24.26,48.73-124.08,247-174.07,311.93a8.62,8.62,0,0,1-6.94,3.38l-195.41-1.8A8.56,8.56,0,0,1,306.65,2687.91Z" transform="translate(0 -7.67)"/><path class="cls-19" d="M327,2617.37s-11.73-47.89-7-64.88,13.9-38.83,44.46-34,66.62,17.64,66.62,17.64-1.82,22.13-25.05,15l14.4,11.06s-2.06,17.72-21.68,8.25l13.4,14.68s-8.43,14.55-22.86,5.22S367.93,2623.14,327,2617.37Z" transform="translate(0 -7.67)"/><path class="cls-20" d="M503,2466a24.72,24.72,0,1,0,24.72-24.54A24.62,24.62,0,0,0,503,2466Z" transform="translate(0 -7.67)"/><path class="cls-20" d="M400.4,2482.13l17.15-57.75a19.88,19.88,0,0,1,15-13.89c53.74-11.13,200.84-13.5,202.32-13.52l-.1-6.52c-6.07.09-149.21,2.39-203.56,13.65a26.47,26.47,0,0,0-20,18.44l-17.14,57.74Z" transform="translate(0 -7.67)"/><rect class="cls-21" x="1813.32" y="2101" width="129.52" height="1390.45" transform="translate(3756.16 5584.79) rotate(180)"/><path class="cls-22" d="M1982.52,2075.46v387.16c0,26-19.58,47.07-45.76,47.07h-111c-26.19,0-49-21.08-49-47.07V2075.46Z" transform="translate(0 -7.67)"/><path class="cls-23" d="M1310.89,3434.57H2445.27a0,0,0,0,1,0,0v79.62a4.08,4.08,0,0,1-4.08,4.08H1314.68a3.78,3.78,0,0,1-3.78-3.78v-79.91A0,0,0,0,1,1310.89,3434.57Z" transform="translate(3756.16 6945.16) rotate(180)"/><path class="cls-24" d="M2318.66,3527.14c0,44.67,36.47,80.88,81.47,80.88s81.48-36.21,81.48-80.88-36.48-80.89-81.48-80.89S2318.66,3482.46,2318.66,3527.14Z" transform="translate(0 -7.67)"/><path class="cls-25" d="M2357.25,3525a40.74,40.74,0,1,0,40.74-40.45A40.59,40.59,0,0,0,2357.25,3525Z" transform="translate(0 -7.67)"/><path class="cls-26" d="M1315.19,3527.14c0,44.67,36.48,80.88,81.48,80.88s81.48-36.21,81.48-80.88-36.48-80.89-81.48-80.89S1315.19,3482.46,1315.19,3527.14Z" transform="translate(0 -7.67)"/><path class="cls-27" d="M1353.79,3525a40.74,40.74,0,1,0,40.73-40.45A40.59,40.59,0,0,0,1353.79,3525Z" transform="translate(0 -7.67)"/><path class="cls-28" d="M2381.93,2127.93s-349.69-92.19-368.75-92.19H1039.69c-65,0-118.14,52.78-118.14,117.28v106.05c0,64.51,53.16,117.28,118.14,117.28h973.49a117.73,117.73,0,0,0,26.73-3.16C2153.92,2354.47,2267.93,2295.49,2381.93,2127.93Z" transform="translate(0 -7.67)"/><path class="cls-29" d="M2368.36,2147.35c1708.44-2613.81-682.2-2935.22-746.75-251.49Z" transform="translate(0 -7.67)"/><path class="cls-30" d="M2244.47,2107.8a83.16,83.16,0,0,0,78.26-39.23c267.18-437.41,373.5-825.92,420.71-1087C2782.79,764,2884.19,203.3,2647.2,59.86c-61.49-37.22-136-40.47-192-42.91C2226.09,7,2056.48,135.28,2011.89,169c-90.56,68.52-242.54,225.41-360.31,1078.27a7822,7822,0,0,0-69.14,802.52Z" transform="translate(0 -7.67)"/><path class="cls-31" d="M3055.87,1823.7s-198.73,252.58,28,509.49l85.24-7.89s-164.09-261.56-91-470.06l120.75,8.75,66.77-43.2Z" transform="translate(0 -7.67)"/><path class="cls-32" d="M2212.75,1008.76,3569.8,939.2c26.61-1.36,49,14.59,49.82,35.44l30.65,815.78c.79,21-20.6,38.73-47.41,39.29-245.7,5.12-1336.52,28-1384.55,31.73-47.47,3.66-51-652.6-51.19-814.55C2167.1,1026.86,2187.21,1010.07,2212.75,1008.76Z" transform="translate(0 -7.67)"/><path class="cls-20" d="M2240.08,1831.87l-.94-3.42c-20.44-74.58-33.91-381.65-34.29-782.29,0-4.69,4.19-8.57,9.53-8.84l1357-69.55a10.79,10.79,0,0,1,6.86,1.92,8.28,8.28,0,0,1,3.62,6.46l30.64,815.78c.19,4.81-4.08,8.92-9.52,9.16h-.3c-195.54,4.08-1180.05,24.72-1359.09,30.66ZM3572.13,976.72h-.26l-1357,69.55a1.67,1.67,0,0,0-1.09.38c.51,393.52,13.46,696.51,33.21,776,188.31-6.09,1161.31-26.49,1355.58-30.54h.29a1.42,1.42,0,0,0,.82-.35l-30.77-815.3C3572.78,976.73,3572.48,976.73,3572.13,976.72Z" transform="translate(0 -7.67)"/><path class="cls-33" d="M2311.62,1342.9l31.78-1.1a13.33,13.33,0,0,1,8.43,2.18,15.12,15.12,0,0,1,5.06,6.23l54.32,126.5q2.72,6.16,5.24,13.57t4.88,15.63a180.45,180.45,0,0,1,7.3-29.81l45.13-130a15.21,15.21,0,0,1,4.47-6.26,12.76,12.76,0,0,1,8.25-3.06l31.78-1.1-78.11,213.2-35.58,1.24Z" transform="translate(0 -7.67)"/><path class="cls-33" d="M2709.18,1539.57l-30.46,1.06a13.38,13.38,0,0,1-8.51-2.25,14.41,14.41,0,0,1-5-6.16l-17.33-42.34-87.73,3-14.3,43.44a13.71,13.71,0,0,1-4.4,6.26,13,13,0,0,1-8.32,3.06l-30.61,1.06,75.77-213.12,40.27-1.4ZM2569.31,1465l67.51-2.35-28.25-69c-1.27-3.06-2.7-6.67-4.26-10.84s-3.12-8.7-4.66-13.59q-1.79,7.48-3.54,13.95t-3.49,11.33Z" transform="translate(0 -7.67)"/><path class="cls-33" d="M2867.36,1484.43a7.46,7.46,0,0,1,5.65,2.28l16.11,16.18a85,85,0,0,1-30.85,25.38q-18.51,9.09-44.88,10-23.59.83-42.68-6.53a93.67,93.67,0,0,1-32.93-21.12,97.34,97.34,0,0,1-21.63-33.31,126.76,126.76,0,0,1-8.63-42.94q-.83-23.7,6.38-43.67A99.34,99.34,0,0,1,2735,1356a100.67,100.67,0,0,1,33.55-23.36q19.71-8.62,43.88-9.46,23.58-.83,41.49,6a96.51,96.51,0,0,1,30.94,18.79l-12.54,18.63a11.83,11.83,0,0,1-2.89,3.16,8.57,8.57,0,0,1-5,1.49,11.63,11.63,0,0,1-7-2.38,83.19,83.19,0,0,0-9.13-5.36,72.13,72.13,0,0,0-13.89-5.19q-8.37-2.34-21.11-1.89a71.5,71.5,0,0,0-27.28,6.11,61.32,61.32,0,0,0-21,15.51,68,68,0,0,0-13.23,23.82,88.8,88.8,0,0,0-4,31.07q.61,17.74,6.16,31.38a69.22,69.22,0,0,0,14.52,22.78,58.45,58.45,0,0,0,20.86,13.76,63.49,63.49,0,0,0,25.37,4.14,111.49,111.49,0,0,0,14.54-1.38,61.8,61.8,0,0,0,11.91-3.18,53.07,53.07,0,0,0,10.23-5.24,63.6,63.6,0,0,0,9.47-7.67,14.15,14.15,0,0,1,3-2.22A8,8,0,0,1,2867.36,1484.43Z" transform="translate(0 -7.67)"/><path class="cls-33" d="M3106.06,1525.77l-30.46,1.06a13.37,13.37,0,0,1-8.51-2.25,14.5,14.5,0,0,1-5-6.16l-17.33-42.34-87.72,3.05-14.3,43.43a13.71,13.71,0,0,1-4.4,6.27,13,13,0,0,1-8.32,3.06l-30.61,1.06,75.76-213.12,40.28-1.4Zm-139.88-74.61,67.52-2.35-28.25-69q-1.92-4.6-4.26-10.85t-4.66-13.59q-1.8,7.48-3.54,14t-3.49,11.33Z" transform="translate(0 -7.67)"/><path class="cls-33" d="M3145.52,1314.13a10,10,0,0,1,3.17.77,10.47,10.47,0,0,1,2.78,1.79,30.66,30.66,0,0,1,3,3.17l116.12,136.73q-.77-5.08-1.16-9.94c-.26-3.23-.44-6.27-.54-9.08l-4.51-127.8,34.71-1.2,7.42,210.23-20.36.71a18.13,18.13,0,0,1-7.81-1.19,17.13,17.13,0,0,1-6.19-5l-115.66-136.16c.41,3.09.73,6.17,1,9.21s.43,5.83.52,8.35l4.55,129.11-34.71,1.2-7.42-210.23,20.65-.72A35.92,35.92,0,0,1,3145.52,1314.13Z" transform="translate(0 -7.67)"/><path class="cls-33" d="M3491.13,1301.89l1.13,32.14-63.71,2.21,6.29,178.1-39.4,1.37-6.28-178.1-64,2.23L3324,1307.7Z" transform="translate(0 -7.67)"/><path class="cls-34" d="M3164.71,3060.36s161,348.38,245.49,492.67c0,0,16.78,90.8,0,119.35l-14.3,6.31,66.74-2s5.92-122.13,1.3-128.95-13.89-6.38-13.89-6.38-28.62-225-111.49-273.08l-80.31-274.61Z" transform="translate(0 -7.67)"/><path class="cls-35" d="M3367.4,3695.79c-.1,1.6,52.11.87,80.47.36a22.52,22.52,0,0,0,21.63-17.66l21.42-111.7a20.08,20.08,0,0,0-15.36-23.34l-12-2.71s-17,23.23-11.68,45.09,10.14,78.51-3.43,85.11-52.59,7.75-52.59,7.75S3368.29,3681.41,3367.4,3695.79Z" transform="translate(0 -7.67)"/><path class="cls-36" d="M3012.1,3697.82a5.84,5.84,0,0,0,3,10.93c47.46-.47,153.82-2,163.27-5.86,12.2-5-4.45-48.56-22-63.3l-96.74,31.35Z" transform="translate(0 -7.67)"/><path class="cls-37" d="M2982.07,3038.14s104,499.7,133.49,597.17l-69.64,43.38s34.9-5.89,60.77-7.75,49.68-31.35,49.68-31.35l-8.34-13.2s-26.1-497-19.74-553.41Z" transform="translate(0 -7.67)"/><path class="cls-38" d="M2723.78,1872.59s-14.35,259.94,224,392.77l-57.39,129.95s-215.83-129.6-207.85-483.06a40.93,40.93,0,0,0-10.13-27.68l-45.87-52.83a81.32,81.32,0,0,1-17.52-73.21l6-24a12.55,12.55,0,0,1,18.43-7.73l4.8,2.77a83.78,83.78,0,0,1,34.57,38.15l22.53,50a48.46,48.46,0,0,0,48.34,28.25l13.93-1.2Z" transform="translate(0 -7.67)"/><path class="cls-39" d="M2939.52,2245.88c39.89,11,175,46.27,259.35,44.83l-51.79,290.13,4.13,47.32-168.86-.75s-47.54-109.59-85-164.23c-10.83-15.78-2.77-34.6,3.37-52.7l-8.43-5.57a22.72,22.72,0,0,1-9.11-26.06l41.12-124.9A12.59,12.59,0,0,1,2939.52,2245.88Z" transform="translate(0 -7.67)"/><path class="cls-40" d="M2968.82,2602.64l3.32,28.67s-47.72,141.87,23.86,473.22c0,0,155,43.59,282.43-60.73,0,0-35.94-312.74-45.75-327.31-48.9-72.56-81.47-88.33-81.47-88.33l-1.47-31.32S3013.46,2621.3,2968.82,2602.64Z" transform="translate(0 -7.67)"/><path class="cls-41" d="M3034.92,2269.27c-.59-.78,35.25-107.44,35.25-107.44l51.34,4.63,20.06,121S3061.1,2303.58,3034.92,2269.27Z" transform="translate(0 -7.67)"/><path class="cls-42" d="M3109.22,1993.63c-3.42,2.12-109.71,45.73-86.88,155.28a20.58,20.58,0,0,0,11.79,14.65c15.59,6.91,49.17,18.73,89.34,14.68,55.68-5.62,92.17-102.08,90.62-130.15S3143.15,1972.66,3109.22,1993.63Z" transform="translate(0 -7.67)"/><path class="cls-43" d="M3141.57,1951.05c-2.79.36-61.42,20.63-32.35,62.81s40,67,26.23,85.52c-12.53,16.88-40.28,7.26-37.86,42.36a19.64,19.64,0,0,1-8.45,17.8c-26.16,17.58-90,71.67-26.75,148.82a19.53,19.53,0,0,1,2.24,22c-18.52,33-57.41,129.56,83.4,183.14,139.14,52.94,189.38-37.35,203.41-73.44a19.41,19.41,0,0,1,19.2-12.19c15.29.71,37-1.81,36-22.1-.6-12.32-8.35-23.36-17.5-32.21s-7.27-24.1,3.73-30.3c8.3-4.69,15.65-12,18.76-23.41,8.43-31-8.4-123.77-98-139.49-7.47-1.31-15.29-8.26-16.38-15.72,0-.11,0-.22-.05-.33-1.2-7.21,1.25-14.58,7.19-18.9,14.3-10.41,32.64-31.38,17.74-65-13.21-29.82-38.55-39.88-57.37-43.08a19.38,19.38,0,0,1-16-23.15C3255.13,1984.5,3249.59,1937,3141.57,1951.05Z" transform="translate(0 -7.67)"/><path class="cls-44" d="M921.3,919.32a13.46,13.46,0,0,1-18.84,2c-11.17-9-22.9-17.61-34.86-25.66a13.24,13.24,0,0,1-3.73-18.25l.15-.21a13.45,13.45,0,0,1,18.6-3.55c12.59,8.46,24.94,17.55,36.7,27a13.24,13.24,0,0,1,2.81,17.57C921.87,918.57,921.6,919,921.3,919.32ZM806.66,860.45C793.71,854.1,780.37,848.25,767,843a13.26,13.26,0,0,1-7.59-17.23,13.43,13.43,0,0,1,17.36-7.53c14.08,5.48,28.13,11.65,41.76,18.32a13.26,13.26,0,0,1,6.08,17.81,12.22,12.22,0,0,1-.79,1.37A13.44,13.44,0,0,1,806.66,860.45Zm-106.9-38.34c-14-3.32-28.33-6.07-42.58-8.18a13.3,13.3,0,1,1,4-26.3c15,2.22,30.1,5.12,44.84,8.61a13.31,13.31,0,0,1,9.93,16,13.16,13.16,0,0,1-1.8,4.16A13.43,13.43,0,0,1,699.76,822.11ZM586.91,808.47c-14.42-.13-29,.37-43.37,1.47a13.3,13.3,0,1,1-2.06-26.52c15.12-1.15,30.48-1.67,45.65-1.55a13.34,13.34,0,0,1,13.28,13.41,13.15,13.15,0,0,1-2.15,7.12A13.39,13.39,0,0,1,586.91,808.47ZM473.8,820.12c-14.05,3-28.17,6.75-42,11a13.42,13.42,0,0,1-16.76-8.78,13.28,13.28,0,0,1,8.85-16.63c14.51-4.45,29.37-8.33,44.15-11.54A13.38,13.38,0,0,1,484,804.3a13.16,13.16,0,0,1-1.85,10.08A13.34,13.34,0,0,1,473.8,820.12ZM366.12,856.33c-13.05,6.07-26,12.77-38.47,19.92a13.45,13.45,0,0,1-18.29-4.87,13.24,13.24,0,0,1,4.9-18.17c13.14-7.52,26.77-14.57,40.49-21a13.45,13.45,0,0,1,17.82,6.4,13.27,13.27,0,0,1-6.45,17.68ZM64.23,1248.77A13.3,13.3,0,0,1,53,1233.64c2.26-14.88,5.21-29.86,8.76-44.52a13.39,13.39,0,0,1,26,6.21c-3.37,13.93-6.17,28.15-8.31,42.28a13.22,13.22,0,0,1-2,5.25A13.43,13.43,0,0,1,64.23,1248.77Zm205-333.47c-11.35,8.79-22.46,18.18-33,27.91a13.46,13.46,0,0,1-18.93-.7,13.24,13.24,0,0,1,.7-18.79c11.11-10.24,22.81-20.13,34.76-29.39a13.47,13.47,0,0,1,18.8,2.31,13.23,13.23,0,0,1-2.32,18.66ZM91.64,1136.12a13.28,13.28,0,0,1-7.55-17.25c5.56-14,11.8-27.94,18.55-41.44a13.41,13.41,0,0,1,18-6,13.26,13.26,0,0,1,6,17.82c-6.41,12.83-12.34,26.08-17.62,39.38a13.3,13.3,0,0,1-1.24,2.37A13.45,13.45,0,0,1,91.64,1136.12Zm96.47-141.85c-9.07,11.08-17.79,22.7-25.9,34.54a13.46,13.46,0,0,1-18.61,3.52,13.24,13.24,0,0,1-3.7-18.24,1.88,1.88,0,0,1,.16-.23c8.53-12.47,17.71-24.7,27.26-36.37a13.47,13.47,0,0,1,18.85-1.93A13.24,13.24,0,0,1,189,993.11C188.7,993.5,188.42,993.89,188.11,994.27Z" transform="translate(0 -7.67)"/><path class="cls-44" d="M71.91,1336.07a13.11,13.11,0,0,0,2.15-7.65c-.22-6.85-.29-13.82-.23-20.72a13.39,13.39,0,0,0-26.78-.24c-.07,7.25,0,14.58.24,21.79a13.41,13.41,0,0,0,24.62,6.82Z" transform="translate(0 -7.67)"/><path class="cls-44" d="M243.1,1704.13a13.25,13.25,0,0,0-2.25-17.1c-5.13-4.59-10.24-9.37-15.19-14.21a13.48,13.48,0,0,0-18.95.17,13.23,13.23,0,0,0,.17,18.81c5.22,5.08,10.6,10.12,16,15a13.47,13.47,0,0,0,18.92-.94A13.83,13.83,0,0,0,243.1,1704.13Z" transform="translate(0 -7.67)"/><path class="cls-44" d="M1015.52,1624.49a13.46,13.46,0,0,1-18.7,3,13.23,13.23,0,0,1-3-18.56c8.24-11.34,16.13-23.2,23.53-35.39a13.45,13.45,0,0,1,18.39-4.51,13.24,13.24,0,0,1,4.55,18.25q-4.8,7.92-9.84,15.62C1025.63,1610.21,1020.62,1617.48,1015.52,1624.49Zm40.52-94.72a13.28,13.28,0,0,1-7-17.48c5.62-13,10.76-26.27,15.25-39.6a13.41,13.41,0,0,1,17-8.39,13.27,13.27,0,0,1,8.45,16.83c-4.73,14-10.13,28.06-16,41.69a13.37,13.37,0,0,1-17.6,7Zm-87.2,150.42c-10.29,10.7-21.18,21.11-32.38,30.94a13.47,13.47,0,0,1-18.91-1.16,13.23,13.23,0,0,1,1.17-18.77c10.63-9.33,21-19.21,30.75-29.37a13.47,13.47,0,0,1,18.94-.44,13.24,13.24,0,0,1,2,16.85A13.08,13.08,0,0,1,968.84,1680.19Zm123.59-258.6a13.29,13.29,0,0,1-10.69-15.52c2.61-13.83,4.66-27.94,6.09-41.94a13.39,13.39,0,0,1,26.65,2.68c-1.5,14.74-3.66,29.6-6.42,44.17a13.11,13.11,0,0,1-1.92,4.79A13.44,13.44,0,0,1,1092.43,1421.59ZM878.62,1755.24c-12.4,8.18-25.33,16-38.43,23.1a13.46,13.46,0,0,1-18.19-5.25,13.24,13.24,0,0,1,5.29-18.06c12.44-6.79,24.72-14.17,36.5-21.94a13.46,13.46,0,0,1,18.57,3.71,13.24,13.24,0,0,1,.08,14.62A13.49,13.49,0,0,1,878.62,1755.24ZM774,1808.82c-13.94,5.31-28.26,10.09-42.58,14.22a13.4,13.4,0,0,1-16.6-9.06,13.26,13.26,0,0,1,9.12-16.47c13.61-3.93,27.22-8.48,40.47-13.52a13.42,13.42,0,0,1,17.3,7.66,13.17,13.17,0,0,1-1.28,12A13.33,13.33,0,0,1,774,1808.82ZM660.1,1838.5c-14.78,2.17-29.82,3.74-44.69,4.68a13.3,13.3,0,1,1-1.69-26.55c14.13-.88,28.41-2.38,42.46-4.44a13.37,13.37,0,0,1,15.21,11.21,13.17,13.17,0,0,1-2,9.18A13.4,13.4,0,0,1,660.1,1838.5Zm-117.7,4.3c-14.9-1.09-29.93-2.83-44.66-5.16a13.3,13.3,0,1,1,4.22-26.26c14,2.22,28.26,3.86,42.41,4.9a13.32,13.32,0,0,1,12.37,14.24,13.1,13.1,0,0,1-2.12,6.25A13.4,13.4,0,0,1,542.4,1842.8Zm-115.85-21.49C412.3,1817,398,1812,384.17,1806.52a13.27,13.27,0,0,1-7.47-17.28,13.45,13.45,0,0,1,17.41-7.42c13.18,5.23,26.72,10,40.26,14.06a13.27,13.27,0,0,1,7.32,20A13.45,13.45,0,0,1,426.55,1821.31Zm-108.14-46.17c-9.56-5.37-19.07-11.1-28.26-17q-5-3.22-9.89-6.53a13.09,13.09,0,0,1-3.52-18.48,13.46,13.46,0,0,1,18.61-3.5q4.65,3.15,9.4,6.21c8.74,5.64,17.77,11.09,26.86,16.2a13.24,13.24,0,0,1,5.05,18.12c-.14.24-.28.47-.43.7A13.44,13.44,0,0,1,318.41,1775.14Z" transform="translate(0 -7.67)"/><path class="cls-44" d="M1114.68,1301.75a13.21,13.21,0,0,0,2.15-7.72c-.26-7.2-.69-14.52-1.26-21.77a13.39,13.39,0,0,0-26.7,2.06c.54,6.89.94,13.84,1.19,20.68a13.42,13.42,0,0,0,24.62,6.75Z" transform="translate(0 -7.67)"/><path class="cls-20" d="M946.67,1146.35a6.27,6.27,0,0,0-5.82-4.32l-76.18-1.66a330.25,330.25,0,0,0-69.48-81.48l10.87-74.81a6.21,6.21,0,0,0-3.33-6.42l-81.26-41.52a6.3,6.3,0,0,0-7.19,1l-55,52.26a334.49,334.49,0,0,0-107.17-8.77L506.46,920.1a6.28,6.28,0,0,0-6.93-2.2l-87,27.69a6.23,6.23,0,0,0-4.35,5.78L406.48,1027a331.25,331.25,0,0,0-82.08,69L249,1085.17a6.26,6.26,0,0,0-6.46,3.31l-41.83,80.67a6.19,6.19,0,0,0,1,7.14l52.65,54.61a327,327,0,0,0-8.83,106.39l-61,45.31a6.17,6.17,0,0,0-2.21,6.87l27.88,86.4a6.27,6.27,0,0,0,5.83,4.32l76.18,1.66a329.82,329.82,0,0,0,69.47,81.48l-10.87,74.82a6.21,6.21,0,0,0,3.33,6.41l81.27,41.52a6.29,6.29,0,0,0,7.19-1l55-52.26a334.49,334.49,0,0,0,107.17,8.77l45.64,60.57a6.27,6.27,0,0,0,6.92,2.2l87-27.69a6.21,6.21,0,0,0,4.34-5.78l1.68-75.62a331.17,331.17,0,0,0,82.07-69l75.37,10.79a6.27,6.27,0,0,0,6.46-3.31l41.82-80.67a6.18,6.18,0,0,0-1-7.14l-52.65-54.61a327.3,327.3,0,0,0,8.84-106.39l61-45.3a6.22,6.22,0,0,0,2.21-6.88Z" transform="translate(0 -7.67)"/><path class="cls-45" d="M647.38,1371.42c-33.5,37.72-91.67,41.36-129.67,8.1a90.74,90.74,0,0,1-8.15-128.72c33.5-37.72,91.66-41.35,129.66-8.1a90.87,90.87,0,0,1,16.32,118.06A92.15,92.15,0,0,1,647.38,1371.42ZM508.17,1315.5a69.25,69.25,0,0,0,23.72,48.06,70.86,70.86,0,0,0,99.41-6.21,69.63,69.63,0,0,0-6.25-98.69,70.7,70.7,0,0,0-105.74,14.47A69,69,0,0,0,508.17,1315.5Z" transform="translate(0 -7.67)"/><path class="cls-45" d="M765.77,1434.1a226.29,226.29,0,0,0,11.65-19.94h0c1.13-2.16,2.21-4.35,3.27-6.55a224.91,224.91,0,0,0,12.87-33.56c0-.16.09-.31.13-.47.13-.44.26-.89.38-1.33.25-.87.49-1.74.73-2.6a5.32,5.32,0,0,0-2.25-5.85,5.62,5.62,0,0,0-1.54-.67,5.36,5.36,0,0,0-6.56,3.75,214.09,214.09,0,0,1-16.55,42.41C733,1476.6,666.86,1517.72,596,1524.22A216.74,216.74,0,0,1,459,1490.44a212.77,212.77,0,0,1-73.7-276.64C439.58,1109,569.55,1067.72,675,1121.62A218.1,218.1,0,0,1,694,1132.51a213.74,213.74,0,0,1,65.38,66.22,5.35,5.35,0,0,0,9.1-5.62,224.43,224.43,0,0,0-68.64-69.52q-9.59-6.18-19.84-11.43c-110.76-56.59-247.24-13.14-304.23,96.77a223.4,223.4,0,0,0,77.37,290.42,228.67,228.67,0,0,0,20.11,11.58,226.85,226.85,0,0,0,292.57-76.83Z" transform="translate(0 -7.67)"/><path class="cls-44" d="M1467.17,728.64a8.16,8.16,0,0,0-.66-9.82c-4.57-5.29-9.37-10.52-14.26-15.54a8.32,8.32,0,0,0-11.69-.19,8.16,8.16,0,0,0-.2,11.62c4.66,4.78,9.23,9.76,13.6,14.81a8.31,8.31,0,0,0,11.66.88A8,8,0,0,0,1467.17,728.64Z" transform="translate(0 -7.67)"/><path class="cls-44" d="M1421,685.35a8.31,8.31,0,0,1-11.63,1.24,345.39,345.39,0,0,0-28.11-20.22q-3.06-2-6.18-3.89a8.18,8.18,0,0,1-2.67-11.31,8.61,8.61,0,0,1,11.4-2.64c2.18,1.34,4.33,2.69,6.47,4.07a360.83,360.83,0,0,1,29.47,21.2,8.19,8.19,0,0,1,1.75,10.87C1421.33,684.9,1421.16,685.12,1421,685.35Zm-82.91-42.66a341.93,341.93,0,0,0-39.13-15.15,8.21,8.21,0,0,1-5.35-10.33A8.3,8.3,0,0,1,1304,611.9a357.59,357.59,0,0,1,41,15.89,8.19,8.19,0,0,1,4,10.9,8.56,8.56,0,0,1-.58,1A8.31,8.31,0,0,1,1338.07,642.69Zm-79.86-25.39a343.22,343.22,0,0,0-41.69-5.15,8.21,8.21,0,1,1,1-16.39,358.67,358.67,0,0,1,43.73,5.39,8.22,8.22,0,0,1,6.6,9.59,8.25,8.25,0,0,1-9.66,6.56Zm-83.71-5.14a344.53,344.53,0,0,0-41.68,5.14,8.22,8.22,0,1,1-3-16.15,361.57,361.57,0,0,1,43.71-5.38,8.24,8.24,0,0,1,8.77,7.69,8.1,8.1,0,0,1-1.32,5A8.27,8.27,0,0,1,1174.5,612.16Zm-82.43,15.31a344.72,344.72,0,0,0-39.18,15,8.31,8.31,0,0,1-11-4,8.18,8.18,0,0,1,4.08-10.89,359.85,359.85,0,0,1,41.06-15.76,8.29,8.29,0,0,1,10.39,5.34,8.17,8.17,0,0,1-1,7A8.32,8.32,0,0,1,1092.07,627.47Zm-76.2,34.7a340.29,340.29,0,0,0-34.26,24.05A8.32,8.32,0,0,1,970,685a8.18,8.18,0,0,1,1.26-11.55,353.81,353.81,0,0,1,35.94-25.22,8.3,8.3,0,0,1,11.38,2.67,8.18,8.18,0,0,1-2.69,11.3Zm-65.3,52.13A338.34,338.34,0,0,0,923.28,746a8.32,8.32,0,0,1-11.59,1.61,8.21,8.21,0,0,1-1.63-11.5,354.64,354.64,0,0,1,28.63-33.22,8.32,8.32,0,0,1,11.7-.19,8.19,8.19,0,0,1,1.18,10.37A8.9,8.9,0,0,1,950.57,714.3Zm-80,108.19a8.19,8.19,0,0,1-4.39-10.77,357.09,357.09,0,0,1,16.79-34.13c.93-1.69,1.88-3.35,2.85-5a8.26,8.26,0,0,1,14.32,8.23c-.91,1.56-1.8,3.13-2.69,4.74a337.82,337.82,0,0,0-16,32.59,9.22,9.22,0,0,1-.69,1.28A8.32,8.32,0,0,1,870.54,822.49Z" transform="translate(0 -7.67)"/><path class="cls-44" d="M1492.15,1147.26a358.8,358.8,0,0,1-26.2,34.24,8.32,8.32,0,0,1-11.67.87,8.23,8.23,0,0,1-.88-11.59,338.87,338.87,0,0,0,25-32.65,8.31,8.31,0,0,1,11.47-2.26,8.18,8.18,0,0,1,2.35,11.3Zm10.75-33.53a8.17,8.17,0,0,1-3.64-11,341.53,341.53,0,0,0,16.45-37.65,8.31,8.31,0,0,1,10.61-4.9,8.19,8.19,0,0,1,4.94,10.52,357.61,357.61,0,0,1-17.24,39.45q-.21.41-.45.78A8.3,8.3,0,0,1,1502.9,1113.73Zm-67.17,98.61a360.32,360.32,0,0,1-33.76,26.94,8.32,8.32,0,0,1-11.54-2,8.18,8.18,0,0,1,2-11.45,342.09,342.09,0,0,0,32.21-25.69,8.31,8.31,0,0,1,11.68.55,8.17,8.17,0,0,1,.82,10A8.36,8.36,0,0,1,1435.73,1212.34Zm97.91-176.78a8.2,8.2,0,0,1-6.2-9.84,336.4,336.4,0,0,0,6.8-40.47A8.27,8.27,0,0,1,1550.7,987a350.65,350.65,0,0,1-7.14,42.44,8.25,8.25,0,0,1-9.92,6.16Zm-168.47,226.37a359.74,359.74,0,0,1-39.3,18.08,8.28,8.28,0,0,1-10.72-4.65,8.18,8.18,0,0,1,4.68-10.64,341.4,341.4,0,0,0,37.48-17.25,8.31,8.31,0,0,1,11.21,3.33,8.14,8.14,0,0,1-.35,8.38A8.3,8.3,0,0,1,1365.17,1261.93Zm-80.5,31.35a363,363,0,0,1-42.52,8.23,8.21,8.21,0,1,1-2.18-16.28,347.43,347.43,0,0,0,40.57-7.86,8.28,8.28,0,0,1,10.07,5.9,8.11,8.11,0,0,1-1.07,6.53A8.28,8.28,0,0,1,1284.67,1293.28Zm-85.75,11.31a359.06,359.06,0,0,1-43.28-2.14,8.21,8.21,0,1,1,1.82-16.32,342.35,342.35,0,0,0,41.27,2,8.24,8.24,0,0,1,8.37,8.12,8.08,8.08,0,0,1-1.33,4.56A8.27,8.27,0,0,1,1198.92,1304.59Z" transform="translate(0 -7.67)"/><path class="cls-44" d="M1551.24,948.21a8.14,8.14,0,0,0,1.33-4.62c-.13-7-.47-14.09-1-21a8.28,8.28,0,0,0-16.5,1.28c.52,6.57.84,13.3,1,20a8.29,8.29,0,0,0,15.21,4.32Z" transform="translate(0 -7.67)"/><path class="cls-20" d="M1439.22,838.31a4.19,4.19,0,0,0-3.9-2.89l-51-1.12a221.13,221.13,0,0,0-46.49-54.52l7.27-50.06a4.14,4.14,0,0,0-2.23-4.29l-54.37-27.78a4.2,4.2,0,0,0-4.82.69l-36.81,35a223.79,223.79,0,0,0-71.71-5.87l-30.54-40.53a4.21,4.21,0,0,0-4.63-1.47L1081.78,704a4.17,4.17,0,0,0-2.91,3.87l-1.12,50.61a221.44,221.44,0,0,0-54.92,46.15l-50.44-7.22a4.19,4.19,0,0,0-4.32,2.21l-28,54a4.14,4.14,0,0,0,.69,4.78L976,894.88a219,219,0,0,0-5.91,71.2l-40.83,30.31a4.14,4.14,0,0,0-1.48,4.6l18.66,57.82a4.18,4.18,0,0,0,3.9,2.88l51,1.12a221.13,221.13,0,0,0,46.49,54.52l-7.27,50.06a4.14,4.14,0,0,0,2.23,4.29l54.38,27.79a4.21,4.21,0,0,0,4.81-.7l36.81-35a223.51,223.51,0,0,0,71.71,5.87L1241,1210.2a4.21,4.21,0,0,0,4.63,1.47l58.24-18.52a4.16,4.16,0,0,0,2.91-3.87l1.12-50.6a221.92,221.92,0,0,0,54.93-46.16l50.43,7.23a4.2,4.2,0,0,0,4.32-2.22l28-54a4.16,4.16,0,0,0-.7-4.78l-35.23-36.54a219,219,0,0,0,5.91-71.19l40.83-30.32a4.14,4.14,0,0,0,1.48-4.6Z" transform="translate(0 -7.67)"/><path class="cls-45" d="M1239.78,989.63a62.38,62.38,0,0,1-93.88-82.16,63,63,0,0,1,88.32-5.51,61.82,61.82,0,0,1,11.17,80.34A63.27,63.27,0,0,1,1239.78,989.63Zm-77.39-6.8a46.27,46.27,0,0,0,65-4.05h0a45.46,45.46,0,0,0-4.08-64.5,46.32,46.32,0,0,0-65,4.05,44.87,44.87,0,0,0-4.09,5.35A45.52,45.52,0,0,0,1162.39,982.83Z" transform="translate(0 -7.67)"/><path class="cls-45" d="M1322.18,1033.25a155.12,155.12,0,0,0,19.56-43c.13-.45.25-.91.38-1.37a8.21,8.21,0,0,0-3.47-9,8.71,8.71,0,0,0-2.37-1,8.3,8.3,0,0,0-10.14,5.79,137.88,137.88,0,0,1-10.71,27.46h0c-.24.48-.5,1-.75,1.44a137.28,137.28,0,0,1-45.67,50.31,140,140,0,0,1-33.73,16.28l-.29.1-.9.29a139.39,139.39,0,0,1-106.26-8.74,141.48,141.48,0,0,1-12.4-7.14,138,138,0,0,1,33.64-247.5,139.72,139.72,0,0,1,160.82,58.65,8.08,8.08,0,0,0,2.52,2.55,8.3,8.3,0,0,0,8.87.09,8.18,8.18,0,0,0,2.66-11.31A156.39,156.39,0,0,0,1053,878.05a154.12,154.12,0,0,0,53.38,200.37q6.67,4.3,13.87,8C1191.91,1123,1279.18,1099,1322.18,1033.25Z" transform="translate(0 -7.67)"/></g></svg>