<svg xmlns="http://www.w3.org/2000/svg" xmlns:xlink="http://www.w3.org/1999/xlink" viewBox="0 0 400 400"><defs><style>.cls-1{isolation:isolate;}.cls-109,.cls-2{fill:#e7ecff;}.cls-3{fill:url(#Áåçûìÿííûé_ãðàäèåíò_50);}.cls-100,.cls-101,.cls-104,.cls-105,.cls-106,.cls-110,.cls-111,.cls-119,.cls-12,.cls-122,.cls-123,.cls-124,.cls-128,.cls-129,.cls-130,.cls-131,.cls-132,.cls-133,.cls-134,.cls-135,.cls-136,.cls-137,.cls-138,.cls-139,.cls-14,.cls-140,.cls-145,.cls-149,.cls-150,.cls-151,.cls-152,.cls-153,.cls-154,.cls-156,.cls-157,.cls-158,.cls-159,.cls-160,.cls-161,.cls-20,.cls-21,.cls-28,.cls-29,.cls-30,.cls-31,.cls-38,.cls-39,.cls-4,.cls-40,.cls-41,.cls-42,.cls-43,.cls-44,.cls-45,.cls-46,.cls-47,.cls-48,.cls-49,.cls-50,.cls-51,.cls-52,.cls-54,.cls-56,.cls-57,.cls-58,.cls-59,.cls-60,.cls-61,.cls-62,.cls-63,.cls-66,.cls-67,.cls-68,.cls-69,.cls-71,.cls-72,.cls-74,.cls-78,.cls-81,.cls-82,.cls-9,.cls-91,.cls-92,.cls-93,.cls-94,.cls-95,.cls-97,.cls-98,.cls-99{mix-blend-mode:multiply;}.cls-4{fill:url(#Áåçûìÿííûé_ãðàäèåíò_208);}.cls-5{fill:url(#Áåçûìÿííûé_ãðàäèåíò_95);}.cls-6{fill:url(#Áåçûìÿííûé_ãðàäèåíò_143);}.cls-7{fill:url(#Áåçûìÿííûé_ãðàäèåíò_133);}.cls-8{fill:url(#Áåçûìÿííûé_ãðàäèåíò_79);}.cls-9{fill:#ed90bc;}.cls-10{fill:url(#Áåçûìÿííûé_ãðàäèåíò_26);}.cls-11{fill:url(#Áåçûìÿííûé_ãðàäèåíò_177);}.cls-12{fill:#eb90bc;}.cls-13{fill:url(#Áåçûìÿííûé_ãðàäèåíò_111);}.cls-14{fill:#e0a1c6;}.cls-15{fill:url(#Áåçûìÿííûé_ãðàäèåíò_95-2);}.cls-16{fill:url(#Áåçûìÿííûé_ãðàäèåíò_26-2);}.cls-17{fill:url(#Áåçûìÿííûé_ãðàäèåíò_159);}.cls-18{fill:url(#Áåçûìÿííûé_ãðàäèåíò_54);}.cls-19{fill:url(#Áåçûìÿííûé_ãðàäèåíò_177-2);}.cls-20{fill:url(#Áåçûìÿííûé_ãðàäèåíò_200);}.cls-21{fill:#feb1c8;}.cls-22{fill:url(#Áåçûìÿííûé_ãðàäèåíò_54-2);}.cls-23{fill:url(#Áåçûìÿííûé_ãðàäèåíò_149);}.cls-24{fill:url(#Áåçûìÿííûé_ãðàäèåíò_248);}.cls-25{fill:url(#Áåçûìÿííûé_ãðàäèåíò_123);}.cls-26{fill:url(#Áåçûìÿííûé_ãðàäèåíò_177-3);}.cls-27{fill:url(#Áåçûìÿííûé_ãðàäèåíò_177-4);}.cls-28{fill:url(#Áåçûìÿííûé_ãðàäèåíò_183);}.cls-29{fill:url(#Áåçûìÿííûé_ãðàäèåíò_183-2);}.cls-30{fill:#a44f63;}.cls-30,.cls-57{opacity:0.62;}.cls-130,.cls-152,.cls-153,.cls-154,.cls-31,.cls-45,.cls-65{opacity:0.5;}.cls-31{fill:url(#Áåçûìÿííûé_ãðàäèåíò_188);}.cls-32{fill:#ffe4ec;}.cls-33{fill:#6c2a51;}.cls-34{fill:#9d86a2;}.cls-35{fill:url(#Áåçûìÿííûé_ãðàäèåíò_170);}.cls-36{fill:url(#Áåçûìÿííûé_ãðàäèåíò_170-2);}.cls-37{fill:url(#Áåçûìÿííûé_ãðàäèåíò_197);}.cls-38{fill:#ce86c8;}.cls-39{fill:url(#Áåçûìÿííûé_ãðàäèåíò_207);}.cls-40{fill:url(#Áåçûìÿííûé_ãðàäèåíò_205);}.cls-41{fill:url(#Áåçûìÿííûé_ãðàäèåíò_206);}.cls-42{fill:url(#Áåçûìÿííûé_ãðàäèåíò_208-2);}.cls-43{fill:#d1729b;}.cls-131,.cls-132,.cls-133,.cls-134,.cls-135,.cls-136,.cls-137,.cls-138,.cls-139,.cls-44{opacity:0.8;}.cls-44{fill:url(#Áåçûìÿííûé_ãðàäèåíò_229);}.cls-45{fill:url(#Áåçûìÿííûé_ãðàäèåíò_207-2);}.cls-46{fill:#e392ad;}.cls-47{fill:url(#Áåçûìÿííûé_ãðàäèåíò_225);}.cls-48{fill:url(#Áåçûìÿííûé_ãðàäèåíò_225-2);}.cls-49{fill:url(#Áåçûìÿííûé_ãðàäèåíò_226);}.cls-50{fill:url(#Áåçûìÿííûé_ãðàäèåíò_225-3);}.cls-51{fill:url(#Áåçûìÿííûé_ãðàäèåíò_225-4);}.cls-52{fill:url(#Áåçûìÿííûé_ãðàäèåíò_225-5);}.cls-53{fill:url(#Áåçûìÿííûé_ãðàäèåíò_177-5);}.cls-54,.cls-72{fill:#fe9dba;}.cls-55{fill:#ffe4db;}.cls-56{fill:#fed2df;}.cls-57{fill:url(#Áåçûìÿííûé_ãðàäèåíò_75);}.cls-58{fill:url(#Áåçûìÿííûé_ãðàäèåíò_236);}.cls-59{fill:url(#Áåçûìÿííûé_ãðàäèåíò_236-2);}.cls-60{fill:url(#Áåçûìÿííûé_ãðàäèåíò_236-3);}.cls-61{fill:url(#Áåçûìÿííûé_ãðàäèåíò_236-4);}.cls-62{fill:url(#Áåçûìÿííûé_ãðàäèåíò_237);}.cls-63{fill:url(#Áåçûìÿííûé_ãðàäèåíò_238);}.cls-155,.cls-64,.cls-65,.cls-73{fill:#fff;}.cls-109,.cls-117,.cls-155,.cls-65,.cls-73{mix-blend-mode:soft-light;}.cls-66{fill:#d190bc;}.cls-67{fill:url(#Áåçûìÿííûé_ãðàäèåíò_238-2);}.cls-68{fill:url(#Áåçûìÿííûé_ãðàäèåíò_239);}.cls-69{fill:url(#Áåçûìÿííûé_ãðàäèåíò_240);}.cls-70{fill:url(#Áåçûìÿííûé_ãðàäèåíò_123-2);}.cls-71{fill:url(#Áåçûìÿííûé_ãðàäèåíò_242);}.cls-72{opacity:0.4;}.cls-74,.cls-75{fill:#4b81ee;}.cls-76{fill:url(#Áåçûìÿííûé_ãðàäèåíò_148);}.cls-77{fill:url(#Áåçûìÿííûé_ãðàäèåíò_26-3);}.cls-78{fill:url(#Áåçûìÿííûé_ãðàäèåíò_200-2);}.cls-79{fill:url(#Áåçûìÿííûé_ãðàäèåíò_26-4);}.cls-80{fill:url(#Áåçûìÿííûé_ãðàäèåíò_26-5);}.cls-81{fill:url(#Áåçûìÿííûé_ãðàäèåíò_200-3);}.cls-82{fill:url(#Áåçûìÿííûé_ãðàäèåíò_200-4);}.cls-83{fill:url(#Áåçûìÿííûé_ãðàäèåíò_257);}.cls-84{fill:url(#Áåçûìÿííûé_ãðàäèåíò_79-2);}.cls-85{fill:url(#Áåçûìÿííûé_ãðàäèåíò_29);}.cls-86{fill:url(#Áåçûìÿííûé_ãðàäèåíò_38);}.cls-87{fill:url(#Áåçûìÿííûé_ãðàäèåíò_198);}.cls-88{fill:url(#Áåçûìÿííûé_ãðàäèåíò_79-3);}.cls-89{fill:url(#Áåçûìÿííûé_ãðàäèåíò_38-2);}.cls-90{fill:url(#Áåçûìÿííûé_ãðàäèåíò_288);}.cls-91{fill:url(#Áåçûìÿííûé_ãðàäèåíò_200-5);}.cls-92{fill:url(#Áåçûìÿííûé_ãðàäèåíò_183-3);}.cls-93{fill:url(#Áåçûìÿííûé_ãðàäèåíò_183-4);}.cls-94{fill:#d1a1c8;}.cls-95{fill:url(#Áåçûìÿííûé_ãðàäèåíò_183-5);}.cls-96{fill:#7f6186;}.cls-97{fill:#bf7988;}.cls-98{fill:url(#Áåçûìÿííûé_ãðàäèåíò_200-6);}.cls-99{fill:url(#Áåçûìÿííûé_ãðàäèåíò_200-7);}.cls-100{fill:url(#Áåçûìÿííûé_ãðàäèåíò_44);}.cls-101{fill:url(#Áåçûìÿííûé_ãðàäèåíò_44-2);}.cls-102{fill:url(#Áåçûìÿííûé_ãðàäèåíò_51);}.cls-103{fill:url(#Áåçûìÿííûé_ãðàäèåíò_51-2);}.cls-104{fill:url(#Áåçûìÿííûé_ãðàäèåíò_53);}.cls-105{fill:url(#Áåçûìÿííûé_ãðàäèåíò_207-3);}.cls-106{fill:url(#Áåçûìÿííûé_ãðàäèåíò_207-4);}.cls-107{fill:url(#Áåçûìÿííûé_ãðàäèåíò_257-2);}.cls-108{fill:url(#Áåçûìÿííûé_ãðàäèåíò_257-3);}.cls-110{fill:url(#Áåçûìÿííûé_ãðàäèåíò_58);}.cls-111{fill:#ffb8cb;}.cls-112{fill:url(#Áåçûìÿííûé_ãðàäèåíò_38-3);}.cls-113{fill:url(#Áåçûìÿííûé_ãðàäèåíò_38-4);}.cls-114{fill:url(#Áåçûìÿííûé_ãðàäèåíò_38-5);}.cls-115{fill:url(#Áåçûìÿííûé_ãðàäèåíò_38-6);}.cls-116{fill:#5143a1;}.cls-117{fill:#5cf1ff;}.cls-118{fill:url(#Áåçûìÿííûé_ãðàäèåíò_257-4);}.cls-119{fill:url(#Áåçûìÿííûé_ãðàäèåíò_200-8);}.cls-120{fill:url(#Áåçûìÿííûé_ãðàäèåíò_67);}.cls-121{fill:url(#Áåçûìÿííûé_ãðàäèåíò_67-2);}.cls-122{fill:url(#Áåçûìÿííûé_ãðàäèåíò_82);}.cls-123{fill:url(#Áåçûìÿííûé_ãðàäèåíò_82-2);}.cls-124{fill:url(#Áåçûìÿííûé_ãðàäèåíò_98);}.cls-125{fill:url(#Áåçûìÿííûé_ãðàäèåíò_89);}.cls-126{fill:url(#Áåçûìÿííûé_ãðàäèåíò_88);}.cls-127{fill:url(#Áåçûìÿííûé_ãðàäèåíò_85);}.cls-128{fill:url(#Áåçûìÿííûé_ãðàäèåíò_183-6);}.cls-129{fill:url(#Áåçûìÿííûé_ãðàäèåíò_183-7);}.cls-130{fill:url(#Áåçûìÿííûé_ãðàäèåíò_100);}.cls-131{fill:url(#Áåçûìÿííûé_ãðàäèåíò_207-5);}.cls-132{fill:url(#Áåçûìÿííûé_ãðàäèåíò_101);}.cls-133{fill:url(#Áåçûìÿííûé_ãðàäèåíò_207-6);}.cls-134{fill:url(#Áåçûìÿííûé_ãðàäèåíò_101-2);}.cls-135{fill:url(#Áåçûìÿííûé_ãðàäèåíò_114);}.cls-136{fill:url(#Áåçûìÿííûé_ãðàäèåíò_207-7);}.cls-137{fill:url(#Áåçûìÿííûé_ãðàäèåíò_207-8);}.cls-138{fill:url(#Áåçûìÿííûé_ãðàäèåíò_207-9);}.cls-139{fill:url(#Áåçûìÿííûé_ãðàäèåíò_207-10);}.cls-140{fill:url(#Áåçûìÿííûé_ãðàäèåíò_207-11);}.cls-141{fill:url(#Áåçûìÿííûé_ãðàäèåíò_26-6);}.cls-142{fill:url(#Áåçûìÿííûé_ãðàäèåíò_108);}.cls-143{fill:url(#Áåçûìÿííûé_ãðàäèåíò_198-2);}.cls-144{fill:url(#Áåçûìÿííûé_ãðàäèåíò_54-3);}.cls-145{fill:#bfa1bc;}.cls-146{fill:url(#Áåçûìÿííûé_ãðàäèåíò_198-3);}.cls-147{fill:url(#Áåçûìÿííûé_ãðàäèåíò_113);}.cls-148{fill:url(#Áåçûìÿííûé_ãðàäèåíò_133-2);}.cls-149{fill:#ebc2d4;}.cls-150{fill:url(#Áåçûìÿííûé_ãðàäèåíò_183-8);}.cls-151{fill:url(#Áåçûìÿííûé_ãðàäèåíò_183-9);}.cls-152{fill:url(#Áåçûìÿííûé_ãðàäèåíò_114-2);}.cls-153{fill:url(#Áåçûìÿííûé_ãðàäèåíò_114-3);}.cls-154{fill:url(#Áåçûìÿííûé_ãðàäèåíò_200-9);}.cls-155{opacity:0.2;}.cls-156{fill:url(#Áåçûìÿííûé_ãðàäèåíò_115);}.cls-157{fill:url(#Áåçûìÿííûé_ãðàäèåíò_115-2);}.cls-158{fill:url(#Áåçûìÿííûé_ãðàäèåíò_116);}.cls-159{fill:url(#Áåçûìÿííûé_ãðàäèåíò_116-2);}.cls-160{fill:url(#Áåçûìÿííûé_ãðàäèåíò_98-2);}.cls-161{fill:url(#Áåçûìÿííûé_ãðàäèåíò_98-3);}.cls-162{fill:url(#Áåçûìÿííûé_ãðàäèåíò_79-4);}</style><linearGradient id="Áåçûìÿííûé_ãðàäèåíò_50" x1="285.07" y1="220.15" x2="285.07" y2="90.45" gradientUnits="userSpaceOnUse"><stop offset="0" stop-color="#b30b63"/><stop offset="1" stop-color="#95004c"/></linearGradient><linearGradient id="Áåçûìÿííûé_ãðàäèåíò_208" x1="309.94" y1="182.56" x2="309.94" y2="134.21" gradientUnits="userSpaceOnUse"><stop offset="0.02" stop-color="#fff"/><stop offset="0.99" stop-color="#c2798b"/></linearGradient><linearGradient id="Áåçûìÿííûé_ãðàäèåíò_95" x1="330.75" y1="282.25" x2="330.75" y2="220.12" gradientUnits="userSpaceOnUse"><stop offset="0" stop-color="#d61a6a"/><stop offset="1" stop-color="#c3065b"/></linearGradient><linearGradient id="Áåçûìÿííûé_ãðàäèåíò_143" x1="324.65" y1="282.18" x2="324.65" y2="181.98" gradientUnits="userSpaceOnUse"><stop offset="0" stop-color="#ff5579"/><stop offset="1" stop-color="#e75979"/></linearGradient><linearGradient id="Áåçûìÿííûé_ãðàäèåíò_133" x1="361.01" y1="173.97" x2="361.01" y2="170.72" gradientUnits="userSpaceOnUse"><stop offset="0" stop-color="#d8caef"/><stop offset="1" stop-color="#eadef4"/></linearGradient><linearGradient id="Áåçûìÿííûé_ãðàäèåíò_79" x1="285.94" y1="279.92" x2="285.94" y2="163.19" gradientUnits="userSpaceOnUse"><stop offset="0" stop-color="#ff6686"/><stop offset="1" stop-color="#ff7c89"/></linearGradient><linearGradient id="Áåçûìÿííûé_ãðàäèåíò_26" x1="326.04" y1="208.05" x2="326.04" y2="183.64" gradientUnits="userSpaceOnUse"><stop offset="0.02" stop-color="#ffa67f"/><stop offset="1" stop-color="#ff8b7c"/></linearGradient><linearGradient id="Áåçûìÿííûé_ãðàäèåíò_177" x1="309.17" y1="151.59" x2="309.17" y2="73.77" gradientUnits="userSpaceOnUse"><stop offset="0.02" stop-color="#ffc2a6"/><stop offset="1" stop-color="#ffb595"/></linearGradient><linearGradient id="Áåçûìÿííûé_ãðàäèåíò_111" x1="299.32" y1="400" x2="299.32" y2="247.77" gradientUnits="userSpaceOnUse"><stop offset="0" stop-color="#7e8eff"/><stop offset="1" stop-color="#7096ff"/></linearGradient><linearGradient id="Áåçûìÿííûé_ãðàäèåíò_95-2" x1="264.06" y1="283.78" x2="264.06" y2="224.71" xlink:href="#Áåçûìÿííûé_ãðàäèåíò_95"/><linearGradient id="Áåçûìÿííûé_ãðàäèåíò_26-2" x1="293.27" y1="179.24" x2="293.27" y2="130.13" xlink:href="#Áåçûìÿííûé_ãðàäèåíò_26"/><linearGradient id="Áåçûìÿííûé_ãðàäèåíò_159" x1="320" y1="204.84" x2="320" y2="164.64" gradientUnits="userSpaceOnUse"><stop offset="0" stop-color="#301361"/><stop offset="1" stop-color="#482c6a"/></linearGradient><linearGradient id="Áåçûìÿííûé_ãðàäèåíò_54" x1="285.5" y1="226.94" x2="285.5" y2="63.94" gradientUnits="userSpaceOnUse"><stop offset="0" stop-color="#c50b79"/><stop offset="1" stop-color="#e51160"/></linearGradient><linearGradient id="Áåçûìÿííûé_ãðàäèåíò_177-2" x1="282.57" y1="127.64" x2="282.57" y2="105.32" xlink:href="#Áåçûìÿííûé_ãðàäèåíò_177"/><linearGradient id="Áåçûìÿííûé_ãðàäèåíò_200" x1="281.95" y1="125.19" x2="281.95" y2="109.83" gradientUnits="userSpaceOnUse"><stop offset="0.02" stop-color="#fff"/><stop offset="0.99" stop-color="#f29dc8"/></linearGradient><linearGradient id="Áåçûìÿííûé_ãðàäèåíò_54-2" x1="276.65" y1="195.91" x2="276.65" y2="98.89" xlink:href="#Áåçûìÿííûé_ãðàäèåíò_54"/><linearGradient id="Áåçûìÿííûé_ãðàäèåíò_149" x1="339.93" y1="263.97" x2="339.93" y2="206.62" gradientUnits="userSpaceOnUse"><stop offset="0.02" stop-color="#ff8d90"/><stop offset="1" stop-color="#ffa684"/></linearGradient><linearGradient id="Áåçûìÿííûé_ãðàäèåíò_248" x1="327.8" y1="248.3" x2="327.8" y2="172.94" gradientUnits="userSpaceOnUse"><stop offset="0" stop-color="#a586c9"/><stop offset="1" stop-color="#b1a4d3"/></linearGradient><linearGradient id="Áåçûìÿííûé_ãðàäèåíò_123" x1="349.22" y1="248.91" x2="349.22" y2="172.2" gradientUnits="userSpaceOnUse"><stop offset="0" stop-color="#c9b6e9"/><stop offset="1" stop-color="#d5bdea"/></linearGradient><linearGradient id="Áåçûìÿííûé_ãðàäèåíò_177-3" x1="369.98" y1="208.93" x2="369.98" y2="185.92" xlink:href="#Áåçûìÿííûé_ãðàäèåíò_177"/><linearGradient id="Áåçûìÿííûé_ãðàäèåíò_177-4" x1="366.37" y1="213.54" x2="366.37" y2="207.57" xlink:href="#Áåçûìÿííûé_ãðàäèåíò_177"/><linearGradient id="Áåçûìÿííûé_ãðàäèåíò_183" x1="313.83" y1="133.13" x2="324.72" y2="133.13" gradientUnits="userSpaceOnUse"><stop offset="0.02" stop-color="#fff"/><stop offset="0.99" stop-color="#ea9dc8"/></linearGradient><linearGradient id="Áåçûìÿííûé_ãðàäèåíò_183-2" x1="314.38" y1="134.96" x2="314.38" y2="130.58" xlink:href="#Áåçûìÿííûé_ãðàäèåíò_183"/><linearGradient id="Áåçûìÿííûé_ãðàäèåíò_188" x1="313.83" y1="132.31" x2="313.83" y2="107.33" gradientUnits="userSpaceOnUse"><stop offset="0.02" stop-color="#fff"/><stop offset="0.99" stop-color="#f7839a"/></linearGradient><linearGradient id="Áåçûìÿííûé_ãðàäèåíò_170" x1="328.69" y1="112.27" x2="328.69" y2="104.89" gradientUnits="userSpaceOnUse"><stop offset="0" stop-color="#ff8170"/><stop offset="1" stop-color="#fe467c"/></linearGradient><linearGradient id="Áåçûìÿííûé_ãðàäèåíò_170-2" x1="309.07" y1="109.11" x2="309.07" y2="102.7" xlink:href="#Áåçûìÿííûé_ãðàäèåíò_170"/><linearGradient id="Áåçûìÿííûé_ãðàäèåíò_197" x1="315.23" y1="145.49" x2="315.23" y2="136.2" gradientUnits="userSpaceOnUse"><stop offset="0" stop-color="#ea1a8f"/><stop offset="1" stop-color="#d3004c"/></linearGradient><linearGradient id="Áåçûìÿííûé_ãðàäèåíò_207" x1="277.18" y1="99.04" x2="303.24" y2="99.04" gradientUnits="userSpaceOnUse"><stop offset="0.01" stop-color="#c2798b"/><stop offset="0.98" stop-color="#fff"/></linearGradient><linearGradient id="Áåçûìÿííûé_ãðàäèåíò_205" x1="297.52" y1="105.32" x2="297.52" y2="70.93" xlink:href="#Áåçûìÿííûé_ãðàäèåíò_207"/><linearGradient id="Áåçûìÿííûé_ãðàäèåíò_206" x1="294.71" y1="106.04" x2="294.71" y2="66.29" xlink:href="#Áåçûìÿííûé_ãðàäèåíò_207"/><linearGradient id="Áåçûìÿííûé_ãðàäèåíò_208-2" x1="271.44" y1="179.24" x2="271.44" y2="111.45" xlink:href="#Áåçûìÿííûé_ãðàäèåíò_208"/><linearGradient id="Áåçûìÿííûé_ãðàäèåíò_229" x1="301.76" y1="214.14" x2="301.76" y2="185.14" gradientUnits="userSpaceOnUse"><stop offset="0.01" stop-color="#e38b8b"/><stop offset="0.98" stop-color="#fff"/></linearGradient><linearGradient id="Áåçûìÿííûé_ãðàäèåíò_207-2" x1="240.88" y1="203.84" x2="252.74" y2="203.84" xlink:href="#Áåçûìÿííûé_ãðàäèåíò_207"/><linearGradient id="Áåçûìÿííûé_ãðàäèåíò_225" x1="276.39" y1="225.89" x2="276.39" y2="197.86" gradientUnits="userSpaceOnUse"><stop offset="0" stop-color="#e59db0"/><stop offset="0.98" stop-color="#fff"/></linearGradient><linearGradient id="Áåçûìÿííûé_ãðàäèåíò_225-2" x1="282.6" y1="224.71" x2="282.6" y2="208.05" xlink:href="#Áåçûìÿííûé_ãðàäèåíò_225"/><linearGradient id="Áåçûìÿííûé_ãðàäèåíò_226" x1="253.37" y1="223.19" x2="276.65" y2="223.19" gradientUnits="userSpaceOnUse"><stop offset="0.02" stop-color="#fff"/><stop offset="1" stop-color="#e59db0"/></linearGradient><linearGradient id="Áåçûìÿííûé_ãðàäèåíò_225-3" x1="305.09" y1="255.61" x2="305.09" y2="232.62" xlink:href="#Áåçûìÿííûé_ãðàäèåíò_225"/><linearGradient id="Áåçûìÿííûé_ãðàäèåíò_225-4" x1="291.38" y1="251.18" x2="291.38" y2="230.3" xlink:href="#Áåçûìÿííûé_ãðàäèåíò_225"/><linearGradient id="Áåçûìÿííûé_ãðàäèåíò_225-5" x1="307.97" y1="257.84" x2="307.97" y2="241.48" xlink:href="#Áåçûìÿííûé_ãðàäèåíò_225"/><linearGradient id="Áåçûìÿííûé_ãðàäèåíò_177-5" x1="289.87" y1="266.15" x2="289.87" y2="174.99" xlink:href="#Áåçûìÿííûé_ãðàäèåíò_177"/><linearGradient id="Áåçûìÿííûé_ãðàäèåíò_75" x1="273.93" y1="257.99" x2="311.98" y2="257.99" gradientUnits="userSpaceOnUse"><stop offset="0" stop-color="#8b8be0"/><stop offset="1" stop-color="#a177b7"/></linearGradient><linearGradient id="Áåçûìÿííûé_ãðàäèåíò_236" x1="257.59" y1="400" x2="257.59" y2="323.89" gradientUnits="userSpaceOnUse"><stop offset="0.01" stop-color="#c2c0e1"/><stop offset="0.98" stop-color="#fff"/></linearGradient><linearGradient id="Áåçûìÿííûé_ãðàäèåíò_236-2" x1="293.85" x2="293.85" y2="273.14" xlink:href="#Áåçûìÿííûé_ãðàäèåíò_236"/><linearGradient id="Áåçûìÿííûé_ãðàäèåíò_236-3" x1="318.84" x2="318.84" y2="266.15" xlink:href="#Áåçûìÿííûé_ãðàäèåíò_236"/><linearGradient id="Áåçûìÿííûé_ãðàäèåíò_236-4" x1="325.4" x2="325.4" y2="294.5" xlink:href="#Áåçûìÿííûé_ãðàäèåíò_236"/><linearGradient id="Áåçûìÿííûé_ãðàäèåíò_237" x1="281.62" y1="328.99" x2="281.62" y2="255.61" gradientUnits="userSpaceOnUse"><stop offset="0.02" stop-color="#fff"/><stop offset="0.99" stop-color="#c2c0e1"/></linearGradient><linearGradient id="Áåçûìÿííûé_ãðàäèåíò_238" x1="291.37" y1="351.17" x2="291.37" y2="274.24" gradientTransform="translate(-36.91 20.74) rotate(-7.31)" xlink:href="#Áåçûìÿííûé_ãðàäèåíò_237"/><linearGradient id="Áåçûìÿííûé_ãðàäèåíò_238-2" x1="309.22" y1="338.25" x2="309.22" y2="263.8" xlink:href="#Áåçûìÿííûé_ãðàäèåíò_237"/><linearGradient id="Áåçûìÿííûé_ãðàäèåíò_239" x1="291.61" y1="83.38" x2="319.27" y2="83.38" xlink:href="#Áåçûìÿííûé_ãðàäèåíò_208"/><linearGradient id="Áåçûìÿííûé_ãðàäèåíò_240" x1="277.18" y1="98.78" x2="291.61" y2="98.78" xlink:href="#Áåçûìÿííûé_ãðàäèåíò_207"/><linearGradient id="Áåçûìÿííûé_ãðàäèåíò_123-2" x1="312.01" y1="171.56" x2="312.01" y2="164.55" xlink:href="#Áåçûìÿííûé_ãðàäèåíò_123"/><linearGradient id="Áåçûìÿííûé_ãðàäèåíò_242" x1="261.2" y1="400" x2="261.2" y2="275.91" xlink:href="#Áåçûìÿííûé_ãðàäèåíò_237"/><linearGradient id="Áåçûìÿííûé_ãðàäèåíò_148" x1="140.02" y1="230.66" x2="140.02" y2="135.58" gradientUnits="userSpaceOnUse"><stop offset="0" stop-color="#ffb595"/><stop offset="0.98" stop-color="#ffc2a9"/></linearGradient><linearGradient id="Áåçûìÿííûé_ãðàäèåíò_26-3" x1="145.54" y1="287.09" x2="145.54" y2="222.64" xlink:href="#Áåçûìÿííûé_ãðàäèåíò_26"/><linearGradient id="Áåçûìÿííûé_ãðàäèåíò_200-2" x1="141.34" y1="170.54" x2="141.34" y2="138.45" xlink:href="#Áåçûìÿííûé_ãðàäèåíò_200"/><linearGradient id="Áåçûìÿííûé_ãðàäèåíò_26-4" x1="175.12" y1="202.24" x2="175.12" y2="176.01" xlink:href="#Áåçûìÿííûé_ãðàäèåíò_26"/><linearGradient id="Áåçûìÿííûé_ãðàäèåíò_26-5" x1="109.93" y1="206.52" x2="109.93" y2="182.72" xlink:href="#Áåçûìÿííûé_ãðàäèåíò_26"/><linearGradient id="Áåçûìÿííûé_ãðàäèåíò_200-3" x1="175.07" y1="196.86" x2="175.07" y2="181.04" xlink:href="#Áåçûìÿííûé_ãðàäèåíò_200"/><linearGradient id="Áåçûìÿííûé_ãðàäèåíò_200-4" x1="110.04" y1="201.48" x2="110.04" y2="187.56" xlink:href="#Áåçûìÿííûé_ãðàäèåíò_200"/><linearGradient id="Áåçûìÿííûé_ãðàäèåíò_257" x1="144.31" y1="187.01" x2="133.54" y2="119.01" gradientUnits="userSpaceOnUse"><stop offset="0" stop-color="#3e2987"/><stop offset="0.57" stop-color="#2c2f90"/><stop offset="1" stop-color="#243294"/></linearGradient><linearGradient id="Áåçûìÿííûé_ãðàäèåíò_79-2" x1="145.63" y1="390.24" x2="145.63" y2="248.19" xlink:href="#Áåçûìÿííûé_ãðàäèåíò_79"/><linearGradient id="Áåçûìÿííûé_ãðàäèåíò_29" x1="150.67" y1="390.24" x2="150.67" y2="240.08" gradientUnits="userSpaceOnUse"><stop offset="0" stop-color="#2b2583"/><stop offset="1" stop-color="#482c97"/></linearGradient><linearGradient id="Áåçûìÿííûé_ãðàäèåíò_38" x1="63.38" y1="390.67" x2="63.38" y2="277.21" gradientUnits="userSpaceOnUse"><stop offset="0" stop-color="#26258a"/><stop offset="1" stop-color="#3c2c95"/></linearGradient><linearGradient id="Áåçûìÿííûé_ãðàäèåíò_198" x1="54.12" y1="295.07" x2="54.12" y2="181.82" gradientUnits="userSpaceOnUse"><stop offset="0.02" stop-color="#ffc2a0"/><stop offset="1" stop-color="#ffa195"/></linearGradient><linearGradient id="Áåçûìÿííûé_ãðàäèåíò_79-3" x1="47.94" y1="333.89" x2="47.94" y2="281.84" xlink:href="#Áåçûìÿííûé_ãðàäèåíò_79"/><linearGradient id="Áåçûìÿííûé_ãðàäèåíò_38-2" x1="234.25" y1="390.67" x2="234.25" y2="273.6" xlink:href="#Áåçûìÿííûé_ãðàäèåíò_38"/><linearGradient id="Áåçûìÿííûé_ãðàäèåíò_288" x1="143.8" y1="156.38" x2="146.65" y2="156.38" gradientUnits="userSpaceOnUse"><stop offset="0" stop-color="#8453b8"/><stop offset="0.23" stop-color="#7755ba"/><stop offset="0.7" stop-color="#6157bc"/><stop offset="1" stop-color="#5958bd"/></linearGradient><linearGradient id="Áåçûìÿííûé_ãðàäèåíò_200-5" x1="138.79" y1="189.41" x2="138.79" y2="159.67" xlink:href="#Áåçûìÿííûé_ãðàäèåíò_200"/><linearGradient id="Áåçûìÿííûé_ãðàäèåíò_183-3" x1="116.31" y1="176.37" x2="129.67" y2="176.37" xlink:href="#Áåçûìÿííûé_ãðàäèåíò_183"/><linearGradient id="Áåçûìÿííûé_ãðàäèåíò_183-4" x1="147.45" y1="172.17" x2="160.65" y2="172.17" xlink:href="#Áåçûìÿííûé_ãðàäèåíò_183"/><linearGradient id="Áåçûìÿííûé_ãðàäèåíò_183-5" x1="144.4" y1="189.81" x2="149.44" y2="189.81" xlink:href="#Áåçûìÿííûé_ãðàäèåíò_183"/><linearGradient id="Áåçûìÿííûé_ãðàäèåíò_200-6" x1="152.42" y1="199.41" x2="158.22" y2="199.41" xlink:href="#Áåçûìÿííûé_ãðàäèåíò_200"/><linearGradient id="Áåçûìÿííûé_ãðàäèåíò_200-7" x1="143.42" y1="214.91" x2="143.42" y2="209.65" xlink:href="#Áåçûìÿííûé_ãðàäèåíò_200"/><linearGradient id="Áåçûìÿííûé_ãðàäèåíò_44" x1="154.31" y1="178.24" x2="154.31" y2="172.72" gradientUnits="userSpaceOnUse"><stop offset="0.02" stop-color="#e0b3d1"/><stop offset="0.99" stop-color="#c2798b"/></linearGradient><linearGradient id="Áåçûìÿííûé_ãðàäèåíò_44-2" x1="123.62" y1="183.12" x2="123.62" y2="177.6" xlink:href="#Áåçûìÿííûé_ãðàäèåíò_44"/><linearGradient id="Áåçûìÿííûé_ãðàäèåíò_51" x1="153.91" y1="163.35" x2="153.91" y2="152.89" gradientUnits="userSpaceOnUse"><stop offset="0" stop-color="#b877b8"/><stop offset="0.23" stop-color="#9a6dba"/><stop offset="0.56" stop-color="#7762bb"/><stop offset="0.83" stop-color="#615bbd"/><stop offset="1" stop-color="#5958bd"/></linearGradient><linearGradient id="Áåçûìÿííûé_ãðàäèåíò_51-2" x1="121.31" y1="167.66" x2="121.31" y2="155.91" xlink:href="#Áåçûìÿííûé_ãðàäèåíò_51"/><linearGradient id="Áåçûìÿííûé_ãðàäèåíò_53" x1="162.1" y1="157.67" x2="175.7" y2="157.67" xlink:href="#Áåçûìÿííûé_ãðàäèåíò_208"/><linearGradient id="Áåçûìÿííûé_ãðàäèåíò_207-3" x1="105.48" y1="160.62" x2="118.37" y2="160.62" xlink:href="#Áåçûìÿííûé_ãðàäèåíò_207"/><linearGradient id="Áåçûìÿííûé_ãðàäèåíò_207-4" x1="104.68" y1="149.78" x2="119.55" y2="149.78" xlink:href="#Áåçûìÿííûé_ãðàäèåíò_207"/><linearGradient id="Áåçûìÿííûé_ãðàäèåíò_257-2" x1="145.91" y1="147.47" x2="143.11" y2="129.76" xlink:href="#Áåçûìÿííûé_ãðàäèåíò_257"/><linearGradient id="Áåçûìÿííûé_ãðàäèåíò_257-3" x1="171.5" y1="152.99" x2="169.59" y2="140.89" gradientTransform="matrix(0.98, 0.22, -0.22, 0.98, 38.03, -34.97)" xlink:href="#Áåçûìÿííûé_ãðàäèåíò_257"/><linearGradient id="Áåçûìÿííûé_ãðàäèåíò_58" x1="131.98" y1="194.15" x2="137.55" y2="194.15" gradientUnits="userSpaceOnUse"><stop offset="0.02" stop-color="#fff"/><stop offset="0.99" stop-color="#d172a6"/></linearGradient><linearGradient id="Áåçûìÿííûé_ãðàäèåíò_38-3" x1="121.46" y1="194.47" x2="121.46" y2="168.68" xlink:href="#Áåçûìÿííûé_ãðàäèåíò_38"/><linearGradient id="Áåçûìÿííûé_ãðàäèåíò_38-4" x1="159.66" y1="189.01" x2="159.66" y2="162.97" gradientTransform="translate(-32.83 34.02) rotate(-10.99)" xlink:href="#Áåçûìÿííûé_ãðàäèåíò_38"/><linearGradient id="Áåçûìÿííûé_ãðàäèåíò_38-5" x1="138.59" y1="173.98" x2="138.59" y2="169.62" xlink:href="#Áåçûìÿííûé_ãðàäèåíò_38"/><linearGradient id="Áåçûìÿííûé_ãðàäèåíò_38-6" x1="172.9" y1="177.6" x2="172.9" y2="167.05" xlink:href="#Áåçûìÿííûé_ãðàäèåíò_38"/><linearGradient id="Áåçûìÿííûé_ãðàäèåíò_257-4" x1="140.09" y1="150.74" x2="138.4" y2="140.07" xlink:href="#Áåçûìÿííûé_ãðàäèåíò_257"/><linearGradient id="Áåçûìÿííûé_ãðàäèåíò_200-8" x1="136.37" y1="269.61" x2="136.37" y2="226.23" xlink:href="#Áåçûìÿííûé_ãðàäèåíò_200"/><linearGradient id="Áåçûìÿííûé_ãðàäèåíò_67" x1="109.51" y1="390.38" x2="109.51" y2="243.33" gradientUnits="userSpaceOnUse"><stop offset="0" stop-color="#38328a"/><stop offset="1" stop-color="#5c43a2"/></linearGradient><linearGradient id="Áåçûìÿííûé_ãðàäèåíò_67-2" x1="181.41" y1="390.24" x2="181.41" y2="240.08" xlink:href="#Áåçûìÿííûé_ãðàäèåíò_67"/><linearGradient id="Áåçûìÿííûé_ãðàäèåíò_82" x1="133.77" y1="321.11" x2="133.77" y2="261.7" gradientUnits="userSpaceOnUse"><stop offset="0.02" stop-color="#fff"/><stop offset="0.99" stop-color="#ea8cc1"/></linearGradient><linearGradient id="Áåçûìÿííûé_ãðàäèåíò_82-2" x1="158.52" y1="308.48" x2="158.52" y2="265.3" xlink:href="#Áåçûìÿííûé_ãðàäèåíò_82"/><linearGradient id="Áåçûìÿííûé_ãðàäèåíò_98" x1="45.27" y1="253.33" x2="45.27" y2="198.35" gradientUnits="userSpaceOnUse"><stop offset="0.01" stop-color="#ea9dc8"/><stop offset="0.98" stop-color="#ffdbd6"/></linearGradient><linearGradient id="Áåçûìÿííûé_ãðàäèåíò_89" x1="52.35" y1="208.1" x2="52.35" y2="192.94" gradientUnits="userSpaceOnUse"><stop offset="0" stop-color="#ffb595"/><stop offset="0.98" stop-color="#ffc290"/></linearGradient><linearGradient id="Áåçûìÿííûé_ãðàäèåíò_88" x1="42.5" y1="217.57" x2="42.5" y2="203.39" xlink:href="#Áåçûìÿííûé_ãðàäèåíò_89"/><linearGradient id="Áåçûìÿííûé_ãðàäèåíò_85" x1="36.44" y1="223.92" x2="36.44" y2="216.43" xlink:href="#Áåçûìÿííûé_ãðàäèåíò_89"/><linearGradient id="Áåçûìÿííûé_ãðàäèåíò_183-6" x1="56.74" y1="272.66" x2="56.74" y2="254.87" xlink:href="#Áåçûìÿííûé_ãðàäèåíò_183"/><linearGradient id="Áåçûìÿííûé_ãðàäèåíò_183-7" x1="51.89" y1="253.63" x2="51.89" y2="236.26" xlink:href="#Áåçûìÿííûé_ãðàäèåíò_183"/><linearGradient id="Áåçûìÿííûé_ãðàäèåíò_100" x1="62.93" y1="244.05" x2="62.93" y2="226.23" gradientUnits="userSpaceOnUse"><stop offset="0.01" stop-color="#ea9dc8"/><stop offset="0.98" stop-color="#fff"/></linearGradient><linearGradient id="Áåçûìÿííûé_ãðàäèåíò_207-5" x1="82.6" y1="306.83" x2="94.73" y2="306.83" xlink:href="#Áåçûìÿííûé_ãðàäèåíò_207"/><linearGradient id="Áåçûìÿííûé_ãðàäèåíò_101" x1="71.15" y1="358" x2="71.15" y2="321.11" xlink:href="#Áåçûìÿííûé_ãðàäèåíò_208"/><linearGradient id="Áåçûìÿííûé_ãðàäèåíò_207-6" x1="29.27" y1="335.93" x2="55.73" y2="335.93" xlink:href="#Áåçûìÿííûé_ãðàäèåíò_207"/><linearGradient id="Áåçûìÿííûé_ãðàäèåíò_101-2" x1="64.3" y1="375.05" x2="64.3" y2="306.06" xlink:href="#Áåçûìÿííûé_ãðàäèåíò_208"/><linearGradient id="Áåçûìÿííûé_ãðàäèåíò_114" x1="204.37" y1="295.13" x2="218.74" y2="295.13" xlink:href="#Áåçûìÿííûé_ãðàäèåíò_208"/><linearGradient id="Áåçûìÿííûé_ãðàäèåíò_207-7" x1="207.94" y1="335.11" x2="213.49" y2="335.11" xlink:href="#Áåçûìÿííûé_ãðàäèåíò_207"/><linearGradient id="Áåçûìÿííûé_ãðàäèåíò_207-8" x1="188.8" y1="357.93" x2="204.37" y2="357.93" xlink:href="#Áåçûìÿííûé_ãðàäèåíò_207"/><linearGradient id="Áåçûìÿííûé_ãðàäèåíò_207-9" x1="210.97" y1="357.51" x2="250.57" y2="357.51" xlink:href="#Áåçûìÿííûé_ãðàäèåíò_207"/><linearGradient id="Áåçûìÿííûé_ãðàäèåíò_207-10" x1="218.11" y1="358.34" x2="250.07" y2="358.34" xlink:href="#Áåçûìÿííûé_ãðàäèåíò_207"/><linearGradient id="Áåçûìÿííûé_ãðàäèåíò_207-11" x1="206.55" y1="358.34" x2="206.55" y2="301.95" xlink:href="#Áåçûìÿííûé_ãðàäèåíò_207"/><linearGradient id="Áåçûìÿííûé_ãðàäèåíò_26-6" x1="228.55" y1="376.69" x2="228.55" y2="362.32" xlink:href="#Áåçûìÿííûé_ãðàäèåíò_26"/><linearGradient id="Áåçûìÿííûé_ãðàäèåíò_108" x1="238.81" y1="391" x2="238.81" y2="358.44" gradientUnits="userSpaceOnUse"><stop offset="0" stop-color="#2b2583"/><stop offset="1" stop-color="#231868"/></linearGradient><linearGradient id="Áåçûìÿííûé_ãðàäèåíò_198-2" x1="209.35" y1="389.83" x2="209.35" y2="376.66" xlink:href="#Áåçûìÿííûé_ãðàäèåíò_198"/><linearGradient id="Áåçûìÿííûé_ãðàäèåíò_54-3" x1="229.47" y1="391.06" x2="229.47" y2="368.47" xlink:href="#Áåçûìÿííûé_ãðàäèåíò_54"/><linearGradient id="Áåçûìÿííûé_ãðàäèåíò_198-3" x1="233.27" y1="387.45" x2="233.27" y2="358.34" xlink:href="#Áåçûìÿííûé_ãðàäèåíò_198"/><linearGradient id="Áåçûìÿííûé_ãðàäèåíò_113" x1="142.02" y1="390.67" x2="142.02" y2="302.45" gradientUnits="userSpaceOnUse"><stop offset="0" stop-color="#c9b6e9"/><stop offset="1" stop-color="#bbabd1"/></linearGradient><linearGradient id="Áåçûìÿííûé_ãðàäèåíò_133-2" x1="142.02" y1="309.4" x2="142.02" y2="300.02" xlink:href="#Áåçûìÿííûé_ãðàäèåíò_133"/><linearGradient id="Áåçûìÿííûé_ãðàäèåíò_183-8" x1="240.58" y1="375" x2="240.58" y2="366.76" xlink:href="#Áåçûìÿííûé_ãðàäèåíò_183"/><linearGradient id="Áåçûìÿííûé_ãðàäèåíò_183-9" x1="247.2" y1="381.76" x2="247.2" y2="375.86" xlink:href="#Áåçûìÿííûé_ãðàäèåíò_183"/><linearGradient id="Áåçûìÿííûé_ãðàäèåíò_114-2" x1="184.21" y1="277.21" x2="184.21" y2="251.23" xlink:href="#Áåçûìÿííûé_ãðàäèåíò_208"/><linearGradient id="Áåçûìÿííûé_ãðàäèåíò_114-3" x1="111.64" y1="280.18" x2="111.64" y2="246.56" xlink:href="#Áåçûìÿííûé_ãðàäèåíò_208"/><linearGradient id="Áåçûìÿííûé_ãðàäèåíò_200-9" x1="46.79" y1="253.99" x2="46.79" y2="230.48" xlink:href="#Áåçûìÿííûé_ãðàäèåíò_200"/><linearGradient id="Áåçûìÿííûé_ãðàäèåíò_115" x1="147.02" y1="157.91" x2="158.27" y2="157.91" gradientUnits="userSpaceOnUse"><stop offset="0.01" stop-color="#f29dc8"/><stop offset="0.98" stop-color="#fff"/></linearGradient><linearGradient id="Áåçûìÿííûé_ãðàäèåíò_115-2" x1="149.11" y1="159.02" x2="161.59" y2="159.02" xlink:href="#Áåçûìÿííûé_ãðàäèåíò_115"/><linearGradient id="Áåçûìÿííûé_ãðàäèåíò_116" x1="121.36" y1="160.55" x2="128.93" y2="160.55" xlink:href="#Áåçûìÿííûé_ãðàäèåíò_200"/><linearGradient id="Áåçûìÿííûé_ãðàäèåíò_116-2" x1="117.15" y1="161.61" x2="127.74" y2="161.61" xlink:href="#Áåçûìÿííûé_ãðàäèåíò_200"/><linearGradient id="Áåçûìÿííûé_ãðàäèåíò_98-2" x1="50.2" y1="207.78" x2="50.2" y2="203.39" xlink:href="#Áåçûìÿííûé_ãðàäèåíò_98"/><linearGradient id="Áåçûìÿííûé_ãðàäèåíò_98-3" x1="38.88" y1="217.27" x2="38.88" y2="216.33" xlink:href="#Áåçûìÿííûé_ãðàäèåíò_98"/><linearGradient id="Áåçûìÿííûé_ãðàäèåíò_79-4" x1="200" y1="400" x2="200" y2="390.67" xlink:href="#Áåçûìÿííûé_ãðàäèåíò_79"/></defs><g class="cls-1"><g id="illustration"><path class="cls-2" d="M185.88,20c-77.33,20.4-90,84.2-101.71,142.1s-55.73,112,33,135.07,220.55-8.29,242.53-100-62.28-82.62-122.28-111.4S220.13,11,185.88,20Z" transform="translate(0 0)"/><path class="cls-2" d="M216.76,51.69c-9.75,5.63-15.19-25.92-3.84-38.28s31.21-18.68,39.15-7.9-10.32,27.93-20.54,34.14S220.4,49.6,216.76,51.69Z" transform="translate(0 0)"/><path class="cls-2" d="M99.53,79.56c.28-22-45.58-2.13-59.2,38.54s-1.19,70.36,17.33,71.71,21.09-21.49,26.73-53.23S99.37,91.92,99.53,79.56Z" transform="translate(0 0)"/><path class="cls-2" d="M326.25,319.73c7.33-14.88,19-19.72,27.12-17.65s.19,30.22-11.23,31.32S321.78,328.79,326.25,319.73Z" transform="translate(0 0)"/><path class="cls-3" d="M324,142.83s-3.19,25.73,2.56,67.62l-5.34-4.11-11-6s-3.3-6-3.55-23.51c0,0-1.25,1.61,3,31.24,0,0-40.29,3.22-48.12,6.23s-11,5.87-11,5.87-9-20.93-6.44-27.5S254.32,190.6,262,180.2s8.28-72.14,16.61-82.2,42.87-7.16,42.87-7.16l3,3.67S324.83,124.21,324,142.83Z" transform="translate(0 0)"/><path class="cls-4" d="M323.61,145.49a47.9,47.9,0,0,0-4.88,5.07c-1.73,2.26-2.57,32-2.57,32L314.84,181,317,152.1s-7,4.93-8.43,8.32-2.89,14.67-2.89,14.67L304.55,174l2.87-16.63-3.75,15.6a24.7,24.7,0,0,1-3.65-6c-1.59-3.67-4.09-32.75-4.09-32.75l28,8.62Z" transform="translate(0 0)"/><path class="cls-5" d="M329.22,282.18c5.5,2.25,16.12-49.63,10.15-59.82s-18.74,16.83-19,33.26A41.26,41.26,0,0,0,329.22,282.18Z" transform="translate(0 0)"/><path class="cls-6" d="M316.09,182s12.58,12.59,23.28,40.38c0,0-33.07,27-10.15,59.82,0,0-12.64-12.92-17.78-36.44S316.09,182,316.09,182Z" transform="translate(0 0)"/><path class="cls-7" d="M339.37,172.94a173,173,0,0,1,41.77-1.64l1.51,1.64-41.3,1Z" transform="translate(0 0)"/><path class="cls-8" d="M285.26,163.19h-1.82a8.71,8.71,0,0,1-2.15,4.72c-1.9,2-12.79,5.13-23,18.69,0,0-17.33,55.74-6.34,93.32,0,0,3.88-41.58,18.94-53.49l1.49,1.35s1.85,16.39-.34,21.84l1.79,1.14s8.05-3.9,13.17-2.26,10.52,7.09,19.52,9.34c0,0,5.05-13.31,9.34-21.38S323,221.55,323,221.55s2.3-11.51-1.8-21.3A75.35,75.35,0,0,1,316.09,182s-12.54-5.59-14.82-13.42l-1.35-.55Z" transform="translate(0 0)"/><path class="cls-9" d="M314.94,210.56a17.43,17.43,0,0,1,3.9,9.59c.58,6.7-3,16.31-3,16.31l3-5.9,8.77-28.11-2.78-4.3Z" transform="translate(0 0)"/><path class="cls-10" d="M323.16,208.05c1.42-1.13.95-10.16,2.75-14.37a52.76,52.76,0,0,1,5.52-9.1,2.86,2.86,0,0,0-3.22-.76c-2.15.69-5.81,1.92-5.49,9.11,0,0-.88,2.5-2.06,4.93C320.66,197.86,323.29,203.06,323.16,208.05Z" transform="translate(0 0)"/><path class="cls-11" d="M323,77.87c7.29,7.14,10.29,12.67,10.8,17.87s-5.37,20.94-5.4,24.77,3,7.12,1.61,12.73-12.66,18.35-18.44,18.35c-2.47,0-13.68-7.81-19.36-15.09s-5.87-23.31-5.87-23.31-6.92-26.59,6.63-34.7S319.49,74.46,323,77.87Z" transform="translate(0 0)"/><path class="cls-12" d="M326.1,103.08s1.67-11.35-2.15-13.19-5.22-1.13-5.22-1.13-3.45,11.77-10.17,13.94-14.71-.49-14.71-.49l12.2-12.32L322.16,78l6.53,6,1.64,14.86Z" transform="translate(0 0)"/><path class="cls-13" d="M307.39,255.52s2.51,2.22,4.59,8.28h-3.13s17,82,38.56,136.2h-92s-6.1-83.06-3.58-106S272,249.62,272,249.62s10.28-3.63,16.06-.71,18.42,8.93,18.42,8.93Z" transform="translate(0 0)"/><path class="cls-14" d="M286.5,168.31a18.74,18.74,0,0,1-1.24-5.13l.07-1.74-1.39.76a9.6,9.6,0,0,1-2.66,5.71c-2.52,2.63-11.56,4.49-23,18.68l-2,7.14a16.25,16.25,0,0,1,10.54-3.54s6.63,12.87,14.09,9.85S286.5,168.31,286.5,168.31Zm-6.88,26.78c-6.48,1-10.62-6.37-10.62-6.37s6.79,2.09,11.34-.45,5.16-13.18,5.16-13.18S286.11,194,279.62,195.09Z" transform="translate(0 0)"/><path class="cls-15" d="M251.92,279.92c.61,9.63,11.87.2,19.45-16.77s5.43-34.5,0-38.19S250.65,260,251.92,279.92Z" transform="translate(0 0)"/><path class="cls-16" d="M299.14,143.61S297,159,301.18,171c0,0,1.14,8.34-4.55,8.21s-11.37-13.55-11.37-13.55L289,130.13S291.53,136.18,299.14,143.61Z" transform="translate(0 0)"/><path class="cls-17" d="M326.51,201.28,309.17,169s0-5.13,4.42-4.31l15.75,32.65s1.91,6.64,1.41,7.37S326.51,201.28,326.51,201.28Z" transform="translate(0 0)"/><path class="cls-18" d="M324,77.67c3.44,4.47,13.14,7.53,15,12.46S333,102,333,102l.18-1.13s6.22-5,4.16-9.89c0,0-3.07,10.36-10.36,11.6A14.1,14.1,0,0,0,330.17,90,15.52,15.52,0,0,1,327,102.62l-.85.46a18.72,18.72,0,0,0-3.36-20.89s.42,25.46-20.61,18.37l-2.47-1.23S317,95.43,320,81.16c0,0-7.35,14.3-21.93,18.48l-3,1s-8.74,25.52,4.42,29.53c0,0-9.37,1.85-9.94-5.95s3.74-22.9,3.74-22.9-3.7,7.44-4,13.48c0,0-1.58-5-3.94-6.84a12.8,12.8,0,0,0-5.45-2.59s-5.18,30.45-1,63.5c0,0-11.75,7.19-15.53,12.32s-6.45,5.14-14.4,9,3.85,27.31,3.85,27.31-5.94,7.59-9.73,9.44c0,0-8.15-1.2-11.37-8.5,0,0,5.75,6.11,13.46,5.29,0,0,1.64-4.15,1-5.29s-15.92-11.55-10.74-26.75c0,0,21.73-5.47,25.26-12.45s7.39-74.88,15.92-94.38,18-20.26,22.61-20.88S317.41,69.05,324,77.67Z" transform="translate(0 0)"/><path class="cls-19" d="M287.05,110.33s-4-7.72-10.42-4c-1.34.78-1.76,10.62,1.24,15.43s6.91,5.82,8.72,5.87,2.32-2.61,2.32-2.61S291.18,113.87,287.05,110.33Z" transform="translate(0 0)"/><path class="cls-20" d="M284.23,112.68s-3.8-2.63-5.67-2.84-.91,7.73-.91,7.73-.54-5.75,1-6.23,4.17,2.36,4.17,2.36a6.48,6.48,0,0,0-2.72,5.76c.1,4.11,4.13,5.73,4.13,5.73a3,3,0,0,0,1.05-1.66c.32-1.17-1.6-3.74-1.68-5.12a1.55,1.55,0,0,1,1.37-1.59l1.56,1.09S285.92,114.29,284.23,112.68Z" transform="translate(0 0)"/><path class="cls-21" d="M285.76,115.22s-1-1.88-2.67-1.36-3.79,4.25-2.94,6.45,3.32,3.23,4.31,2.39-1-3.14-.75-4.74,2.36-.66,2.36-.66Z" transform="translate(0 0)"/><path class="cls-22" d="M293.85,98.89s-5.44,5.64-10.57,7.15c0,0-.29,28,.22,51.3s-6.83,27.51-20.21,23.81L259.44,185s8,3,16.17,1.45S284.54,165,284.54,165s1.34,26.06-4.2,29.71-13.17-8.58-13.17-8.58l-1.85-.25s6.68,11,15.3,10,5-22.25,5.72-34.82,1.87-40.25,2.88-46.27S293.85,98.89,293.85,98.89Z" transform="translate(0 0)"/><path class="cls-23" d="M322.48,264s20-6,35.54-46.68V206.62s-18.91,19.09-32.85,35.52C325.17,242.14,320.09,250.59,322.48,264Z" transform="translate(0 0)"/><path class="cls-24" d="M315.77,248.3l-1.52-1.3s15.39-56.95,25.12-74.06l2,1Z" transform="translate(0 0)"/><path class="cls-25" d="M315.77,248.3c-.95-2.81,23.3-73.1,25.58-74.33s40-2.67,41.3-1-32.49,73.2-34.29,74S316.33,250,315.77,248.3Z" transform="translate(0 0)"/><path class="cls-9" d="M365.74,192.24a4.54,4.54,0,0,0-.42,4.86l4.18-.37s-5.65,1.61-7.83,5.72a16.65,16.65,0,0,0-1.66,8.68h.85l2,7.2L376.75,188S369,189.32,365.74,192.24Z" transform="translate(0 0)"/><path class="cls-26" d="M377.75,185.92a40,40,0,0,1,.83,5.09c0,1.33-3.06,2.77-3.06,2.77s1.44,2.88,0,4.42a8.07,8.07,0,0,1-2.64,6.72c-3.19,2.82-7.33,3.81-11.49,4,0,0-.08-3.7,2.6-4.57l-1.45-.05a6.55,6.55,0,0,1,3.83-5.91,89.27,89.27,0,0,0,8-4.62,33.42,33.42,0,0,1-8.72,1.75s-.81-2.77,1.36-4.26,9.7-3.29,9.7-3.29Z" transform="translate(0 0)"/><path class="cls-27" d="M369.16,207.57a2.5,2.5,0,0,1,.75,3.16c-1,2-7.1,2.81-7.1,2.81s-1.11-2.81,1.11-4.21A14.44,14.44,0,0,1,369.16,207.57Z" transform="translate(0 0)"/><path class="cls-28" d="M315.14,130.58s-2.34,2.25-.76,4.38a13.19,13.19,0,0,1,4.89.71,8.14,8.14,0,0,0,3.32-.66l2.13-1.66a4.38,4.38,0,0,0-2.82-.22,45.07,45.07,0,0,1-4.68,1.35,7.94,7.94,0,0,1-2.71-.11S313.21,133.14,315.14,130.58Z" transform="translate(0 0)"/><path class="cls-29" d="M314.38,135s-2.15-2.86.76-4.38C315.14,130.58,313.18,131.88,314.38,135Z" transform="translate(0 0)"/><path class="cls-30" d="M315.25,135s.69-.9,1.53-.71a5.77,5.77,0,0,1,2,1.24A14.33,14.33,0,0,0,315.25,135Z" transform="translate(0 0)"/><path class="cls-31" d="M325.05,131.88a57.14,57.14,0,0,0-3.26-5.29c-1.85-2.62-.24-7.8-.24-7.8a3.64,3.64,0,0,0-4.56,0s-1.65,5.49-4.54,8.26a16.83,16.83,0,0,1-10.8-3.08,10.86,10.86,0,0,1-5-8.93s1.18-4.52,4-5.93,16.72-1.78,16.72-1.78,4.05,4.9,8.11,3.38c0,0,4.16-2.45,5.43-1.27,0,0-3.13,9.45-2.55,12s2.07,6.74,1.91,9.45C330.33,130.9,328.84,133.26,325.05,131.88Z" transform="translate(0 0)"/><path class="cls-21" d="M313.83,133.89c.33.72.76,1.5,4.22.42s5.16-1.7,6.67-1c0,0-4,5.88-7.37,5.16S313.83,133.89,313.83,133.89Z" transform="translate(0 0)"/><path class="cls-32" d="M321.52,124.69a10.27,10.27,0,0,1,6.63-2s-2.48,4.66-4.47,4.94S321.52,124.69,321.52,124.69Z" transform="translate(0 0)"/><path class="cls-32" d="M299,119.82a17,17,0,0,1,12.63,2.88s-1.75,2.2-3.55,2.48S299,119.82,299,119.82Z" transform="translate(0 0)"/><path class="cls-33" d="M321.52,124.69s3.31-2.07,6.26-1.34l3.19-2.29-2.55.39S325.53,120.55,321.52,124.69Z" transform="translate(0 0)"/><path class="cls-33" d="M311.6,122.7S308,119.62,299,119.82l-1.63-3.6,3.15,2.17S310.34,118.73,311.6,122.7Z" transform="translate(0 0)"/><path class="cls-34" d="M303.24,122.88a5.62,5.62,0,0,1,5.42-1.82l2.94,1.64s-1.55,2.22-3.55,2.48S303.24,122.88,303.24,122.88Z" transform="translate(0 0)"/><path class="cls-34" d="M325.31,123.29a6.23,6.23,0,0,0-2.05,4.35s.39.22,1.83-.77a11.5,11.5,0,0,0,2.69-3.52A4.87,4.87,0,0,0,325.31,123.29Z" transform="translate(0 0)"/><path class="cls-21" d="M321,124.69s2.94-7.52,4.77-8.21,2.34,4.92,2.34,4.92-.57-5.21-2.15-4.74-4.48,8-4.48,8Z" transform="translate(0 0)"/><path class="cls-21" d="M311.6,122.7s.25-7.59-2.53-8.48-8.58,4.17-8.58,4.17,5.71-4.55,8.08-3.8,2.32,6.93,2.32,6.93Z" transform="translate(0 0)"/><path class="cls-35" d="M325.05,111.62s3.13-5.07,7.23-6.73a4.41,4.41,0,0,1-1.48,5.41.81.81,0,0,0-1.15-.6,54,54,0,0,0-4.93,2.57s.24-3.49,2.47-4.62Z" transform="translate(0 0)"/><path class="cls-36" d="M317.19,108.31s1.09-3.69,0-5.33v3.79s-.14-3-1.42-3.79-9.19-.26-15.3,6.13C300.47,109.11,310.27,107.13,317.19,108.31Z" transform="translate(0 0)"/><path class="cls-37" d="M322.16,139.78l-4,3h0l-.3.22s-1.53,2.22-3,2.5c-1.13.2-3.54-3.24-5.17-6.36a22.33,22.33,0,0,1-1.31-2.92,10.66,10.66,0,0,0,3.59,3.67,17.38,17.38,0,0,0,6.65,1.61A12.27,12.27,0,0,0,322.16,139.78Z" transform="translate(0 0)"/><path class="cls-38" d="M322.16,139.78l-4,3h0a8,8,0,0,1-2,0,20.5,20.5,0,0,1-6.49-3.64,22.33,22.33,0,0,1-1.31-2.92,10.66,10.66,0,0,0,3.59,3.67,17.38,17.38,0,0,0,6.65,1.61A12.27,12.27,0,0,0,322.16,139.78Z" transform="translate(0 0)"/><path class="cls-21" d="M310.21,135.28s-2.58.54-3.29,2.61Z" transform="translate(0 0)"/><path class="cls-9" d="M298.78,147.4s-8.92,3.78-12.38,12.52c0,0,1.09-20.87,2.58-29.79a54.52,54.52,0,0,0,10.16,13.48Z" transform="translate(0 0)"/><path class="cls-39" d="M277.18,106s14.65-7,26.06-14c0,0-7.93,10-20,14Z" transform="translate(0 0)"/><path class="cls-40" d="M278.7,105.32s2.95-22,11.49-30.94,26.15,2.19,26.15,2.19-17.43-10.26-26-1.23S278.7,105.32,278.7,105.32Z" transform="translate(0 0)"/><path class="cls-41" d="M277.18,106s2.24-25.46,13.24-34.1,21.82-3.86,21.82-3.86S297.93,62,288.55,72.33C277.4,84.65,277.18,106,277.18,106Z" transform="translate(0 0)"/><path class="cls-42" d="M275.61,111.45a18.76,18.76,0,0,0,2.31,10.93s-13,11.83-7.56,52.48L265,179.24S267,135.09,275.61,111.45Z" transform="translate(0 0)"/><path class="cls-43" d="M326.1,103.08A15.83,15.83,0,0,0,330.17,90c-1.11-8.19-7.43-7.8-7.43-7.8S330.55,88.65,326.1,103.08Z" transform="translate(0 0)"/><path class="cls-43" d="M322.16,80.82S312.69,67.34,304,64.63C304,64.63,322.83,70.79,322.16,80.82Z" transform="translate(0 0)"/><path class="cls-44" d="M285.26,185.14s9.24,14.08,16.56,20.93a33.18,33.18,0,0,0,16.43,8.07Z" transform="translate(0 0)"/><path class="cls-45" d="M248.89,190.19s-6.75,1.05-7.89,10.13,6.46,17.07,6.46,17.07l5.28.11S241,192.79,248.89,190.19Z" transform="translate(0 0)"/><path class="cls-46" d="M300.32,168.18s1.09,8.83-4.39,11c0,0,4.11,1.49,5.34-2.85a13.57,13.57,0,0,0,0-7.74Z" transform="translate(0 0)"/><path class="cls-47" d="M276.65,225.89s1.6-10.72-3.13-28c0,0,5.42,7.68,5.74,26.85Z" transform="translate(0 0)"/><path class="cls-48" d="M279.86,224.71a31,31,0,0,0,6.08-16.66s-3.34,11.08-6.68,16.66Z" transform="translate(0 0)"/><path class="cls-49" d="M276.65,225.89s-3.58-7-8.63-7.84-14.65,10.33-14.65,10.33,8.68-8,14.08-7.76,6.07,6.65,6.07,6.65Z" transform="translate(0 0)"/><path class="cls-50" d="M295.93,252.77s11.82-17.79,18.32-20.15l-12.43,23Z" transform="translate(0 0)"/><path class="cls-51" d="M293.27,251.18s.84-11.94-3-20.88c0,0-2.12,11.12.5,19.93Z" transform="translate(0 0)"/><polygon class="cls-52" points="302.59 255.98 313.35 241.48 306.49 257.85 302.59 255.98"/><path class="cls-53" d="M267.74,229.71s28.46-11.53,34.86-18.47c1.14-1.24-1.37-12.05-1.56-15s.27-6.06.83-6.47,3.27-1.52,3.72-1.8,1.21-1.66,1.84-2,2.72-.65,3.1-1.2c.09-.13.44-.71.93-1.52,1.49-2.45,4.3-7,5.25-7.52,1.27-.68,3.26-1.31,4.27.06s4.81,10.49,4.81,10.49a4,4,0,0,1-4.35-.14,12.23,12.23,0,0,1-3.19-4.4s-2.2,1.87-2.39,2.9c0,0,4.8,2.66,7,5.27.68,2.12-2.78,6.36-3,6.77s4.87,4.59,3.29,11.36a80.31,80.31,0,0,0-13,6.85c-6.12,4.1-34,41.39-56.27,51.25C253.94,266.15,257.61,240.29,267.74,229.71Z" transform="translate(0 0)"/><path class="cls-9" d="M265,259.54s-9.15-8.57,2.79-29.83c0,0-9.38,7.95-13.8,36.44A79.18,79.18,0,0,0,265,259.54Z" transform="translate(0 0)"/><path class="cls-54" d="M306.05,197.86l.87-2.67,5.34,2.67-.9,4.48s.3,1.5,3.51-.15a5.1,5.1,0,0,0,2.95-2.59l2.05-2.91h0l1.57,2.28-7.88,4.87h-2.78Z" transform="translate(0 0)"/><path class="cls-55" d="M325.79,186.29s-1.68-5.08-3.39-4.72,0,4.46,0,4.46A3.09,3.09,0,0,0,325.79,186.29Z" transform="translate(0 0)"/><path class="cls-56" d="M318.25,181.75s-1.59-4-1.54-6c0,0-1.34,1-6.18,9,0,0,2-2.09,5.33-.13C315.86,184.65,317.42,182.66,318.25,181.75Z" transform="translate(0 0)"/><path class="cls-46" d="M273.52,227.27s-.13-4.12-3.48-6c0,0,2.47-.25,6.61,4.57l2.26-7.9.35,6.72Z" transform="translate(0 0)"/><path class="cls-57" d="M312,263.8s-3.41-.51-10.71-3.39-12-7.49-17.43-8a41.2,41.2,0,0,0-8.9,0l-1,3.85a22.62,22.62,0,0,1,17.45,1,128.07,128.07,0,0,0,17.47,6.57Z" transform="translate(0 0)"/><path class="cls-46" d="M251.31,318.73s18.24-52.36,25.34-63.28l-.37-3.18a6.36,6.36,0,0,1,3.35-4.34h-1l-3.5,3.25s-7.39,30.1-21.21,32.6C253.89,283.78,250.26,288.5,251.31,318.73Z" transform="translate(0 0)"/><path class="cls-58" d="M251.12,323.89s4.62,51.85,12.94,76.11h-8.64S251.08,334.67,251.12,323.89Z" transform="translate(0 0)"/><path class="cls-59" d="M282.6,273.14l15,126.86h7.45S293.32,336.93,282.6,273.14Z" transform="translate(0 0)"/><path class="cls-60" d="M314.39,400s-9.76-82.6-7-133.85c0,0,2.13,59.9,23.33,133.85Z" transform="translate(0 0)"/><path class="cls-61" d="M313.74,294.5s10.91,70.22,21.55,105.5h1.76S323.34,347.24,313.74,294.5Z" transform="translate(0 0)"/><path class="cls-62" d="M285.52,255.61a269.49,269.49,0,0,0-7.6,73.38S279.52,284.7,285.52,255.61Z" transform="translate(0 0)"/><path class="cls-63" d="M287.65,255.61s-4.55,20.54,11.22,76.13C298.87,331.74,287.48,281.24,287.65,255.61Z" transform="translate(0 0)"/><path class="cls-64" d="M337.05,217.37s8.35-15.14,22.17-16.87C359.22,200.5,357.9,210.5,337.05,217.37Z" transform="translate(0 0)"/><path class="cls-21" d="M364,204.36s6.84-1.33,11.55-5.9l-.08,1.65S373,202.56,364,204.36Z" transform="translate(0 0)"/><path class="cls-55" d="M366.37,191.88s4.66-1.41,5.29.57-4.9,3.22-5.29,3.06C365.78,195.27,365,194.8,366.37,191.88Z" transform="translate(0 0)"/><path class="cls-55" d="M363.8,201.41s-.92.85-.4,2.93c0,0,4.48-.9,4.83-2.93S363.8,201.41,363.8,201.41Z" transform="translate(0 0)"/><path class="cls-55" d="M362.68,205.63s-1.09.8-.59,3c0,0,5-.22,4.9-2.27S362.68,205.63,362.68,205.63Z" transform="translate(0 0)"/><path class="cls-55" d="M363.44,210.31a2.8,2.8,0,0,0-.39,3.13s3.61-.72,3.32-2.51S363.44,210.31,363.44,210.31Z" transform="translate(0 0)"/><path class="cls-21" d="M374.41,193.78l2.82-1-1.71,1-6.66,3.32S373.37,194.5,374.41,193.78Z" transform="translate(0 0)"/><polygon class="cls-65" points="359.96 172.46 323.26 222.63 316.02 246.3 373.04 172.34 359.96 172.46"/><path class="cls-66" d="M282.6,244a4.38,4.38,0,0,0,3.34,3.91,41.07,41.07,0,0,0,4.43,1l2.9,2.27s10.34,4,14.52,3.55l-.4.79a12.93,12.93,0,0,1,2.55,3.59c.78,1.87-.09,0-.09,0l-3.36-1.27s-15.84-7.76-18.95-9.18-8.94-.73-8.94-.73Z" transform="translate(0 0)"/><path class="cls-66" d="M311.44,245.74l7.4-15.18L314.25,247l1.52,1.3s2.4,1.62,25.9-.53L338.35,252l-3.14,3.14s-9.59,6.65-13.35.49l-.5-1.36-8-1.23Z" transform="translate(0 0)"/><path class="cls-66" d="M322.48,264s1,7.73,4.07,9.79,13.15-23.5,13.15-23.5S329.19,261.57,322.48,264Z" transform="translate(0 0)"/><path class="cls-66" d="M253.94,266.15s-1.49,8.43-.57,11.82c7.47,3.11,19-18,19-18l2.74-8.76S264,261.82,253.94,266.15Z" transform="translate(0 0)"/><path class="cls-67" d="M308.85,263.8s-4.83,39.57,0,74.45c0,0-2.09-42.8,2.89-61.24Z" transform="translate(0 0)"/><path class="cls-68" d="M319.27,77.09s-9.06-3.31-27.66,14.44C291.61,91.53,309.91,68.7,319.27,77.09Z" transform="translate(0 0)"/><path class="cls-69" d="M278.7,105.32l12.91-13.79A55.6,55.6,0,0,0,277.18,106Z" transform="translate(0 0)"/><path class="cls-46" d="M277.4,154.68s-6,14.57-12.45,24.56c0,0,7.71-6.09,13.87-10.41Z" transform="translate(0 0)"/><path class="cls-70" d="M310.53,171.56s1.17-3.84,4.31-4.24l-1.25-2.59s-4.2-1.51-4.42,4.31Z" transform="translate(0 0)"/><path class="cls-54" d="M306.92,195.19l5.87,2.19a6.69,6.69,0,0,0,3.64-1.75l-6.49-3.85,7,3.41a5.21,5.21,0,0,0,3.05-2.43,63.06,63.06,0,0,0-5.37-4.78s3.69,2,5.37,4.26c0,0,2.48-.34,2.84-2.32.65,1.4-1.37,4.51-3,6.77,0,0-1.87,5.1-5.48,6.13s-3.86-1.39-3.86-1.39Z" transform="translate(0 0)"/><path class="cls-54" d="M323.16,208.05l-8.22,2.51-5.77,5.16s2-1.36,5.22-3.39A71.45,71.45,0,0,1,323.16,208.05Z" transform="translate(0 0)"/><path class="cls-54" d="M320.66,197.86a37,37,0,0,1,3.59,5.57s.3-3.88.58-5.28l-2.4-4.45Z" transform="translate(0 0)"/><path class="cls-71" d="M264.06,275.91s.74,59.17,7.38,124.09h-16s-8.9-101.75-1.53-116.22C253.89,283.78,261.07,280.12,264.06,275.91Z" transform="translate(0 0)"/><path class="cls-21" d="M321.52,124.69s.19,3.9,2.43,3.9,3.83-5.24,3.83-5.24-2,3.88-4.1,4.29S321.52,124.69,321.52,124.69Z" transform="translate(0 0)"/><path class="cls-21" d="M299,119.82s5.26,5.13,7.95,6.15,4.1-2.62,4.1-2.62a5.23,5.23,0,0,1-3.1,1.84C305.29,124.83,299,119.82,299,119.82Z" transform="translate(0 0)"/><path class="cls-72" d="M310.78,203.84c1.77,3,2.69,8,2.69,8l-4.3,3.85s7.35-5.25,14.22-7.67a14.65,14.65,0,0,0,.86-4.62,32.6,32.6,0,0,1,.58-5.28l-2.4-4.45-1.77,4.16-.79-1.17s-1.62,3.71-4.13,5.37c-1.86,1.24-4.66.43-4.66.43Z" transform="translate(0 0)"/><path class="cls-73" d="M307.42,95.16c-2.43,1.53,1.91-3.16-11.49-4.71s-13.07-14-12.18-15.21-.73-1.47-.73-1.47a16.54,16.54,0,0,1,3.48-4.19s-2.21,3.13-2.1,10S295.08,90.43,304,90.45s10.8-2,10.8-2S309.94,93.57,307.42,95.16Z" transform="translate(0 0)"/><path class="cls-73" d="M309.17,95.32s6.11-1,7.83,3.46A16.86,16.86,0,0,0,321.12,92s-.78,1.34-3.45,1.44-2-3.59-2-3.59A26.86,26.86,0,0,1,309.17,95.32Z" transform="translate(0 0)"/><path class="cls-73" d="M329.35,98.2a21.42,21.42,0,0,1,3.32-1.71c1.1-.34,1.55.86,1.55.86a36.54,36.54,0,0,0,2.5-4.72s.33,1.26-2.26,1.71-4-2.3-4-2.3S330.54,96.08,329.35,98.2Z" transform="translate(0 0)"/><path class="cls-74" d="M42.21,305.64l2.4,30.8S37.22,343,31.54,343C31.54,343,29.77,330.28,42.21,305.64Z" transform="translate(0 0)"/><path class="cls-75" d="M265.9,390.67a96.86,96.86,0,0,1-27.6-1.62,95.85,95.85,0,0,1-24.3-9.28l-1.9-12.95s13.92-17.19,30.32-9.31S265.9,390.67,265.9,390.67Z" transform="translate(0 0)"/><path class="cls-76" d="M134.8,136c-17.32,3-25.77,18.39-26.14,26.72s5.55,40,7.57,48.54,16.8,17.42,22,18.79,10.36.11,14.66-2.07,14.52-11.67,16.67-20.07,2.78-47.4,0-57.12S149,133.6,134.8,136Z" transform="translate(0 0)"/><path class="cls-77" d="M129,225.45l.88,36.25s3.81,24.54,15.66,25.36c14.84,1,16.55-27.43,16.55-27.43l-2.33-37s-8.61,8-16.47,8S129,225.45,129,225.45Z" transform="translate(0 0)"/><path class="cls-78" d="M111,162.76s3.46-16.36,23.74-17.63,28.17,6,30.85,11.25,6.06,14.16,6.06,14.16l-.94-24.94L158,139.14s-26.78-2.66-36.51,2.51S110.78,154,111,162.76Z" transform="translate(0 0)"/><path class="cls-79" d="M171.39,179a9.25,9.25,0,0,1,6.8-3s2.84,2.54,1,9c-1.58,5.7-5.58,13.15-6.34,15a3.83,3.83,0,0,1-2.49,2.24S171.45,186.77,171.39,179Z" transform="translate(0 0)"/><path class="cls-80" d="M111,183.9a5,5,0,0,0-6.36,0,58.13,58.13,0,0,0,3.18,11.59c2.5,6.57,3.82,11.07,7.33,11Z" transform="translate(0 0)"/><path class="cls-81" d="M171.4,186.25s4.12-4.72,6.27-5.19.61,6.19-.71,9.66-1.47,3.79-1.47,3.79,2.66-8.42,1.85-10.32-2.17-1.07-2.22-.3,1.41,4.87-.62,8.93-2.28,5.08-2.84,3,1.18-5.54,1.23-7.54S171.4,186.25,171.4,186.25Z" transform="translate(0 0)"/><path class="cls-82" d="M112.12,189.79s-3.46-2.86-4.78-2.11.31,7.77,3.27,13.45c0,0-3.06-7.8-2-9.65s3.52,1.37,2.38,1.51c-3.43.43-1.62,5.75,1.1,7.87s-.43-1.64-.94-5,1.33-3.21,1.33-3.21Z" transform="translate(0 0)"/><path class="cls-83" d="M123.36,138s6.45-17.82,21-20.73c0,0-5.38,1.87-11.34,8.18-2,2.16-6.59,10.11-6.59,10.11S141.72,118,151.86,118.9s10.42,16.94,15.06,19.61,5.9,8.21,5.9,8.21,4.05,5.34,3.79,10.95-5.21,25.05-5.21,25.05,1.3-18.07-3.25-25.32c0,0-1.52-10-8.05-14,0,0-8.81,1-22.45-.71s-18.1,1.73-18.1,1.73-8.43,7.29-8.34,16.33c0,0-3.18,6.72.13,24.75,0,0-7.61-18.42-7.48-25.95s7.26-14.92,7.26-14.92-5.91,3.44-9.29,8c0,0-4.68-9.41,17.34-11.71A6.72,6.72,0,0,0,123.36,138Z" transform="translate(0 0)"/><path class="cls-84" d="M129.56,248.84s-11,13.48-19.63,19.44a115.15,115.15,0,0,1-15.1,8.93s-2,74.22,7.13,113h90.25s7.58-92.63,2.85-116.64c0,0-23.8-11.2-33.69-25.41l.43,12.9s-3.91,20.45-16.26,21.46c-11.4.93-15.74-23.91-15.74-23.91Z" transform="translate(0 0)"/><path class="cls-85" d="M129.46,244.36l-4.32-1a88.84,88.84,0,0,1-16.5,20.94c-7.62,6.85-14.19,5.24-26,12.94,0,0,13,37.61,12.05,71,0,0,2.07,21.69,5.29,42l96.67-.62s6.28-26,6.66-50.9c0,0,5-47.27,15.47-65.12-13.83-7.17-24.06-6.76-35.81-12.72s-19.71-20.8-19.71-20.8l-2.36,1.19.51,6.92s8,9.83,11.33,19.13c4,11.36-7.58,122.92-7.58,122.92l-36.76-.62S118.7,278.75,120,268.28s9.54-19.44,9.54-19.44Z" transform="translate(0 0)"/><path class="cls-86" d="M82.6,277.21V289.9L64.51,322.28s-4.26-13.66-4.45-16.22,0-7.09,0-7.09l-2.85-2.46.48,4.62s1.51,27.72-26.15,40.24c0,0,2-19.57,10.67-35.73l-.38-2.05s-9.72,15.2-12.56,40.86l8.52,4.31s8.53,26.64,19.71,41.78l12.47.13A115.16,115.16,0,0,0,97.1,345.41S101.27,311.8,82.6,277.21Z" transform="translate(0 0)"/><path class="cls-87" d="M79.73,214.61S70.26,230.22,68.49,236s-.38,16.43-1.9,18.89c0,0-9.72,9.17-10.86,12.05s0,17.8,0,17.8c-3.85,7.9-13,10.36-13,10.36s-.85-25.56-1.14-26.18-5.7-4.35-5.7-4.35a85.39,85.39,0,0,1-3.34-10.91c-1.05-4.36-1.79-8.57-2.29-12h0c-.73-4.94-1-8.34-1-8.34l-.76-10.16c1.32-6.57,4.86-5.54,4.86-5.54a69.9,69.9,0,0,0,2,11.64l.57-.41a109.13,109.13,0,0,1-1.39-12.67c1.77-5.54,6.13-4,6.13-4,1.07,6.71,2.46,13.48,2.46,13.48-1.2-8.69-.38-22.25-.38-22.25,1.64,4,6.38,4.66,6.38,4.66-.95,4.72,0,14.66,0,14.66l1-.64c.35-4.8,1-9.94,1.8-14.86A194.29,194.29,0,0,1,57,183.62c1.27-3.57,4.55-.73,4.55-.73,1.34,6.79,2,11.85,1.3,15.46h0c-1.08,5.53-4.24,7.71-4.24,7.71S56.36,219,56.55,221.15s1.23,16.43,1.23,16.43a15.11,15.11,0,0,0,6.63-7.39c.1-9.25,3.79-14.28,8.53-16.43S79.73,214.61,79.73,214.61Z" transform="translate(0 0)"/><path class="cls-21" d="M115.94,183.12l-.37,1.33s7.55,2.09,14.1-2.6Z" transform="translate(0 0)"/><path class="cls-88" d="M42.49,288.52s-3.81,4.46-4.32,8c0,0,2.46,6.64,4,9.1l1,28.25a42,42,0,0,0,14.43-32.76s-1-14.27,0-18.28l-2.16-1,.19,2.86s-6.38,8.73-13,10.37Z" transform="translate(0 0)"/><path class="cls-89" d="M218.74,273.6v11.31s33.7,57.28,44.35,92.87l2.81,12.89s-19.69-31.23-35-29.59S214,372.58,214,372.58l1.14,5.13L214,379.77l-3.22-15.61h-2.84V361.7l-5.24-11.32S200.36,298.36,218.74,273.6Z" transform="translate(0 0)"/><path class="cls-90" d="M143.8,159.87s.71-5.64,2.85-7Z" transform="translate(0 0)"/><path class="cls-21" d="M148.4,179.35A23.28,23.28,0,0,0,163,177.51l-1-1.28S159,179.49,148.4,179.35Z" transform="translate(0 0)"/><path class="cls-91" d="M113.22,167.66c-5.19,4.42.49,21.29.49,21.29s12.57,2.91,19.48-5.83V172.38s2-3.41,9.16-3.15c0,0,2.58,10.36,4.4,15,0,0,12.94,3.56,19.76-5.67,0,0,.56-10.25-2.59-15.19s-20.12-3.48-20.12-3.48-4,3.48-14.4,2.66C129.4,162.53,116.59,164.79,113.22,167.66Z" transform="translate(0 0)"/><path class="cls-92" d="M129.67,180.36s-1.7-7.67-7-8-6.31,8-6.31,8Z" transform="translate(0 0)"/><path class="cls-93" d="M147.45,177.51s-.14-8.92,5.35-10.46,7.85,5.54,7.85,5.54Z" transform="translate(0 0)"/><path class="cls-32" d="M161.61,177.52a8.65,8.65,0,0,1-3.34,1.15,45.29,45.29,0,0,1-7.29.8c-1.9,0-3.33-.11-3.48-.51-.57-1.54,1.13-7.6,6.41-8.73S163.32,176,161.61,177.52Z" transform="translate(0 0)"/><path class="cls-32" d="M129.91,181.54c-.07.31-.73.69-1.74,1.06a30.88,30.88,0,0,1-8.21,1.61,11.4,11.4,0,0,1-3-.18c-2.68-.63-.74-7,4.19-8.33a5.49,5.49,0,0,1,1.91-.2h0a7.54,7.54,0,0,1,4.21,1.86.12.12,0,0,1,.05,0C129.07,178.86,130.09,180.75,129.91,181.54Z" transform="translate(0 0)"/><path class="cls-21" d="M135.47,196.86s-3.79.27-4.93-1.27.85-2.25,4-4.87,6.35-1.8,9.28-.47,5.31,1.52,5.64,2.69-3.69,2.55-4.78,2.49-1.52-.41-2.61.31a7.41,7.41,0,0,1-4.5.88A3.19,3.19,0,0,0,135.47,196.86Z" transform="translate(0 0)"/><path class="cls-94" d="M142.05,195.74a2.06,2.06,0,0,1,1.94-1.22c1.33.14,2.76.45,2.76.45A6.73,6.73,0,0,1,142.05,195.74Z" transform="translate(0 0)"/><path class="cls-94" d="M137.29,196.58a2.47,2.47,0,0,0-2-1.38c-1.37-.07-2.13,1.57-2.13,1.57a5.37,5.37,0,0,0,2.28.09A5.2,5.2,0,0,1,137.29,196.58Z" transform="translate(0 0)"/><path class="cls-95" d="M144.4,186.69s5.21-.58,5,6.25C149.44,192.94,149.26,187.79,144.4,186.69Z" transform="translate(0 0)"/><path class="cls-96" d="M159.17,175.63a5.49,5.49,0,0,1-.9,3,45.29,45.29,0,0,1-7.29.8,5.45,5.45,0,0,1-1.54-3.84,4.88,4.88,0,1,1,9.73,0Z" transform="translate(0 0)"/><path class="cls-96" d="M128.48,180.76a5.55,5.55,0,0,1-.31,1.84,30.88,30.88,0,0,1-8.21,1.61,5.42,5.42,0,0,1-1.21-3.45,5.17,5.17,0,0,1,4.33-5.26h0l.5,0a4.67,4.67,0,0,1,3.71,1.88.12.12,0,0,1,.05,0A5.44,5.44,0,0,1,128.48,180.76Z" transform="translate(0 0)"/><path class="cls-33" d="M147.45,177.51s1.59-6.43,6.92-7c5-.56,7.22,4.3,7.22,4.3s-1.33-5.28-5.88-5.55S148.29,173.26,147.45,177.51Z" transform="translate(0 0)"/><path class="cls-33" d="M129.49,180s-3.35-5-8.18-3.84a7.6,7.6,0,0,0-5.55,5.92s.46-5.52,5.12-7.06C126,173.3,129.49,180,129.49,180Z" transform="translate(0 0)"/><path class="cls-97" d="M128.48,206s3.29,1.43,12.26.5,14-8.19,14-8.19-6.65,9.89-12.13,10.57-7.73-1-10.48-1.81Z" transform="translate(0 0)"/><path class="cls-32" d="M136.89,207.16s2.78,2.24,5.82,1.36a10.86,10.86,0,0,0,5.11-3.79A28.65,28.65,0,0,1,136.89,207.16Z" transform="translate(0 0)"/><path class="cls-98" d="M152.42,197.64a6.13,6.13,0,0,1,5.78,3.84S158.87,196,152.42,197.64Z" transform="translate(0 0)"/><path class="cls-99" d="M139,211.38a13.22,13.22,0,0,0,8.8-1.73s-1.25,4.93-4.19,5.24S139,211.38,139,211.38Z" transform="translate(0 0)"/><path class="cls-100" d="M156.85,175.48a2.55,2.55,0,1,1-2.54-2.76A2.66,2.66,0,0,1,156.85,175.48Z" transform="translate(0 0)"/><path class="cls-101" d="M126.16,180.36a2.55,2.55,0,1,1-2.54-2.76A2.66,2.66,0,0,1,126.16,180.36Z" transform="translate(0 0)"/><path class="cls-64" d="M156.4,174.91a3.06,3.06,0,0,1,3.75.72Z" transform="translate(0 0)"/><path class="cls-64" d="M125.19,179.79a3.71,3.71,0,0,1,3.74.3Z" transform="translate(0 0)"/><path class="cls-46" d="M115.57,208.33c3.17,8,9.1,15.08,17.62,17.92,5.16,1.72,17.69-.14,23.66-3.61a28.73,28.73,0,0,0,13.27-17.91s.7,6.77-10.36,17.91l.39,15.81s-11.91,8.88-17.3,11.21-13.55-11.91-13.55-11.91l-.3-12.3S118.45,219.83,115.57,208.33Z" transform="translate(0 0)"/><path class="cls-102" d="M143.9,159.86s2-6.82,7.45-7l-6.32,6s5.63-4.8,10.93-3.77c0,0,5.24,1.71,8,8.28A44.4,44.4,0,0,0,143.9,159.86Z" transform="translate(0 0)"/><path class="cls-103" d="M129.4,162.53s-.47-4.89-3.57-6.62l2.79,5.34s-2.49-3-4.14-3.44-8.06,2.12-11.26,9.85A75.12,75.12,0,0,1,129.4,162.53Z" transform="translate(0 0)"/><path class="cls-46" d="M127.74,142.34c4.54-.82,14-17.79,23.48-19.16s12.14,15.91,10.37,18.38-12.13,2.13-12.13,2.13S136.87,143,133,142.31,127.74,142.34,127.74,142.34Z" transform="translate(0 0)"/><path class="cls-104" d="M162.1,145s7.19,3.13,10.85,7.91,2.61,11.75,2.61,11.75l-1.21,5.72S176.39,152.69,162.1,145Z" transform="translate(0 0)"/><path class="cls-105" d="M118.37,145.6s-15.54,8.05-12.5,24.5l1.76,5.53S104.34,157.49,118.37,145.6Z" transform="translate(0 0)"/><path class="cls-106" d="M119.55,144.46s-9.88,1.9-14.87,10.64C104.68,155.1,108.34,145.08,119.55,144.46Z" transform="translate(0 0)"/><path class="cls-107" d="M128.93,141.83s7.54-8.9,18.89-7.44S161.59,145,161.59,145s-1.25-13.39-12.15-15.51S128.93,141.83,128.93,141.83Z" transform="translate(0 0)"/><path class="cls-108" d="M167.09,139.14s10.13,3.43,10.56,12.93C177.65,152.07,180.48,141.53,167.09,139.14Z" transform="translate(0 0)"/><path class="cls-109" d="M134,188.2c-1,1.68,3.51-.28,6.82,0s3,.74,3.13,0-2.47-4.16-5.4-3.64A6.34,6.34,0,0,0,134,188.2Z" transform="translate(0 0)"/><path class="cls-110" d="M137.55,196.62s-2.58-1.1-3.74-4.93l-1.83,1A7.69,7.69,0,0,0,137.55,196.62Z" transform="translate(0 0)"/><path class="cls-111" d="M131.93,170.81c-1.35-2.48-13.67-3.46-21,4.47-3,3.3,0,16.22,4.48,19.63s13,1.47,15.86-5.74S133.27,173.29,131.93,170.81Zm-12.28,24.1c-6.62-.35-11-12.25-7.85-17.68,3.94-6.88,16.83-8.73,18.33-4.26C136.41,191.59,124.85,195.18,119.65,194.91Z" transform="translate(0 0)"/><path class="cls-111" d="M144.23,168.22c1-2.75,14.25-7.84,23.13-1.76,3.71,2.53,2.54,16.84-2.06,21.58-4.18,4.3-13.23,4.46-17.39-1.94S143.24,171,144.23,168.22ZM160.94,189c6.81-1.88,10-15.84,5.87-20.45-5.21-5.84-19.54-3.39-20.37,1.35C143,189.66,155.59,190.5,160.94,189Z" transform="translate(0 0)"/><path class="cls-112" d="M131.93,170.36c-1.35-2.33-13.67-3.24-21,4.18-3,3.1,0,15.2,4.48,18.4s13,1.37,15.86-5.38S133.27,172.68,131.93,170.36Zm-12.28,22.58c-6.62-.33-11-11.48-7.85-16.57,3.94-6.44,16.83-8.18,18.33-4C136.41,189.82,124.85,193.19,119.65,192.94Z" transform="translate(0 0)"/><path class="cls-113" d="M144.23,167.93c1-2.58,14.25-7.35,23.13-1.65,3.71,2.37,2.54,15.78-2.06,20.22-4.18,4-13.23,4.18-17.39-1.82S143.24,170.51,144.23,167.93Zm16.71,19.49c6.81-1.77,10-14.84,5.87-19.16-5.21-5.47-19.54-3.18-20.37,1.26C143,188,155.59,188.8,160.94,187.42Z" transform="translate(0 0)"/><path class="cls-114" d="M132.68,174s6.6-2.88,12-.61l-.37-3a14.07,14.07,0,0,0-11.89,1.33Z" transform="translate(0 0)"/><polygon class="cls-115" points="170.74 172.38 172.66 177.6 175.07 176.58 171.84 167.05 170.74 172.38"/><polygon class="cls-116" points="109.93 177.51 107.42 178.39 108.18 181.53 110.05 182.06 109.93 177.51"/><polygon class="cls-116" points="172.08 172.17 169.55 172.63 168.4 167.42 171.84 167.05 172.08 172.17"/><path class="cls-117" d="M146.75,174.54s-.89,8.18,6.15,12.14a16,16,0,0,0,9.1-.43L157.92,174Z" transform="translate(0 0)"/><path class="cls-117" d="M112.15,179.52s-.74,8.18,5,12.14a10.8,10.8,0,0,0,7.45-.43L121.28,179Z" transform="translate(0 0)"/><path class="cls-21" d="M133.18,178.45a10.21,10.21,0,0,1,11-1.59l-.64-2.26a9.76,9.76,0,0,0-10.47,1.16Z" transform="translate(0 0)"/><path class="cls-21" d="M170.69,197.64a3.39,3.39,0,0,1,2.21,1.77c.46,1.31-2.5,2.83-2.5,2.83Z" transform="translate(0 0)"/><path class="cls-21" d="M114.33,202.24s-2,2.37-1.71,3.23,2.57,1.05,2.57,1.05Z" transform="translate(0 0)"/><path class="cls-118" d="M128.93,141.83a25.92,25.92,0,0,1,15,0c8.64,2.39,3.92,7.73,3.92,7.73S145.16,138.72,128.93,141.83Z" transform="translate(0 0)"/><path class="cls-73" d="M149.46,118.9a3.3,3.3,0,0,1,1.39,4.34,6.24,6.24,0,0,1,5.43,1.2,6.44,6.44,0,0,0-2.66-2.32c-1.48-.52-1.61-3.22-1.61-3.22A5.27,5.27,0,0,0,149.46,118.9Z" transform="translate(0 0)"/><path class="cls-73" d="M149.84,129.56c.93.94-1.61,4.89-1.61,4.89l4.3,1.13s-1.53-1.61-1.38-3a2.61,2.61,0,0,1,1.72-1.94Z" transform="translate(0 0)"/><path class="cls-46" d="M125.15,254.87s1.94,32.28,20.07,33.53c20.24,1.39,21.32-25.87,18.8-36.83,3.75,16.5.44,37.2-18.39,37.65C126.33,289.67,125.15,254.87,125.15,254.87Z" transform="translate(0 0)"/><path class="cls-46" d="M129.56,248.84s-.56,30.63,16.3,30c16.23-.56,15.75-23.51,15.75-23.51l.19,5.71s-4.71,23.55-17.4,21.46S129,257.19,129.56,248.84Z" transform="translate(0 0)"/><path class="cls-119" d="M130.22,226.23s9.65,41,11.83,43.29-3.84-39.43-3.84-39.43Z" transform="translate(0 0)"/><path class="cls-46" d="M160.86,241.27l1.24-1.19s8.7,16,11.73,25.36-6.48,124.8-6.48,124.8l-10.56-.36s11.31-68,13.33-94.81a93.1,93.1,0,0,0-8.75-46.88Z" transform="translate(0 0)"/><path class="cls-46" d="M136.37,390s-15-106.72-14.07-120.49,7.26-20.68,7.26-20.68l-.1-4.48-4.32-1s-5.87,17.14-6.82,26.28S125.15,390,125.15,390Z" transform="translate(0 0)"/><path class="cls-120" d="M111,261.7S101.46,273.34,93.88,281c0,0,1.89,5.2,12,7.11L97.5,298.39s8.5,56.67,19.11,92l8.54-.37s-7.59-107.16-6.83-120.4,6.82-26.28,6.82-26.28S118.81,252.58,111,261.7Z" transform="translate(0 0)"/><path class="cls-121" d="M163.22,240.08s10.79,18.36,22.91,22.29l13.47,18.36s-.09,6.16-14.68,9.32l9.25,11.9s-6.07,52-19.74,87.82l-7.08.47S177.67,284,174.18,267.39A80.84,80.84,0,0,0,163.22,240.08Z" transform="translate(0 0)"/><path class="cls-122" d="M125.19,261.7s-.55,36.69,17.16,59.41Z" transform="translate(0 0)"/><path class="cls-123" d="M168.4,265.3s4,26.71-20,43.18C148.4,308.48,164.6,290,168.4,265.3Z" transform="translate(0 0)"/><path class="cls-46" d="M38.17,313.24l2.77,22.55s16.43-9.48,16.75-34.66c0,0-2.21,17-14.09,25.05l-1.39-20.54-.77-1.39Z" transform="translate(0 0)"/><path class="cls-46" d="M42.72,295.07l-3.79.92a17.66,17.66,0,0,1,3.6-6.36Z" transform="translate(0 0)"/><path class="cls-124" d="M62,198.35c-1.08,5.53-3.4,7.71-3.4,7.71S56.36,219,56.55,221.15c-8.9,1.88-21.28,8.94-23.94,12.76-2.44,3.53-.45,17.23-.12,19.42l-2.24-11.72h0c-.73-4.94-1-8.34-1-8.34l-.76-10.16c1.32-6.57,4.86-5.54,4.86-5.54a69.9,69.9,0,0,0,2,11.64l.57-.41a109.13,109.13,0,0,1-1.39-12.67c1.77-5.54,6.13-4,6.13-4,1.07,6.71,2.46,13.48,2.46,13.48-1.2-8.69-.38-22.25-.38-22.25,1.64,4,6.38,4.66,6.38,4.66-.95,4.72,0,14.66,0,14.66l1-.64c.35-4.8,1-9.94,1.8-14.86C58.86,205.61,61.85,198.77,62,198.35Z" transform="translate(0 0)"/><path class="cls-125" d="M42.78,203.32l18.13-10.38s6.14,12.65-11.75,15C49.16,208,43.6,209.31,42.78,203.32Z" transform="translate(0 0)"/><path class="cls-126" d="M36.57,212.58l12.5-9.19s2.84,4.38.34,8.41c-2.15,3.47-9.19,6.8-14.75,5.47C34.66,217.27,33.94,214.82,36.57,212.58Z" transform="translate(0 0)"/><path class="cls-127" d="M33,217.35l11-.92s.43,6.5-5.27,7.29a17.22,17.22,0,0,1-10-1.29S28.29,217.75,33,217.35Z" transform="translate(0 0)"/><path class="cls-55" d="M54.49,196.62c-2.53,1.44,1.54,1,3.53,0a8.75,8.75,0,0,1,2.89-3.68Z" transform="translate(0 0)"/><path class="cls-55" d="M49.07,203.39s-3.64,2.56-4.2,5c0,0-4.8,2.68-3.54.93s7.74-6,7.74-6Z" transform="translate(0 0)"/><path class="cls-55" d="M44.07,216.43s-2.3-.34-4.1,2.59c0,0-4.3.28-3.54-1.2S44.07,216.43,44.07,216.43Z" transform="translate(0 0)"/><path class="cls-128" d="M66.59,254.87s-12.76,8.34-15.91,12.45a45.57,45.57,0,0,0-3.79,5.34l8.84-5.75S59.39,262.4,66.59,254.87Z" transform="translate(0 0)"/><path class="cls-129" d="M57.78,237.58s-11.15,2.09-11.78,16c0,0-.06-19.85,11.7-17.11Z" transform="translate(0 0)"/><path class="cls-130" d="M64.41,230.19c.79,2.49,8.66-4,8.66-4s-6.11,9-5.56,17.82c0,0-1.7-5.55-6.11-6.16s-8.61,2-8.61,2a19.79,19.79,0,0,1,5-2.3S62.73,234.46,64.41,230.19Z" transform="translate(0 0)"/><path class="cls-21" d="M42.59,292a23.49,23.49,0,0,0,13.14-7.26s-5.18,7.87-13,10.37Z" transform="translate(0 0)"/><path class="cls-131" d="M82.6,289.9S92,312,94.65,336.44c0,0,1.88-36.75-12.05-59.23Z" transform="translate(0 0)"/><path class="cls-132" d="M64.51,322.28S76.63,338.7,77.39,358c0,0,3.79-29.36-12.23-36.89Z" transform="translate(0 0)"/><path class="cls-133" d="M29.27,344.45S45.81,342,55.73,323.1c0,0-2.4,21.76-17.94,25.66Z" transform="translate(0 0)"/><path class="cls-134" d="M60.06,306.06s3.88,26.48,6.53,46.4,1.52,22.59,1.52,22.59,1.31-11-.57-31A209.06,209.06,0,0,0,60.06,306.06Z" transform="translate(0 0)"/><path class="cls-46" d="M94.65,348.22l-.77-19.08s5.55,46.87,16.16,61l3.42-2.4s-5-26.88-9.38-51.34l12.53,53.94-16.67-.14S95.93,361.08,94.65,348.22Z" transform="translate(0 0)"/><path class="cls-135" d="M218.74,273.6S206.1,293,204.37,316.67c0,0,4.71-21.09,14.37-31.76Z" transform="translate(0 0)"/><path class="cls-136" d="M212.87,306.06s1.89,37.16-2.09,58.1h-2.84S215.71,336.24,212.87,306.06Z" transform="translate(0 0)"/><path class="cls-137" d="M202.7,350.38l1.67-24.2s-6.09,48.14-15.57,63.49l7.81-.05S201.92,368.2,202.7,350.38Z" transform="translate(0 0)"/><path class="cls-138" d="M211.56,367.92s5-11.25,13.56-13.22,25.45,3.23,25.45,3.23-4.48-12.31-17.62-10.67S217.79,356,215.2,360.19s-4.23,4.86-4.23,4.86Z" transform="translate(0 0)"/><path class="cls-139" d="M218.11,360s6.5-5.41,17.94-3.63,14,4.31,14,4.31S232.57,353.69,218.11,360Z" transform="translate(0 0)"/><path class="cls-140" d="M206.38,358.34S213.3,328.85,209,302c0,0-6.62,6.72-6.31,48.43Z" transform="translate(0 0)"/><path class="cls-46" d="M178.19,389.67s12-44.07,11.9-81.19c0,0-3.88,46.52-15.66,81.29Z" transform="translate(0 0)"/><path class="cls-141" d="M221.39,364.16l1.33,10.78s12.75,2,12.91,1.72,0-14.34,0-14.34Z" transform="translate(0 0)"/><path class="cls-142" d="M235.73,358.89c-17.81-3-24,9.86-24,9.86l2.27,11c21.19,14.21,51.9,10.9,51.9,10.9S253.54,361.9,235.73,358.89Zm-20.59,18.82-.76-6.77s2-11.43,19.71-9.78c13.89,1.29,28.13,26.7,28.13,26.7A63.35,63.35,0,0,1,215.14,377.71Z" transform="translate(0 0)"/><path class="cls-143" d="M215.86,376.66s-11.11,5.57-13.26,7.63a9,9,0,0,0,0,4.16c.6,1.69,4.87,1.69,7.42.76s6.35-8.52,6.35-8.52Z" transform="translate(0 0)"/><path class="cls-144" d="M209.68,390.79s3.31-16.25,14-21.31,24.9,9.95,25.53,21.58Z" transform="translate(0 0)"/><path class="cls-46" d="M211.17,385.75h12.37s1.84-11.39,5.18-17.07C228.72,368.68,217.3,368,211.17,385.75Z" transform="translate(0 0)"/><path class="cls-145" d="M216.28,375.86a20.56,20.56,0,0,1,12.27-.4c7,1.82,17.18,13.07,18,13.55a10.17,10.17,0,0,0,2.43.76s-2.81-16.13-14.37-20.37S216.28,375.86,216.28,375.86Z" transform="translate(0 0)"/><path class="cls-46" d="M226.9,385.75s.81-11.63,2.9-16.35c0,0,6.34,1,9.53,3.6l-.7,13.06Z" transform="translate(0 0)"/><path class="cls-146" d="M251.08,378.81c0,2.81-1.44,6.5-2.06,7.95v0l-.26.57h0c-3.85.62-4.56-2.4-4.56-2.4l.94-2.16,0,0a3.1,3.1,0,0,1-3.42,0c-1.9-1.18-3.38-4.88-3.38-4.88L239,375a11.38,11.38,0,0,1-.82,1.12,3,3,0,0,1-.79.71c-.69.33-6.25-1.24-6.82-2.5a12.59,12.59,0,0,1-.17-3.78v0c.11-2.37.38-4.93.38-4.93l-2.11-.41s-1.72,4-3.08,5.49v0a4.26,4.26,0,0,1-.32.3,50.84,50.84,0,0,1-6.51,3.32,4.69,4.69,0,0,1-3.24-5.28,6.35,6.35,0,0,1,.38-1.55c2.53-3.84,2.74-9.27,6.79-9.16a6.81,6.81,0,0,1,5.67,2.75,6.6,6.6,0,0,0,2.43.47,10.58,10.58,0,0,1,6,.11c2.86,1.06,4.59,5.09,4.59,5.09s4.61,2.74,5.43,4,.57,5.06.57,5.06C249.25,376.28,251.08,378.81,251.08,378.81Z" transform="translate(0 0)"/><path class="cls-46" d="M184.92,290.05l-10-6.69A31.32,31.32,0,0,1,184.92,290.05Z" transform="translate(0 0)"/><path class="cls-46" d="M105.88,288.12s7.89-7.53,12.54-8.65A94,94,0,0,0,105.88,288.12Z" transform="translate(0 0)"/><path class="cls-147" d="M90.2,390.67S80.05,344.26,77.11,309.4c0,0,74.25-11.46,129.83-4.94,0,0-2.4,46.29-8.62,86.21Z" transform="translate(0 0)"/><path class="cls-65" d="M148.4,304.53,90.2,390.67h47.35l52.54-86.14S165.41,302.44,148.4,304.53Z" transform="translate(0 0)"/><path class="cls-148" d="M77.11,309.4l2.24-3.61s63-10,124-3.68l3.57,2.35S135,300.9,77.11,309.4Z" transform="translate(0 0)"/><path class="cls-64" d="M128.75,354.07s8.35-15.14,22.17-16.87C150.92,337.2,149.59,347.2,128.75,354.07Z" transform="translate(0 0)"/><path class="cls-64" d="M184.92,300.67v3.25l-21.7-.17V300S179.33,300.33,184.92,300.67Z" transform="translate(0 0)"/><path class="cls-64" d="M86.12,304.84v3.31l15.94-1.65.72-3.56S90.48,304.24,86.12,304.84Z" transform="translate(0 0)"/><path class="cls-149" d="M88.67,383.36s8.75,5.53,53.68,6.42,56.72-4.06,56.72-4.06l-.75,4.95H90.2Z" transform="translate(0 0)"/><path class="cls-46" d="M225.58,370.68v0a4.26,4.26,0,0,1-.32.3,50.84,50.84,0,0,1-6.51,3.32,4.69,4.69,0,0,1-3.24-5.28c1.53.86,9.11-1,9.87-.59S225.58,370.68,225.58,370.68Z" transform="translate(0 0)"/><path class="cls-46" d="M239,373.45a7,7,0,0,1-.83,2.67,3,3,0,0,1-.79.71c-.69.33-6.25-1.24-6.82-2.5a12.59,12.59,0,0,1-.17-3.78v0s3-2.13,5.3-1.14S239,371.91,239,373.45Z" transform="translate(0 0)"/><path class="cls-46" d="M246.07,380.08a5.09,5.09,0,0,1-.95,2.72l0,0a3.1,3.1,0,0,1-3.42,0c-1.9-1.18-3.38-4.88-3.38-4.88.32-1.36,2-2,4-1A13,13,0,0,1,246.07,380.08Z" transform="translate(0 0)"/><path class="cls-46" d="M249,386.76v0a.83.83,0,0,1-.26.57h0c-3.85.62-4.56-2.4-4.56-2.4.46-1.07,2.55-1.19,3.69-.42A2.58,2.58,0,0,1,249,386.76Z" transform="translate(0 0)"/><path class="cls-46" d="M202.6,388.45a6.05,6.05,0,0,0,5.86.3c3.46-1.49.89-8.47.89-8.47l6.2-3.37s-4.53,7.53-5.53,12.3C210,389.21,204,391.07,202.6,388.45Z" transform="translate(0 0)"/><path class="cls-55" d="M216.37,367.82a13.07,13.07,0,0,1,7.17-.78s-1-3.2-3.58-2.88S216.37,367.82,216.37,367.82Z" transform="translate(0 0)"/><path class="cls-55" d="M233.8,368.4s4.08-.18,5.45,2.18c0,0-1.23-3.95-2.94-3.8A3.43,3.43,0,0,0,233.8,368.4Z" transform="translate(0 0)"/><path class="cls-55" d="M242.18,375.61s3.08,1,3.89,3.18c0,0,0-4.11-1.42-4.46S242.18,375.61,242.18,375.61Z" transform="translate(0 0)"/><path class="cls-55" d="M246.6,383.25s1.92.45,2.43,1.34c0,0,.78-2.82-.45-3.18S246.6,383.25,246.6,383.25Z" transform="translate(0 0)"/><path class="cls-150" d="M241.35,366.76A45.56,45.56,0,0,1,239,375a13.22,13.22,0,0,0,3.2-7.73Z" transform="translate(0 0)"/><path class="cls-151" d="M247.35,375.86l-1.64,5.9s3.47-1.77,2.91-5.34Z" transform="translate(0 0)"/><path class="cls-46" d="M226.68,369.13l1.66-8,.71.24-.39,3.86,2.11.41-.27,3.08S227.6,368.43,226.68,369.13Z" transform="translate(0 0)"/><path class="cls-46" d="M184.92,290.05s10.33-3.43,14.68-9.32a15,15,0,0,1-13,11.43Z" transform="translate(0 0)"/><path class="cls-46" d="M93.88,281s-.81,7.09,9.83,9.77l3.29-3.69A29.8,29.8,0,0,1,93.88,281Z" transform="translate(0 0)"/><path class="cls-152" d="M171.4,251.23s5.85,14.45,10,19.17S197,277.21,197,277.21l-10.89-14.84S178.27,260.32,171.4,251.23Z" transform="translate(0 0)"/><path class="cls-153" d="M122.85,246.56s-4.44,12.27-7.28,22.33-15.14,11.29-15.14,11.29S113.74,257.19,122.85,246.56Z" transform="translate(0 0)"/><polygon class="cls-21" points="35.44 263.37 44.07 268.69 41.58 268.89 35.88 264.54 35.44 263.37"/><path class="cls-154" d="M37.41,241c1.87-5.2,14-11.53,16.71-10.42s1.94,7.83,1.94,7.83-7.35.81-10,13.13c0,0-3.47,3.93-5.88,1.76S37.41,241,37.41,241Z" transform="translate(0 0)"/><path class="cls-155" d="M218.74,284.91a251.76,251.76,0,0,0,10.73,36.2c7.74,20.75,27.14,38.65,27.14,38.65S234.63,310.36,218.74,284.91Z" transform="translate(0 0)"/><path class="cls-155" d="M190.09,264.22a39.86,39.86,0,0,0,7.46,8.92c4.17,3.42,16.8,7.59,16.8,7.59l4.39-7.13a107.91,107.91,0,0,0-16.14-6.12C194.62,265.31,190.09,264.22,190.09,264.22Z" transform="translate(0 0)"/><path class="cls-155" d="M82.6,277.21a97.05,97.05,0,0,1,4.48,9.23s5.63-5.91,9.16-9.88a29.62,29.62,0,0,0,5-7.67C95.5,271,85.76,274.15,82.6,277.21Z" transform="translate(0 0)"/><path class="cls-156" d="M147,159.67a14.19,14.19,0,0,1,11.25-3.38A34,34,0,0,0,147,159.67Z" transform="translate(0 0)"/><path class="cls-157" d="M149.11,159.67s7.78-2.73,12.48-.31A23.66,23.66,0,0,0,149.11,159.67Z" transform="translate(0 0)"/><path class="cls-158" d="M128.93,162.62s-3.92-4.61-7.57-4.1Z" transform="translate(0 0)"/><path class="cls-159" d="M127.74,162.85s-5.76-4.65-10.59-1.23C117.15,161.62,121.36,159.44,127.74,162.85Z" transform="translate(0 0)"/><path class="cls-160" d="M50.44,207.78a7.47,7.47,0,0,0-1.37-4.39s1.83,1,2.27,4.22Z" transform="translate(0 0)"/><path class="cls-161" d="M43.11,216.42l-8.45.85S37.42,216,43.11,216.42Z" transform="translate(0 0)"/><rect class="cls-162" y="390.67" width="400" height="9.33"/></g></g></svg>