<svg xmlns="http://www.w3.org/2000/svg" xmlns:xlink="http://www.w3.org/1999/xlink" viewBox="0 0 500 500"><defs><style>.cls-1{fill:#469c9d;}.cls-2{fill:#006486;}.cls-3{fill:#dedcdd;}.cls-4{fill:#c9c7c8;}.cls-10,.cls-15,.cls-17,.cls-20,.cls-5{fill:#fff;}.cls-6{fill:#989a9e;}.cls-7{fill:#fafdff;}.cls-8{fill:#364e64;}.cls-9{fill:url(#linear-gradient);}.cls-10{opacity:0.05;}.cls-11{fill:#f7734f;}.cls-12{fill:#0f253b;}.cls-13{fill:#f3585e;}.cls-14{fill:#b00722;}.cls-15,.cls-32{opacity:0.2;}.cls-16{fill:#e8e8e8;}.cls-17,.cls-28{opacity:0.1;}.cls-18{fill:#f78363;}.cls-19{fill:#f7a48d;}.cls-20{font-size:21.58px;font-family:Montserrat-Bold, Montserrat Bold;font-weight:700;}.cls-21{fill:#eaae3c;}.cls-22{fill:#cf9a35;}.cls-23{fill:#ab7f2b;}.cls-24{fill:#916c25;}.cls-25{fill:#242424;}.cls-26{fill:#3d2e10;}.cls-27{fill:#333;}.cls-28{fill:#171717;}.cls-29{fill:#1f5255;}.cls-30{fill:#a26e25;}.cls-31{fill:#a16d21;}.cls-32{fill:#261908;}.cls-33{fill:#f05a49;}.cls-34{fill:#d83e32;}.cls-35{fill:#131c2b;}.cls-36{fill:#1b2435;}.cls-37{fill:#28364f;}.cls-38{fill:#b7babf;}.cls-39{fill:#222e45;}</style><linearGradient id="linear-gradient" x1="150.46" y1="243.28" x2="300.61" y2="243.28" gradientUnits="userSpaceOnUse"><stop offset="0" stop-color="#334c62"/><stop offset="1" stop-color="#66798a"/></linearGradient></defs><g id="BACKGROUND"><rect class="cls-1" width="500" height="500"/></g><g id="OBJECTS"><path class="cls-2" d="M360.87,111.51a9,9,0,0,1-2,5.91,8.16,8.16,0,0,1-.79.87,9,9,0,0,1-5.56,2.54l-14.62,1.23a19.42,19.42,0,0,1-5.25,10,9.61,9.61,0,0,1-.82.74c-.21.19-.42.36-.64.53a18.28,18.28,0,0,1-14.37,3.21,11.38,11.38,0,0,0,4.43-13l-72.81,6.16a9.45,9.45,0,0,1-1.06,0c-.24,0-.47,0-.7,0a9.07,9.07,0,0,1-7.31-5.34,8.66,8.66,0,0,1-.35-.89c-.17-.52-6.68-50.37-6.59-51.1a8.17,8.17,0,0,1,.14-.84,9.08,9.08,0,0,1,8.31-7.15l108.92-7a9.11,9.11,0,0,1,9.61,7.84c0,.28.06.56.07.85v.1Z"/><path class="cls-3" d="M136.56,194v.13l9.69,101.61H303.32l-9.76-102.29a2.9,2.9,0,0,0-2.9-2.64H139.46A2.91,2.91,0,0,0,136.56,194Z"/><path class="cls-4" d="M146.34,307.78h211.1a6,6,0,0,0,6-6h0a6,6,0,0,0-6-6H146.34a6,6,0,0,0-6,6h0A6,6,0,0,0,146.34,307.78Z"/><path class="cls-5" d="M215.48,307.78h142a6,6,0,0,0,6-6h0a6,6,0,0,0-6-6h-142a6,6,0,0,0-6,6h0A6,6,0,0,0,215.48,307.78Z"/><path class="cls-6" d="M276.26,301.77h20.4a6,6,0,0,0,6-6H270.24A6,6,0,0,0,276.26,301.77Z"/><path class="cls-7" d="M142.3,194l0,.13L152,295.75H309.07l-9.76-102.29a2.91,2.91,0,0,0-2.91-2.64H145.21A2.92,2.92,0,0,0,142.3,194Z"/><path class="cls-8" d="M160.38,288.18H298.93a1.68,1.68,0,0,0,1.67-1.84l-8.24-86.43a1.69,1.69,0,0,0-1.68-1.52H152.14a1.67,1.67,0,0,0-1.67,1.84l8.24,86.43A1.68,1.68,0,0,0,160.38,288.18Z"/><path class="cls-9" d="M152.14,198.39a1.67,1.67,0,0,0-1.67,1.84l8.24,86.43a1.68,1.68,0,0,0,1.67,1.52H298.93a1.68,1.68,0,0,0,1.67-1.84l-6.91-72.43H205.38l-3.75-11.27a6.23,6.23,0,0,0-5.9-4.25Z"/><path class="cls-6" d="M152.91,301.77a1.93,1.93,0,1,0-1.92,1.92A1.92,1.92,0,0,0,152.91,301.77Z"/><path class="cls-6" d="M160,301.77a1.93,1.93,0,1,0-1.93,1.92A1.92,1.92,0,0,0,160,301.77Z"/><path class="cls-10" d="M292.36,199.91a1.68,1.68,0,0,0-1.68-1.52l-29,89.79h37.27a1.68,1.68,0,0,0,1.67-1.84Z"/><path class="cls-10" d="M152.14,198.39a1.67,1.67,0,0,0-1.67,1.84l8.24,86.43a1.68,1.68,0,0,0,1.67,1.52h59.55L247,198.39Z"/><path class="cls-11" d="M232.46,200.81s24.11,8.79,37.32-1.36V173.78L232.46,180Z"/><path class="cls-12" d="M246,154.77l4.12,50.34a8.4,8.4,0,0,0,8.37,7.7h0a10.94,10.94,0,0,0,10.89-12L265,154.77Z"/><rect class="cls-5" x="238.17" y="135.76" width="36.27" height="26.97"/><path class="cls-13" d="M238.17,135.76v27a13.49,13.49,0,0,1-12.33-8,14.58,14.58,0,0,1-.64-1.75,13.94,13.94,0,0,1-.49-2.84c0-.29,0-.59,0-.88s0-.59,0-.88a13.94,13.94,0,0,1,.49-2.84,14.73,14.73,0,0,1,.64-1.76A13.5,13.5,0,0,1,238.17,135.76Z"/><path class="cls-14" d="M317.12,149.24A6.22,6.22,0,0,0,310.9,143v12.44A6.23,6.23,0,0,0,317.12,149.24Z"/><polygon class="cls-13" points="274.44 135.75 274.44 162.72 307.27 177.74 307.27 120.73 274.44 135.75"/><path class="cls-12" d="M307.27,120.05v58.38a1.82,1.82,0,0,0,1.81,1.82h0a1.82,1.82,0,0,0,1.82-1.82V120.05a1.81,1.81,0,0,0-1.82-1.82h0A1.81,1.81,0,0,0,307.27,120.05Z"/><polygon class="cls-15" points="274.44 135.75 274.44 149.24 307.27 149.24 307.27 120.73 274.44 135.75"/><rect class="cls-16" x="238.17" y="135.76" width="36.27" height="13.48"/><path class="cls-12" d="M231.43,144.64a.89.89,0,0,1-.88.88H225.2a14.73,14.73,0,0,1,.64-1.76h4.71A.88.88,0,0,1,231.43,144.64Z"/><path class="cls-12" d="M231.43,149.24a.89.89,0,0,1-.88.88h-5.84c0-.29,0-.59,0-.88s0-.59,0-.88h5.84A.88.88,0,0,1,231.43,149.24Z"/><path class="cls-12" d="M231.43,153.83a.88.88,0,0,1-.26.63.87.87,0,0,1-.62.25h-4.71a14.58,14.58,0,0,1-.64-1.75h5.35A.88.88,0,0,1,231.43,153.83Z"/><path class="cls-17" d="M238.17,135.76a13.47,13.47,0,0,0-13.48,13.48h13.48Z"/><rect class="cls-18" x="212.7" y="180.04" width="19.77" height="20.77"/><path class="cls-18" d="M232.46,180l9-18.36a3.71,3.71,0,0,1,3.34-2.09H258.3a3.72,3.72,0,0,1,2.71,6.28c-1.6,1.62-4.41,2.91-9.28,2.91l-4,7.42s4.86,3.75,3.36,11.85c-2.37,12.79-18.66,12.76-18.66,12.76Z"/><path class="cls-18" d="M268.11,179.52h-8.39a3.55,3.55,0,0,1-3.55-3.55h0a3.54,3.54,0,0,1,3.55-3.54h8.39a3.54,3.54,0,0,1,3.55,3.54h0A3.55,3.55,0,0,1,268.11,179.52Z"/><path class="cls-19" d="M257.4,176a2.7,2.7,0,0,0,2.69,2.69v-5.37A2.69,2.69,0,0,0,257.4,176Z"/><path class="cls-18" d="M271.9,186.62H259.72a3.55,3.55,0,0,1-3.55-3.55h0a3.55,3.55,0,0,1,3.55-3.55H271.9a3.55,3.55,0,0,1,3.54,3.55h0A3.55,3.55,0,0,1,271.9,186.62Z"/><path class="cls-19" d="M257.4,183.07a2.69,2.69,0,0,0,2.69,2.68v-5.36A2.69,2.69,0,0,0,257.4,183.07Z"/><path class="cls-18" d="M270.24,193.71H259.72a3.55,3.55,0,0,1-3.55-3.55h0a3.54,3.54,0,0,1,3.55-3.54h10.52a3.54,3.54,0,0,1,3.54,3.54h0A3.55,3.55,0,0,1,270.24,193.71Z"/><path class="cls-19" d="M257.4,190.16a2.69,2.69,0,0,0,2.69,2.68v-5.36A2.69,2.69,0,0,0,257.4,190.16Z"/><path class="cls-18" d="M268.11,200.81h-8.39a3.55,3.55,0,0,1-3.55-3.55h0a3.55,3.55,0,0,1,3.55-3.55h8.39a3.55,3.55,0,0,1,3.55,3.55h0A3.55,3.55,0,0,1,268.11,200.81Z"/><path class="cls-19" d="M257.4,197.26a2.69,2.69,0,0,0,2.69,2.68v-5.36A2.69,2.69,0,0,0,257.4,197.26Z"/><rect class="cls-5" x="213.64" y="177.54" width="6.25" height="25.77"/><path class="cls-12" d="M206.5,288.18h-30V203.05a27.77,27.77,0,0,1,27.74-27.75h9.39v30H206.5Z"/><text class="cls-20" transform="translate(265.72 91.2) rotate(-3.65)">WE ARE</text><text class="cls-20" transform="translate(269.35 113.58) rotate(-3.65)">HIRING</text><rect class="cls-21" x="177.78" y="307.78" width="233.1" height="10.6" transform="translate(588.66 626.17) rotate(180)"/><rect class="cls-22" x="89.12" y="307.78" width="88.66" height="10.6" transform="translate(266.9 626.17) rotate(180)"/><rect class="cls-23" x="191.38" y="318.39" width="205.9" height="9.75" transform="translate(588.66 646.52) rotate(180)"/><rect class="cls-24" x="103.65" y="318.39" width="87.73" height="9.75" transform="translate(295.03 646.52) rotate(180)"/><path class="cls-25" d="M378.2,412.74H326.29a4.38,4.38,0,0,1-4.38-4.38h0a4.38,4.38,0,0,1,4.38-4.37H378.2a4.37,4.37,0,0,1,4.37,4.37h0A4.37,4.37,0,0,1,378.2,412.74Z"/><path class="cls-25" d="M324.7,435.39h0a4.88,4.88,0,0,1-4.88-4.77l-2.28-102.48h14.31l-2.28,102.48A4.88,4.88,0,0,1,324.7,435.39Z"/><path class="cls-25" d="M385.36,435.39h0a4.88,4.88,0,0,1-4.88-4.77L378.2,328.14h14.31l-2.28,102.48A4.88,4.88,0,0,1,385.36,435.39Z"/><path class="cls-26" d="M381,415.12H329.07a4.37,4.37,0,0,1-4.37-4.37h0a4.36,4.36,0,0,1,4.37-4.37H381a4.37,4.37,0,0,1,4.38,4.37h0A4.38,4.38,0,0,1,381,415.12Z"/><path class="cls-27" d="M321.91,435.39h0a4.88,4.88,0,0,1-4.87-4.77l-2.28-102.48h14.31l-2.28,102.48A4.88,4.88,0,0,1,321.91,435.39Z"/><path class="cls-27" d="M382.57,435.39h0a4.88,4.88,0,0,1-4.87-4.77l-2.28-102.48h14.31l-2.28,102.48A4.88,4.88,0,0,1,382.57,435.39Z"/><path class="cls-27" d="M378.2,415.12H326.29a4.38,4.38,0,0,1-4.38-4.37h0a4.37,4.37,0,0,1,4.38-4.37H378.2a4.36,4.36,0,0,1,4.37,4.37h0A4.37,4.37,0,0,1,378.2,415.12Z"/><path class="cls-25" d="M118.57,435.39h0a4.88,4.88,0,0,1-4.87-4.77l-2.28-102.48h14.31l-2.28,102.48A4.88,4.88,0,0,1,118.57,435.39Z"/><path class="cls-25" d="M172.08,412.74H120.16a4.38,4.38,0,0,1-4.37-4.38h0a4.37,4.37,0,0,1,4.37-4.37h51.92a4.37,4.37,0,0,1,4.37,4.37h0A4.37,4.37,0,0,1,172.08,412.74Z"/><path class="cls-25" d="M179.24,435.39h0a4.88,4.88,0,0,1-4.88-4.77l-2.28-102.48h14.31l-2.28,102.48A4.88,4.88,0,0,1,179.24,435.39Z"/><path class="cls-27" d="M115.79,435.39h0a4.88,4.88,0,0,1-4.87-4.77l-2.28-102.48H123l-2.28,102.48A4.88,4.88,0,0,1,115.79,435.39Z"/><path class="cls-27" d="M176.45,435.39h0a4.88,4.88,0,0,1-4.87-4.77L169.3,328.14h14.31l-2.28,102.48A4.88,4.88,0,0,1,176.45,435.39Z"/><path class="cls-27" d="M172.08,415.12H120.16a4.37,4.37,0,0,1-4.37-4.37h0a4.37,4.37,0,0,1,4.37-4.37h51.92a4.36,4.36,0,0,1,4.37,4.37h0A4.37,4.37,0,0,1,172.08,415.12Z"/><ellipse class="cls-28" cx="250" cy="436.65" rx="204.74" ry="6.1"/><ellipse class="cls-29" cx="118.57" cy="273.32" rx="4.22" ry="13.86"/><ellipse class="cls-29" cx="108.77" cy="277.38" rx="4.22" ry="13.86" transform="translate(-164.28 158.16) rotate(-45)"/><ellipse class="cls-29" cx="118.57" cy="273.32" rx="4.22" ry="13.86"/><path class="cls-29" d="M138.18,267.58c-3.32-.17-8.35,2.39-12.78,6.82s-7,9.46-6.83,12.78c3.33.18,8.36-2.38,12.79-6.82S138.35,270.9,138.18,267.58Z"/><polygon class="cls-30" points="133.38 290.87 103.78 290.87 103.2 283.52 133.96 283.52 133.38 290.87"/><polygon class="cls-31" points="129.52 307.97 107.62 307.97 106.25 290.87 130.88 290.87 129.52 307.97"/><polygon class="cls-32" points="106.25 290.87 130.88 290.87 130.63 294.04 106.51 294.04 106.25 290.87"/><path class="cls-33" d="M392.73,218h0c-22.92,0-45,18.57-49.26,41.49l-11.35,60.56a28.47,28.47,0,0,1-28,23.23H274.31a8.14,8.14,0,0,0-8.14,8.14h0a8.15,8.15,0,0,0,8.13,8.14l123,.12A11.9,11.9,0,0,0,409,350l17.4-90.54C430.73,236.57,415.64,218,392.73,218Z"/><path class="cls-34" d="M270.24,349.87h41a28.47,28.47,0,0,0,28-23.22l11.35-60.57c4.29-22.91,26.34-41.49,49.25-41.49h0A35.75,35.75,0,0,1,420,230.44c-6.09-7.67-15.68-12.44-27.28-12.44h0c-22.92,0-45,18.57-49.26,41.49l-11.35,60.56a28.47,28.47,0,0,1-28,23.23H274.31a8.14,8.14,0,0,0-8.12,7.68A8.1,8.1,0,0,1,270.24,349.87Z"/><rect class="cls-35" x="336.41" y="359.7" width="10.67" height="66.07"/><path class="cls-36" d="M351.1,371.65H332.39a12,12,0,0,1-12-12h42.69A12,12,0,0,1,351.1,371.65Z"/><path class="cls-37" d="M312.63,429.77a5.62,5.62,0,1,0-5.62,5.62A5.62,5.62,0,0,0,312.63,429.77Z"/><path class="cls-36" d="M309.63,429.77A2.62,2.62,0,1,0,307,432.4,2.62,2.62,0,0,0,309.63,429.77Z"/><path class="cls-6" d="M307,422.58a7.19,7.19,0,0,0-7.2,7.19h14.4A7.2,7.2,0,0,0,307,422.58Z"/><path class="cls-37" d="M382.1,429.77a5.62,5.62,0,1,0-5.62,5.62A5.62,5.62,0,0,0,382.1,429.77Z"/><path class="cls-36" d="M379.11,429.77a2.63,2.63,0,1,0-2.63,2.63A2.62,2.62,0,0,0,379.11,429.77Z"/><path class="cls-6" d="M376.48,422.58a7.19,7.19,0,0,0-7.19,7.19h14.39A7.19,7.19,0,0,0,376.48,422.58Z"/><path class="cls-37" d="M347.5,429.77a5.62,5.62,0,1,0-5.62,5.62A5.62,5.62,0,0,0,347.5,429.77Z"/><path class="cls-36" d="M344.5,429.77a2.62,2.62,0,1,0-2.62,2.63A2.62,2.62,0,0,0,344.5,429.77Z"/><path class="cls-38" d="M341.88,422.58a7.2,7.2,0,0,0-7.2,7.19h14.4A7.2,7.2,0,0,0,341.88,422.58Z"/><path class="cls-36" d="M388,425.76H295.53a6.6,6.6,0,0,1,6.6-6.6h79.23a6.6,6.6,0,0,1,6.6,6.6Z"/><path class="cls-36" d="M336.5,407.26H347a2.66,2.66,0,0,1,2.66,2.66v15.85a0,0,0,0,1,0,0H333.84a0,0,0,0,1,0,0V409.92A2.66,2.66,0,0,1,336.5,407.26Z"/><path class="cls-39" d="M343.05,419.16h-2.61a6.6,6.6,0,0,0-6.6,6.6h15.82A6.61,6.61,0,0,0,343.05,419.16Z"/><polygon class="cls-35" points="306.3 343.28 298.21 343.28 289.52 316.5 297.62 316.5 306.3 343.28"/><polygon class="cls-36" points="300.75 343.28 292.65 343.28 283.97 316.5 292.06 316.5 300.75 343.28"/><path class="cls-34" d="M318.34,316.5H270.81a1.88,1.88,0,0,1-1.88-1.88h0a8.17,8.17,0,0,1,8.17-8.18h34.95a8.17,8.17,0,0,1,8.17,8.18h0A1.88,1.88,0,0,1,318.34,316.5Z"/><path class="cls-33" d="M313.29,316.5H265.76a1.88,1.88,0,0,1-1.88-1.88h0a8.17,8.17,0,0,1,8.17-8.18H307a8.17,8.17,0,0,1,8.17,8.18h0A1.88,1.88,0,0,1,313.29,316.5Z"/></g></svg>