<svg id="_лой_1" data-name="‘лой_1" xmlns="http://www.w3.org/2000/svg" viewBox="0 0 2800 2000"><defs><style>.cls-1,.cls-7{fill:#ebf3fa;}.cls-2{opacity:0.4;}.cls-3{fill:#d7e5ff;}.cls-4{fill:#aec3ff;}.cls-5{fill:#739af0;}.cls-6{fill:#dfebfd;}.cls-21,.cls-7{opacity:0.5;}.cls-8{fill:#f99746;}.cls-9{fill:#fff;}.cls-10{fill:#ffb27d;}.cls-11{fill:#233862;}.cls-12{fill:#f4904d;}.cls-13{fill:#ffa561;}.cls-14{fill:#ed975d;}.cls-15{fill:#afcdfb;}.cls-16{fill:#95b3ef;}.cls-17{fill:#1c4b8e;}.cls-18{fill:#fca56b;}.cls-19{fill:#163560;}.cls-20{fill:#1f4d84;}.cls-22{fill:#b3cff9;}.cls-23{fill:#82b378;}.cls-24{fill:#a8d29f;}.cls-25{fill:#f9ddbf;}.cls-26{fill:#2a4e96;}.cls-27{fill:#f4a269;}.cls-28{fill:#1f4a91;}.cls-29{fill:#2e3552;}</style></defs><path class="cls-1" d="M199.2,1994.93S-147,1626.66,73.45,1193.59,589.85,978.46,575.7,474.32s680.83-547.22,902-401,240.66,240.45,697.36,182.36,669.07,371,519,668.74c-175.31,347.76,352.76,381.46-48.49,1071.33Z"/><g class="cls-2"><path class="cls-3" d="M2591.87,700.45a368.46,368.46,0,0,1-5.82,65.35A362.3,362.3,0,0,1,2529.21,905c-64.84,95.56-173.88,158.27-297.44,158.27-147,0-273.42-88.72-329.37-215.93a359.21,359.21,0,0,1-18.34-52.17,368.15,368.15,0,0,1-4.24-171.91c0-.29.13-.56.18-.85a363.49,363.49,0,0,1,140.56-215.83q11.1-8.11,22.85-15.39a356.17,356.17,0,0,1,188.36-53.55q13.74,0,27.21,1a355.91,355.91,0,0,1,178.35,63.87h0a363.16,363.16,0,0,1,98.78,103.92q8.26,13.16,15.45,27.05A362,362,0,0,1,2579,604.05,366,366,0,0,1,2591.87,700.45Z"/><path class="cls-4" d="M2109.42,538.05c-14.37,22.93,6,62.74-37.11,51.88s-69.46-15.69-71.85,8.44,32.33,24.14,32.33,49.47-15.57,33.72-39.52,21.68-30.84-29.53-58.68-18.67-44,3.62-50.3-18.1a31.87,31.87,0,0,0-4.47-9.5c0-.29.13-.56.18-.85a363.49,363.49,0,0,1,140.56-215.83q11.1-8.11,22.85-15.39c11.22.42,24.64,4.71,36.09,19,25.14,31.38,41.9,15.69,35.92,51.89s3.59,41,23.95,39.81,44.31-1.21,46.7,14.48S2123.79,515.12,2109.42,538.05Z"/><path class="cls-4" d="M2258.52,755.21s-31.74,10.26-40.12-12.06,1.2-27.15-27-33.78-30.53-25.94-48.5-23.53-9,9.65-29.93,25.34-40.12,8.44-39.52,37.4,31.73,33.48,38,52.48-4.49,27.15,9,41.63,38.62,8.14,26.95,28-29.64,35.29-20.66,66,2.69,32.58,18,54.3,44.91,28.95,49.4,14.47-20.66-33.48-12.58-47.95,21.56-4.53,26.95-26.25,27.24-21.71,29-36.79-26.35-38-15.57-47.66,32.33,17.49,49.1-6.64,5.39-43.43,22.75-66.35S2270.49,741.94,2258.52,755.21Z"/><path class="cls-4" d="M2591.87,700.45a368.46,368.46,0,0,1-5.82,65.35A362.3,362.3,0,0,1,2529.21,905a40.77,40.77,0,0,1-28.79-.78c-44.91-18.09-11.68-67,6.29-91.39s-27.85-13.57-61.08-36.19,3.59-83.25-30.54-73.3-75.44,22.62-95.2-10.86,18-38.91.9-67,9.88-44.34,44-47,29.64-27.15,71.85-30.77,41.31,50.68,88,47.06,44.6,7.23,44.6,7.23a21.57,21.57,0,0,1,9.75,2.07A366,366,0,0,1,2591.87,700.45Z"/><path class="cls-4" d="M2551.58,533.5c-38.84,19-54.43-32.74-87.63-17.17-33.46,15.69-27.61-14.48-53.94-33.79s-79,15.69-76.65-14.48,41.91-21.72,50.3-45.84,46.7-18.1,46.7-18.1a26,26,0,0,1,7-1.59s0,0,0,0a363.16,363.16,0,0,1,98.78,103.92Q2544.39,519.61,2551.58,533.5Z"/><path class="cls-4" d="M2224.39,429.46s20.35-29.59-12-38.33-31.73,2.7-56.88,0-35,16.91-16.17,38.33,34.13,62.51,51.2,40.6S2204.33,431.57,2224.39,429.46Z"/></g><path class="cls-4" d="M2360.93,645.41V1774.74c0,19.75-14.16,35.78-31.61,35.78H712.08c-17.46,0-31.61-16-31.61-35.78V645.41c0-19.77,14.15-35.78,31.61-35.78H2329.32C2346.77,609.63,2360.93,625.64,2360.93,645.41Z"/><path class="cls-5" d="M2360.93,641.48v85.27H680.47V641.48a31.72,31.72,0,0,1,31.61-31.85H2329.32A31.73,31.73,0,0,1,2360.93,641.48Z"/><path class="cls-6" d="M731.87,668.19A14.72,14.72,0,1,1,746.59,683,14.78,14.78,0,0,1,731.87,668.19Z"/><path class="cls-6" d="M789.86,668.19A14.72,14.72,0,1,1,804.58,683,14.78,14.78,0,0,1,789.86,668.19Z"/><path class="cls-6" d="M849.32,668.19A14.72,14.72,0,1,1,864,683,14.77,14.77,0,0,1,849.32,668.19Z"/><rect class="cls-7" x="1584.68" y="1458.94" width="177.24" height="178.57"/><polygon class="cls-5" points="1597.99 1617.11 1650.34 1522.01 1688.83 1574.91 1708.06 1553.74 1748.79 1617.11 1597.99 1617.11"/><path class="cls-5" d="M1675.29,1508.36a13.55,13.55,0,1,1,13.54,13.65A13.59,13.59,0,0,1,1675.29,1508.36Z"/><rect class="cls-7" x="1584.68" y="1132.07" width="441.9" height="258.06"/><polygon class="cls-5" points="1755.76 1194.99 1755.76 1327.2 1855.49 1261.1 1755.76 1194.99"/><path class="cls-1" d="M2228.76,939.93a107.26,107.26,0,0,1-30.15,74.79,100.75,100.75,0,0,1-72.49,31.1H930.27c-61,0-111-47.65-111-105.89,0-29.12,12.48-55.59,32.61-74.77a113.27,113.27,0,0,1,78.37-31.1H2126.12C2182.58,834.06,2228.76,881.7,2228.76,939.93Z"/><path class="cls-8" d="M2228.76,939.93a107.26,107.26,0,0,1-30.15,74.79,100.75,100.75,0,0,1-72.49,31.1h-216.4V834.06h216.4C2182.58,834.06,2228.76,881.7,2228.76,939.93Z"/><path class="cls-9" d="M2091.8,978.42a53.47,53.47,0,0,1-43.16-21.86,54.29,54.29,0,0,1,11.18-75.48h0a53.36,53.36,0,0,1,74.92,11.26,54.29,54.29,0,0,1-11.18,75.48A52.92,52.92,0,0,1,2091.8,978.42Zm-26.73-90.2a45.35,45.35,0,0,0-9.34,63,44.53,44.53,0,0,0,62.58,9.41,45.35,45.35,0,0,0,9.34-63,44.57,44.57,0,0,0-62.58-9.41Z"/><polygon class="cls-9" points="1996.06 1001.3 1990.81 994.16 2049.56 950.34 2054.81 957.49 1996.06 1001.3"/><path class="cls-9" d="M1973,1013h0a8,8,0,0,1,1.64-11.1l34.6-25.8a7.84,7.84,0,0,1,11,1.65h0a8,8,0,0,1-1.65,11.1l-34.6,25.81A7.83,7.83,0,0,1,1973,1013Z"/><path class="cls-10" d="M1173,794a8.11,8.11,0,0,0-1.43,8.63l0,0c2.06,5.75,8.88,12.18,16.81,18.59,1,.83,1.91,1.57,2.69,2.27.21.18.42.36.61.55s.31.29.47.42c7.39,6.87,4.6,8.44,17.88,22.37,15.13,15.88,25.56,16.17,28.52,14.72,2.51-1.23-2.58-9.65-8.23-19.11-.27-.46-.54-.92-.82-1.38l-2.25-3.8c-6.61-11.39-4.91-16.73-3.33-33.68,1.28-13.77,21.29-76.92,21.29-76.92l-29-5.05s-8.75,50.3-18.38,58c-5.15,4.12-10.91,4.17-15.86,7.23-.35.22-.69.43-1,.66A37.9,37.9,0,0,0,1173,794Z"/><path class="cls-11" d="M1173,794a8.11,8.11,0,0,0-1.43,8.63l0,0c2.53,5.75,9.18,12.14,16.84,18.53,1,.84,1.88,1.61,2.66,2.33.21.18.42.36.61.55s.31.29.47.42c7.39,6.87,4.6,8.44,17.88,22.37,15.13,15.88,25.56,16.17,28.52,14.72,2.51-1.23-2.58-9.65-8.23-19.11a64.61,64.61,0,0,1-27-20c-8.78-11.29-14.74-25.69-20.72-34.53l-1.7-.32A37.9,37.9,0,0,0,1173,794Z"/><path class="cls-10" d="M1407,775.84c1.79,9,14.55,7.52,28.82,4s10.87.67,31.17-1.59,26.45-9.88,27.07-12.92c.56-2.7-9.47-3.65-20.23-4.9l-4.07-.49c-12.15-1.54-21-9.44-32.07-15.93-10.45-6.15-26-31.18-26-31.18l-27.84,2.21s14.61,22.36,20.25,32.08c3.32,5.72,3.14,13.28,2.73,19.11A36.33,36.33,0,0,0,1407,775.84Z"/><path class="cls-11" d="M1435.78,779.85c14.26-3.5,10.87.67,31.17-1.59s26.45-9.88,27.07-12.92c.56-2.7-9.47-3.65-20.23-4.9l-.1.21a57,57,0,0,1-29.07,9.09c-13.78.33-28.36-3.65-37.87-3.5a36.33,36.33,0,0,0,.21,9.6C1408.75,784.86,1421.51,783.36,1435.78,779.85Z"/><path class="cls-12" d="M1300.34,596.46l-26,70.54-34,92.11a54.42,54.42,0,0,1-18-1.67c-8.13-2.37-17.45-8.56-17.45-8.56s9.47-98.91,27.09-155.68c4.51-14.58,9.57-26.36,15.15-33C1274.31,527.73,1300.34,596.46,1300.34,596.46Z"/><path class="cls-13" d="M1273.92,484.4c-14.82-4.82-53.47-.09-95.39,7.54a28.35,28.35,0,0,1-29.36-13.37h0l-105.51-8.34s-34.84,77.78-15.8,127.35c2.8,7.29,9,11.83,18.44,12h0s63.75.11,84.14.12c52.47,0,111.06-36.3,118.64-37.82,12.4-2.5,17.36,22.49,29.75,48.74s116.55,116.25,116.55,116.25,16,.17,22.62-2.33c7.12-2.69,9.72-6.18,9.72-6.18S1312.36,496.91,1273.92,484.4Z"/><path class="cls-11" d="M1138.06,166.42a37.22,37.22,0,0,0-20.15-5.29,55.67,55.67,0,0,1-9.73-.6c-40.26-6-64.53,53-66,70.76-2.62,32.69-19.79,37.67-44,58.14-48.46,41-34.27,88.74-7.79,106.47,15.89,10.64,43.91,0,43.91,0,.4.28,76.63-42.9,114.21-63.73C1204.92,324.14,1160.69,180,1138.06,166.42Z"/><path class="cls-10" d="M1117.11,314.43c.17.11-18.48,6.52-30.95.95-11.73-5.23-20.62-24.68-20.44-24.69,5.34-.25,11.2-4.94,15.72-35.79l2.27.82,38.21,13.87s-2.77,12.35-4.57,24.11C1115.84,303.57,1115,313,1117.11,314.43Z"/><path class="cls-14" d="M1121.92,269.59s-1.53,6.66-3.76,19.11c-21.94-4-31.36-21-34.45-33Z"/><path class="cls-10" d="M1127.61,281.85s-52.28-7.09-47.4-39.82,1.42-55.69,35-52.55,38.19,16.61,39.2,27.94S1141.33,282.85,1127.61,281.85Z"/><path class="cls-11" d="M1152.52,199.47s-33.48,29.05-56.24,31.38-31.39-5-31.39-5a89.42,89.42,0,0,0,21.51-29.33,16,16,0,0,1,13.2-9.5C1115.85,185.58,1146.67,185,1152.52,199.47Z"/><path class="cls-11" d="M1131.6,196.86s11.19,10.91,14.71,19c3.4,7.81,4.42,26.48,1.71,33.9,0,0,17.45-34.17,7.58-50.78C1145.13,181.37,1131.6,196.86,1131.6,196.86Z"/><path class="cls-15" d="M1161.11,392c-1.62,106.62-.46,84.34-12,94.45-2.79,2.44-10.63,3.89-21,4.57-32.45,2.16-89.49-3.25-91.66-9.29-7.47-20.91-2.19-27.4-8.42-59.41-.65-3.4-1.46-7.09-2.4-11.1-5.2-22-10.27-29.47,8.22-64.78,16.76-32,34.17-57.94,35.74-57,44.19,26.44,47.76,4.23,47.76,4.23S1161.9,340,1161.11,392Z"/><path class="cls-13" d="M1274.29,667l-34,92.11a54.42,54.42,0,0,1-18-1.67c-8.13-2.37-17.45-8.56-17.45-8.56s9.47-98.91,27.09-155.68Z"/><path class="cls-15" d="M1117.35,293.7s45.48,7.78,50.81,27.51S1191,460.69,1191,460.69s-12.83,12.61-23.5,1.85-33.58-112-33.58-112Z"/><path class="cls-16" d="M1128.11,491.06c-32.45,2.16-89.49-3.25-91.66-9.29-7.47-20.91-2.19-27.4-8.42-59.41l15.66-44.4s-2.6,49.45,11.87,62.46,59.25,25.12,66.28,36C1125.23,481.63,1127.46,486.86,1128.11,491.06Z"/><path class="cls-10" d="M1090.94,470.25s32-7.17,37.18-4.31,17.79,13.3,19.37,16.93-11.5-2.76-15.76-3.91c-2.75-.75-10,1.79-13.6,3-15.11,5.07-24.37,2.46-24.37,2.46Z"/><path class="cls-15" d="M1069.56,289.45s-43,2.65-57.87,23.56c-21,29.43-62.56,154.86-38.75,171.6,26.81,18.85,122.06,5,122.06,5s3.18-14.92-1.23-22.14-76.07-18.91-79.37-22.25,41.36-65,41.37-75S1069.56,289.45,1069.56,289.45Z"/><path class="cls-10" d="M1129.67,474.92s6.7,8.72,8.9,9.76a6.49,6.49,0,0,0,3.62.79l-4.52-8.2Z"/><path class="cls-10" d="M1128.12,465.94l19.5,9.55a3.47,3.47,0,0,1-3.23,1.26c-2.4-.11-8.46-2.35-8.46-2.35Z"/><polygon class="cls-11" points="1294.65 488.43 1090.93 488.36 1090.93 492.89 1292.84 492.96 1294.65 488.43"/><polygon class="cls-11" points="1138.57 492.91 1292.84 492.96 1339.29 376.71 1185.26 376.66 1138.57 492.91"/><path class="cls-9" d="M1253.92,434.81c1.16-4.08-1.18-7.4-5.24-7.4s-8.29,3.31-9.45,7.4,1.18,7.4,5.24,7.4S1252.75,438.9,1253.92,434.81Z"/><rect class="cls-8" x="859.47" y="1156.19" width="299.54" height="25.6" rx="9.03"/><path class="cls-5" d="M1005.58,1269.83H868.14a8.7,8.7,0,0,1-8.67-8.73h0a8.7,8.7,0,0,1,8.67-8.74h137.44a8.7,8.7,0,0,1,8.67,8.74h0A8.7,8.7,0,0,1,1005.58,1269.83Z"/><rect class="cls-5" x="859.47" y="1215.71" width="259.42" height="17.47" rx="6.94"/><rect class="cls-5" x="1142.53" y="1215.71" width="242.24" height="17.47" rx="6.71"/><path class="cls-5" d="M1177,1269.83H1039.56a8.7,8.7,0,0,1-8.67-8.73h0a8.7,8.7,0,0,1,8.67-8.74H1177a8.7,8.7,0,0,1,8.67,8.74h0A8.7,8.7,0,0,1,1177,1269.83Z"/><rect class="cls-8" x="1198.65" y="1156.19" width="299.54" height="25.6" rx="9.03"/><rect class="cls-8" x="859.47" y="1614.63" width="299.54" height="25.6" rx="9.03"/><path class="cls-5" d="M1005.58,1728.27H868.14a8.7,8.7,0,0,1-8.67-8.73h0a8.7,8.7,0,0,1,8.67-8.74h137.44a8.7,8.7,0,0,1,8.67,8.74h0A8.7,8.7,0,0,1,1005.58,1728.27Z"/><rect class="cls-5" x="859.47" y="1674.15" width="259.42" height="17.47" rx="6.94"/><rect class="cls-5" x="1142.53" y="1674.15" width="242.24" height="17.47" rx="6.71"/><path class="cls-5" d="M1177,1728.27H1039.56a8.7,8.7,0,0,1-8.67-8.73h0a8.7,8.7,0,0,1,8.67-8.74H1177a8.7,8.7,0,0,1,8.67,8.74h0A8.7,8.7,0,0,1,1177,1728.27Z"/><rect class="cls-8" x="1198.65" y="1614.63" width="299.54" height="25.6" rx="9.03"/><rect class="cls-8" x="859.47" y="1385.41" width="299.54" height="25.6" rx="9.03"/><path class="cls-5" d="M1005.58,1499.05H868.14a8.7,8.7,0,0,1-8.67-8.73h0a8.7,8.7,0,0,1,8.67-8.74h137.44a8.7,8.7,0,0,1,8.67,8.74h0A8.7,8.7,0,0,1,1005.58,1499.05Z"/><rect class="cls-5" x="859.47" y="1444.93" width="259.42" height="17.47" rx="6.94"/><rect class="cls-5" x="1142.53" y="1444.93" width="242.24" height="17.47" rx="6.71"/><path class="cls-5" d="M1177,1499.05H1039.56a8.7,8.7,0,0,1-8.67-8.73h0a8.7,8.7,0,0,1,8.67-8.74H1177a8.7,8.7,0,0,1,8.67,8.74h0A8.7,8.7,0,0,1,1177,1499.05Z"/><rect class="cls-8" x="1198.65" y="1385.41" width="299.54" height="25.6" rx="9.03"/><path class="cls-10" d="M705.4,1287.72s3.14-7.12,5.18-10.49,10.72-13.25,12.2-11,7.4,17.28,4.26,21.5.2,11.54-15.44,16Z"/><path class="cls-16" d="M531.66,1242.77s80,67.31,111.24,61.08c24.4-4.87,61.85-17.81,61.85-17.81l7.49,19.3s-33.58,45.91-68.6,46.21c-54.74.47-95.18-23.88-95.18-23.88Z"/><path class="cls-17" d="M391.29,1952.75s2.32,37.76,9.58,38.3c1,.07,36.77.07,36.77.07l45.72-.27s-.3-11.1-13.66-13.44-35.73-11.81-43.83-29.6C417.36,1929.09,391.29,1952.75,391.29,1952.75Z"/><path class="cls-13" d="M388.66,1955.37s13.89,4.68,24.74,4.68a90.3,90.3,0,0,0,23.11-3.32s2.61-25.49,17-81.66c7.55-29.44,18.33-67.3,33.67-114.34,42.4-130,55.3-206,56.48-213.24.06-.38.08-.57.08-.57l-.13-.07-130.38-57.67s16.12,179.17-4.44,247.94a290,290,0,0,0-7.46,33C388.36,1844.77,388.66,1955.37,388.66,1955.37Z"/><path class="cls-12" d="M453.52,1875.07c7.55-29.44,18.33-67.3,33.67-114.34,42.4-130,55.3-206,56.48-213.24,0-.22,0-.42,0-.64l-130.38-57.67s16.12,179.17-4.44,247.94C405.92,1746.73,453.52,1875.07,453.52,1875.07Z"/><path class="cls-17" d="M493.12,1952.75s2.32,37.76,9.57,38.3c1,.07,36.78.07,36.78.07l45.72-.27s-.3-11.1-13.67-13.44-35.73-11.81-43.82-29.6C519.18,1929.09,493.12,1952.75,493.12,1952.75Z"/><path class="cls-13" d="M567,1493.41s1.7,116.1-18.24,258.65-13.18,203.06-13.18,203.06-13.7,4.48-19.23,4.93c-14.08,1.16-28.53-3.32-28.53-3.32s-28.53-142.61-20.35-214-39.08-244.84-39.08-244.84Z"/><path class="cls-10" d="M474.59,1221.71,500,1238.52l23.18-6.6c4.23-6.09,5.36-17.83,5.42-28a176.08,176.08,0,0,0-.91-18.65L493.39,1170l-12.81-5.69c0,.2,1,10.6,1.14,12.11C484.11,1203.39,474.59,1221.71,474.59,1221.71Z"/><path class="cls-15" d="M567.62,1525.68c-31.68,30.82-151.56,25.63-158.94-8.32s8.05-289,62.16-305c11.23-3.32,71.25,16.22,71.25,16.22a386,386,0,0,1,15.6,56.43c1.2,6.16,4.7,71.33,7.32,132.31,1.22,28.51,2.25,56.12,2.78,76.33C568.27,1512.57,568.3,1525,567.62,1525.68Z"/><path class="cls-18" d="M484.28,1176.91c7,11.87,31.41,22.25,44.36,27a176.08,176.08,0,0,0-.91-18.65L493.39,1170C485.81,1169.9,481.18,1171.61,484.28,1176.91Z"/><path class="cls-10" d="M540.68,1183.17s-55.32,17.38-65.54-17.49-24.23-56.12,10.65-68.7,45.69-1.32,51.91,9.49S554.81,1177.75,540.68,1183.17Z"/><path class="cls-19" d="M535.52,1103.11s-3.52,40.58-11.86,38.82-17.5-5.53-16.28,6.71-8.1,33.2-20.11,33.15c-25.76-.11-53.75-66.71-46.7-79.34C460.92,1066,564.94,1058.65,535.52,1103.11Z"/><path class="cls-16" d="M527.38,1213.23c-.71-.3-41.18-18.59-45.91-17s-10.63,16.14-10.63,16.14l71.26,16.23S536.49,1217.09,527.38,1213.23Z"/><path class="cls-20" d="M779.33,1410.75,552.48,1625.94c-4.45,4.22-10.06,5.56-12.46,3l-7.66-8.2c-2.41-2.57-.74-8.13,3.71-12.35l226.85-215.19c4.45-4.22,10.06-5.56,12.46-3l7.66,8.2C785.45,1401,783.78,1406.53,779.33,1410.75Z"/><path class="cls-5" d="M652,1531.51l-99.55,94.43c-4.45,4.22-10.06,5.56-12.46,3l-7.66-8.2c-2.41-2.57-.74-8.13,3.71-12.35L635.62,1514Z"/><path class="cls-20" d="M727.19,1329.5a177.55,177.55,0,0,0,299.6,70.48c66.4-71.12,63.93-182.44-4.89-250.5-.91-.92-1.84-1.82-2.79-2.71a176.86,176.86,0,0,0-251.32,7.7A180,180,0,0,0,727.19,1329.5ZM778,1164.17a162.87,162.87,0,0,1,231.49-7.11c65.88,62.44,69,166.86,7.06,233.23a162.9,162.9,0,0,1-231.49,7.12C719.19,1335,716,1230.55,778,1164.17Z"/><g class="cls-21"><path class="cls-22" d="M1016.56,1390.29a162.88,162.88,0,0,1-231.5,7.11c-65.87-62.44-69-166.86-7-233.23a162.9,162.9,0,0,1,231.49-7.11C1075.37,1219.5,1078.53,1323.92,1016.56,1390.29Z"/></g><path class="cls-16" d="M567.79,1493.64c-125-89.74-114.6-209.49-114.6-209.49,45.68,26,91,83.36,111.82,133.16C566.23,1445.82,567.26,1473.43,567.79,1493.64Z"/><path class="cls-10" d="M691.16,1452.77c8.82-2,14.74-8.76,16-9.93,0,0,3.76.25-.62,8.33-.37.68-1.18,2.42-1.79,3.64a.78.78,0,0,0,.65,1.13c5.09.39,10.2-1.64,20,.42,1.35.29,1.75,3.55,1.69,4.94-.08,2.35.09,5-2.63,8.6-1.58,2.1-6,4.36-15.79,8.33-3.74,1.52-14.43.38-24.44-3.09l-8-3.73,2.49-15,2,.43C683.88,1457.52,687.83,1453.6,691.16,1452.77Z"/><path class="cls-15" d="M492,1228.58S379.67,1250.13,525,1414c23.25,26.21,148.85,60.33,148.85,60.33s12.74-10.92,6.32-19.76c0,0-86.48-63.27-105.51-73.33-8.56-4.52-33.22-101-47.17-124.21S492,1228.58,492,1228.58Z"/><path class="cls-10" d="M708.45,1289.7s3.67-7.07,4.39-10.8,5.34-14.61,7.25-16.53c.76-.77,3.28.23,3.57,3.52.13,1.44-.57,4-1.8,7.16-2,5.06-1.68,11.93-2.38,14.22C717.74,1293,708.45,1289.7,708.45,1289.7Z"/><polygon class="cls-11" points="2210.15 1073.72 2146.57 1088.63 2115.13 1146.27 2091.12 1014.91 2210.15 1073.72"/><polygon class="cls-11" points="2183.71 1129.97 2174.45 1137.05 2133.83 1083.05 2143.1 1075.97 2183.71 1129.97"/><path class="cls-23" d="M2000.49,1680.87s26.29-31.1,1.47-50.72c0,0-18.12-11-32.87-10,0,0,21,35.24,14.26,38.77s-20.6-41-20.6-41-41.16-3.89-54.38,2.56c0,0,35.27,28.9,27.87,30.65s-45.5-26.6-45.5-26.6-38.28,6.69-36.17,30.23,15.34,30.76,21.14,30.11,39.69-13.8,40.45-9-19.63,20.5-33.93,21.28c0,0,27.1,29.92,45,21.2s19.41-22.45,30.58-27.63,20.73-5.21,16.12.06-24.83,10.43-31.19,21.86-12.08,19.13,6.48,16.25,48.7-16.66,50-32.34Z"/><path class="cls-23" d="M1873.4,1655.34s104-4.37,127.09,25.53c0,0,5.13,15.32,20.81,29.23l2.46,6.68s-18.09-19.09-24.55-20.23C1999.21,1696.55,2009.19,1659.38,1873.4,1655.34Z"/><path class="cls-23" d="M2021.3,1710.1s22.38,16.57,24,46.29l-4.06.38s-7.22-30.72-20.15-42.7S2021.3,1710.1,2021.3,1710.1Z"/><path class="cls-24" d="M2140,1598.84s-42.05-23.54-22.56-55.75c0,0,15.61-19.78,32.38-24.91,0,0-8.8,48,.16,49.06s6-54.15,6-54.15,44.15-21.57,61.5-19.94c0,0-27.27,46.89-18.32,45.74s39.58-48.62,39.58-48.62,45.31-8.61,52.67,18.44-4.35,40.61-11.06,42.32-49.81,1.29-48.67,6.92,30.26,14.57,46.48,9.44c0,0-17.77,44.6-41.28,42.42s-30.84-16.82-45.39-17.9-25.18,2.9-17.89,6.83,31.91,1.19,43.69,11.22,21.32,16.2-.49,20.78-61,1.88-68.89-15Z"/><path class="cls-23" d="M2270.69,1517.23S2153.28,1556,2140,1598.84c0,0,.62,19.17-11.06,41.2l0,8.46s12.22-28.8,18.92-32.77C2147.87,1615.73,2121.45,1578.6,2270.69,1517.23Z"/><path class="cls-23" d="M2128.92,1640s-18,27.79-7.6,61.51l4.66-1.28s-4.64-37.16,4.78-55.89S2128.92,1640,2128.92,1640Z"/><path class="cls-24" d="M2073.1,1566.4s55.23-31.4,29.28-73.68c0,0-20.74-26-42.89-32.57,0,0,12,63.14.2,64.67s-8.34-71.33-8.34-71.33-58.37-28.06-81.23-25.76c0,0,36.34,61.58,24.54,60.13s-52.58-63.75-52.58-63.75-59.79-11-69.27,24.75,6.07,53.49,14.93,55.69,65.66,1.28,64.21,8.72-39.78,19.45-61.19,12.83c0,0,23.79,58.64,54.76,55.57s40.51-22.43,59.68-24,33.21,3.61,23.64,8.85-42,1.84-57.5,15.16-28,21.53.83,27.38,80.42,2,90.67-20.35Z"/><path class="cls-23" d="M1900.14,1459.92s155.08,50,173,106.48c0,0-.66,25.27,14.93,54.21l0,11.15s-16.35-37.86-25.22-43C2062.84,1588.73,2097.36,1539.56,1900.14,1459.92Z"/><path class="cls-23" d="M2088,1620.61s24,36.47,10.52,81l-6.15-1.64s5.81-49-6.76-73.64S2088,1620.61,2088,1620.61Z"/><path class="cls-13" d="M2516.08,1993.94H1949c-79.06-91.11-58.18-214.2,46.76-318,13.19-13,38.51-22.31,65.8-28.84,50.3-12,107.35-14.81,107.79-15,.17-.06,30.15-24.55,48.18-46.56,56.05-68.35,103.72-62.48,103.72-62.48,57.13-11.2,105.85-14.49,142,5.77v0c33.47,18.79,56.12,57.82,64.6,129.53,1.61,13.56,2.71,28.29,3.28,44.27,2.07,58.2,13.46,110,20.22,153.81h0C2561.16,1919.91,2568.08,1968.2,2516.08,1993.94Z"/><path class="cls-12" d="M2435,1601.88c-34.66,19-38.5,81.69-92.75,97.87s-146.34,14.71-198.57,71.8c-50.4,55.08-106-85-82-124.46,50.3-12,107.35-14.81,107.79-15,.17-.06,30.15-24.55,48.18-46.56,56.05-68.35,103.72-62.48,103.72-62.48,57.13-11.2,105.85-14.49,142,5.77v0C2503.06,1570.22,2469.61,1582.86,2435,1601.88Z"/><path class="cls-25" d="M2059.78,1872.82s10,26.67,7.91,36.58,1.38,29.11-2.62,37.71-11.14,21.11-4.23,24.25c2.62,1.19,33-22.71,34.72-29.74s3-27.75,8.81-39,.88-20.33-7.56-24.44-20.25-26.72-20.25-26.72Z"/><path class="cls-11" d="M2222.18,1619.9s-165.91-10.31-187.29,11.86c-22.53,23.36,14.17,253.12,14.17,253.12s45,1.3,48.53-10.7c0,0-8.44-111.25-1.42-130.49s2.57-45.87,2.57-45.87,88,13.24,116,6.5S2222.18,1619.9,2222.18,1619.9Z"/><path class="cls-10" d="M2262.37,1497.21c0,.14-24.45,57.5-36.38,63.61s-55.1,56.14-64.36,55.27,9.56,10.22,9.56,10.22,76.76-37.73,81.15-39.92,27.49-40.53,30.66-60S2262.37,1497.21,2262.37,1497.21Z"/><path class="cls-25" d="M2029.15,1916.84s-9.46,26.87-17.39,33.1-17.58,23.14-26.15,27.11-22,8.88-18.76,15.77c1.24,2.61,39.76,4.1,45.57-.14s20.08-19.25,31.73-24.09,13.69-15,9.87-23.59,1.64-33.58,1.64-33.58Z"/><path class="cls-19" d="M2312.34,1471.74c-3.54-4.12,86.31,6,98.26,52.29,0,0,69-54.8,5.71-101-21.92-16-24.12-33.06-27.31-48.68s-25.05-60.5-63-38.21c0,0-17.34.08-28.3,9.66C2272.78,1367.6,2245.57,1506,2312.34,1471.74Z"/><path class="cls-26" d="M2294.86,1628s-180.38,18.54-196.22,37.1-78.07,259.8-78.07,259.8,18.41,10.33,35.13.66c0,0,47.7-81.85,68.81-107.54s29-105,32.46-105.83,116.53,15.85,155.45-14.26S2294.86,1628,2294.86,1628Z"/><path class="cls-25" d="M2395.26,1463.07s-43-19.36-97.59-10.48c-11.15,1.81-21.19,5.51-29.16,18.74-11.26,18.7-16.53,28.74-16.53,28.74s1.09,8.66,16.48,15.55c-4.19,15.5,3.84,42.56-3.55,53.07s-53.22,36.56-55.48,51c-4.16,26.61,78.36,74.83,103,69.67C2383.18,1674.56,2431.21,1483.44,2395.26,1463.07Z"/><path class="cls-19" d="M2370.89,1408.24s8.48-16.82,9.6-30.61c.8-9.85-7.47-45.29-42.8-36.71a48.77,48.77,0,0,0-19.45,9.61c-7.28,6-17.43,18.52-1.94,48.66l4.25,10.28Z"/><path class="cls-10" d="M2322.47,1465c-3.57,3.79-2.16,16.41,14.56,15.46,11-.62,34.5-14.3,32.29-23.75-1.05-4.49-9.49-16.07-11.48-42.72l-2,.56-33.51,9.5s1.62,10.73,2.44,20.9C2325.47,1453.46,2324,1463.41,2322.47,1465Z"/><path class="cls-27" d="M2322.34,1424s1.62,10.73,2.44,20.9c19-2.06,27.7-20.37,31.07-30.4Z"/><path class="cls-10" d="M2321.63,1439.64s43.84-11.13,36.54-38.53-6.55-47.29-34.85-41.34-30.93,17.87-30.7,27.61S2310,1441.83,2321.63,1439.64Z"/><path class="cls-19" d="M2303.26,1364.5s14.73,28.25,42.5,31.29c16.25,1.77,20.72,12.56,20.72,12.56s-4.89-30.84-13.07-49.7C2353.41,1358.65,2308.18,1346.75,2303.26,1364.5Z"/><path class="cls-19" d="M2308.29,1368.23s-9.6,9.88-12.56,16.84c-4.39,10.31,4.18,32,7.71,36.7,0,0-20.41-34.87-13.6-50C2297.06,1355.78,2308.29,1368.23,2308.29,1368.23Z"/><path class="cls-10" d="M2174.66,1622.65s-8.73,9.32-9.79,9.82c-5.77,2.73-13.07,1.14-16.59,2s-2.92-1.32-.32-3.11,9-1.1,6.38-1.75-16.73-3.3-22.05-1.86c-8.41,2.27-15-.4-15.57-1.26s19.2-10.59,24.84-10.27,21.85-.46,21.85-.46Z"/><path class="cls-10" d="M2410.09,1480.24s54.41,123.73,39.3,141.9-119.69-3.88-119.69-3.88l3.22-11.48s77-4.75,82.48-6.32c7.89-2.24-39-89-39-89Z"/><path class="cls-25" d="M2389.8,1461c1.31,0,17.57,5.4,29.25,28.68,11.47,22.87,15.65,34,15.65,34s-50.85,39.74-71.09,25.12S2371.14,1460.55,2389.8,1461Z"/><path class="cls-10" d="M2341.91,1606.21s-8.74-5.71-12.28-8.84-24-5.66-24-3.57,11.93,4.92,13.23,7,8.59,10.68,14.81,10.66A8.87,8.87,0,0,0,2341.91,1606.21Z"/><path class="cls-28" d="M2318,1624.81l-23.46-3.36c-3.51-.5-7.06-3.45-7.94-6.59l-13-46.16c-.88-3.13,1.25-5.27,4.75-4.77l23.47,3.36c3.5.5,7.06,3.46,7.94,6.59l13,46.16C2323.66,1623.17,2321.54,1625.31,2318,1624.81Z"/><path class="cls-11" d="M2313.15,1624.11l-23.47-3.36c-3.5-.5-7.06-3.45-7.94-6.59L2268.79,1568c-.88-3.14,1.24-5.28,4.75-4.78l23.46,3.36c3.51.5,7.06,3.46,7.94,6.59l13,46.16C2318.78,1622.48,2316.65,1624.61,2313.15,1624.11Z"/><path class="cls-28" d="M2272.79,1569.12c-.36-1.3.52-2.19,2-2a4.25,4.25,0,0,1,3.29,2.74c.37,1.3-.51,2.19-2,2A4.28,4.28,0,0,1,2272.79,1569.12Z"/><path class="cls-10" d="M2329.7,1618.26s-15.87.23-19.85-.72-14.16-13.66-11.45-16.85c1.71-2,11.2,1.59,15.72,1.58s16.26-6.59,24.29,6.88C2339.31,1610.66,2329.7,1618.26,2329.7,1618.26Z"/><path class="cls-13" d="M2397.82,1648.69s-17.09,16.13-88.59,18.45-164.73,81.94-165.6,104.41,144,56.63,146.22,53.41,91.85-80.78,91.85-80.78Z"/><path class="cls-12" d="M2551.36,1856.4c-79.56-100.05-243,36.34-285.27,32.49-38.88-3.54,75.82-140.28,218.07-160.63,57.5-8.22,43.72-68.09,43.7-69.94,1.61,13.56,2.71,28.29,3.28,44.27C2533.21,1760.79,2544.6,1812.56,2551.36,1856.4Z"/><path class="cls-29" d="M2759.2,2000l-2712.28-.94a3.32,3.32,0,0,1-3.3-3.33V1994a3.33,3.33,0,0,1,3.3-3.33l2712.28.94a3.33,3.33,0,0,1,3.31,3.33v1.71A3.33,3.33,0,0,1,2759.2,2000Z"/><polygon class="cls-16" points="1638.8 478.88 1793.72 511.17 1694.41 433.42 1687.72 455.92 1649.27 460.47 1638.8 478.88"/><polygon class="cls-25" points="1793.72 511.17 1667.83 435.43 1540.74 420.95 1793.72 511.17"/><polygon class="cls-25" points="1694.41 433.42 1793.72 511.17 1720.32 394.8 1694.41 433.42"/><polygon class="cls-16" points="665.3 918.14 510.38 950.43 609.7 872.68 616.39 895.18 654.84 899.73 665.3 918.14"/><polygon class="cls-25" points="510.38 950.43 636.28 874.69 763.37 860.21 510.38 950.43"/><polygon class="cls-25" points="609.7 872.68 510.38 950.43 583.79 834.06 609.7 872.68"/><path class="cls-5" d="M919.14,963.24l4.53-5.43c4.1,3.58,8.2,5.62,13.53,5.62,4.65,0,7.59-2.16,7.59-5.56,0-3.08-1.71-4.75-9.67-6.66-9.13-2.16-14.27-4.87-14.27-13,0-7.41,6.12-12.53,14.63-12.53A23.7,23.7,0,0,1,951,931.16l-4,5.74c-3.86-2.9-7.72-4.44-11.64-4.44-4.41,0-7,2.28-7,5.24,0,3.33,2,4.81,10.17,6.79,9.06,2.22,13.77,5.49,13.77,12.77,0,8.08-6.3,12.89-15.3,12.89A26.26,26.26,0,0,1,919.14,963.24Z"/><path class="cls-5" d="M958.57,953.25c0-9.32,6.55-17,15.8-17,10.28,0,15.49,8.15,15.49,17.52,0,.5-.06,1.73-.12,2.1H966c.79,5.31,4.53,8.27,9.31,8.27,3.61,0,6.18-1.36,8.75-3.89l4.35,3.89a16.31,16.31,0,0,1-13.23,6.1C965.79,970.27,958.57,963.43,958.57,953.25ZM982.51,951c-.49-4.82-3.31-8.58-8.2-8.58-4.54,0-7.72,3.52-8.39,8.58Z"/><path class="cls-5" d="M1017.11,969.53v-4a13,13,0,0,1-10.47,4.69c-6.13,0-11.52-3.51-11.52-10.18,0-7.21,5.58-10.67,13.11-10.67a27.07,27.07,0,0,1,8.94,1.36v-.62c0-4.5-2.82-7-8-7a22.3,22.3,0,0,0-9.25,2l-2-6a27.6,27.6,0,0,1,12.31-2.71c9.55,0,14.2,5.06,14.2,13.75v19.31Zm.18-13.63a21,21,0,0,0-7.41-1.29c-4.65,0-7.41,1.91-7.41,5.18,0,3.08,2.76,4.81,6.25,4.81,4.9,0,8.57-2.78,8.57-6.85Z"/><path class="cls-5" d="M1033.27,937h7.41v7.34c2-4.87,5.76-8.2,11.45-8v7.9h-.43c-6.49,0-11,4.26-11,12.89v12.4h-7.41Z"/><path class="cls-5" d="M1055.68,953.31a16.75,16.75,0,0,1,16.78-17,16.11,16.11,0,0,1,12.92,5.62l-4.59,5c-2.27-2.4-4.66-4.07-8.39-4.07-5.39,0-9.31,4.69-9.31,10.49s4,10.49,9.68,10.49c3.49,0,6.06-1.67,8.39-4.07l4.47,4.44c-3.19,3.58-6.92,6.1-13.23,6.1A16.6,16.6,0,0,1,1055.68,953.31Z"/><path class="cls-5" d="M1092.42,924.5h7.41V942c2.08-3.08,5.08-5.74,10.11-5.74,7.28,0,11.51,4.94,11.51,12.53v20.72H1114V951c0-5.06-2.51-8-6.92-8s-7.29,3-7.29,8.08v18.38h-7.41Z"/><path class="cls-5" d="M1129.9,961.08H1138v8.45h-8.14Z"/><path class="cls-5" d="M1146.37,961.08h8.14v8.45h-8.14Z"/><path class="cls-5" d="M1162.84,961.08H1171v8.45h-8.14Z"/><path class="cls-5" d="M1179.31,961.08h8.15v8.45h-8.15Z"/><path class="cls-3" d="M1607.65,1366.85a7.93,7.93,0,1,1,7.93,8A8,8,0,0,1,1607.65,1366.85Z"/><path class="cls-3" d="M1976.42,1369H1617.71a2.14,2.14,0,0,1-2.13-2.15h0a2.14,2.14,0,0,1,2.13-2.15h358.71a2.14,2.14,0,0,1,2.14,2.15h0A2.14,2.14,0,0,1,1976.42,1369Z"/></svg>