<svg xmlns="http://www.w3.org/2000/svg" xmlns:xlink="http://www.w3.org/1999/xlink" viewBox="0 0 750 500"><defs><style>.cls-1{fill:none;}.cls-2{isolation:isolate;}.cls-3{fill:#bbeaf2;}.cls-4{fill:#91d1e8;}.cls-5,.cls-55{opacity:0.46;}.cls-6{fill:#3c6282;}.cls-43,.cls-7{fill:#ffd255;}.cls-13,.cls-8{fill:#fff;}.cls-8{opacity:0.63;}.cls-9{fill:#63a4ff;}.cls-10,.cls-14{fill:#8a578c;}.cls-11,.cls-18{fill:#d18bcf;}.cls-12{fill:#e8b3e8;}.cls-14{opacity:0.1;}.cls-14,.cls-18,.cls-21,.cls-23,.cls-29,.cls-31,.cls-32,.cls-34,.cls-37,.cls-41,.cls-43,.cls-46,.cls-47,.cls-51,.cls-53,.cls-55,.cls-59,.cls-62,.cls-63{mix-blend-mode:multiply;}.cls-15{clip-path:url(#clip-path);}.cls-16{fill:#e27e79;}.cls-17{fill:#ba514f;}.cls-18{opacity:0.31;}.cls-19{fill:#b25f90;}.cls-20,.cls-21{fill:#a54c85;}.cls-21,.cls-46{opacity:0.22;}.cls-22{fill:#f4b69d;}.cls-23,.cls-36{fill:#d87d68;}.cls-23,.cls-41,.cls-53,.cls-62{opacity:0.3;}.cls-24{fill:#2d2929;}.cls-25{fill:#5b151a;}.cls-26{fill:#823030;}.cls-27{fill:#261238;}.cls-28,.cls-37{fill:#272c44;}.cls-29{fill:#232234;opacity:0.35;}.cls-30,.cls-31,.cls-32{fill:#a59d9d;}.cls-31{opacity:0.5;}.cls-32{opacity:0.79;}.cls-33,.cls-34{fill:#353535;}.cls-34,.cls-37{opacity:0.2;}.cls-35,.cls-53{fill:#eea786;}.cls-38{fill:#17202f;}.cls-39,.cls-41{fill:#e77350;}.cls-40{fill:#d13a37;}.cls-42{fill:#0f1421;}.cls-43{opacity:0.39;}.cls-44{fill:#97a43b;}.cls-45{fill:#d39250;}.cls-46,.cls-47{fill:#eab071;}.cls-47{opacity:0.4;}.cls-48,.cls-51{fill:#d8d6d6;}.cls-49{fill:#eaeaea;}.cls-50{fill:#7f7a7a;}.cls-51{opacity:0.47;}.cls-52{fill:#b7abab;}.cls-54{fill:#4b69a3;}.cls-55{fill:#5088d8;}.cls-56{fill:#52a1c1;}.cls-57{fill:#3888a0;}.cls-58,.cls-59{fill:#323757;}.cls-59{opacity:0.23;}.cls-60{fill:#21447c;}.cls-61{fill:#635b5b;}.cls-63{opacity:0.24;}</style><clipPath id="clip-path"><path class="cls-1" d="M577.43,486.81c-62,6.48-121.34-16.8-150.76-26.21-13.69-4.38-26.42-7.47-40.57-6.54-67.35,4.4-89.33,26.65-159.46,32C44.67,500,18,376,7.71,326.37c-11-52.84-11.64-113.7,7.43-168.3,28.22-80.86,135.2-163.93,236-144.21,79.68,15.57,153.64,41.78,239.44,25.06C559.52,25.5,636-16.32,709.8,113.74S764.74,467.23,577.43,486.81Z"/></clipPath></defs><g class="cls-2"><g id="OBJECTS"><path class="cls-3" d="M577.43,486.81c-62,6.48-121.34-16.8-150.76-26.21-13.69-4.38-26.42-7.47-40.57-6.54-67.35,4.4-89.33,26.65-159.46,32C44.67,500,18,376,7.71,326.37c-11-52.84-11.64-113.7,7.43-168.3,28.22-80.86,135.2-163.93,236-144.21,79.68,15.57,153.64,41.78,239.44,25.06C559.52,25.5,636-16.32,709.8,113.74S764.74,467.23,577.43,486.81Z"/><polygon class="cls-4" points="264.2 144.73 227.66 137.51 216.46 52.37 260.49 40.23 264.2 144.73"/><g class="cls-5"><path class="cls-6" d="M260.32,140.33l-31.87-4.09-8.58-80.43.38-.11c.09,0,8.88-2.36,17.63-4.48,18.12-4.39,18.39-3.61,18.61-3,.56,1.62,3.48,82.35,3.81,91.55Zm-31-4.9,30,3.86c-1.09-30.41-3.22-87-3.72-90.64-2.3-.42-22.19,4.49-34.72,7.82Z"/></g><polygon class="cls-7" points="224.84 62.73 226.39 77.12 239.06 78.83 239.02 60.16 224.84 62.73"/><path class="cls-4" d="M237,63.7a.16.16,0,0,0-.27,0,.92.92,0,0,1-.42.51,1.52,1.52,0,0,1-.79.12,3,3,0,0,0-1.5.13c-.41.21-.51.67-.86.92-.74.52-1.2-.71-1.35-1.16s-.56-.19-.57.11a1,1,0,0,1-1.81.38.32.32,0,0,0-.61.18.61.61,0,0,1-.38.61.8.8,0,0,1-.87-.37c-.14-.16-.48-.08-.44.15a1.14,1.14,0,0,0,1.45.83,1.16,1.16,0,0,0,.74-.62,1.61,1.61,0,0,0,2.22-.37,1.57,1.57,0,0,0,.87.81,1.13,1.13,0,0,0,.92,0c.38-.19.45-.54.69-.84.52-.65,1.53-.12,2.26-.34C236.71,64.6,237.3,64.18,237,63.7Z"/><path class="cls-4" d="M235.83,67.78c-.5.62-1.3-.1-2,0a1.62,1.62,0,0,0-.76.44c-.37.3-.62.22-1,0a1.76,1.76,0,0,0-1.77-.23c-.44.15-1.75.76-1.93-.07a.21.21,0,0,0-.4.09c.13.65.9.81,1.5.7s.95-.4,1.46-.45.82.33,1.24.54a1,1,0,0,0,.95,0,5.58,5.58,0,0,0,.48-.37.81.81,0,0,1,.81-.08,2.1,2.1,0,0,0,1.1.17c.31-.06.6-.29.56-.61A.17.17,0,0,0,235.83,67.78Z"/><path class="cls-4" d="M234.66,71.18a1.42,1.42,0,0,1-1,.77,1.56,1.56,0,0,1-1.32-.37,1.52,1.52,0,0,0-1.49-.09,1.31,1.31,0,0,1-.8.12c-.2-.06-.47-.21-.35-.44s-.26-.34-.37-.13c-.27.51.35.93.82,1a2.54,2.54,0,0,0,1-.21,1.28,1.28,0,0,1,.61-.06,1.63,1.63,0,0,1,.51.3,1.8,1.8,0,0,0,2.72-.73A.19.19,0,0,0,234.66,71.18Z"/><polygon class="cls-8" points="231.9 62.18 229.78 62.47 229.36 59.62 231.48 59.33 231.9 62.18"/><polygon class="cls-7" points="241.47 72.94 242.53 82.75 251.17 83.92 251.13 71.19 241.47 72.94"/><path class="cls-4" d="M249.76,73.61a.11.11,0,0,0-.19,0,.61.61,0,0,1-.28.35,1.1,1.1,0,0,1-.54.08,2.07,2.07,0,0,0-1,.09c-.28.15-.35.46-.59.63-.51.35-.82-.48-.92-.8s-.38-.12-.39.08a.66.66,0,0,1-1.23.26.22.22,0,0,0-.42.12.41.41,0,0,1-.26.42c-.23.09-.46-.09-.59-.25s-.33-.06-.3.1a.81.81,0,0,0,1.5.14,1.34,1.34,0,0,1,2.1.3.77.77,0,0,0,.63,0c.25-.13.3-.36.47-.57.35-.44,1-.08,1.54-.23C249.56,74.22,250,73.93,249.76,73.61Z"/><path class="cls-4" d="M249,76.38c-.34.43-.89-.07-1.33,0a1.1,1.1,0,0,0-.52.3c-.25.2-.42.15-.68,0a1.18,1.18,0,0,0-1.2-.16c-.31.11-1.2.52-1.32,0a.14.14,0,0,0-.28.06c.1.45.62.56,1,.48s.64-.27,1-.31.55.23.84.37a.64.64,0,0,0,.64,0,2.85,2.85,0,0,0,.33-.25.54.54,0,0,1,.55,0,1.43,1.43,0,0,0,.76.11c.21,0,.41-.19.38-.41S249,76.3,249,76.38Z"/><path class="cls-4" d="M248.17,78.71a1,1,0,0,1-.68.52,1.07,1.07,0,0,1-.9-.26,1.05,1.05,0,0,0-1,0A.91.91,0,0,1,245,79c-.14,0-.32-.15-.24-.31s-.18-.23-.25-.08c-.19.35.23.63.56.67a1.76,1.76,0,0,0,.68-.14.76.76,0,0,1,.42,0,1,1,0,0,1,.35.2,1.23,1.23,0,0,0,1.85-.5A.12.12,0,0,0,248.17,78.71Z"/><polygon class="cls-8" points="246.28 72.57 244.84 72.76 244.55 70.82 246 70.63 246.28 72.57"/><polygon class="cls-9" points="227.36 84.38 229.07 103.69 240.04 104.04 239.98 86.3 227.36 84.38"/><path class="cls-10" d="M236.77,88.25c-.31-.39-1-.17-1.41,0a5.32,5.32,0,0,1-1.53.56.93.93,0,0,1-.67-.28.63.63,0,0,0-.69-.13c-.23.11-.31.38-.52.5a.4.4,0,0,1-.57-.46c.06-.16-.23-.27-.3-.11a.72.72,0,0,0,.9.91.84.84,0,0,0,.37-.3,1.44,1.44,0,0,1,.28-.37c.19-.11.32.08.44.21a1.45,1.45,0,0,0,.35.24,1.93,1.93,0,0,0,1.51-.25,6.28,6.28,0,0,1,.85-.34,1.32,1.32,0,0,1,.39-.06,3.56,3.56,0,0,1,.47.1A.14.14,0,0,0,236.77,88.25Z"/><path class="cls-10" d="M236.9,91.42c-.31-.22-.83,0-1.14.11a2.32,2.32,0,0,1-1.27.35c-.26,0-.44-.26-.69-.34a1.21,1.21,0,0,0-.68,0c-.32.08-1.22.5-1.37,0a.16.16,0,0,0-.31.08c.11.41.57.52,1,.48a3.91,3.91,0,0,0,.75-.26.89.89,0,0,1,.58,0c.15.06.28.17.42.24a1.49,1.49,0,0,0,1.27-.06c.22-.09.44-.19.67-.26a3,3,0,0,1,.73-.06A.12.12,0,0,0,236.9,91.42Z"/><path class="cls-10" d="M237,95.07a1.44,1.44,0,0,0-1.05-.34,3.55,3.55,0,0,0-1.12.28,2.62,2.62,0,0,1-1.19.3c-.34,0-.71-.23-.72-.59,0-.18-.25-.19-.32,0a1.55,1.55,0,0,1-.5.73c-.22.16-.61.16-.71-.13s-.41-.07-.34.14a.79.79,0,0,0,1,.43,1.12,1.12,0,0,0,.74-.7,1.39,1.39,0,0,0,1.34.44c.46-.08.87-.32,1.33-.44a1.94,1.94,0,0,1,.83,0,6.06,6.06,0,0,0,.61.16C237,95.34,237.13,95.19,237,95.07Z"/><path class="cls-10" d="M237,97.11a3.92,3.92,0,0,1-1.26.18c-.37-.07-.76-.09-1.13-.15-.09,0-.2,0-.2.13,0,.28-.44.23-.65.22a1,1,0,0,0-.72.15c-.16.12-.19.42-.36.52s-.42-.34-.47-.5-.36-.1-.31.09a1.07,1.07,0,0,0,.47.7.54.54,0,0,0,.72-.27c.1-.16.14-.35.35-.4a4.57,4.57,0,0,1,.64,0,.7.7,0,0,0,.6-.32,2.92,2.92,0,0,0,1.14,0,4,4,0,0,1,.6,0,1.93,1.93,0,0,0,.63-.1C237.18,97.36,237.16,97.09,237,97.11Z"/><path class="cls-10" d="M235.23,101.37a1.45,1.45,0,0,0-.74-.31,5.26,5.26,0,0,0-.89-.08,4.06,4.06,0,0,0-.85.06,3.55,3.55,0,0,0-.85.29c-.19.09,0,.35.16.27a3.15,3.15,0,0,1,.73-.25,3.24,3.24,0,0,1,.76-.11,3,3,0,0,1,.79.1,7,7,0,0,0,.78.23C235.23,101.58,235.32,101.46,235.23,101.37Z"/><polygon class="cls-8" points="234.19 85.73 232.72 85.85 232.55 83.88 234.02 83.76 234.19 85.73"/><polygon class="cls-11" points="382.16 139.55 308.43 133.66 300.56 7.36 395.44 0 382.16 139.55"/><path class="cls-10" d="M369.09,133.52c-4.27,0-14.58-.62-38.83-2.35-8.56-.6-15.95-1.12-16.74-1.09l-.73,0L305.51,11.73,385.3,8l-.09.82c-.13,1.22-13,122-13.08,123.81V133l-.24.25C371.66,133.4,370.94,133.52,369.09,133.52Zm1.56-.94v0Zm-56.47-3.9c2,.08,7.52.47,16.19,1.08,13.91,1,36.78,2.62,40.33,2.35.78-8.34,11.32-107.28,12.95-122.57l-76.57,3.53Z"/><polygon class="cls-12" points="313.66 23.72 316.44 50.69 340.36 57.23 343.69 20.61 313.66 23.72"/><path class="cls-10" d="M336.79,28.71a.31.31,0,0,0-.52-.07,1.8,1.8,0,0,1-.95.89,3,3,0,0,1-1.55,0,5.58,5.58,0,0,0-2.92-.13c-.86.3-1.17,1.16-1.93,1.55-1.57.8-2.11-1.67-2.26-2.59-.1-.67-1-.51-1.14.06a1.88,1.88,0,0,1-3.58.27.64.64,0,0,0-1.24.21,1.22,1.22,0,0,1-.91,1.08,1.57,1.57,0,0,1-1.56-.94c-.22-.35-.89-.29-.88.18a2.19,2.19,0,0,0,2.55,2,2.3,2.3,0,0,0,1.61-1,3.16,3.16,0,0,0,4.38-.14,3,3,0,0,0,1.44,1.78,2.26,2.26,0,0,0,1.78.17c.78-.27,1-.92,1.57-1.44,1.19-1.12,3,.16,4.43-.08C336,30.36,337.23,29.71,336.79,28.71Z"/><path class="cls-10" d="M333.39,36.25c-1.14,1.07-2.48-.53-3.74-.51a3.07,3.07,0,0,0-1.59.65c-.81.49-1.25.27-1.91-.31a3.44,3.44,0,0,0-3.35-.9c-.9.19-3.58,1-3.7-.62,0-.5-.84-.43-.81.07.08,1.28,1.53,1.78,2.71,1.74,1,0,1.93-.55,2.94-.51s1.48.85,2.24,1.36a1.92,1.92,0,0,0,1.81.24,9.4,9.4,0,0,0,1-.58,1.57,1.57,0,0,1,1.58,0,4.1,4.1,0,0,0,2.09.61,1.22,1.22,0,0,0,1.25-1A.34.34,0,0,0,333.39,36.25Z"/><path class="cls-10" d="M330.2,42.52a2.89,2.89,0,0,1-2.13,1.22,3,3,0,0,1-2.44-1.06,3,3,0,0,0-2.85-.54,2.6,2.6,0,0,1-1.56,0c-.39-.17-.85-.52-.55-.94s-.41-.72-.68-.34c-.67.92.4,1.88,1.3,2.1a5.21,5.21,0,0,0,2-.14,2.32,2.32,0,0,1,1.2,0,3.21,3.21,0,0,1,.89.7,3.52,3.52,0,0,0,5.44-.72A.35.35,0,0,0,330.2,42.52Z"/><rect class="cls-8" x="323.24" y="18.88" width="4.16" height="5.6"/><polygon class="cls-12" points="335.03 65.67 335.03 120.42 365.81 123.9 370.06 73.96 335.03 65.67"/><path class="cls-10" d="M360.55,78.72c-.78-1.16-2.86-.71-4-.36-1.42.44-2.9,1.27-4.43,1.24a2.61,2.61,0,0,1-1.82-1,1.81,1.81,0,0,0-1.91-.52c-.67.26-1,1-1.6,1.31A1.14,1.14,0,0,1,345.33,78c.22-.43-.57-.81-.8-.38a2,2,0,0,0,2.31,2.79,2.37,2.37,0,0,0,1.1-.79c.27-.29.52-.77.89-1,.56-.27.88.29,1.19.67a3.31,3.31,0,0,0,.9.76c1.36.72,3,.12,4.31-.35a17,17,0,0,1,2.49-.77,4.17,4.17,0,0,1,1.11-.09,13.48,13.48,0,0,1,1.32.39A.37.37,0,0,0,360.55,78.72Z"/><path class="cls-10" d="M360.13,87.66c-.83-.69-2.32-.23-3.23.06-1.13.36-2.47,1-3.68.7-.71-.21-1.17-.84-1.85-1.11a3.52,3.52,0,0,0-1.93-.1c-.91.16-3.56,1.13-3.83-.44-.09-.55-1-.39-.89.16.21,1.17,1.48,1.61,2.59,1.56a9.7,9.7,0,0,0,2.2-.54,2.37,2.37,0,0,1,1.62,0,9.9,9.9,0,0,1,1.14.77,4.16,4.16,0,0,0,3.6.11c.64-.2,1.27-.44,1.92-.59a9.73,9.73,0,0,1,2.09,0A.36.36,0,0,0,360.13,87.66Z"/><path class="cls-10" d="M359.56,98a4.06,4.06,0,0,0-2.88-1.19,9.59,9.59,0,0,0-3.23.52,7.3,7.3,0,0,1-3.41.58c-.94-.19-2-.8-1.9-1.82,0-.5-.65-.59-.86-.17a4.79,4.79,0,0,1-1.61,2c-.67.39-1.77.3-2-.53-.15-.62-1.12-.3-1,.31a2.21,2.21,0,0,0,2.56,1.43,3.18,3.18,0,0,0,2.26-1.81,3.89,3.89,0,0,0,3.66,1.56c1.33-.14,2.54-.72,3.85-.94a5.26,5.26,0,0,1,2.33.18c.58.16,1.11.47,1.69.6C359.49,98.73,359.84,98.34,359.56,98Z"/><path class="cls-10" d="M358.91,103.71c-1.15.05-2.5.51-3.61.2s-2.1-.43-3.14-.67a.48.48,0,0,0-.59.32c-.13.79-1.31.55-1.87.46a3,3,0,0,0-2.07.26c-.49.32-.64,1.16-1.15,1.39-.73.33-1.1-1.06-1.18-1.5a.47.47,0,0,0-.91.18,3,3,0,0,0,1.16,2.08,1.53,1.53,0,0,0,2.08-.62c.31-.43.48-.94,1.09-1a12,12,0,0,1,1.78.21,2,2,0,0,0,1.79-.77,8.06,8.06,0,0,0,3.2.35,9.51,9.51,0,0,1,1.68.13,7.14,7.14,0,0,0,1.79-.15C359.43,104.46,359.45,103.69,358.91,103.71Z"/><path class="cls-10" d="M352.94,115.3a4,4,0,0,0-2-1,14,14,0,0,0-2.48-.44,10.79,10.79,0,0,0-2.41,0,11.23,11.23,0,0,0-2.49.63c-.54.2-.15,1,.39.78a9.79,9.79,0,0,1,2.13-.54,11.09,11.09,0,0,1,2.15-.13,8.21,8.21,0,0,1,2.2.46,17.11,17.11,0,0,0,2.16.82C352.9,115.88,353.18,115.55,352.94,115.3Z"/><rect class="cls-8" x="349.77" y="65.45" width="4.16" height="5.6"/><path class="cls-10" d="M349.25,20.34l-1.08,20.84S372.53,44,372.53,43.1V19.62Z"/><path class="cls-13" d="M362.6,26.57c-.58-.23-1.11.15-1.64.34-.18.07-1.12.21-1-.23s-.72-.82-1-.32-.38.84-.6,1.25c-.11.2-.29.41-.38.61,0,0,0,0,0,.05a2,2,0,0,1-.14-.22,7.74,7.74,0,0,1-1-2.73.57.57,0,0,0-.91-.33,2,2,0,0,0-.68,1.21c-.07.28-.08.82-.36,1-.48.31-.86-.42-.92-.76s0-1.25-.7-1-.31,1.51,0,2a1.81,1.81,0,0,0,1.62.86,1.5,1.5,0,0,0,1.27-1,1.68,1.68,0,0,0,.07-.24c.08.21.16.43.26.64.25.54.58,1.38,1.19,1.64s1.15-.21,1.47-.7a8,8,0,0,0,.51-.9,1.8,1.8,0,0,0,.76.26,3,3,0,0,0,2.35-1.06A.24.24,0,0,0,362.6,26.57Z"/><path class="cls-13" d="M366.89,34.35a.94.94,0,0,0-.73.11,2.68,2.68,0,0,0-.28.18.85.85,0,0,1-.19.14,1.31,1.31,0,0,0,0-.65.92.92,0,0,0-.57-.45,1.47,1.47,0,0,0-1.4.38c-.19.18-.46.71-.77.7s-.68-.67-.8-.92a.58.58,0,0,0-.95-.12A13.56,13.56,0,0,1,360,34.86c-.06,0,0-.63,0-.7a1.73,1.73,0,0,0-.16-.66.57.57,0,0,0-.71-.29,1.93,1.93,0,0,0-.86.71c-.19.28-.34.68-.69.8-1,.35-.94-.86-1.43-1.26a1.27,1.27,0,0,0-1.75.36,3.79,3.79,0,0,0-.45.9c-.1.2-.23.45-.53.32s-.11-1,0-1.33c.16-.58-.76-.81-.94-.24-.3.94-.39,2.41,1,2.64a1.27,1.27,0,0,0,1.19-.43c.17-.19.55-1.35.8-1.36.06,0,.51.89.66,1a2,2,0,0,0,1.19.45,1.81,1.81,0,0,0,1.25-.4,2,2,0,0,0,.41-.53,1,1,0,0,0,.07.39,1.13,1.13,0,0,0,.79.71c.62.13,1.23-.47,1.71-1a2,2,0,0,0,1.11.83c.94.21,1.3-.48,1.89-1,.27-.24.13-.08.08.12a.88.88,0,0,0,0,.43.9.9,0,0,0,.67.51c.86.17,1.23-.59,1.74-1.06C367.22,34.63,367.07,34.39,366.89,34.35Z"/><polygon class="cls-14" points="300.56 7.36 382.16 139.55 308.43 133.66 300.56 7.36"/><g class="cls-15"><path class="cls-16" d="M553.14,312.16S569.64,345,568.56,345s-8.72,4.22-8.72,10.44.16,12,3.43,12.31a32.41,32.41,0,0,0,6.09,0s4.53,3.9,7.49,2.71,3.28-2.71,3.28-2.71a3.74,3.74,0,0,0,4.16-1.31c1.93-2.24,1-3.28,1-3.28a5.91,5.91,0,0,0,2.48-2.83c1.11-2.23-5.17-12.3,0-12.62s10.79-1.08,9.69-3.31S587,340.3,587,340.3l-4.69-9.58-12-30.33s-7.06-3.76-12.05-1.38a17.15,17.15,0,0,0-7.3,6.85Z"/><path class="cls-17" d="M569.63,367.67c-.74-.82-1.57-1.54-2.23-2.42a15.25,15.25,0,0,1-1.67-2.9,28.45,28.45,0,0,1-1.13-3c-.39-1.13-.93-2.4.14-3.34a.2.2,0,0,0-.18-.35c-1.2.3-1.25,1.69-1,2.61a27.47,27.47,0,0,0,1.29,3.63,15.9,15.9,0,0,0,4.36,6.14A.3.3,0,0,0,569.63,367.67Z"/><path class="cls-17" d="M579.76,366.76c-.57-.54-1.19-1.05-1.78-1.56-1.19-1.05-2.47-2-3.59-3.15a8.39,8.39,0,0,1-2-3.62,18.35,18.35,0,0,1-.46-2.05,5.55,5.55,0,0,0-.43-1.75.16.16,0,0,0-.28,0,4.93,4.93,0,0,0,.12,2,17.84,17.84,0,0,0,.39,1.76,9.37,9.37,0,0,0,1.63,3.34,23.72,23.72,0,0,0,3.07,2.85l1.82,1.55c.54.46,1.48,1,1.6,1.73,0,.22.4.2.44,0A1.24,1.24,0,0,0,579.76,366.76Z"/><path class="cls-17" d="M585.1,363.15a9.27,9.27,0,0,1-2.6-2.47,26.53,26.53,0,0,1-2.15-3,25.51,25.51,0,0,1-1.6-3.12,7.73,7.73,0,0,1-.55-1.55,2.5,2.5,0,0,1-.06-.86,3.38,3.38,0,0,1,.38-.9c.09-.2-.18-.44-.39-.32-1,.58-.7,2.09-.39,3a22.47,22.47,0,0,0,1.82,3.8A25.78,25.78,0,0,0,581.9,361c.8,1,1.72,2.24,3,2.68C585.21,363.8,585.39,363.31,585.1,363.15Z"/><path class="cls-17" d="M570.33,300.39s-7.06-3.76-12.05-1.38a17.15,17.15,0,0,0-7.3,6.85l2.16,6.3,2.38,4.75c2.87-1.43,8.52-3.9,7.92-4.35a8.16,8.16,0,0,1-1.57-2.68l3.78,2.08,8.86-1Z"/><path class="cls-11" d="M531.12,188.83s-5,16.76-2.81,28.63,7.17,62.49,10.3,70.23,2,15.49,4.73,16.38,3.67,0,3.67,0l3.9,9.23,8.14-4.17-1.71-5.06,3.75,3.34,13.11-1.25-3.87-8.64s3.3-7.53,2.49-13.89-7.17-16.78-7.17-16.78S569.52,181.39,531.12,188.83Z"/><path class="cls-18" d="M574.2,306.16l-3.87-8.64s3.3-7.53,2.49-13.89-7.17-16.78-7.17-16.78.25-5.64,0-13.88L555,244.79l-13.35-3.33-4.08,10.64c.11.61-.3,10.75,2.62,14.75s-.74,3.18-.93,7.32,1.85-6.43,6.22,2.06,1.19,17.95,3.75,20.62,4.54,2.2,4.54,2.2-5.75,2.32-6.79,4.79c0,.1-.08.22-.12.34a.84.84,0,0,0,.15-.11l3.9,9.23,8.14-4.17-1.71-5.06,3.75,3.34Z"/><path class="cls-19" d="M566.44,297a30,30,0,0,0-11.22,1.39c-3.16,1-7,2.28-8.66,5.25-.13.23.27.47.42.25,1.88-2.7,5.4-4,8.51-4.9a43.21,43.21,0,0,1,10.92-1.53C566.68,297.4,566.72,297,566.44,297Z"/><path class="cls-19" d="M544.23,270.72a3.79,3.79,0,0,0-1.11.13,5.73,5.73,0,0,0-1,.38,6.1,6.1,0,0,0-1.69,1.24,5.93,5.93,0,0,0-1.17,1.7,2.74,2.74,0,0,0-.29,1.95.17.17,0,0,0,.3,0,5.39,5.39,0,0,0,.28-1,5.13,5.13,0,0,1,1.34-2.33,6.44,6.44,0,0,1,3.37-1.74A.2.2,0,0,0,544.23,270.72Z"/><path class="cls-20" d="M576.92,150.26s52.53,6,68.76,29.74,16.86,39.5,25.6,81.19,21.4,59.95,21.4,59.95,14.18,15.49,5.75,23.53S666,381.19,629.14,381.19s-55.64-5.84-55.64-5.84,6.94-56.39.7-66.81-28.73-34-35.59-50.33-7.49-69.38-7.49-69.38,7.27-20,15.39-27S566.17,148.52,576.92,150.26Z"/><path class="cls-21" d="M698.43,344.67c6.87-6.56-1.29-18.06-4.53-22.09-32.15,21.35-63.93-9.39-100-30.08-38.79-22.23-46.14-81.31-46.14-81.31l8-55.87a59.09,59.09,0,0,0-9.18,6.54c-8.12,7-15.39,27-15.39,27s.63,53,7.49,69.38S568,298.12,574.2,308.54s-.7,66.81-.7,66.81,18.8,5.84,55.64,5.84S690,352.71,698.43,344.67Z"/><path class="cls-11" d="M590.07,306.75A68.62,68.62,0,0,0,577,287.85c-2.79-2.9-5.75-5.66-8.49-8.61a66.29,66.29,0,0,1-6.55-8.33,75,75,0,0,1-8.76-18.48,107.31,107.31,0,0,1-4.31-20.35,194.44,194.44,0,0,1-1.18-20.89c0-.85,0-1.7,0-2.55,0-.31-.47-.26-.48,0a135.48,135.48,0,0,0,.52,21A113.51,113.51,0,0,0,551.5,250a80,80,0,0,0,8,18.76,66.24,66.24,0,0,0,6,8.47c2.55,3.06,5.43,5.85,8.26,8.68a88,88,0,0,1,7.93,8.8,64.76,64.76,0,0,1,6.21,9.83c.43.84.84,1.69,1.24,2.55C589.41,307.69,590.33,307.31,590.07,306.75Z"/><path class="cls-11" d="M555.62,218.8l-.17-.41a1.27,1.27,0,0,0-.45-.5,1.45,1.45,0,0,0-.6-.32l-.13,0a2.1,2.1,0,0,0-.56-.07l-.49,0a1.58,1.58,0,0,0-.62.31.82.82,0,0,0-.33.31,1.29,1.29,0,0,0-.33.58c0,.16-.05.31-.07.46l.06.47a1.35,1.35,0,0,0,.31.59,1.39,1.39,0,0,0,.51.45,4.89,4.89,0,0,0,.48.2h0l.49.07a1.67,1.67,0,0,0,.55-.08l.44-.16a1.35,1.35,0,0,0,.52-.43.91.91,0,0,0,.24-.37,1.17,1.17,0,0,0,.17-.66Z"/><path class="cls-11" d="M557.33,194.39v0c0-.07,0-.33,0-.34l0,.18a1.06,1.06,0,0,0-.16-.52l-.22-.3a1.24,1.24,0,0,0-.48-.31,1.27,1.27,0,0,0-.58-.14,1.17,1.17,0,0,0-.56.11,1.14,1.14,0,0,0-.49.28l-.24.28a1.4,1.4,0,0,0-.23.73l0,.36a1.56,1.56,0,0,0,.36.64,1,1,0,0,0,.23.19,1.53,1.53,0,0,0,.42.22,1.21,1.21,0,0,0,.57.05,1.12,1.12,0,0,0,.53-.13,1.35,1.35,0,0,0,.56-.47h0s.16-.33.17-.34h0v0h0c0-.06,0-.15,0-.19s0-.13,0-.19h0v0Z"/><path class="cls-11" d="M559,250a1.74,1.74,0,0,0-.37-.76l-.32-.28a1.68,1.68,0,0,0-.84-.31,1.42,1.42,0,0,0-.68.08,1.38,1.38,0,0,0-.58.29,1.29,1.29,0,0,0-.41.49,1.24,1.24,0,0,0-.21.62l0,.44a1.51,1.51,0,0,0,.37.76l.32.29a1.77,1.77,0,0,0,.84.3,1.38,1.38,0,0,0,.67-.08,1.36,1.36,0,0,0,.59-.29,1.26,1.26,0,0,0,.4-.49,1.15,1.15,0,0,0,.21-.62C559.05,250.3,559,250.15,559,250Z"/><path class="cls-11" d="M572,274.08c0-.13-.07-.26-.11-.39a1.56,1.56,0,0,0-.49-.65l-.36-.21a1.73,1.73,0,0,0-.87-.13,1.26,1.26,0,0,0-.6.2,1.58,1.58,0,0,0-.85,1.54c0,.13.07.26.1.4a1.56,1.56,0,0,0,.5.64l.36.21a1.58,1.58,0,0,0,.86.13,1.25,1.25,0,0,0,.6-.19,1.21,1.21,0,0,0,.49-.37,1.13,1.13,0,0,0,.29-.55A1.23,1.23,0,0,0,572,274.08Z"/><path class="cls-11" d="M587.73,293v-.05s0,0,0,0a1.12,1.12,0,0,0-.25-.58,1.24,1.24,0,0,0-.44-.47l-.39-.2a1.33,1.33,0,0,0-.68-.09,1,1,0,0,0-.44.07,1.31,1.31,0,0,0-.59.29l-.3.3a1.58,1.58,0,0,0-.31.81.5.5,0,0,0,0,.12,1.56,1.56,0,0,0,.16.85l.24.36a1.73,1.73,0,0,0,.73.48,1.33,1.33,0,0,0,.68.09,1.38,1.38,0,0,0,.66-.14,1.28,1.28,0,0,0,.52-.39,1.23,1.23,0,0,0,.36-.54A1.52,1.52,0,0,0,587.73,293Z"/><path class="cls-11" d="M548.91,208.2s2.81-26.09,9.37-27.88,20.6,15.49,20.6,15.49,16.23-47.5-4.37-49.83c-16.51-1.86-42.46,19.16-35.9,51.91,0,0,3.84-11.91,4.73-4.17s2.45,17.57,3.39,17.57S548.91,208.2,548.91,208.2Z"/><path class="cls-22" d="M540.19,161.46a16.49,16.49,0,0,1,6.22,16.83c-1.91,9.22,1.46,23.06,1.46,23.06s2-25.5,12.8-35.54,11.94-14.92,11.94-14.92S563,145,556.93,131.09,540.19,161.46,540.19,161.46Z"/><path class="cls-23" d="M540.19,161.46a16.54,16.54,0,0,1,6.51,11.31c18.8-12.06,12.1-37.84,12.1-37.84h0c-.65-1.21-1.28-2.48-1.87-3.84C550.86,117.22,540.19,161.46,540.19,161.46Z"/><path class="cls-22" d="M476.09,129.91s16,53.19,56.59,42c28.86-8,26.37-45.42,26.37-45.42s12.56-15.18,3.21-38.54-47.72-31.18-70.93-10.47S472.17,123.17,476.09,129.91Z"/><path class="cls-24" d="M503.31,151.28c-.52,0-2,.28-2.28-.22s.09-1.61.22-2.15a19.92,19.92,0,0,0,.45-2.87c.26-3.4-.05-6.9-2.12-9.79-.34-.47-1.12-.07-.82.45,2,3.64,1.37,7.64.34,11.45-.52,1.91-1.13,4.68,1.53,5.4a9.06,9.06,0,0,0,3,.07,4.23,4.23,0,0,0,3.06-1.18.66.66,0,0,0-.33-1.1A7.1,7.1,0,0,0,503.31,151.28Z"/><path class="cls-24" d="M527.07,155.21c-2.41,1.09-4.71,2.39-7.12,3.49-1.14.52-2.31,1-3.49,1.43s-2.58.75-3.77,1.3a.57.57,0,0,0,.25,1.07,16.63,16.63,0,0,0,3.84-1c1.3-.44,2.57-.93,3.83-1.47a24.83,24.83,0,0,0,6.92-4.18C527.87,155.53,527.48,155,527.07,155.21Z"/><path class="cls-24" d="M520.66,130.77c.72,2.56.51,4.84-.47,5.09s-2.36-1.62-3.08-4.18-.51-4.85.47-5.1S519.94,128.2,520.66,130.77Z"/><path class="cls-24" d="M492.27,140.57c.67,2.38.48,4.51-.44,4.74s-2.2-1.51-2.87-3.89-.48-4.52.44-4.75S491.6,138.18,492.27,140.57Z"/><path class="cls-25" d="M524.91,116.43a12.39,12.39,0,0,0-8.71-.62,14.77,14.77,0,0,0-3.59,1.45,8,8,0,0,0-3.35,3.24,1.56,1.56,0,0,0,.55,1.85,1.81,1.81,0,0,0,2,0,16.18,16.18,0,0,0,1.4-1.07l.21-.15.33-.2c.23-.15.46-.3.7-.44s.48-.27.72-.39l.41-.2c-.18.09-.05,0,.06,0a13.45,13.45,0,0,1,1.66-.55c.26-.07.53-.12.81-.18h.07l.44-.06a13.17,13.17,0,0,1,1.66-.07h.37l.21,0c.25,0,.5.06.75.1.73.12,1.45.22,2.18.36C525.51,119.8,526.39,117.2,524.91,116.43Z"/><path class="cls-24" d="M484.52,132.11l0,0C484.56,132.09,484.56,132.09,484.52,132.11Z"/><path class="cls-25" d="M493,126.9a5.43,5.43,0,0,0-2.12-.46c-.36,0-.72,0-1.07,0a12.82,12.82,0,0,0-2.31.39,10.16,10.16,0,0,0-3.77,1.93,4.76,4.76,0,0,0-1.73,2.1c-.22.7-.11,1.61.75,1.83a1.27,1.27,0,0,0,1-.17l.73-.42a3.18,3.18,0,0,0,.35-.26l.44-.41.14-.13,0,0a10,10,0,0,1,.84-.61l.69-.4.33-.16.47-.2a9.67,9.67,0,0,1,1-.36l.56-.13.19,0h.06a11.15,11.15,0,0,1,1.15-.1h.52c.5,0,.93,0,1.46,0a1.2,1.2,0,0,0,.24-2.34Z"/><path class="cls-23" d="M537.22,74.1a79.9,79.9,0,0,0-12.76,0c-2.34.35-14.05,2.58-16.16,2.8s-21.78,10.93-21.78,10.93l-9.74,8.3c-5.1,11.55-4.57,22.38-2.79,28.88-.1-.37,50.7-19.07,50.7-19.74s-4-10.72,1.41-14.52c0,0-1.64,20.39,19.36,25.06,0,0,2.17-16.89,2.17-18.63S539.93,74.41,537.22,74.1Z"/><path class="cls-25" d="M566.81,78.93s9.28-9.63,19.59-.47,23.62,19.85,31.34,46c3.6,12.17,4.72,19.95-1.63,20.72s-5.17-5.07-7.41-2.65-5.27,6.19-8.25,3.34-.39-4.63-4.89-1.47-10.18,5-12.56,3.29-5.2-4.16-4.93-6.36-7.31,5.16-5.46-3.28a165,165,0,0,0,3.46-29.22c.23-9.57-3.56-19.36-6.37-19.62S566.81,78.93,566.81,78.93Z"/><path class="cls-26" d="M615.09,123.47a61.57,61.57,0,0,0,5,10.13c-.51-2.67-1.31-5.74-2.33-9.16-7.72-26.13-21-36.82-31.34-46-7-6.25-13.58-3.75-17-1.54l3.24,2.71S601.36,89.23,615.09,123.47Z"/><path class="cls-27" d="M563,71c.75,2.14,9.92,4.5,11.72,12.14s-9.54,4.43-9.54,4.43Z"/><path class="cls-25" d="M529.57,84.73S519,93,521.8,101.22c0,0-54.19,23-55.22,21.77S452,92.12,468.28,75,520.72,46.8,545.76,64.7c0,0,17.68-.37,23.73,16,12.72,34.4-7.74,58.9-7.74,58.9l-16-23.39S524.57,107.69,529.57,84.73Z"/><path class="cls-22" d="M566.73,122.58A11.07,11.07,0,0,1,554.32,132a10.79,10.79,0,0,1-9.82-11.84,11.09,11.09,0,0,1,12.41-9.37A10.8,10.8,0,0,1,566.73,122.58Z"/><path class="cls-26" d="M566.81,78.93c1,1.77,1.66,1.71,2.15.46-6.49-15-23.2-14.69-23.2-14.69-25-17.9-61.21-6.8-77.48,10.31-7.78,8.18-8.74,19.22-7.51,28.66h.3v-1.49s16.77-51,76.5-34.74L547,71.36S561.86,69.78,566.81,78.93Z"/><path class="cls-28" d="M594.47,391s-37.55,59-28.17,103.59H702.57s16.93-126.47-1-156.17C701.54,338.38,649.08,379.27,594.47,391Z"/><path class="cls-29" d="M652.4,419.4c5.33-29.5,41.46-53.43,55-62.12-.57-6.42-5.37-19.23-5.86-18.9-28,18.9-59.2,41.12-107.07,52.58,0,0-37.55,59-28.17,103.59h84.1C650.84,492.61,645.54,457.31,652.4,419.4Z"/><path class="cls-30" d="M537.9,349l112.56,10.41s-14.05,50.36-13.58,74.18,2.81,59.23,2.81,59.23L512.1,487.62,537.9,349"/><path class="cls-31" d="M540.45,349.27l.45,4.68,95.72,9.76s-8.36,41.17-9.09,67.46c-.55,20.17.7,48.93,1.31,61.24l10.85.45s-2.34-35.4-2.81-59.23,13.58-74.18,13.58-74.18Z"/><path class="cls-32" d="M627.53,477.12s-71.42-25.47-64.08-50.79-2.9-70.87-2.9-70.87l3.6-4h0L537.9,349,512.1,487.62l115.43,4.74Z"/><path class="cls-33" d="M642,438.26s30.9,8.32,30.9,13.23-5.15,7.8-5.15,7.8-68.36,12.24-73,20.09a62.15,62.15,0,0,0-6.48,15l-30.91-.71s-4.28-26,12.1-31.62,67.73-15.5,67.73-15.5l-.3-10.8Z"/><path class="cls-34" d="M634.54,441l.17,6.18s-49.75,9.59-65.62,15-11.73,30.64-11.73,30.64l29.95.69a47.92,47.92,0,0,1,1.58-4.77h0s-29.86,0-25.62-14.13,85.28-23.91,87.06-26.77C652,445.22,637.06,441.57,634.54,441Z"/><path class="cls-35" d="M296.37,295.43a88.43,88.43,0,0,0-6.14,11.35c-2.19,5.22-16.39,25.46-24,36.33l-22.32,29.18s7,9.09,7.81,13.55c0,0-1.44,2.54-5.93-2.08s-9.21-5.51-17.64-1.64-17,9.53-18.26,7.59,2.81-5.65,2.81-5.65-.16-7.6,2-11.17,15.45-10.27,15.45-10.27,19.82-39.76,25.6-51.37,16.7-24.86,16.85-25.46,4.06-8.48,4.06-8.48S297.37,285.42,296.37,295.43Z"/><path class="cls-36" d="M276.65,277.31s-3.6,7.29-4,8.37c9,3.59,16.47,11.76,20,16.14,1.88-3.5,3.74-6.39,3.74-6.39C297.37,285.42,276.65,277.31,276.65,277.31Z"/><path class="cls-35" d="M513.85,351.35s7.36,9.33,5.36,10.48-15.75-8.46-15.75-8.46-6.7,1.69-12.39-2-5.54-8.36-5.54-8.36L436.78,294l-10.73-10.89L414.3,271.24l19.8-23.71,11.67,14.94,12.79,16.37,44.56,58.62s28.15,6.19,31.5,10.9S513.85,351.35,513.85,351.35Z"/><path class="cls-36" d="M445.77,262.47C440,268.62,431,278.1,426.05,283.15L414.3,271.24l19.8-23.71Z"/><path class="cls-28" d="M425.38,429.61l-5.91-.25-.76,0-34.83-1.5-.05-.11c-.9-2.31-15.4-39.38-19.93-45.16v0c.22,1.36,8.09,48.2,6.86,47-.43-.41-5.59-.9-12.14-1.35l-.69-.05c-12.19-.84-28.63-1.57-28.63-1.57s-7.24-28.29-12.19-60.71c0-.25-.07-.49-.11-.75q-.44-2.83-.84-5.73l-.09-.68c-1.16-8.33-2.12-16.82-2.73-25.07l94.81-5.77s2,11,4.45,25.18c0,.23.09.46.13.68.18,1,.35,2,.53,3.07l.12.63c2.75,15.63,6,33.93,7.95,45.62C425.38,426.94,425.38,429.61,425.38,429.61Z"/><path class="cls-37" d="M351.59,331.37l-38.25,2.33c.61,8.25,1.57,16.74,2.73,25.07l.09.68q.4,2.9.84,5.73c0,.26.08.5.11.75,4.95,32.42,12.19,60.71,12.19,60.71s3.85.17,9.2.44c-5.45-20.73-12.36-75.62,10.64-74.11,25.55,1.67,40.94-15.14,41.82-15.55Z"/><path class="cls-38" d="M363.57,383.53a9.83,9.83,0,0,1-7.78-2.55,14.09,14.09,0,0,1-1.45-1.44c.23,1.93.35,3.88.5,5.81.18,2.17.34,4.33.51,6.5.58,7.61,1.13,15.23,1.81,22.83q.6,6.81,1.46,13.58l-.69-.05q-.23-1.71-.42-3.42c-.87-7.55-1.45-15.14-2-22.72q-.44-5.69-.86-11.38c-.14-1.94-.29-3.88-.43-5.83s-.34-4-.36-5.94c-2.9-3.79-3.78-8.86-4.8-13.42-1.49-6.64-3.15-13.24-4.7-19.86-.06-.2.3-.29.35-.09,1,3.51,1.89,7.05,2.76,10.58.78,3.14,1.53,6.28,2.24,9.44a66.24,66.24,0,0,0,2.16,8.19,15.67,15.67,0,0,0,4.5,6.81,10.91,10.91,0,0,0,3.65,2,30.11,30.11,0,0,1-.52-3.88c-.16-1.36-.34-2.73-.53-4.09-1.31-9.67-3.15-19.22-5.17-28.76-.05-.29.39-.41.45-.12.66,2.67,1.25,5.36,1.81,8.05q1.49,7.19,2.63,14.45c.38,2.41.74,4.81,1.08,7.23l.48,3.62a19.64,19.64,0,0,1,.35,3.66,8.13,8.13,0,0,0,1.48.22c-1.35-1.82-1.19-4.36-1.32-6.51-.6-10.12-1.71-20.18-3.15-30.23a.2.2,0,0,1,.39-.06c.46,2.74.86,5.49,1.23,8.24.64,4.87,1.18,9.75,1.59,14.64.21,2.4.38,4.8.54,7.2.12,2.12-.08,4.7,1.29,6.49a.36.36,0,0,1,.06.24c.28,0,.56,0,.85,0S364,383.46,363.57,383.53Z"/><path class="cls-38" d="M412.73,353.79c-1.46,0-2.92.07-4.37.11s-3.07.1-4.61,0a14.85,14.85,0,0,1-7-2.46c-4.57-3-7.5-7.93-9.77-12.64-.12-.25.3-.49.44-.24a76.34,76.34,0,0,0,4.75,7.63,20.23,20.23,0,0,0,5.3,4.92,14.64,14.64,0,0,0,7.62,2.15c2.51.05,5-.07,7.52-.13C412.65,353.34,412.69,353.57,412.73,353.79Z"/><path class="cls-38" d="M419.47,429.36l-.76,0a27,27,0,0,1-1.08-4.61c-.58-2.77-1.18-5.53-1.79-8.3q-3.34-15-7.34-30-2-7.45-4.14-14.87c-.72-2.48-1.46-4.95-2.19-7.41s-1.54-4.93-2.18-7.41v0a19.76,19.76,0,0,1-6.48-3.29A31.87,31.87,0,0,1,383.11,340c-.12-.29.35-.44.47-.16a32.5,32.5,0,0,0,4.76,7.79,32.11,32.11,0,0,0,6.07,5.68,19.14,19.14,0,0,0,4.32,2.39,19.83,19.83,0,0,0,4.5,1,64.66,64.66,0,0,0,9.94.16h.09l.12.63c-.52,0-1.05.05-1.57.06a52.55,52.55,0,0,1-9.88-.38c-.52-.09-1-.2-1.53-.33,1,2.65,1.75,5.35,2.57,8.05s1.65,5.46,2.44,8.21q4.23,14.61,7.83,29.38,1.8,7.38,3.44,14.79c.54,2.47,1.09,4.94,1.6,7.4A25.79,25.79,0,0,0,419.47,429.36Z"/><path class="cls-38" d="M324.4,339.39c-.46,2-1,4-1.37,6-.7,3.42-1.43,6.92-3.25,10a14.74,14.74,0,0,1-3.42,4l-.2.15-.09-.68.55-.47a18,18,0,0,0,4.95-9.08c.45-1.69.78-3.39,1.15-5.09a32.67,32.67,0,0,1,1.24-4.86C324.06,339,324.47,339.11,324.4,339.39Z"/><path class="cls-38" d="M325,347.37a39,39,0,0,1-3.75,12.19,31.26,31.26,0,0,1-3.35,5.49,7.76,7.76,0,0,1-.75.88c0-.25-.07-.49-.11-.75a16.51,16.51,0,0,0,1.32-1.79,39.37,39.37,0,0,0,6.42-23.19c0-.27.41-.24.43,0A33.61,33.61,0,0,1,325,347.37Z"/><path class="cls-37" d="M401.28,428.26l-17.4-.43-.05-.11c-.9-2.31-15.4-39.38-19.93-45.16Z"/><path class="cls-39" d="M444.9,255.35l-17.62,20.29-7.19,8.29-14.72-14.59-3.07-3v0s.17.92.46,2.56c1.55,8.8,6.38,38.38,5.4,59.08,0,0-.33.23-1,.62-4.36,2.78-22.93,14.09-41,17-34.24,5.58-54.77-13.4-54.77-13.4L309.74,279h0l-.15-4.76L308,277.79v0l-9.31,20.87a84.19,84.19,0,0,0-7.57-9.7c-5.06-5.56-11.83-11.17-17.56-9.74l12.41-35.51s4.68-29.92,22.47-41.54,43.85-20.94,43.85-20.94,36.45,8.21,47.45,18.71S444.9,255.35,444.9,255.35Z"/><path class="cls-40" d="M330.15,209.84s-4.72,17.52,9,15.58c13.5-1.91,19.39-15.79,19.16-26.54a35,35,0,0,0-6.13-18.57H348L341,185S331.22,193.25,330.15,209.84Z"/><path class="cls-40" d="M300.77,294c-7-13.85-20.85-18.28-25.59-19.43l-1.65,4.72c10.77-2.68,25.14,19.44,25.14,19.44Z"/><path class="cls-40" d="M310.57,273.41c-.21,1.84-.5,3.66-.82,5.47,0,0,0,0,0,.06l-.15-4.76L308,277.79c0-.1,0-.2,0-.3.34-2,.63-4.06.81-6.11.63-7.2-.59-14.18-1.9-21.24-1.27-6.81-2.43-13.8-1.11-20.68a.53.53,0,0,1,1,.16,46.69,46.69,0,0,0,.18,11.87c.94,7,2.83,13.94,3.61,21A48.54,48.54,0,0,1,310.57,273.41Z"/><path class="cls-41" d="M274.66,276c.19-.51,14.63-34,20.25-53s35.85-18.07,35.85-18.07S336.11,189,337.67,188a1.11,1.11,0,0,0,.35-1.07c-8.9,3.82-20.37,9.23-29.61,15.26-17.79,11.62-22.47,41.54-22.47,41.54L274.66,276Z"/><path class="cls-40" d="M405.37,269.34l-3.08-3s.17.92.46,2.56a22.51,22.51,0,0,1-3.15-3.1,34.87,34.87,0,0,1-3.59-4.91c-3.82-6.22-5.84-13.31-7.11-20.37-1.36-7.59-2.13-15.82,1.62-22.91.33-.61,1.44-.12,1.15.5a27.15,27.15,0,0,0-2.27,13.56,70.18,70.18,0,0,0,4.45,20.54,44.11,44.11,0,0,0,4.77,9.26,32.23,32.23,0,0,0,3.11,3.9c1.14,1.21,2.45,2.25,3.52,3.52A.59.59,0,0,1,405.37,269.34Z"/><path class="cls-40" d="M444.9,255.35l-2.8-3.66C438,256,424,272.83,417.15,281l2.94,2.91Z"/><path class="cls-41" d="M427.28,275.64l-7.19,8.29-14.72-14.59-3.07-3v0s-16.23-18.64-13-37.24c0,0,14.44,40.36,33.52,45.13A28,28,0,0,1,427.28,275.64Z"/><path class="cls-41" d="M407.19,328.55c-4.36,2.78-22.93,14.09-41,17-34.24,5.58-54.77-13.4-54.77-13.4L309.74,279h0l-.15-4.76L308,277.79v0l-9.31,20.87a84.19,84.19,0,0,0-7.57-9.7s15-33.77,15.51-56c0,0,5.85,76,48.9,90C381.21,331.38,398,330.49,407.19,328.55Z"/><path class="cls-42" d="M292.26,171.49s4.68,8.19,8.58,9.14-7.49-21.58-7.49-20.74S292.26,171.49,292.26,171.49Z"/><path class="cls-36" d="M354.16,182.09s5.87,28-10.31,36.14-10.9-8.92-12.2-15.12S354.16,182.09,354.16,182.09Z"/><path class="cls-35" d="M355.49,192.45c-9.28,23.27-23.39,19-23.39,19h0c0,6.33.09,11.49,9,9.93C351.27,219.61,355.63,201.3,355.49,192.45Z"/><path class="cls-38" d="M339.12,267.51c-.31-2.66-.95-5.3-1.36-7.95-.39-2.47-.71-5-1-7.45a97,97,0,0,0-2.65-14.92c-2.47-8.62-7-16.49-10.18-24.86a61.61,61.61,0,0,1-2.19-6.87,53.93,53.93,0,0,1-1.19-7.88c-.07-.69-1.19-.56-1.23.09-.32,4.34.77,8.93,2.12,13.05a128.29,128.29,0,0,0,5,12.44,120.91,120.91,0,0,1,5,12.61,74.47,74.47,0,0,1,2.65,14.65c.28,2.83.56,5.66.93,8.48a59.51,59.51,0,0,0,1.65,9.2C337.12,269.43,339.27,268.81,339.12,267.51Z"/><path class="cls-36" d="M309.69,184.08a5.79,5.79,0,0,1-6.42,5,5.66,5.66,0,0,1-5.22-6.13,5.78,5.78,0,0,1,6.42-5A5.65,5.65,0,0,1,309.69,184.08Z"/><path class="cls-35" d="M355.34,162.28s10.18,32.21-12.08,40.13-34.82-4.53-38.58-17.7c0,0-2.16-3.93-4.38-5.21s-6.57-12.7-6.57-12.7S284,145,304.06,131.45,349.11,130.47,355.34,162.28Z"/><path class="cls-35" d="M362.06,158.16a7.56,7.56,0,0,1-8.39,6.52,7.4,7.4,0,0,1-6.84-8,7.58,7.58,0,0,1,8.4-6.52A7.39,7.39,0,0,1,362.06,158.16Z"/><path class="cls-38" d="M326.29,186a6.19,6.19,0,0,0-1.29-.29c-.41,0-.83,0-1.24-.06-.58,0-1.16-.07-1.74-.13.89-3.65,1.71-7.42.42-11.07-.24-.69-1.49-.34-1.28.36,1.1,3.67.33,7.44-.61,11.05a.67.67,0,0,0,.58.87c.89.15,1.76.32,2.66.4.41,0,.84.09,1.25.09a4.27,4.27,0,0,0,1.24-.25A.5.5,0,0,0,326.29,186Z"/><path class="cls-38" d="M341.75,188.13a33.63,33.63,0,0,1-6.36,3.65,32.22,32.22,0,0,1-4.17,1.47c-1.19.34-2.45.47-3.6.9a.35.35,0,0,0,0,.65,11,11,0,0,0,4.23-.13,20.33,20.33,0,0,0,4-1.1,19.8,19.8,0,0,0,6.84-4.4C343.31,188.61,342.42,187.65,341.75,188.13Z"/><path class="cls-38" d="M337.3,157.15a9.55,9.55,0,0,0-1.37-.65,4.89,4.89,0,0,0-1.52-.25,9.19,9.19,0,0,0-2.56.29A15.37,15.37,0,0,0,327,158.8c-.63.43,0,1.25.63,1.06.88-.25,1.75-.53,2.61-.83a12.91,12.91,0,0,1,2.45-.61,10.14,10.14,0,0,1,2.06-.12,11.11,11.11,0,0,1,2,.19A.73.73,0,0,0,337.3,157.15Z"/><path class="cls-38" d="M311.28,169.29a.66.66,0,0,0-.69-.46,6.73,6.73,0,0,0-1.42.07c-.38.1-.75.21-1.12.34a13.21,13.21,0,0,0-1.84.82,6.35,6.35,0,0,0-1.71,1.24,3.72,3.72,0,0,0-.69,1,1.91,1.91,0,0,0,0,1.27c.2.67,1.35.73,1.49,0a2.46,2.46,0,0,1,.28-.62c0,.08,0,.06,0,0l.13-.18.06-.08a.8.8,0,0,1,.13-.13l.31-.27a10.08,10.08,0,0,1,1.47-.92,13.16,13.16,0,0,1,1.63-.71,5,5,0,0,0,.9-.36,4.66,4.66,0,0,1,.68-.3A.6.6,0,0,0,311.28,169.29Z"/><path class="cls-38" d="M336.18,167.47c.73,1.77.72,3.43,0,3.71s-1.95-.93-2.68-2.7-.72-3.43,0-3.71S335.44,165.7,336.18,167.47Z"/><path class="cls-38" d="M313.5,178.28c1,1.71,1.3,3.42.57,3.82s-2.15-.67-3.18-2.38-1.3-3.42-.57-3.82S312.47,176.56,313.5,178.28Z"/><path class="cls-38" d="M359.05,181.76a.68.68,0,0,0-.8,1.07c3.48,3.06,3.9,7.66,3.74,11.92a156.35,156.35,0,0,1-1.87,17.12c-1.73,11.5-3.67,23-5.52,34.44-1.05,6.5-2.06,13-3.08,19.5a1.22,1.22,0,0,0,2.41.39q2.76-18.09,5.43-36.2c1.73-11.74,4.13-23.52,4.55-35.38C364.08,190,363.53,184.42,359.05,181.76Z"/><path class="cls-7" d="M336.72,268.1c2.4-.59,17.21-1.9,17.21-1.9s3.92,27.11,2.71,27.11H336.72Z"/><polygon class="cls-43" points="336.72 268.1 357.61 293.31 336.72 293.31 336.72 268.1"/><polygon class="cls-44" points="349.81 271.2 351.5 279.75 340.21 280.8 340.21 271.2 349.81 271.2"/><path class="cls-44" d="M352.22,284.65c-.33.28-.8,0-1.18-.08a2,2,0,0,0-1,0c-.88.21-1.74.52-2.6.78a2.57,2.57,0,0,1-.54.16c-.25,0-.39-.14-.59-.22a1.41,1.41,0,0,0-.86-.07c-.36.06-2.14.87-2.15,0a.29.29,0,0,0-.52-.17,2.91,2.91,0,0,1-.58.72.55.55,0,0,1-.52.16c-.13,0-.37-.28-.22-.42s-.12-.65-.41-.41c-.54.47-.13,1.24.5,1.42a1.35,1.35,0,0,0,1.45-.75,1.54,1.54,0,0,0,1.22.33c.54-.07,1-.44,1.59-.42s.7.43,1.26.31,1.19-.36,1.78-.54a4.87,4.87,0,0,1,2-.42c.51.09,1.43.49,1.67-.22A.2.2,0,0,0,352.22,284.65Z"/><path class="cls-44" d="M352.16,288.63a40.8,40.8,0,0,0-4.56,0c-.74,0-1.48.06-2.22,0a1.58,1.58,0,0,1-1.43-.61.34.34,0,0,0-.47-.07l-1,.9-.31.28c-.21.33-.34.35-.39,0s-.12-.38.11-.55-.18-.56-.38-.31c-.38.47-.76,1.39.09,1.67a.91.91,0,0,0,.88-.28c.4-.33.78-.67,1.16-1,.74.77,2.18.61,3.16.6s1.7,0,2.55,0a24.6,24.6,0,0,0,2.85-.1A.27.27,0,0,0,352.16,288.63Z"/><path class="cls-36" d="M331.6,136.53l3-6.8a28.54,28.54,0,0,0-10-3.39c-1.81.27-3.42.51-4.09.59-1.92.22-23.2,10.83-23.54,11-10.28,13-3.25,28.87-3.25,28.87s4.35,11.43,6.57,12.7a6.7,6.7,0,0,1,1.27,1C294,169,309.68,159,317.15,154.18,325.18,149,331.82,137.2,331.6,136.53Z"/><path class="cls-36" d="M303.7,183.14c.6.89,1,1.57,1,1.57.21.72.44,1.44.7,2.15.34-.91-.13-2.13-1.68-3.72Z"/><path class="cls-38" d="M333.34,132.74s-9.8,14.53-22.63,20-19.09,13.4-18.65,22.42c0,0-12.54-8.19-9.73-18.91,0,0-3.73-.37-5,4.45,0,0,.91-15,5.67-19.87,0,0,12.21-34.73,60.14-20.83l2.32-4-.55,5.11s5.41-2.16,7.47.51c0,0-5.31,1.27-5.71,2.81,0,0,10.38,10.67,10.21,23.22s-1.58,14.66-1.58,14.66-3.45-9.54-8.17-11.57-9.45-10.58-9.45-10.58-.53,4.89-3.63,5.26S336.24,142.9,333.34,132.74Z"/><path class="cls-28" d="M353.82,134.89a43.45,43.45,0,0,0-7.11-10.49c.4-1.54,5.71-2.81,5.71-2.81-2.06-2.67-7.47-.51-7.47-.51l.55-5.11-2.32,4C295.25,106.11,283,140.84,283,140.84s21.19-24.63,48.56-17.93l9.35,3.15,2-2.48v2.76A25.35,25.35,0,0,1,353.82,134.89Z"/><path class="cls-45" d="M482.27,465.41c-2.66-.35-5.38-.69-8.13-1s-5.6-.65-8.46-1q-2.73-.3-5.51-.56c-2.21-.23-4.46-.43-6.72-.61-1-.1-2-.18-3-.26-3.07-.26-6.17-.48-9.32-.68l-2.79-.18c-2.07-.12-4.14-.24-6.24-.34-1.43-.07-2.87-.12-4.32-.18-.35,0-.71,0-1.07,0-13.69-4.38-26.42-7.47-40.57-6.54-67.35,4.4-89.13,30.13-159.46,32l-3.79.1c-68.56,1.83-123.37,2.74-164.55-44-17-19.26-33-51-43.92-88.9q-3.77-13-6.67-26.89H73.2l.07,0,.19.06.31.1.35.12,4.62,1.52c3.43,1.15,8.32,2.77,14.26,4.73,29.05,9.66,83.32,27.78,116.06,39.36C240,383.23,387.64,433.35,482.27,465.41Z"/><path class="cls-46" d="M474.14,464.41c-2.77-.33-5.6-.65-8.46-1q-2.73-.3-5.51-.56c-2.21-.23-4.46-.43-6.72-.61-1-.1-2-.18-3-.26-3.07-.26-6.17-.48-9.32-.68l-2.79-.18c-2.07-.12-4.14-.24-6.24-.34-1.43-.07-2.87-.14-4.32-.18-.35,0-.71,0-1.07,0-34.39-1.32-70.83.73-102.26,9.92a496.82,496.82,0,0,1-98.55,18l-3-2.31L45.9,350.85l-31.52,2.41q-3.77-13-6.67-26.89H73.2l.07,0,.19.06.31.1.35.12Z"/><path class="cls-47" d="M70.63,351.39c.16-.92,6.63-3.34,6.63-3.34s-1.43-7.23,7.87-12.23,19.12,1,19.12,1,1.24-.65,0,2.63-.38,16.37,6.62,20.64c0,0-40.69,4.27-41.93.85S70.63,351.39,70.63,351.39Z"/><path class="cls-48" d="M103.35,254.62s-1.58,101.23-1.49,101.71S79.34,334.5,79.34,334.5s-2-12.8-.25-33.69,3.25-27.43,3.25-27.43Z"/><path class="cls-49" d="M103.35,254.62l3.82.51a3.43,3.43,0,0,1,3,3.4l-1.71,94.39a3.63,3.63,0,0,1-3.53,3.42h-3.11Z"/><polygon class="cls-50" points="93.99 266.4 93.69 268.44 84.97 274.89 85.15 273.66 93.99 266.4"/><path class="cls-51" d="M79.12,300.59c-1.79,20.9.25,33.7.25,33.7S95,349.74,100.24,354.65c0,0,1.62,1.78,1.62,1.68,0-.27,0-1.54,0-1.54L82.38,273.17S80.91,279.7,79.12,300.59Z"/><path class="cls-48" d="M94.48,354.87c-9.32,1.92-24.91,4.83-24.69,2.78,0,0-2.2,1.14-1.65,3s1,5.73,3,5.27,28.06-3,28.06-3.41c0-.23,3.2-.55,6-.78C101.74,359.33,98.12,357.1,94.48,354.87Z"/><path class="cls-51" d="M69.79,357.65s-2.2,1.14-1.65,3,1,5.73,3,5.27c.22-.05.75-.12,1.5-.22v-.21c-.65,0-2.33-5.43,4.58-7.56h0C72.88,358.49,69.69,358.59,69.79,357.65Z"/><path class="cls-49" d="M104.42,361.17C95,362.72,78,365.4,72,365.51c-8.44.16,8.45-52,9.75-54.15a7.28,7.28,0,0,1,3.9-2.89,6.77,6.77,0,0,0-7.88,1.7c-3.51,3.88-14.21,44.49-14.54,49.3s3.09,6.35,6.4,7.13c2.55.59,25.5-2.93,36-4.59C105.25,361.72,104.83,361.45,104.42,361.17Z"/><path class="cls-48" d="M414.3,463.83c-.45.14-113.6-52.9-113.6-52.9s-49.11,7.09-50.81,10.13,83.74,61.83,85.28,61.26S414.3,463.83,414.3,463.83Z"/><path class="cls-49" d="M414.3,463.83c-.07,0-2.8-1.21-7.36-3.31L335.16,475,253,420l-.38-.3c-1.54.5-2.52.95-2.74,1.33-1.69,3.05,83.74,61.83,85.28,61.26S414.3,463.83,414.3,463.83Z"/><path class="cls-49" d="M384.05,456.16l-23.73-10.83a5.65,5.65,0,0,0,.94-.4c.19-.11.18-.45-.09-.45a7.4,7.4,0,0,0-2,.33l-6.55-3-4.49-2,.16,0c.26-.09.12-.46-.13-.43s-.55.08-.83.12L335.46,434l.64-.15c1.56-.34,3.17-.49,4.71-.87a.25.25,0,0,0-.06-.5,23.13,23.13,0,0,0-4.22.64c-.68.14-1.36.29-2,.45l-12.08-5.49c1.46-.33,2.92-.69,4.33-1.15a.21.21,0,0,0-.1-.41,44.06,44.06,0,0,0-5.3,1.08l-.07,0q-4.54-2.05-9.08-4.15c.17-.06.36-.11.53-.18s.17-.39-.06-.36c-.4.05-.81.13-1.21.21l-7.73-3.55.55-.18c.22-.09.14-.47-.11-.41-2.39.52-4.73,1.25-7.11,1.82-1.14.28-2.28.54-3.43.78a23.31,23.31,0,0,1-5.07-4,.26.26,0,0,0-.39.35,22.8,22.8,0,0,0,4.56,3.8c-1,.21-2.08.43-3.13.62-1.46.27-2.92.51-4.39.73q-3.15-2.13-6.25-4.32c-.2-.14-.46.12-.26.27,1.83,1.47,3.72,2.84,5.66,4.18-3.08.45-6.16.82-9.26,1.1l0,0c-3.13-1.77-6.12-3.71-9.1-5.68-.17-.12-.38.15-.22.28a70,70,0,0,0,7.93,5.11l.84.47a.24.24,0,0,0,.2.36l.38,0c2.14,1.21,4.31,2.39,6.47,3.56l2.9,1.58-3.47.91a.25.25,0,1,0,.11.48l4.07-1c1.58.87,3.16,1.76,4.72,2.68,1.34.79,2.65,1.6,4,2.42-1.52.52-3.05,1-4.57,1.58-.31.11-.07.54.23.44,1.66-.55,3.33-1.08,5-1.61l3.62,2.29c2,1.25,4,2.49,6,3.68-1.92.39-3.84.76-5.77,1.09a.23.23,0,1,0,.08.46c2.17-.31,4.33-.68,6.48-1.09l1.64.94c2.94,1.62,5.92,3.17,8.89,4.73l1.17.62c-1.4.55-2.8,1.11-4.2,1.69-.31.13-.06.57.25.44,1.55-.6,3.11-1.17,4.68-1.75l10.17,5.36-2.73.91c-.41.14-.12.73.29.59,1.08-.37,2.16-.71,3.24-1.07l5.1,2.68,8.13,4.28L335,463.36c-.4.09-.32.71.09.61q3.72-.86,7.42-1.76l1,.54c3.19,1.68,6.34,3.43,9.62,4.93a.2.2,0,0,0,.18-.35c-2.94-1.76-6-3.31-9.07-4.91l-.82-.43c2.83-.69,5.65-1.39,8.48-2.12,1.78.95,3.57,1.88,5.39,2.75.29.14.57-.24.28-.41-1.57-.88-3.16-1.73-4.75-2.57q6.33-1.63,12.64-3.37c1.87.84,3.74,1.65,5.64,2.4.27.11.48-.31.21-.44-1.58-.79-3.19-1.52-4.8-2.24l.21-.06,4.4-1.23a35,35,0,0,0,4.51-1.37.31.31,0,0,0,.17-.29l8,3.67A.3.3,0,0,0,384.05,456.16ZM347.34,440l11,5-.86.24-3.58,1c-1.83.5-3.66,1-5.49,1.55-3.63-1.66-7.25-3.31-10.87-5l-.38-.18c1-.28,2.07-.58,3.11-.85C342.59,441.19,345,440.74,347.34,440ZM311,431l7.52,3.61c1.59.76,3.19,1.5,4.78,2.25q-4.63,1.45-9.31,2.71c-3.89-2-7.76-4-11.59-6.11C305.22,432.6,308.09,431.77,311,431Zm-9.39,2c-2.29-1.26-4.58-2.54-6.84-3.85l-1.39-.85,3.57-.9,4.42-1.12.45.22q4.13,2,8.26,4C307.22,431.34,304.39,432.16,301.58,433Zm13.88,6.87c2.92-.79,5.81-1.71,8.69-2.62,3.65,1.73,7.31,3.44,11,5.16-.34.09-.69.17-1,.27q-4.41,1.28-8.74,2.73L314.89,440Zm20.7,3q5.59,2.61,11.23,5.18l-.63.18c-3.37,1-6.72,2-10.06,3.06l-10.49-5.46C329.5,444.8,332.82,443.83,336.16,442.91Zm-1.51-8.7.15.07,11.53,5.28c-1.73.32-3.44.81-5.14,1.23s-3.38.9-5.07,1.37c-3.69-1.72-7.36-3.44-11-5.19,2.13-.67,4.26-1.34,6.41-1.94C332.55,434.73,333.6,434.46,334.65,434.21Zm-13-5.94,12,5.51c-.39.1-.79.19-1.18.3-2.7.71-5.35,1.54-8,2.38l-.32.1q-6.11-2.91-12.2-5.85c2.11-.57,4.23-1.13,6.35-1.66C319.47,428.78,320.58,428.53,321.69,428.27Zm-10.1-4.62,9.05,4.14-1.61.41c-2.44.6-4.86,1.21-7.28,1.87l-.67.19c-2.31-1.12-4.63-2.22-6.93-3.34l-1.8-.87,2.49-.63C307.07,424.85,309.39,424.37,311.59,423.65Zm-14.46-2.28c2.06-.49,4.16-1,6.17-1.67a.2.2,0,0,0,.13.21c2.42,1.1,4.84,2.22,7.26,3.33-2,.42-4,1-6,1.53l-3.27.83c-2-.94-3.94-1.9-5.87-2.93l-1.18-.67Zm-7.21,1.54c1.18-.22,2.36-.46,3.53-.71,2.23,1.37,4.63,2.52,7,3.66l-3.62.93-4.2,1.08c-2.26-1.38-4.5-2.8-6.69-4.28C287.25,423.39,288.59,423.16,289.92,422.91Zm-4.84,6.9-1-.57c-2.73-1.49-5.47-3-8.18-4.48q4.61-.36,9.16-1c2.23,1.51,4.52,2.95,6.84,4.33Zm9.28,5.49c-2.83-1.74-5.67-3.46-8.58-5.09,2.28-.57,4.57-1.13,6.85-1.71,2.75,1.63,5.55,3.18,8.36,4.7l-3.68,1.12Zm10.54,6.38c-1.54-.87-3.07-1.76-4.57-2.69l-5.3-3.28c2.25-.72,4.5-1.41,6.76-2.09,1.95,1.05,3.91,2.08,5.86,3.1l5.73,3c-1.72.45-3.44.89-5.18,1.27C307.1,441.23,306,441.45,304.9,441.68Zm.85.46c2.87-.56,5.71-1.21,8.54-1.95l10.43,5.46c-1.55.52-3.09,1.05-4.62,1.61l-2.74,1C313.48,446.27,309.57,444.27,305.75,442.14Zm12.34,6.55q3.72-1.37,7.48-2.6L336,451.55l-3.24,1-4.46,1.49Zm25.84,12.44-1.48.36-7.09-3.73-6.24-3.27c2.58-.85,5.16-1.68,7.76-2.49l2.71,1.42q4.4,2.29,8.78,4.6l2.51,1.33Zm15.67-4.07c-2.6.7-5.2,1.38-7.81,2.06-3.34-1.75-6.73-3.44-10.07-5.18l-4.15-2.16q5.4-1.66,10.84-3.22L352,450.2q4.76,2.16,9.53,4.3l2.83,1.28Zm11.77-3.23c-1.29.37-2.59.73-3.88,1.08l-2.13.58-2.65-1.17-8.28-3.73c-1.68-.76-3.35-1.54-5-2.31l4.16-1.18,4.1-1.1c.56-.15,1.18-.27,1.79-.42l6.65,3.05,9.14,4.17A39.55,39.55,0,0,0,371.37,453.83Z"/><path class="cls-52" d="M300.26,418.71c-.44-.21-1.17.15-1.6.29l-1.61.53c-1,.35-2,.72-3,1.15l0,0a8.22,8.22,0,0,1-2.28-1.44l-1.13-.91c-.18-.15-.37-.29-.54-.44a3.11,3.11,0,0,0-.52-.44c-.17-.09-.48.05-.39.27a3.47,3.47,0,0,0,1.16,1.22l1.14.92a8.42,8.42,0,0,0,2.33,1.42.31.31,0,0,0,.4-.15c1-.32,2.05-.66,3.07-1q.78-.27,1.56-.51l.82-.25c.26-.09.59-.17.73-.42A.16.16,0,0,0,300.26,418.71Z"/><path class="cls-52" d="M290,421.21a18.64,18.64,0,0,0-2.53.71,3.14,3.14,0,0,1-1.43.18c-.16,0-.15-.09-.27-.18s-.35-.18-.51-.27l-2.37-1.38a16.89,16.89,0,0,0-2.74-1.49.22.22,0,0,0-.22.38,14.08,14.08,0,0,0,2.4,1.51c.89.52,1.78,1.06,2.68,1.57a6.18,6.18,0,0,0,1,.35,2.37,2.37,0,0,0,1.24,0,10.16,10.16,0,0,0,2.95-1C290.32,421.48,290.17,421.17,290,421.21Z"/><path class="cls-52" d="M297.86,425.22h0l-.11,0h0a.23.23,0,0,0-.16,0c-.76.33-1.49.69-2.26,1l-1.1.4c-.33.12-.64.26-1,.39,0,0-.05-.07-.09-.09a6.58,6.58,0,0,0-.66-.29,6.67,6.67,0,0,1-.72-.45,13.3,13.3,0,0,0-1.24-.82,20.43,20.43,0,0,1-2.69-1.34c-.21-.16-.47.13-.27.3a25.37,25.37,0,0,0,2.84,1.58c.44.28.82.62,1.24.91a2.5,2.5,0,0,0,1.38.63h.05a.16.16,0,0,0,.12,0,8.92,8.92,0,0,0,1.25-.25,12,12,0,0,0,1.15-.39,18.08,18.08,0,0,0,2.26-1A.33.33,0,0,0,297.86,425.22Z"/><path class="cls-52" d="M311.81,429.22c-.09-.18-.37-.21-.55-.27a1.08,1.08,0,0,1-.3-.11,1.57,1.57,0,0,0-.32-.15c-.38-.14-.77-.26-1.16-.39a.2.2,0,0,0-.27.09.19.19,0,0,0,.09.26c.4.14.79.31,1.19.43a1.63,1.63,0,0,0,.3.07,1.4,1.4,0,0,1,.29.09l.3.11a.46.46,0,0,0,.36,0A.13.13,0,0,0,311.81,429.22Z"/><path class="cls-52" d="M316.86,427.45a3.32,3.32,0,0,0-1.19.34l-1.12.45c-.79.31-1.57.62-2.36.91-.24.09-.13.5.13.43.81-.21,1.63-.44,2.42-.73.39-.13.78-.27,1.17-.43l.55-.23a1.85,1.85,0,0,0,.58-.41A.2.2,0,0,0,316.86,427.45Z"/><path class="cls-52" d="M325.14,425.44c-.65-.21-1.49.25-2.08.47s-1,.41-1.44.55a1.59,1.59,0,0,1-1.25-.23c-1.49-.66-2.94-1.41-4.4-2.14-.25-.13-.42.26-.17.39l2.54,1.25c.42.2.82.42,1.23.64a7.67,7.67,0,0,0,1.21.62,1.63,1.63,0,0,0,.85,0,11.25,11.25,0,0,0,1.15-.26c.48-.13,1-.26,1.44-.41a1.82,1.82,0,0,0,1-.52A.22.22,0,0,0,325.14,425.44Z"/><path class="cls-52" d="M324.23,435.25a5.85,5.85,0,0,1-2.34-1q-1.15-.66-2.34-1.26c-1.54-.78-3.1-1.52-4.71-2.16-.25-.1-.43.25-.18.36,1.7.75,3.37,1.54,5,2.4q1.21.63,2.4,1.32a3.82,3.82,0,0,0,2.18.75A.19.19,0,1,0,324.23,435.25Z"/><path class="cls-52" d="M329.28,433.56a5.94,5.94,0,0,0-.9.3c-.27.1-.54.23-.81.34-.54.22-1.09.42-1.63.63-.23.09-.13.44.11.35l1.66-.57c.31-.1.62-.18.93-.29a5.4,5.4,0,0,0,.79-.31A.24.24,0,0,0,329.28,433.56Z"/><path class="cls-52" d="M299.83,431a5.81,5.81,0,0,0-1-.53l-1.07-.52c-.74-.36-1.48-.7-2.22-1a.21.21,0,1,0-.18.37l2.09,1.12,1,.53a7,7,0,0,0,1.1.53C299.83,431.54,300.05,431.16,299.83,431Z"/><path class="cls-52" d="M313.38,438a3.1,3.1,0,0,0-.95-.56c-.32-.16-.65-.34-1-.52-.71-.4-1.41-.82-2.12-1.23a20.74,20.74,0,0,1-2-1.26,9,9,0,0,0-2-1.07.24.24,0,0,0-.17.45c.71.32,1.38.68,2.09,1a12.7,12.7,0,0,1,2.18,1.33c.62.42,1.24.82,1.9,1.19.33.19.68.38,1,.55a2.08,2.08,0,0,0,1,.33A.11.11,0,0,0,313.38,438Z"/><path class="cls-52" d="M320.26,436.38a3.18,3.18,0,0,0-1.4.37c-.47.15-.95.3-1.43.43a23.33,23.33,0,0,1-2.87.64.22.22,0,1,0,.05.43c1-.14,2-.29,3-.52.49-.12,1-.24,1.46-.38s1-.21,1.3-.53C320.49,436.68,320.49,436.42,320.26,436.38Z"/><path class="cls-52" d="M325.38,444.35a5,5,0,0,0-.94-.43c-.3-.14-.6-.29-.89-.45-.59-.34-1.17-.69-1.75-1-1.17-.72-2.33-1.45-3.48-2.21-.24-.15-.51.18-.27.35q1.74,1.28,3.6,2.41c.59.36,1.19.72,1.8,1.06a3.13,3.13,0,0,0,1.85.61A.18.18,0,0,0,325.38,444.35Z"/><path class="cls-52" d="M331.84,442.08h-.19a1.73,1.73,0,0,0-.34.14c-.19.09-.37.19-.56.27a9.34,9.34,0,0,1-1.23.41,11.16,11.16,0,0,0-2.52.91c-.21.13,0,.49.22.37a12.07,12.07,0,0,1,2.53-.74,8.2,8.2,0,0,0,1.19-.37,5.85,5.85,0,0,0,.56-.28,1.5,1.5,0,0,0,.43-.4A.21.21,0,0,0,331.84,442.08Z"/><path class="cls-52" d="M335,440.24c-1.84-.95-3.72-1.84-5.59-2.74-.2-.1-.37.18-.17.29a36.06,36.06,0,0,0,5.67,2.63C335.07,440.46,335.17,440.3,335,440.24Z"/><path class="cls-52" d="M344.32,438.54c-.91-.3-2,.26-2.79.61a18,18,0,0,1-3.14.93c-.29.06-.25.55.07.51a13.1,13.1,0,0,0,1.65-.23,9.59,9.59,0,0,0,1.49-.48c.47-.19.92-.41,1.4-.57s.88-.23,1.31-.38A.21.21,0,0,0,344.32,438.54Z"/><path class="cls-52" d="M336.85,449.66c-1.18-.53-2.37-1-3.55-1.56l-1.68-.78a19,19,0,0,0-1.84-.85.25.25,0,0,0-.22.45,14.82,14.82,0,0,0,1.81.95c.56.28,1.13.55,1.69.81,1.17.55,2.35,1.11,3.55,1.57A.32.32,0,1,0,336.85,449.66Z"/><path class="cls-52" d="M345.14,447.37a4,4,0,0,0-1.45.39l-1.41.5c-.94.34-1.87.67-2.77,1.09-.32.14-.05.59.26.51,1-.28,2-.64,3.06-1l1.4-.51c.44-.16.94-.28,1.09-.76A.21.21,0,0,0,345.14,447.37Z"/><path class="cls-52" d="M348.61,446.23a3.22,3.22,0,0,0-.9-.47l-.87-.41c-.64-.31-1.26-.64-1.89-1-1.23-.67-2.48-1.31-3.73-1.95-.26-.14-.55.22-.27.38,1.26.72,2.52,1.45,3.81,2.14.6.33,1.21.65,1.83.95a5.32,5.32,0,0,0,1.86.73A.22.22,0,0,0,348.61,446.23Z"/><path class="cls-52" d="M351.88,445.67a.29.29,0,0,0-.3-.13,1.94,1.94,0,0,0-.33.07l-.18.07-.32.12a2.82,2.82,0,0,1-.7.15.29.29,0,1,0,.05.58,3.58,3.58,0,0,0,.8-.1,2,2,0,0,0,.49-.15l.17-.08a1,1,0,0,0,.27-.23A.26.26,0,0,0,351.88,445.67Z"/><path class="cls-52" d="M352.24,458.16a3.38,3.38,0,0,0-1.33-.76l-1.5-.7-3.09-1.47c-2.08-1-4.15-2.05-6.28-3-.23-.1-.44.24-.22.37,2,1.17,4.15,2.16,6.26,3.17l3.09,1.45,1.49.7a3.41,3.41,0,0,0,1.42.5A.19.19,0,0,0,352.24,458.16Z"/><path class="cls-52" d="M361.45,455.57a1.17,1.17,0,0,0-.73.13l-.91.3c-.61.2-1.21.39-1.83.57-1.19.33-2.4.62-3.61.86a.22.22,0,1,0,.05.43,15.12,15.12,0,0,0,3.78-.65c.59-.17,1.18-.35,1.76-.55l.83-.28a1.44,1.44,0,0,0,.83-.42A.26.26,0,0,0,361.45,455.57Z"/><path class="cls-52" d="M364.27,454c-.93-.52-2-.88-2.94-1.33s-1.93-.91-2.89-1.39c-1.9-1-3.72-2-5.6-3-.27-.15-.54.2-.28.38a63.5,63.5,0,0,0,5.71,3.18c1,.48,1.92,1,2.89,1.4a23.37,23.37,0,0,0,2.9,1.27A.27.27,0,0,0,364.27,454Z"/><path class="cls-52" d="M316.9,446.72c-.72-.38-1.54-.62-2.28-1s-1.51-.7-2.25-1.08-1.43-.76-2.14-1.14l-1.07-.56a3.15,3.15,0,0,0-1.08-.47.22.22,0,0,0-.22.34,3.13,3.13,0,0,0,1,.66l1.15.64c.7.38,1.41.76,2.13,1.13s1.4.7,2.11,1a9.93,9.93,0,0,0,2.52.88A.25.25,0,0,0,316.9,446.72Z"/><path class="cls-52" d="M322.65,445.17a1,1,0,0,0-.41,0l-.23.07-.47.19c-.3.11-.59.24-.89.37l-1.77.76a.3.3,0,0,0,.21.56l1.87-.75.92-.39q.25-.1.51-.24a.85.85,0,0,0,.33-.32A.14.14,0,0,0,322.65,445.17Z"/><path class="cls-52" d="M329.07,452.73a10.09,10.09,0,0,0-1.89-.94q-1.15-.53-2.25-1.11c-1.29-.68-2.55-1.41-3.83-2.1a.25.25,0,0,0-.27.42c1.27.81,2.56,1.59,3.9,2.31.64.34,1.29.67,2,1a6.47,6.47,0,0,0,2.21.77C329.08,453.08,329.25,452.86,329.07,452.73Z"/><path class="cls-52" d="M333.51,451l-.72.29c-.48.18-1,.36-1.43.56a.29.29,0,0,0,.19.55c.31-.07.62-.13.92-.23l.7-.24c.25-.08.49-.16.73-.26s.8-.27.74-.64S333.8,450.92,333.51,451Z"/><path class="cls-52" d="M341.75,459.19c-.43-.24-.85-.47-1.28-.69l-2.75-1.38c-1.8-.9-3.6-1.85-5.47-2.61a.28.28,0,1,0-.26.5c1.7,1,3.5,1.8,5.27,2.68l2.65,1.32q.66.35,1.35.66a2.57,2.57,0,0,0,1.38.45c.07,0,.13-.07.1-.13A2.18,2.18,0,0,0,341.75,459.19Z"/><path class="cls-52" d="M348,459.29a1.61,1.61,0,0,0-.87,0c-.43.1-.87.18-1.31.26l-.71.15a6,6,0,0,1-.76.14.21.21,0,1,0,0,.41c.62-.06,1.24-.1,1.85-.19l.89-.16a1.75,1.75,0,0,0,.93-.34A.19.19,0,0,0,348,459.29Z"/><path class="cls-52" d="M353.79,464.65c0-.18-.25-.23-.39-.17a1,1,0,0,1-.41.16,1.21,1.21,0,0,1-.33-.07c-.25-.06-.5-.12-.75-.2-.49-.14-1-.3-1.45-.48s-.94-.37-1.4-.58a13.61,13.61,0,0,0-1.56-.71.27.27,0,0,0-.27.45,6.79,6.79,0,0,0,1.71,1c.58.27,1.17.52,1.78.74S354,466.05,353.79,464.65Z"/><path class="cls-52" d="M328.73,429.85a2.83,2.83,0,0,1-1.09-.41c-.33-.17-.64-.36-1-.54a6,6,0,0,0-1-.48,3.58,3.58,0,0,0-.56-.16c-.09,0-.35,0-.4-.08a.3.3,0,0,0-.54.25c0-.08,0,0,0,.06a.36.36,0,0,0,.08.12.69.69,0,0,0,.27.17c.19.06.4.06.6.11a5.3,5.3,0,0,1,1.14.51,4.35,4.35,0,0,0,2.44.79A.17.17,0,0,0,328.73,429.85Z"/><path class="cls-52" d="M346.48,437.65c-1.25-.62-2.59-1.11-3.87-1.68l-3.86-1.72a.19.19,0,1,0-.17.35,39.17,39.17,0,0,0,3.77,1.91c.62.27,1.25.52,1.87.77a20.2,20.2,0,0,0,2.14.77C346.62,438.12,346.69,437.75,346.48,437.65Z"/><path class="cls-52" d="M355.29,441.19a2.92,2.92,0,0,0-1.32-.61l-1.34-.44c-.89-.31-1.78-.62-2.68-.91-.27-.08-.48.32-.22.44a25.6,25.6,0,0,0,2.73,1.11l1.35.47a2.75,2.75,0,0,0,1.38.24A.2.2,0,0,0,355.29,441.19Z"/><path class="cls-52" d="M275.23,423a2.52,2.52,0,0,0-.74-.28,3.81,3.81,0,0,1-.7-.35c-.45-.3-.89-.62-1.33-.94-1-.7-2-1.39-3-2a.22.22,0,0,0-.28.35c1,.82,2.11,1.6,3.19,2.37a13.82,13.82,0,0,0,1.43,1c.38.21,1.13.52,1.47.1A.15.15,0,0,0,275.23,423Z"/><path class="cls-52" d="M282.05,421.82a3.14,3.14,0,0,0-1.39.12l-1.2.25a20.26,20.26,0,0,0-2.45.71.19.19,0,1,0,.12.37l2.54-.56,1.26-.25a2.5,2.5,0,0,0,1.19-.34A.19.19,0,0,0,282.05,421.82Z"/><path class="cls-52" d="M285.94,428.22c-.54-.21-1.12-.29-1.67-.49a10.69,10.69,0,0,1-1.54-.7c-1.12-.61-2.16-1.33-3.24-2a.27.27,0,0,0-.28.46c1.06.73,2.13,1.46,3.27,2.09a12.21,12.21,0,0,0,1.65.74,3.52,3.52,0,0,0,1.75.28A.21.21,0,0,0,285.94,428.22Z"/><path class="cls-52" d="M289.71,427.38a2.61,2.61,0,0,0-1.27.1,9.18,9.18,0,0,0-1.26.39.25.25,0,0,0-.12.33.28.28,0,0,0,.33.16,7.71,7.71,0,0,1,1.15-.28,5.18,5.18,0,0,0,1.25-.2.26.26,0,0,0,.13-.28A.28.28,0,0,0,289.71,427.38Z"/><path class="cls-52" d="M294.43,433.75a9,9,0,0,0-1.52-.76c-.51-.25-1-.52-1.52-.79-1-.55-2-1.14-3-1.75a.25.25,0,0,0-.28.41,33.84,33.84,0,0,0,3,1.85c.51.27,1,.54,1.53.79a6.06,6.06,0,0,0,1.62.68C294.54,434.23,294.6,433.89,294.43,433.75Z"/><path class="cls-52" d="M299.37,432.51a6.12,6.12,0,0,0-1.73.44,7.6,7.6,0,0,0-1.45.59.25.25,0,0,0,.18.46c.53-.12,1-.33,1.55-.49a9.82,9.82,0,0,0,1.59-.51C299.75,432.89,299.64,432.51,299.37,432.51Z"/><path class="cls-52" d="M305.42,440a3.08,3.08,0,0,0-.91-.5c-.31-.14-.62-.3-.92-.47-.64-.35-1.26-.74-1.89-1.12a12.66,12.66,0,0,0-4-1.88c-.3-.07-.51.36-.21.49a29.44,29.44,0,0,1,3.85,2c.61.37,1.21.74,1.84,1.09.32.17.64.34,1,.49a2.27,2.27,0,0,0,1,.3C305.45,440.41,305.6,440.16,305.42,440Z"/><path class="cls-52" d="M312,439a3.42,3.42,0,0,0-1.09.19l-1,.22c-.7.14-1.42.27-2.11.45a.28.28,0,0,0,.1.55,12.37,12.37,0,0,0,2.19-.27l1-.21a3.37,3.37,0,0,0,1.08-.37A.32.32,0,0,0,312,439Z"/><path class="cls-52" d="M360.84,462.26a4.2,4.2,0,0,0-.78-.26,7.29,7.29,0,0,1-.7-.28,14,14,0,0,1-1.28-.66c-.85-.49-1.63-1.05-2.43-1.61-.22-.15-.52.17-.32.36a11.22,11.22,0,0,0,2.59,1.88c.46.25.92.49,1.41.7a1.89,1.89,0,0,0,1.5.15A.16.16,0,0,0,360.84,462.26Z"/><path class="cls-47" d="M222.27,425.67c-2.46-2.35-22.89-14.91-28.7-20.08-20.81-18.5-27.84-28.08-30.17-32.08a3.65,3.65,0,0,0-4-1.66l-1.19.29a6.38,6.38,0,0,0-4.24,9.43c4.34,7.36,9.76,17.57,6.19,17.26-1-.08-72,1.31-67.11,21.33s24.08,44,38.11,43.48,91.12-38,91.12-38"/><path class="cls-49" d="M206.82,139.81h11.12a10,10,0,0,1,10.12,8.53l35.1,269.94c1,9.17-17.48,12.31-17.48,12.31C235.12,371.36,221,256.14,206.82,139.81Z"/><path class="cls-48" d="M206.82,139.81s38.39,289.44,38.86,290.78S172.17,377,172.17,377s-11.24-35.73-15-96-2.34-79.51-2.34-79.51Z"/><polygon class="cls-50" points="185.12 177.03 185.12 182.99 162.96 204.73 162.96 201.15 185.12 177.03"/><path class="cls-51" d="M157.19,280.32c3.74,60.3,15,96,15,96s51.23,38,68.15,50l5.36,4.19c0-.24-.48-3.86-.51-4.12-88.45-137.55-90.32-225.65-90.32-225.65S153.44,220,157.19,280.32Z"/><path class="cls-48" d="M249.89,444.88l-27.62-19.21s-91.66,20.62-90.74,12.2c0,0-6.34,3.29-4.78,8.65s2.87,16.51,8.74,15.18,80.85-8.63,80.85-9.82,29.34-3.19,29.34-3.19Z"/><path class="cls-51" d="M131.53,437.87s-6.34,3.29-4.78,8.65,2.87,16.51,8.74,15.18c.65-.14,2.16-.36,4.33-.64l0-.61c-1.87.06-6.73-15.65,13.18-21.79h0C140.42,440.28,131.23,440.56,131.53,437.87Z"/><path class="cls-49" d="M177.32,296.14s-7.49,2.09-11.24,8.34S113.64,461,138,460.51s111.9-15.63,111.9-15.63V448S140.7,465.87,131.15,463.64s-19.38-6.7-18.44-20.55,31.79-130.87,41.88-142S177.32,296.14,177.32,296.14Z"/><path class="cls-35" d="M378.88,399l-23.1,4.76s-24,3.87-25,3.87-13.74.3-18.73,3-12.17,13.7-11.55,15.19l.62,1.48s-2.88,5.06-.66,6.4,15.65-13.24,18.46-13.54,14,1.49,14,1.49-5.11,7.45-3.87,11.62,2.81,4.17,6.87-1.19,8.87-6.37,13.55-8.11l4.68-1.73s23.5,6.85,31.88,3S386.37,400.43,378.88,399Z"/><path class="cls-39" d="M316.49,412.47a16.55,16.55,0,0,0-4.87,2.55,32.85,32.85,0,0,0-4.14,3.57,42.39,42.39,0,0,0-6.75,8.67c-.12.21.19.46.35.26a101.21,101.21,0,0,1,6.9-8.47,32.87,32.87,0,0,1,4.15-3.56c1.43-1,3-1.85,4.47-2.76A.14.14,0,0,0,316.49,412.47Z"/><path class="cls-39" d="M356.9,415c-.14-.1-.36,0-.31.2a2.52,2.52,0,0,1,.09,1.19c-.06.34-.16.68-.24,1a12.31,12.31,0,0,1-.59,1.9,6,6,0,0,1-.9,1.58,3.74,3.74,0,0,1-.74.69,3.35,3.35,0,0,0-.85.63c-.08.11,0,.32.17.25a5.49,5.49,0,0,0,3-3.22,18.63,18.63,0,0,0,.63-2.05C357.35,416.47,357.6,415.45,356.9,415Z"/><path class="cls-53" d="M383.86,425.86c4.5-1.58,4.49-6.2,4.85-7.18.16-.42.45-1.61.78-3-.95-7.2-5.9-15.78-10.61-16.71l-23.1,4.76s-24,3.87-25,3.87c2.5,1.94,22.79-1.49,33.09-.82s15,19.57,15,19.57A23.61,23.61,0,0,0,383.86,425.86Z"/><path class="cls-54" d="M420.67,412.94c-5.66,10.72-35.24,15.78-37.14,15.13a25,25,0,0,0,1.68-15.25A34,34,0,0,0,378.88,399l13.28-5.29c13.28-5.29,16.37-35.51,18.55-48s8.6-18.16,8.6-18.16c-.63.89,1.28,20.91,2.48,41.5C422.9,388.14,423.4,407.77,420.67,412.94Z"/><path class="cls-55" d="M420.67,412.94c-5.66,10.72-35.24,15.78-37.14,15.13a25,25,0,0,0,1.68-15.25c5.39-1.42,13.11-3.61,19.19-7.41,10.39-6.5,10.36-43.48,10.36-43.48s3.42-1.13,3.36,0c0,.51,1.73,3.62,3.67,7.05C422.9,388.14,423.4,407.77,420.67,412.94Z"/><path class="cls-4" d="M367.17,399c1.17.22,19.67,13,11.71,27.38,0,0,5.16,4.5,10.78-.72s6.08-10.81,3.39-15.94S382.86,396,378.88,396.49A118.5,118.5,0,0,0,367.17,399Z"/><path class="cls-56" d="M441.62,310.23s-18.86,9.88-22.92,17-4.37,53.75-5.15,69.24-16.23,53.74-16.23,53.74L411.68,457l3.78,1.81s14.17-25.24,15.88-39.38-6.08-58.07.63-78.47S441.62,310.23,441.62,310.23Z"/><path class="cls-57" d="M422,331.37l3.86-11.28c-3.16,2.4-5.9,4.92-7.18,7.16-4.06,7.15-4.37,53.75-5.15,69.24s-16.23,53.74-16.23,53.74L411.68,457l3.78,1.81s14.17-25.24,15.88-39.38a60.37,60.37,0,0,0,.2-8.65c-.47-.53-1-1-1.51-1.55C408.85,389.57,422,331.37,422,331.37Z"/><path class="cls-58" d="M436.94,317.16s-12.49,12.11-11.24,40.69,5.44,56.77-.09,70.22-13.33,29.14-13.33,29.14,5,2.48,18.73,8.73,28.75,7.45,28.26,6.56,4.88-32.16,0-54.2-12.06-39.9-10.17-54.19,31.53-56.24,31.53-56.24l-3.72-2.72s-20.53,8.33-30.46,8.33C445.05,313.48,436.94,317.16,436.94,317.16Z"/><path class="cls-59" d="M459.27,472.5c-.47-.87,4.56-30.3.43-52.18-48.13-35.09-23.88-101.88-22.76-103.16,0,0-12.49,12.11-11.24,40.69s5.44,56.77-.09,70.22-13.33,29.14-13.33,29.14,5,2.48,18.73,8.73S459.76,473.39,459.27,472.5Z"/><path class="cls-54" d="M436,305.15a73.86,73.86,0,0,0-15.33,14.18s2.69,10.94.7,14.51l4.45-3.35s-5.27,10.28-4.1,16.87,3.92,8.7,3.92,8.7,2.4-29.46,11.3-38.9a102.46,102.46,0,0,1,16.85-14.58A21.32,21.32,0,0,0,436,305.15Z"/><path class="cls-60" d="M427.06,327.21c-.11-.68-.3-1.34-.43-2s-.2-1.39-.32-2.08a5.3,5.3,0,0,0-1.63-3.22,3,3,0,0,0-2.88-.55c-.22.09-.08.4.14.33a2.71,2.71,0,0,1,2.92,1.09,7,7,0,0,1,1,3.12c.15,1.05.38,2.08.57,3.13a3.47,3.47,0,0,1-.58,3.05c-.23.27.23.55.46.3A3.73,3.73,0,0,0,427.06,327.21Z"/><path class="cls-35" d="M468.78,272.09s.61,13.42,8.14,20,3.72,15.76,3.72,15.76-27.54,14.25-37.34,11l-6.36-1.68s5.81-3.29,5.56-9.29-5.56-10.54-5.56-10.54l24.88-27.92S467.62,264.92,468.78,272.09Z"/><path class="cls-23" d="M467.58,274.18a7.3,7.3,0,0,0,.93-3.31c-1.6-5.41-6.69-1.46-6.69-1.46l-24.88,27.92s5.31,4.54,5.56,10.54a8.86,8.86,0,0,1-.88,4.22h0C462,307.65,467.58,274.18,467.58,274.18Z"/><path class="cls-39" d="M397.16,427.86l-.92-.2a.17.17,0,0,0-.19.12.15.15,0,0,0,.12.18l1,.11a.12.12,0,0,0,.13-.09A.11.11,0,0,0,397.16,427.86Z"/><path class="cls-35" d="M400.57,229.83s-3.21,16.82-2.29,20.21.38,12.32,0,22.49,14.16,32.81,37.42,28.26,29.48-24,29.48-24l.73-2.19s14.87-7.36,18.49-23.69-1.24-45.29-39.5-47.14S400.57,229.83,400.57,229.83Z"/><path class="cls-24" d="M438.1,242.92a9.44,9.44,0,0,0-3.35-1.26,17.42,17.42,0,0,0-3.57-.6,24.6,24.6,0,0,0-3.33.11,14.89,14.89,0,0,0-3.56.84.88.88,0,0,0,.21,1.74c1.35-.14,2.73-.23,4.09-.28.7,0,1.4,0,2.1,0a14.73,14.73,0,0,0,2,.09,48.85,48.85,0,0,0,4.84.8A.81.81,0,0,0,438.1,242.92Z"/><path class="cls-24" d="M406.88,243.11a6.59,6.59,0,0,0-3.17-1.39,8.56,8.56,0,0,0-2-.08,4.61,4.61,0,0,0-1,.2l-.33.12a2.53,2.53,0,0,0-.53.24c-.2.15-.23.3-.37.5a.62.62,0,0,0,.36.93,1,1,0,0,0,.8.13l.21,0c.16,0,.33,0,.5-.06l.69-.08c.23,0,.45,0,.68,0H403l.28,0a7.92,7.92,0,0,1,2.83.88.83.83,0,0,0,1-.34A.77.77,0,0,0,406.88,243.11Z"/><path class="cls-24" d="M406.35,267.49c-.35-.22-1.42-.73-1.36-1.21s.88-1,1.23-1.28a16.29,16.29,0,0,0,1.76-1.66c1.9-2.08,3.49-4.48,3.62-7.31a.38.38,0,0,0-.76-.1c-.54,3.3-3,5.59-5.62,7.57-1.31,1-3.12,2.51-1.77,4.21a7.09,7.09,0,0,0,1.93,1.45,3.46,3.46,0,0,0,2.59.66.54.54,0,0,0,.35-.86A5.26,5.26,0,0,0,406.35,267.49Z"/><path class="cls-24" d="M436.25,276.06c-2.41.92-4.71,2.07-7.18,2.85a31.54,31.54,0,0,1-8.68,1.43c-.87,0-.75,1.24.1,1.27a29.89,29.89,0,0,0,8.27-.88,18.78,18.78,0,0,0,8.05-3.89C437.17,276.5,436.7,275.89,436.25,276.06Z"/><path class="cls-24" d="M431,252.85c0,2.23-.85,4-1.9,4s-1.9-1.81-1.9-4,.85-4,1.9-4S431,250.61,431,252.85Z"/><path class="cls-24" d="M406.25,252.21c0,1.89-.73,3.41-1.64,3.41S403,254.1,403,252.21s.74-3.41,1.64-3.41S406.25,250.33,406.25,252.21Z"/><path class="cls-23" d="M400.57,229.83s-3.21,16.82-2.29,20.21.38,12.32,0,22.49c-.15,4.3,2.37,10.84,7.09,16.61-2-3.41-4.78-8-5.53-10.32-1.27-3.85-1.25-14.28-.4-18s0-12,0-12,2.47-14.72,5.17-13.74,13.64.5,13.64.5l-5.47-8.07c.36.53,3,4.19,9.9,7.57a15.42,15.42,0,0,0,13.32.55l2.44-7.9,15.85-2.14s3.48-9.45,5-11.19c1.25-1.44-1.43-7-2.39-8.87a63,63,0,0,0-12-1.69C406.63,202,400.57,229.83,400.57,229.83Z"/><path class="cls-24" d="M398.28,201.05s-12,10.17-2.95,23.11a26.07,26.07,0,0,0,22.92,11.4s-10-13.25-5.48-11.1S429.2,236.59,436,235.61s5.17-4.68,5.17-4.68,3.89,3.09,7.45,3.09S457,242.33,457,247v9.55l1.79,2.77s3.95,18.84,10.73,17.92c0,0,9.77-5.36,16.87-24.08,3.06-8.05,4.85-27.73,4.85-27.73s1,4.93,4.84,4.62.65-11.4-3.23-16-16.49-15.4-47-20S398.28,201.05,398.28,201.05Z"/><ellipse class="cls-35" cx="465.18" cy="260.82" rx="10.13" ry="9.66"/><path class="cls-61" d="M481.61,221.68s.53,0,1.29,0C482.11,221.64,481.61,221.68,481.61,221.68Z"/><path class="cls-61" d="M445.86,194c-18.31-2.77-31.76.34-39.61,3.26h0s37.87-5.45,66.9,9.85c24.37,12.84,13.78,14.42,9.75,14.59,2.72.07,8.8.82,9.28,6.1a4.08,4.08,0,0,0,3.91,2.25c3.88-.31.65-11.4-3.23-16S476.37,198.59,445.86,194Z"/><path class="cls-56" d="M487.56,298.68s25.54,9.74,34.28,17.78,14.67,48.24,14.36,64S526.53,475.77,524,481.13s-8.74,10.42-8.74,10.42l-63.06-16.27s8.8-26,2.06-53.41-14.3-46.15-11-57.76,25.48-57.77,31.1-61.94S487.56,298.68,487.56,298.68Z"/><path class="cls-57" d="M508.73,444.59s-32.88-13.44-49.13-39.18-4.55-60.84-4.55-60.84l-7.59,8.6a111.41,111.41,0,0,0-4.16,10.94c-3.31,11.61,4.25,30.37,11,57.76s-2.06,53.41-2.06,53.41l63.06,16.27s6.24-5.06,8.74-10.42c.86-1.86,2.56-12.64,4.41-26.59C519.31,449.79,508.73,444.59,508.73,444.59Z"/><path class="cls-54" d="M484.64,295.87l-5.56-3.1a5.37,5.37,0,0,0-6.27.75c-4.19,4-12.38,11.82-20.26,20-11.24,11.62-10.3,14.89-7.18,17a12.54,12.54,0,0,1,4.37,5.36,68.06,68.06,0,0,1-4.69,13.4c-5,10.23-2.78,23.67-2.78,23.67s.36-13.41,8.72-21c9.52-8.64,10.3-21.14,10.3-21.14l7.18,8.33s5.3-4.76,8.74-15.48c2.19-6.84,6.66-15.09,9.61-20.17A5.46,5.46,0,0,0,484.64,295.87Z"/><path class="cls-60" d="M461.68,330.71c-1.77-1.06-3.54-2.13-5.32-3.18a31.29,31.29,0,0,0-4.91-2.63c-1.25-.46-3.61-1.08-4.43.35s.67,3,1.58,4c.73.86,1.46,1.72,2.2,2.57s1.4,1.71,2.18,2.48c.25.24.68-.09.48-.37-.63-.9-1.41-1.72-2.12-2.57s-1.42-1.67-2.13-2.51-1.64-1.61-1.69-2.61c0-1.3,1.39-1.25,2.35-1.09,2.1.35,3.93,1.66,5.7,2.7s3.79,2.24,5.69,3.34C461.62,331.42,462.05,330.93,461.68,330.71Z"/><path class="cls-35" d="M499.64,430.39s-57.72-5.3-59-5.3-44-1.19-44-1.19-33.81,8-36.84,10.72c-4.35,3.93,0,4.94,0,4.94s-8.43,3.4-7.49,7,23.1-4.46,27.78-3.27-24,12.51-19,18.76c0,0,2.19,1.19,12.18-2.68,0,0-5.31,3.27-2.81,4.76s27.15-8,27.15-8,27.47-.29,35.28-7.44l57.84,12.58s11.76-7.06,15.51-17.12S499.64,430.39,499.64,430.39Z"/><path class="cls-39" d="M394.29,447.21c-3.33.12-6.35,1.69-9,3.51s-5.06,4-7.73,5.91c-.75.53-1.51,1-2.31,1.49s-1.79.82-2.61,1.33c-.24.15-.05.53.22.48a13.63,13.63,0,0,0,4.39-2.16c1.32-.86,2.56-1.83,3.78-2.81a46.36,46.36,0,0,1,7.84-5.53,17.82,17.82,0,0,1,5.45-1.74A.24.24,0,1,0,394.29,447.21Z"/><path class="cls-39" d="M392,437.1a2.91,2.91,0,0,0-2.89.2,18.88,18.88,0,0,0-2.82,2.3c-2,1.63-4.32,2.88-6.22,4.61-.21.19.1.47.32.35a31.8,31.8,0,0,0,3.16-2.07c.9-.62,1.82-1.23,2.7-1.87s1.52-1.29,2.29-1.92a4.44,4.44,0,0,1,3.28-1.11A.27.27,0,0,0,392,437.1Z"/><path class="cls-39" d="M392.73,427.41a41.47,41.47,0,0,1-11.79,6c-4.51,1.47-9.18,2.39-13.78,3.55-1.31.33-2.62.68-3.91,1.08a18.19,18.19,0,0,0-4,1.51.2.2,0,0,0,.14.37c1.21-.25,2.37-.73,3.55-1.08s2.42-.69,3.63-1c2.43-.63,4.87-1.18,7.31-1.76a64.07,64.07,0,0,0,13-4.25,22,22,0,0,0,6.1-4.12A.19.19,0,1,0,392.73,427.41Z"/><path class="cls-53" d="M436.94,425h0s16.59,1.19,26.22,7.29,6.09,24.23,6.09,24.23L480.51,459a11.93,11.93,0,0,0,3.5-1.77l6.93-5.56,4.06-18-4-4c-16.13-1.47-49.43-4.51-50.37-4.51Z"/><path class="cls-54" d="M515.6,317.29c-.93.12-19.67,10.42-24.35,29.77s8.66,77.57,4,79.36-15.53-1.34-17.4.45,7.76-.9,10,8-3.63,18-10.21,22.77,37.32,19.06,52.29,8.93,16.62-41.23,16.62-41.23S549.62,312.82,515.6,317.29Z"/><path class="cls-55" d="M502.3,327.49a43.73,43.73,0,0,0-11.05,19.57c-4.68,19.36,8.66,77.57,4,79.36,0,0,8.2.22,11.81-1.9s-2.36-20.51-8.27-49.69S502.27,327.54,502.3,327.49Z"/><path class="cls-55" d="M490.71,461.2a70,70,0,0,0-7.73,2.35c11.52,5.23,36.37,10.19,46.9,3.06a25.93,25.93,0,0,0,7.26-7.84C518.91,468.55,492.49,460,490.71,461.2Z"/><path class="cls-4" d="M472.06,425.75a19.93,19.93,0,0,1,4.86,19.87c-3.39,11.84-7.67,14.31-7.67,14.31s1.12,4.08,8.56,4.33,11.95.38,14.8-4.33,10.53-21,2.83-29.93S472.06,425.75,472.06,425.75Z"/></g><path class="cls-22" d="M593.2,351.6,576.74,442s-15.93,7-20.84,18.87c-4.22,10.22-7,19.28-3.75,19.06s5,1.27,8.74-6.55,9-7.57,15-5.52c8.38,2.88,13.89,13.86,13.89,13.86a51,51,0,0,0,.39,13.21c1.18,7,6.09,5.59,7,2.79s4.21-4.91,6.08-7.59a45.42,45.42,0,0,0,4-7.37c.71-1.56,3.74-1.79,3.86-4.47a12.45,12.45,0,0,1,1.53-6.25c1.17-2.23-3.68-16.3-6.52-21.66a17.08,17.08,0,0,1,0-7.37c.9-4.47,25.29-86.21,25.29-86.21l5.23-21.88-37.58-5.57Z"/><path class="cls-23" d="M599.05,329.32,593.2,351.6l-1.92,10.52c6.52,1.73,19.31,4.93,19.82,4,.67-1.19,3.82-5.06,3.82-5.06s-.29,7.15,0,6.85,6.82.68,12.72,1.46c2.27-7.61,3.76-12.63,3.76-12.63l5.23-21.88Z"/><g class="cls-62"><path class="cls-36" d="M600,475.7a16.34,16.34,0,0,0-3.65-4.91,27.11,27.11,0,0,0-2.66-2.21,18.4,18.4,0,0,0-3-1.9.25.25,0,0,0-.26.42c.79.63,1.67,1.15,2.49,1.74a29.16,29.16,0,0,1,2.44,2,16.92,16.92,0,0,1,3.74,4.66c2.15,4.13,1.6,8.91.6,13.26-.62,2.67-1.41,5.3-2.23,7.91-.14.46.62.63.76.17,1.47-4.73,3.08-9.65,3.1-14.63A15.08,15.08,0,0,0,600,475.7Z"/><path class="cls-36" d="M607.16,479.81a24.23,24.23,0,0,0-.83-3.85,24.73,24.73,0,0,0-1.34-3.5c-.27-.58-.56-1.14-.88-1.7a5.35,5.35,0,0,0-1-1.39c-.14-.13-.42,0-.36.18a9.22,9.22,0,0,0,.84,1.62c.32.58.61,1.17.88,1.77a25.93,25.93,0,0,1,1.25,3.49,25,25,0,0,1,.7,3.42c.16,1.28.15,2.54.21,3.83,0,.38.66.35.69,0A17.12,17.12,0,0,0,607.16,479.81Z"/><path class="cls-36" d="M610.82,472a18.6,18.6,0,0,0-.51-2.05,7.78,7.78,0,0,0-.78-2c-.12-.18-.44-.1-.39.13.15.69.43,1.36.63,2s.33,1.28.45,1.93a20,20,0,0,1,.34,4.16c0,.38.61.36.61,0A20,20,0,0,0,610.82,472Z"/></g><path class="cls-11" d="M636.94,179.45s-19.55-20.85-36.09-3.87-6.87,72.06-9.37,94.69-2.5,47.94-2.5,47.94l4.69,4.17L589,350.07s14,6,26.85,4.77l4.3-11.91V355s15.36,2.82,16.3,1.93,0-17.87,0-17.87,7.8-6.55,8.74-14.59,2.81-40.2,5.31-67.89S656.29,195.53,636.94,179.45Z"/><g class="cls-63"><path class="cls-11" d="M635.72,326.68s-.35.28-.87.75A5.72,5.72,0,0,0,635.72,326.68Z"/><path class="cls-11" d="M630.5,335c-1.71-1.75,2.47-5.89,4.35-7.6-3.13,2.26-9,1.88-9,1.88s-.93-.82,2.34-3,3.45-9.24,3.45-9.24-.5.39-12.93,6.56-21.81-.24-21.81-.24c-5.54-1.92.07-28.23.52-37.38s-1.38-38.64,0-70.35,8.72-42.11,8.72-42.11l2.46-3.29a22.49,22.49,0,0,0-7.72,5.35c-16.55,17-6.87,72.06-9.37,94.69s-2.5,47.94-2.5,47.94l4.69,4.17L589,350.07s14,6,26.85,4.77l4.3-11.91V355s15.36,2.82,16.3,1.93,0-17.87,0-17.87A24.48,24.48,0,0,1,630.5,335Z"/></g><path class="cls-19" d="M636.14,312.32c-1.38.95-2.64,2.09-3.95,3.13s-2.56,2-3.89,2.89a48.24,48.24,0,0,1-8.34,4.74,29.64,29.64,0,0,1-17.55,2.2,22.09,22.09,0,0,1-8.67-3.83.34.34,0,0,0-.42.54c4.57,3.91,11.15,5.12,17.11,4.55,6.47-.61,12.48-3.38,17.72-7,1.49-1,2.92-2.1,4.32-3.22a34.25,34.25,0,0,0,4.1-3.69C636.79,312.42,636.38,312.16,636.14,312.32Z"/><path class="cls-19" d="M636.51,325.35a17,17,0,0,0-2,1,22.41,22.41,0,0,1-2.48,1,19.81,19.81,0,0,1-4.95,1,19.45,19.45,0,0,1-10.21-2c-.39-.2-.81.33-.41.55A19.32,19.32,0,0,0,627,329.28a20.21,20.21,0,0,0,5.35-1,17.84,17.84,0,0,0,2.25-.95,7.59,7.59,0,0,0,2.29-1.55C637.08,325.51,636.74,325.26,636.51,325.35Z"/><path class="cls-19" d="M611.07,343.41a2.28,2.28,0,0,0-2.16-1.48c-.36,0-.39.33,0,.37,1.48.16,2.18,1.66.88,2.24a3.06,3.06,0,0,1-2,.08c-.64-.2-1-.65-.89-1.12a1.3,1.3,0,0,1,.49-.74,2,2,0,0,1,.45-.26,3.12,3.12,0,0,1,.39-.15c.13,0,.26-.05.38-.1s.08-.28-.12-.31a2.11,2.11,0,0,0-.87.11,2.49,2.49,0,0,0-.59.29,1.92,1.92,0,0,0-.74.85,1.31,1.31,0,0,0,.89,1.72,4.05,4.05,0,0,0,2.73.12C610.73,344.73,611.23,344.09,611.07,343.41Z"/></g></g></svg>