<svg xmlns="http://www.w3.org/2000/svg" viewBox="0 0 500 500"><defs><style>.cls-1{fill:#f9fff3;}.cls-2,.cls-5,.cls-7{fill:#2c2a40;}.cls-2{opacity:0.1;}.cls-3{fill:#f9b587;}.cls-4{fill:#f39568;}.cls-6{fill:#b0b1ca;}.cls-7{opacity:0.2;}.cls-8{fill:#6c8c31;}.cls-9{fill:none;}.cls-10{fill:#5b5b6c;}.cls-11{fill:#a5c723;}.cls-12{fill:#b8e019;}.cls-13{fill:#fff;}.cls-14{fill:#00497b;}.cls-15{fill:#007bb0;}</style></defs><g id="BACKGROUND"><rect class="cls-1" width="500" height="500"/></g><g id="OBJECTS"><path class="cls-2" d="M445,171.69c-10.63-48.91-49.43-45.87-86.19-36.8-19.77,4.89-47.46,11.64-76.36,1.67-62.19-21.48-133.71-26.84-169,0S57.1,195.73,67.26,240.91s36,85.79,14,110S59.69,466.63,150,473.76s81.33-95.52,141-90.75,182,74.25,187.18,23.87-61.23-86.31-37.43-170C445.4,220.31,449.87,194.05,445,171.69Z"/><path class="cls-2" d="M237.42,91.64s2.31-17.55,8.8-16.86c1.8.19,3,2.34,3.82,4.66a1.31,1.31,0,0,0,2.58-.16c1.71-7.12,5.23-18,10.67-18,5.63,0,5.82,12.44,5.41,20-.06,1.14,1.19,1.64,1.73.7,1.48-2.59,3.65-5.08,6.29-4.36,5.13,1.41,3.75,14,3.75,14Z"/><path class="cls-2" d="M0,256.62s2.31-17.55,8.8-16.86c1.79.19,3,2.35,3.82,4.66a1.3,1.3,0,0,0,2.57-.15c1.72-7.13,5.23-18,10.68-18,5.63,0,5.81,12.45,5.41,20-.07,1.14,1.18,1.65,1.73.7,1.48-2.59,3.65-5.08,6.28-4.36,5.14,1.41,3.76,14,3.76,14Z"/><path class="cls-2" d="M456.78,186.53s2.31-17.55,8.8-16.86c1.8.19,3,2.34,3.82,4.66a1.31,1.31,0,0,0,2.58-.15c1.71-7.13,5.23-18,10.67-18,5.63,0,5.82,12.44,5.41,20-.06,1.14,1.19,1.65,1.73.7,1.49-2.59,3.65-5.08,6.29-4.36,5.13,1.41,3.75,14,3.75,14Z"/><path class="cls-3" d="M319.65,232a60.11,60.11,0,0,1-16.54,11.37s-5.6,4.15-12.77,9h0c-8.44,5.7-15,9.47-21.19,11.47a90.41,90.41,0,0,0-13.4,5.6l-1.23.64h0c-3.48,1.86-5.56,3.24-5.56,3.24l-4.36-12.17s7.92-9.34,12.61-13.93c5.8-5.69,16.31-17.93,28.64-23.22h0a18.18,18.18,0,0,1,2.82-1,195.42,195.42,0,0,1,17.15-12.7,19.93,19.93,0,0,1,5.88-2.79S323.3,220.14,319.65,232Z"/><path class="cls-4" d="M292.38,229.93s-4.13-5.43-6.53-6h0a18.18,18.18,0,0,1,2.82-1S292,227,292.38,229.93Z"/><path class="cls-4" d="M319.65,232a60.11,60.11,0,0,1-16.54,11.37s-5.6,4.15-12.77,9c5-4.18,12.87-13.14,18.92-19.27,4.13-4.19,1.85-9.53.17-14.53-.7-2.08-2.52-5.7-3.37-8.07,0-.1-.16-.11-.24-.16a19.93,19.93,0,0,1,5.88-2.79S323.3,220.14,319.65,232Z"/><path class="cls-3" d="M254.1,265.42l1.32,14.66a5.43,5.43,0,0,1-1.32,4.14L246.88,292a1.88,1.88,0,0,1-3-.16h0a2.86,2.86,0,0,1-.19-3.09l5.36-9.3-.93-2.81L245,282.31l-2.52,5.55-1.28,8.65A1.92,1.92,0,0,1,239,298.3h0a2.21,2.21,0,0,1-1.46-2.36l.71-10.38,1-7.54-2.58,7.78-2.84,12.74a1.92,1.92,0,0,1-1.51,1.58h0a2,2,0,0,1-2-2.25l.56-11.19,1.94-8-5.65,11.19-3.06,7.9a1.56,1.56,0,0,1-2,1h0a2,2,0,0,1-1.09-2.4l2.38-9.29,4-9.11-3.89,7.24-1.05,2.84a1,1,0,0,1-1.31.61h0a1.24,1.24,0,0,1-.56-1.33l.61-3.24,2.71-6.69,20.77-16.33S248.18,259.68,254.1,265.42Z"/><path class="cls-4" d="M255.52,269.52l-1,.52h0s-.32-1.93-2.86-4.42C251.79,265.67,253.69,266.37,255.52,269.52Z"/><path class="cls-5" d="M446.7,240.39a4.39,4.39,0,0,1-2.35,2.11c.82,14.93.52,27.74-1.37,33.52-5.84,17.8-55.52,26.5-67.47,13.58s-18.45-98.26-2.35-111.73c12-10.05,37.24-11.69,49.25-11.87,5-.08,9.61,3.47,11.49,9,3,8.85,5.71,22.87,7.66,37.8a6.36,6.36,0,0,1,2.21.47C446.26,214.32,447.87,237.67,446.7,240.39Z"/><path class="cls-6" d="M355.51,416.53a18.6,18.6,0,0,0,2.53,6.21s-5.26,2.52-10.14,4.88c-3.72,1.8-9.81,2.87-13.75,4.65a10.71,10.71,0,0,0-2.48,1.49,4.91,4.91,0,0,0-.46.45c-2.18,2.4-13.61,8.07-17.22,9.09a3.52,3.52,0,0,1-.83.16,4,4,0,0,1-3.51-2.3h0c-.83-1.58-1.17-4.11-.3-8.06s3.59-8.46,6.3-12.35a46.85,46.85,0,0,1,11.77-11.81c4.2-2.9,9.49-6.68,10.52-8,3.3-4.29,6.25-9.25,10.93-11.44a9.41,9.41,0,0,1,4.32-.64,41.82,41.82,0,0,1,11,2.46S352.88,403.82,355.51,416.53Z"/><path class="cls-5" d="M353.19,388.83c-2.26,1.94-5.87,5.34-7.35,8.44-2.24,4.68-11,9.54-14.83,12.49s-18.46,16.53-19.9,24c-1.25,6.47,1.26,8.94,2.88,9.55a3.52,3.52,0,0,1-.83.16c-2.05,0-5.66-2-3.81-10.36.85-3.83,3.59-8.46,6.3-12.35a46.85,46.85,0,0,1,11.77-11.81c4.2-2.9,9.49-6.69,10.52-8,3.3-4.29,6.25-9.25,10.93-11.44A9.41,9.41,0,0,1,353.19,388.83Z"/><path class="cls-7" d="M358,422.74s-5.26,2.52-10.14,4.88c-3.72,1.8-9.81,2.87-13.75,4.65a10.71,10.71,0,0,0-2.48,1.49,4.91,4.91,0,0,0-.46.45c-2.18,2.4-13.61,8.07-17.22,9.09a3.52,3.52,0,0,1-.83.16,4,4,0,0,1-3.51-2.3h0s7.46-2,11.34-4.91c2.51-1.9,5.92-5,9.21-7.05a49.34,49.34,0,0,0-3.47-6.46,35.07,35.07,0,0,1,5,5.54,10.51,10.51,0,0,1,3.56-1.23c3.83-.41,15.89-5.16,20.18-10.52A18.6,18.6,0,0,0,358,422.74Z"/><path class="cls-6" d="M329.9,376c-.1,6.94,1.13,12.65.92,15-.39,4.39-6.63,13.18-6.63,13.18-.48,5-3.85,12.12-8.34,15.88h0l-.06,0-.15.11c-2.62,2.13-5.6,3.11-8.6,1.89a8.39,8.39,0,0,1-1-.49c-5.75-3.28-7.54-26.78,0-36.18,7.26-9.08,10.34-27.75,17.56-29.83s10.93,1.62,10.93,1.62c-.19.33-.38.67-.55,1A39.52,39.52,0,0,0,329.9,376Z"/><path class="cls-5" d="M334.53,357.33c-.19.33-.37.67-.55,1-.68-.3-7.53-3.15-11.75,0-4.44,3.35-6.93,16.07-9.27,19.54s-9.66,16.18-9.85,21.15-1.17,17.23,2.83,20.81c3.77,3.39,8.35,1.46,9.7.45-2.91,2.36-6.26,3.31-9.6,1.4-5.75-3.28-7.54-26.78,0-36.18,7.27-9.08,10.34-27.75,17.56-29.83S334.53,357.33,334.53,357.33Z"/><path class="cls-7" d="M330.82,391.09c-.36,4.05-5.69,11.83-6.53,13l-.06.1,0,.06c-.48,5-3.85,12.12-8.34,15.88h0l-.06,0-.15.11c-2.62,2.13-5.6,3.11-8.6,1.89a6.5,6.5,0,0,1,1.8-.7c5.12-1.24,9.52-9.64,10.49-14.24a16.88,16.88,0,0,1,2.34-4.92c-1.75-1.19-4.08-2.5-5.88-2.54,0,0,2.35-1,6.68,1.3,2.63-4,6-8.12,6.34-10,.6-3,1.09-15,1.09-15C329.8,383,331,388.69,330.82,391.09Z"/><path class="cls-3" d="M479.72,135.07l-14.64,9.66-14.78,9.76s-5.95-16-.64-25.84c0,0,1.24-.86,3.06-2,1.33-.83,3-1.8,4.65-2.69,1-.5,1.94-1,2.88-1.39a121.64,121.64,0,0,1,3.95-12.24,16.23,16.23,0,0,0,1.35-7.23,4.75,4.75,0,0,0-.47-1.86s7.61-4.54,12-9C477.08,92.3,486.45,117.73,479.72,135.07Z"/><path class="cls-4" d="M467.71,129.58s-6.27,1.86-10.34-5.61c1-.5,1.94-1,2.88-1.39C460.25,122.58,463.13,128.65,467.71,129.58Z"/><path class="cls-4" d="M465.08,144.73l-14.78,9.76s-5.95-16-.64-25.84c0,0,1.24-.86,3.06-2,0,0,.16,13.56,1.73,16.91S461.27,145.78,465.08,144.73Z"/><path class="cls-3" d="M477.08,92.3c-1.76,2.32-9.46,8.85-10.59,9.49-.39.22-.94-.06-1.48-.53-.52,0-4,.2-5.86-.81-1-.56-1-2.3-.75-4.15-2.5-.71-7.36-5.23-7.3-9.53a4.84,4.84,0,0,1,4.32-5c.07-5.37,4.39-4.5,4.39-4.5.22-2.34,3.81-3.39,3.81-3.39.36-2,2.7-2.34,4.09-1.56s9.66,12.14,10,14.22S477.08,92.3,477.08,92.3Z"/><path class="cls-4" d="M464.8,93.71c.6,2.69-1.31,3-1.31,3,.39-.36.36-1.5.25-2.49a7,7,0,0,0-.22-1.48h0a3.69,3.69,0,0,0-1.65-2.41c-1.71-.91-2.49-.29-2.49-.29L456,84.61a27.22,27.22,0,0,1,4.1,4.24c3-.14,4.15,2.5,4.54,3.94a1.58,1.58,0,0,0,1.49-1.33,5.78,5.78,0,0,0-.62-3.84l-4.72-7.44s6.44,7.11,6.59,9.89C467.54,93.75,464.8,93.71,464.8,93.71Z"/><path class="cls-4" d="M465.48,77.84s4.21,6,4.77,7.59-.34,3.55-1.44,3.9a1.66,1.66,0,0,1-1.72-.32v1.88s4.26.78,4.22-4C471.28,84.49,465.48,77.84,465.48,77.84Z"/><path class="cls-4" d="M471,85.78a2.23,2.23,0,0,0,2.27.69,1.8,1.8,0,0,0,1.21-2.38,2,2,0,0,1,.11,2.16c-.84,1.68-2.93,1.38-3.59,1.17Z"/><path class="cls-4" d="M470.25,100.45a4.72,4.72,0,0,1-4.7,2.66,4.75,4.75,0,0,0-.47-1.86A12.14,12.14,0,0,0,470.25,100.45Z"/><path class="cls-8" d="M421.56,326.87s-4.3-11.17-3.52-17.51,8,3.63,9,6.32S426.62,325.75,421.56,326.87Z"/><path class="cls-5" d="M367,392.1a31.83,31.83,0,0,1-12.45,3.63,24.29,24.29,0,0,1,8.51-4.64A21.57,21.57,0,0,1,367,392.1Z"/><path class="cls-9" d="M383.7,357.23c-.83,4.29.18,9.7-2.53,19.52-1.86,6.7-7.77,12.05-14.21,15.35,5.77,2,12,3.63,12,3.63,10.08-.42,29.09,4.49,29.09,4.49A119.39,119.39,0,0,1,383.7,357.23Z"/><path class="cls-5" d="M450.83,417.21c-.78-20.11-28.72-71.33-33.07-110.17l-17.52-7.49c-2.32-.79-1.31-.33-4.05-1.3,0,0-41.37-25.32-59.91,8a43.86,43.86,0,0,0,3.32,24.28c2.35,5.19,4.1,21.27,2.34,24.51a30.55,30.55,0,0,0-7.41,2.31c-3.11,1.27-7.91,3.59-11.15,5.19a16.16,16.16,0,0,0-8.32,11.24,18.21,18.21,0,0,0,.34,9c3.12,10.64,10.93,11.8,16,10.87a110.66,110.66,0,0,1,19.52,1.85,14.14,14.14,0,0,0,3.59.25,14.89,14.89,0,0,0-5.15,8.77c-1.76,10.17,6.55,17.57,6.55,17.57s.86,2.08,7.5,1.62,6.62-2.57,12.1.06,43.91,21.44,56.59,22.14S451.61,437.33,450.83,417.21Zm-71.92-21.48s-6.18-1.64-12-3.63c6.44-3.3,12.35-8.65,14.21-15.35,2.71-9.82,1.7-15.23,2.53-19.52a119.39,119.39,0,0,0,24.3,43S389,395.31,378.91,395.73Z"/><path class="cls-10" d="M336,362.11l-1.81.45.18,1,1.81-.45,1.8-.44-.19-1Z"/><path class="cls-10" d="M317.71,369.53l.44.93c1.06-.7,2.14-1.4,3.23-2.07l-.42-.94C319.87,368.13,318.78,368.83,317.71,369.53Z"/><path class="cls-10" d="M328.51,364.12l.23,1c1.05-.33,2.21-.66,3.56-1l-.2-1C330.74,363.46,329.57,363.79,328.51,364.12Z"/><path class="cls-10" d="M347.64,346.94l.9-.06c-.07-1.45-.19-2.92-.35-4.37l-.89.13C347.46,344.07,347.57,345.52,347.64,346.94Z"/><path class="cls-10" d="M340.28,303.05l-.89-.07c-.09,1.48-.14,2.95-.15,4.38l.89,0C340.15,306,340.2,304.51,340.28,303.05Z"/><path class="cls-10" d="M347,340.15l.88-.18c-.22-1.5-.49-2.94-.8-4.3l-.87.28C346.49,337.28,346.75,338.69,347,340.15Z"/><path class="cls-10" d="M322.92,366.32l.35,1a30.09,30.09,0,0,1,3.42-1.45l-.26-1A31.6,31.6,0,0,0,322.92,366.32Z"/><path class="cls-10" d="M346.61,358.1a3.3,3.3,0,0,1-1.24,1l.4,1a4.37,4.37,0,0,0,1.57-1.39,7.13,7.13,0,0,0,.77-2.28l-.87-.25A5.92,5.92,0,0,1,346.61,358.1Z"/><path class="cls-10" d="M346.41,333.2a32,32,0,0,0-1.47-4.08l-.79.5a30.65,30.65,0,0,1,1.41,3.93Z"/><path class="cls-10" d="M340.14,309.9l-.9,0c0,1.53.09,3,.2,4.39l.89-.09C340.23,312.86,340.16,311.41,340.14,309.9Z"/><path class="cls-10" d="M348.61,349.45h-.89v.47c0,1.39-.05,2.67-.15,3.82l.89.11c.1-1.18.15-2.5.15-3.93Z"/><path class="cls-10" d="M341.32,320.91a37.5,37.5,0,0,1-.74-4.2l-.89.16a42.47,42.47,0,0,0,.76,4.33Z"/><path class="cls-10" d="M342,323.26l-.83.4a16,16,0,0,0,1.68,3.54l.21.33.72-.63-.22-.35A14.82,14.82,0,0,1,342,323.26Z"/><path class="cls-10" d="M339.9,361.12l.2,1a36.9,36.9,0,0,0,3.6-1.11l-.27-1C342.5,360.37,341.38,360.72,339.9,361.12Z"/><path class="cls-10" d="M386.2,355.05c-.63-1.13-1-1.78-1-1.78l.75-.57,1,1.77Z"/><path class="cls-10" d="M369.19,397c.95.27,2.07.61,3.45,1l.23-1c-1.38-.44-2.52-.78-3.47-1.05Z"/><path class="cls-10" d="M363.77,394.93l-.12,1.05c.91.14,1.72.23,2.41.28a6.9,6.9,0,0,1,1.11.19l.17-1.05a8.21,8.21,0,0,0-1.23-.2C365.44,395.15,364.65,395.06,363.77,394.93Z"/><path class="cls-10" d="M374.65,398.65l3.44,1.13.24-1-3.45-1.13Z"/><polygon class="cls-10" points="380.09 400.44 383.53 401.58 383.77 400.56 380.33 399.42 380.09 400.44"/><path class="cls-10" d="M385.53,402.25l3.44,1.13.24-1-3.44-1.13Z"/><path class="cls-10" d="M399.65,376.58c-.69-1.15-1.38-2.31-2-3.45l-.74.6,2.06,3.47Z"/><path class="cls-10" d="M417,403.1a10.6,10.6,0,0,0-1.88-3.81l-.69.68a9.74,9.74,0,0,1,1.7,3.4Z"/><path class="cls-10" d="M402.94,382l-2.09-3.42-.73.62c.7,1.15,1.4,2.3,2.1,3.43Z"/><path class="cls-10" d="M358.12,394.5l-.06.36c1.25.3,2.44.56,3.52.76l.15-1-1.64-.34C359.43,394.34,358.78,394.42,358.12,394.5Z"/><path class="cls-10" d="M387.35,357.11l2,3.52.75-.59-2-3.52Z"/><path class="cls-10" d="M408.88,407.65a7.35,7.35,0,0,1-1.23-.08l-.1,1.06a10.94,10.94,0,0,0,1.16.08h.19c.84,0,1.61-.1,2.31-.19l-.1-1C410.44,407.56,409.68,407.62,408.88,407.65Z"/><path class="cls-10" d="M413.18,397c-.58-.66-1.26-1.5-2-2.51l-.67.7c.77,1,1.47,1.9,2.07,2.57l.43.5.63-.76C413.48,397.28,413.33,397.12,413.18,397Z"/><path class="cls-10" d="M409.82,392.58c-.69-1-1.45-2.08-2.24-3.27l-.7.65c.8,1.21,1.55,2.32,2.25,3.3Z"/><path class="cls-10" d="M403.45,384.63c.75,1.19,1.47,2.32,2.15,3.38l.71-.65c-.68-1.05-1.4-2.18-2.14-3.37Z"/><path class="cls-10" d="M413.1,407.07l.21,1a5.15,5.15,0,0,0,3.32-2.22l-.74-.59A4.38,4.38,0,0,1,413.1,407.07Z"/><path class="cls-10" d="M391,404c1.17.38,2.32.75,3.45,1.1l.23-1-3.44-1.1Z"/><path class="cls-10" d="M402,407.38c1.34.37,2.52.66,3.51.87l.16-1c-1-.21-2.15-.5-3.47-.86Z"/><path class="cls-10" d="M393.65,368.22c.66,1.14,1.33,2.31,2,3.49l.73-.61-2-3.48Z"/><path class="cls-10" d="M393.22,365.59c-.7-1.22-1.37-2.39-2-3.5l-.75.59,2,3.5Z"/><path class="cls-10" d="M396.45,405.77l3.46,1,.22-1c-1.06-.31-2.22-.65-3.46-1Z"/><path class="cls-5" d="M367,392.1a31.83,31.83,0,0,1-12.45,3.63,24.29,24.29,0,0,1,8.51-4.64A21.57,21.57,0,0,1,367,392.1Z"/><path class="cls-11" d="M451.78,157.09c-.06,6.7-.36,11.56-.36,11.56a29.07,29.07,0,0,0-3.33,1.74c-7.72,4.64-17.32,14.31-19.65,24.16-.93,3.92-1.36,12-1.52,21.17-.14,7.4-.1,15.48,0,22.62,0,.38,0,.77,0,1.15.12,9,.3,16.34.3,18.42,0,5.77-1,22.89-1.17,30.28s1.56,15.26,2.34,27.75-6.83,10.93-6.83,10.93c7.41-3.7,3.57-14.22-1.17-16.48-.71-.34-1.52-.7-2.44-1.08h0c-11.33-4.76-37.6-12.78-51-15.11-19.94-3.46-30.68,12-30.68,12s3.91-25.67,7.23-30.75,5.26-21.74,6.63-28.67a22.32,22.32,0,0,0,.32-3.45c.19-6.21-.95-16-1.62-21-.27-2-.46-3.28-.46-3.28-2,3.93-15.11,12-21.82,16-2.37,1.4-3.94,2.28-3.94,2.28l-5.56-10L306,207.5s.73-.79,3-2.92c1.63-1.52,4-3.71,7.53-6.79,8.38-7.4,18.34-20.81,22.05-22.89s4.29-1.85,9.17-7.4c3.42-3.89,15.84-8.61,22.95-11.08,3-1,5.09-1.69,5.09-1.69a19.31,19.31,0,0,0,16.54-1.34s2.6-2,6.12-4.54c5.7-4.1,13.83-9.52,17.21-9.83,4.28-.4,22.68-6.53,30.46-9.17l3.49-1.2C451.53,136.85,451.85,148.48,451.78,157.09Z"/><path class="cls-5" d="M383.55,165.3c-8.42.5-12-6.89-12.8-8.88,3-1,5.09-1.69,5.09-1.69a19.31,19.31,0,0,0,16.54-1.34s2.6-2,6.12-4.54C399.52,159,393,164.74,383.55,165.3Z"/><path class="cls-5" d="M326.56,235c-2.37,1.4-3.94,2.28-3.94,2.28L306,207.5s.73-.79,3-2.92Z"/><path class="cls-5" d="M451.42,168.65a29.07,29.07,0,0,0-3.33,1.74c1.45-16.78-.81-33.69-1.92-40.54l3.49-1.2C453,143.22,451.42,168.65,451.42,168.65Z"/><path class="cls-12" d="M426.9,238.34c-13.68-7.1-47-19.81-76.44,5,.19-6.21-.95-16-1.62-21,4.46-3.34,25.88-18.51,46.38-17.76,14.11.51,25.21,6.54,31.7,11.14C426.78,223.12,426.82,231.2,426.9,238.34Z"/><path class="cls-5" d="M360.91,99.08s-5.41-1.44-6.08,6c-.57,6.39,6.27,8.78,6.27,8.78S363.29,103,360.91,99.08Z"/><path class="cls-5" d="M363.58,109.9s-5.41-1.45-6.08,6c-.57,6.39,6.27,8.78,6.27,8.78S366,113.84,363.58,109.9Z"/><path class="cls-5" d="M360,100.58s-8.61-3.92-5.67-15.17,14.18-6.78,14.18-6.78.41-7.84,7.82-8.25S386.44,77,386.44,77s5-5.9,11.1-4.13,8.17,10.53,6.28,14.68c0,0,3.87-.82,6.82,4.53s3.7,13.28,0,16.22a15.41,15.41,0,0,1,2,13.29c-2.37,7.66-8.74,7.47-8.74,7.47s1.22,10-6.95,12.41-7.41-6.18-7.41-6.18S375.23,96.13,360,100.58Z"/><path class="cls-3" d="M394.11,145.42l1.18,6.87a5,5,0,0,1-1.49,4.59c-10.49,9-18.48,2.82-20.16-.24,1.26-1.41,23.78-26.66,24.14-40.85C397.78,115.79,400.37,133.45,394.11,145.42Z"/><path class="cls-3" d="M360.61,119.63a22.22,22.22,0,0,0,.57,11.45l3.67,11.26c1.37,4.18,4.84,6.88,8.62,6.68a26.55,26.55,0,0,0,15.16-5.36c9.49-7.48,9.52-24.66,9.52-24.66s-.78-17.43-13-24-24.62,1.13-24.62,1.13l-1.43,12.19c-.08.68-.12,1.37-.14,2a22.32,22.32,0,0,0,.89,6.76Z"/><path class="cls-5" d="M370.55,106.76s6.87-7.94,11.59-.78l-.85,1.82s-4.78-4.92-10.3,1.23Z"/><path class="cls-4" d="M360.61,119.63a21.89,21.89,0,0,0-.44,6.2c1.47-1.24,4.43-2.28,10.4-1.32,0,0-3.2-3.07-6.39-3.14a1.49,1.49,0,0,1-1.19-2l1.78-6.47a4,4,0,0,0-2-1.78,20,20,0,0,0-3.8-.8,22.32,22.32,0,0,0,.89,6.76Z"/><path class="cls-5" d="M359.27,108.39a15,15,0,0,1,4.18,1l.21,2.11a10.6,10.6,0,0,0-4.37-.83,1.11,1.11,0,0,1-1.12-1.19v0A1,1,0,0,1,359.27,108.39Z"/><path class="cls-13" d="M363.34,129.71l16.31-1.83s-1.88,10.43-10.55,10.17C362.3,137.84,363.34,129.71,363.34,129.71Z"/><path class="cls-4" d="M374.44,148.68s10.11-1.49,15.55-18.18c0,0,2.52,6.15-.44,15s-15.91,11.15-15.91,11.15Z"/><path class="cls-3" d="M394,116.17s3.07-6.93,7.55-3.82,2,19-4.52,16S394,116.17,394,116.17Z"/><path class="cls-5" d="M372.57,112.88s1-3.45,3.56-3.46c3.8,0,4.53,3.78,4.53,3.78S377,107.19,372.57,112.88Z"/><path class="cls-5" d="M364,115.28s-2.61-3.69-4.17.79C359.85,116.07,361.6,113.21,364,115.28Z"/><path class="cls-5" d="M360,100.58a9.49,9.49,0,0,0,8.16-1.73c3.74-3,2.83-5.76,2.83-5.76a6.27,6.27,0,0,0,6.58,4c5.05-.46,5.75-2.12,5.75-2.12s-.21,6.7,3.92,7.72,6.63-3,6.63-3-18.36-19.16-24.67-14S357.46,93.53,360,100.58Z"/><path class="cls-5" d="M391.71,100.7s-2.5,5.74,1.74,9.06a35.88,35.88,0,0,1-1.52,9l3.23-.06s2.37-4.9,2.14-9.1S397.05,99,391.71,100.7Z"/><path class="cls-4" d="M477.08,92.3a8.26,8.26,0,0,1-1.8,3.12,3.11,3.11,0,0,0,2.41-1.32Z"/><path class="cls-11" d="M315.79,420.21l.06-.06h0Z"/><path class="cls-7" d="M418,309.31c-11.33-4.76-37.6-12.78-51-15.11-19.94-3.46-30.68,12-30.68,12s3.91-25.67,7.23-30.75,5.26-21.74,6.63-28.67a22.32,22.32,0,0,0,.32-3.45c.19-6.21-.95-16-1.62-21-.27-2-.46-3.28-.46-3.28-2,3.93-15.11,12-21.82,16-2.37,1.4-3.94,2.28-3.94,2.28l-5.56-10L316.3,223s14.57-9.36,34.62-22.2c0,0,9.07,13.53,8.93,29.14-.25,27.76-3.62,46.7,10.9,53.18C384.81,289.38,416,308.14,418,309.31Z"/><path class="cls-7" d="M451.78,157.09c-.06,6.7-.36,11.56-.36,11.56a29.07,29.07,0,0,0-3.33,1.74c-7.72,4.64-17.32,14.31-19.65,24.16-.93,3.92-1.36,12-1.52,21.17-.14,7.4-.1,15.48,0,22.62,0,.38,0,.77,0,1.15,0,0-5.16-41.7-2.24-54S451.25,157.45,451.78,157.09Z"/><path class="cls-5" d="M354.8,167c-4.27,30.05-3.49,65.66-3.49,65.66a34.49,34.49,0,0,1-1.74,17.3c-16.28-20.85-5.09-83,1-95.51,7.43-15.41,18.32,2.6,18.32,2.6l-5.57,2.09s-1.93-3.23-4.32-2.54S354.8,167,354.8,167Z"/><path class="cls-5" d="M400.8,147.22s1.67-15.19,11-15.58c14.83-.62,18.56,45.57,19.73,70.54s-4.64,30-4.64,30L426.73,218s-7.67-61.45-11.47-72.26c-4.17-11.85-7.74-6-11.48,0l-3.34,1.82"/><path class="cls-3" d="M76.62,131.45c-24-7.37-42.72-34.16-47.69-40.62a12.15,12.15,0,0,1-1.43-2.78h0c-4.75-11.68-12.43-50.1-14.15-58.8-.11-.59-.2-1-.26-1.35L13,27.47l13.64-7.06s1.11,15.49,7.68,28S47,80.72,47,80.72c12.84,7.48,26.57,21.4,26.57,21.4C80.69,119.92,76.62,131.45,76.62,131.45Z"/><path class="cls-4" d="M76.62,131.45c-24-7.37-42.72-34.16-47.69-40.62a12.15,12.15,0,0,1-1.43-2.78c.27.28,18,18.3,24.67,22.86s14.33,8.69,18.06,5.59,4.79-9,3.29-14.38C80.69,119.92,76.62,131.45,76.62,131.45Z"/><path class="cls-3" d="M13.84,28.29c2.63-.11,11.8-2.91,12.94-3.52.4-.22.56-.89.61-1.68.35-.46,2.68-3.48,3.24-5.85.3-1.3-.83-2.4-2.2-3.35,1.14-2.72,1.35-10-1.47-12.74-3.08-2.94-6,.69-6,.69C17.41-1.55,15.2,2.93,15.2,2.93c-1.66-1.31-4.64,1.28-4.64,1.28-1.52-1-3.25,1-3.64,2.72S8.56,23.5,9.67,25.17,13.84,28.29,13.84,28.29Z"/><path class="cls-4" d="M22.64,18c1.35,2.28,2.8.77,2.8.77-.47.12-1.19-.64-1.76-1.38a5.52,5.52,0,0,1-.81-1.15h0a4.32,4.32,0,0,1-.5-3c.52-2.14,1.42-2.45,1.42-2.45L22.43,4.18a35.54,35.54,0,0,0,.11,6.45,6,6,0,0,0-.37,6.66,1.4,1.4,0,0,1-1.82.49,5.12,5.12,0,0,1-2.09-3L16.49,5.68S17,16.1,18.65,18C20.91,20.56,22.64,18,22.64,18Z"/><path class="cls-4" d="M11.94,8.47s1.15,7.65,1.84,9.2a2.29,2.29,0,0,0,3.45,1.2,2.39,2.39,0,0,0,.9-1.77l1.22,1.21s-2.23,4.37-5.3,1.25C12.51,18,11.94,8.47,11.94,8.47Z"/><path class="cls-4" d="M13.51,18.61a3.2,3.2,0,0,1-1,2.51c-1.11.82-1.92.41-2.32-.44a1.68,1.68,0,0,0,1.33,1.49c1.63.32,2.78-1.78,3.07-2.5Z"/><path class="cls-4" d="M16.29,28.29a4,4,0,0,1-2.95.95c-.11-.59-.2-1-.26-1.35A8.83,8.83,0,0,0,16.29,28.29Z"/><path class="cls-4" d="M27.1,24.41a8.48,8.48,0,0,1-2.7,2.07,4.41,4.41,0,0,0,2.88-.85Z"/><path class="cls-4" d="M47,80.72s-4.58,4.54-7.17,5c0,0,5.23,2.07,9.63-3.5Z"/><path class="cls-5" d="M61.57,218.11a4.11,4.11,0,0,0,2.57,1.74c.79,14.93,2.46,27.59,5,33,7.71,16.78,57.93,17.89,68.38,3.26S145.19,155.9,127.77,145c-13-8.16-38.19-6-50.12-4.33-5,.68-9.15,4.9-10.43,10.66-2,9.23-3.19,23.54-3.52,38.65a6.39,6.39,0,0,0-2.15.79C59.2,192.19,60.12,215.6,61.57,218.11Z"/><path class="cls-3" d="M249.93,135s-3.83,16.85-9.9,35.54c-.92,2.83-1.89,5.7-2.9,8.56-4.13,11.64-9,23.12-14.29,30.94-2.81,4.17-5.73,7.3-8.7,8.85,0,0-8.51,1.41-14.49-2.83s-29.26-17.93-32.1-23.82c0,0,9-15.05,17.47-16.4,0,0,3.16,1.93,7.64,5a173.51,173.51,0,0,1,16.76,12.94l1.58,1.44s.44-1,1.23-2.77c2-4.48,6.32-13.81,11.54-23.66,1.12-2.11,2.27-4.25,3.46-6.36L228,161c9.26-16.28,10.46-28.17,10.46-28.17S247.4,132,249.93,135Z"/><path class="cls-4" d="M240,170.51c-.92,2.83-1.89,5.7-2.9,8.56l-13.36-10.29c1.12-2.11,2.27-4.25,3.46-6.36Z"/><path class="cls-4" d="M222.84,210c-2.81,4.17-5.73,7.3-8.7,8.85,0,0-8.51,1.41-14.49-2.83s-29.26-17.93-32.1-23.82c0,0,9-15.05,17.47-16.4,0,0,3.16,1.93,7.64,5-.52,2.11-2.58,9.72-6.28,13.4-4.33,4.29,5.67,14.2,14.33,18.62S215.4,217.08,222.84,210Z"/><path class="cls-4" d="M210.66,206.66c1-4.84-1.24-12.89-1.24-12.89l1.58,1.44s.44-1,1.23-2.77C213.11,202.75,210.66,206.66,210.66,206.66Z"/><path class="cls-6" d="M170.87,457.25c-8-5.43-10.75-10.85-15.52-20.29-2.84-5.6-5.47-10.29-7.14-13.17a7.62,7.62,0,0,1-.34-6.73l.22-.51c1.87-4.19,5-10.1,7.66-10.25l3,1.95L169.28,415s4.58,12.47,4.38,17.91c-.17,4.75,7.57,15.76,9.92,21.95.19.53.35,1,.47,1.46a7,7,0,0,1,.16.91C184.77,462.48,178.84,462.67,170.87,457.25Z"/><path class="cls-5" d="M170.87,457.25c-8-5.43-10.75-10.85-15.52-20.29-2.84-5.6-5.47-10.29-7.14-13.17a7.62,7.62,0,0,1-.34-6.73l.22-.51a30.38,30.38,0,0,0,4.42,10.86c3.58,4.95,8.84,16.1,10.09,18.22s10.15,11.22,15.74,12.56c4.54,1.09,5.36-.06,5.71-1.85a7,7,0,0,1,.16.91C184.77,462.48,178.84,462.67,170.87,457.25Z"/><path class="cls-7" d="M170.87,457.25c-8-5.43-10.75-10.85-15.52-20.29-2.84-5.6-5.47-10.29-7.14-13.17a7.62,7.62,0,0,1-.34-6.73l.22-.51c1.87-4.19,5-10.1,7.66-10.25l3,1.95s-5.93,6.3-4,13.26S163,439,166.28,443.57s10.29,12.24,17.3,11.31c.19.53.35,1,.47,1.46a7,7,0,0,1,.16.91C184.77,462.48,178.84,462.67,170.87,457.25Z"/><path class="cls-6" d="M168,489.37c-.19,6.26-3.94,12-12.24,10.34-9.34-1.89-11.95-11.09-14.14-16.75s-7.37-25.24-9.56-33a29,29,0,0,1-.26-12.23,37.09,37.09,0,0,1,1.11-4.78l3.37.61L155.35,437a73.71,73.71,0,0,1,4.38,19.11c.68,8.68,5.58,19.94,7.49,27.45h0a27.15,27.15,0,0,1,.67,3.44A17.45,17.45,0,0,1,168,489.37Z"/><path class="cls-7" d="M168,489.37c-.19,6.26-3.94,12-12.24,10.34-9.34-1.89-11.95-11.09-14.14-16.75s-7.37-25.24-9.56-33a29,29,0,0,1-.26-12.23,37.09,37.09,0,0,1,1.11-4.78l3.37.61c-.32,3.92,1.11,15,3.75,21,3.28,7.43,5.73,23.76,11.44,31s16,8.61,15.76-2a27.15,27.15,0,0,1,.67,3.44A17.45,17.45,0,0,1,168,489.37Z"/><path class="cls-5" d="M168,489.37c-.19,6.26-3.94,12-12.24,10.34-9.34-1.89-11.95-11.09-14.14-16.75s-7.37-25.24-9.56-33a29,29,0,0,1-.26-12.23,178.73,178.73,0,0,0,5.92,23.53c4.78,14.45,8.59,27.14,11.92,31.39S166.08,499.7,168,489.37Z"/><path class="cls-14" d="M70.29,129l7.48,2.79s-1.26,6.26-3.43,6.26S69.64,136.7,70.29,129Z"/><path class="cls-9" d="M170.87,353.7c1.45,4.29.1,8.77-1.5,15.94,6.37-11,17-28.45,17-28.45l-31.05-11.35S169.28,349,170.87,353.7Z"/><path class="cls-5" d="M224.42,326.44a12.23,12.23,0,0,0-2.08-4.57c-3.22-4.39-12.71-16-31.76-29.51-24.28-17.21-28.87-15.8-41-26.41,0,0-41.53-5.54-58.58,14-.17.2-.35.4-.52.61a27.81,27.81,0,0,0-3.92,6.31s0,25.52,8.51,34.84,35.2,42.27,37.79,42c0,0,.2,5.12,3.38,5.36,0,0-4.38,21-2.59,30,0,0-2.78,7.54-1.39,13s-.4,10.85-.4,14.15,2.39,17.93,10.16,21,16.32-.24,16.92-8.26-1-13.21-.4-17.69c.16-1.22.87-4.78,1.84-9.5,2.87,2.13,7.39,3.73,8.91,3.36,2-.47,6.17-14.39,8.76-15.33s11.75-14.39,18.32-21.93C202.65,370.52,229.06,347.27,224.42,326.44Zm-69.07,3.4,31.05,11.35s-10.66,17.45-17,28.45c1.6-7.17,2.95-11.66,1.5-15.94C169.28,349,155.35,329.84,155.35,329.84Z"/><path class="cls-10" d="M91.89,282.1l-1.17.23c-.11-.78-.2-1.38-.25-1.77.17-.21.35-.41.52-.61l.59-.11S91.69,280.68,91.89,282.1Z"/><path class="cls-10" d="M92.36,285.24l-1.17.25c.23,1.53.48,3.06.73,4.55l1.17-.27C92.84,288.29,92.6,286.76,92.36,285.24Zm1.28,7.65-1.17.3c.29,1.57.58,3.09.87,4.52l1.16-.33C94.21,296,93.92,294.45,93.64,292.89Zm1.52,7.58-1.15.37c.35,1.6.72,3.11,1.08,4.47l1.14-.42C95.87,303.54,95.51,302.06,95.16,300.47Zm1.92,7.42-1.12.49a38.92,38.92,0,0,0,1.57,4.33l1-.66A37.27,37.27,0,0,1,97.08,307.89Zm2.93,6.63-.87,1c.59.72,1.52,1.84,2.77,3.31l.84-1C101.51,316.34,100.58,315.24,100,314.52Zm4.67,5.53-.83,1,2.8,3.23.84-1Q106,321.55,104.68,320.05Zm4.75,5.45-.83,1,2.83,3.2.82-1Zm4.78,5.41-.82,1,2.84,3.19.81-1Zm4.8,5.37-.82,1,2.86,3.16.81-1C120.92,338.4,120,337.35,119,336.28Zm4.83,5.35-.81,1,2.88,3.14.8-1Zm4.87,5.3-.8,1.05c1,1.09,2,2.13,2.91,3.1l.79-1.06Zm4.93,5.21-.79,1.06c1.2,1.24,2.21,2.25,3,3l.75-1.1C135.82,354.36,134.82,353.36,133.64,352.14Zm5.06,4.68-.48,1.3c.87.45,1.38,1.41,1.7,3.2l1.18-.3C140.82,359.5,140.3,357.66,138.7,356.82Zm2.79,7.43-1.18.17a31.38,31.38,0,0,0,.7,4.66l1.14-.4A30.87,30.87,0,0,1,141.49,364.25Zm-.35,7.75c-.07,1.17-.25,2.65-.53,4.51l1.18.25c.29-1.91.47-3.43.54-4.65Zm-1,7.64c-.2,1.16-.41,2.37-.63,3.59l-.17.93,1.17.29.17-.93c.22-1.22.43-2.43.63-3.6Zm-1.35,7.66c-.3,1.78-.53,3.23-.72,4.56l1.17.24c.19-1.32.42-2.75.72-4.52Zm.06,7.94-1.18-.18a38.47,38.47,0,0,0-.25,4.08c0,.22,0,.43,0,.64l1.19,0c0-.19,0-.39,0-.59A37.61,37.61,0,0,1,138.81,395.24Zm-.06,7.68-1.19.06c0,.78,0,1.59,0,2.42s0,1.4,0,2.15l1.2,0c0-.77,0-1.48,0-2.19S138.78,403.72,138.75,402.92Zm-1.3,7.81c0,.83-.08,1.65-.12,2.47s-.08,1.43-.11,2.14l1.19.07c0-.7.07-1.41.11-2.13s.09-1.64.13-2.48Zm.87,11.69c0-.73,0-1.47,0-2.29,0-.51,0-1,0-1.54l-1.19,0c0,.53,0,1.06,0,1.58,0,.84,0,1.61,0,2.36,0,.23,0,.46,0,.7h1.19C138.34,422.92,138.33,422.66,138.32,422.42ZM137,426.3c-.12,1.33-.31,2.85-.57,4.52l1.18.26c.26-1.71.46-3.26.58-4.62Zm-1.1,7.64c-.26,1.42-.55,2.93-.88,4.48l1.16.34c.33-1.56.63-3.09.89-4.52Z"/><path class="cls-10" d="M150.65,320.16l3.7,1.47.39-1.34L151,318.82Z"/><path class="cls-10" d="M161,322.79l-3.69-1.48-.38,1.34,3.69,1.48Z"/><polygon class="cls-10" points="168.46 379.21 169.44 380.03 171.68 376.26 170.7 375.45 168.46 379.21"/><polygon class="cls-10" points="164.67 385.59 165.65 386.4 167.89 382.64 166.91 381.82 164.67 385.59"/><path class="cls-10" d="M162.6,389.06c0,.79.06,1.57.07,2.36l1.42-2.4-1-.82Z"/><path class="cls-10" d="M167.22,325.3l-3.69-1.48-.38,1.34,3.68,1.48Z"/><path class="cls-10" d="M185.88,333l-3.67-1.56-.4,1.34,3.66,1.55Z"/><path class="cls-10" d="M173.44,327.84l-3.68-1.5-.38,1.34c1.22.49,2.45,1,3.67,1.5Z"/><path class="cls-10" d="M184.41,354.33l.89,1c.79-1,1.71-2.24,2.6-3.44l-.89-.93C186.12,352.11,185.2,353.3,184.41,354.33Z"/><path class="cls-10" d="M188.76,348.52l.91.91c1-1.38,1.77-2.57,2.43-3.67l-1-.82C190.49,346,189.71,347.17,188.76,348.52Z"/><path class="cls-10" d="M192.07,335.78c-.87-.42-2.1-1-3.66-1.67l-.41,1.33c1.54.68,2.76,1.23,3.62,1.65Z"/><path class="cls-10" d="M194.46,338.07l-1.12.47a2.31,2.31,0,0,1,.09.67,8,8,0,0,1-.89,3.12l1.05.68a9.44,9.44,0,0,0,1-3.8A3.79,3.79,0,0,0,194.46,338.07Z"/><polygon class="cls-10" points="172.26 372.84 173.23 373.66 175.47 369.89 174.5 369.07 172.26 372.84"/><path class="cls-10" d="M180,360.16l.91.92c.67-.94,1.46-2,2.56-3.44l-.89-.95C181.49,358.14,180.7,359.22,180,360.16Z"/><path class="cls-10" d="M178,363.26l-1.9,3.2,1,.82,1.9-3.2.34-.55-1-.85C178.18,362.88,178.06,363.07,178,363.26Z"/><path class="cls-10" d="M175.6,330.22l3.67,1.52.4-1.34L176,328.88Z"/><path class="cls-15" d="M190.58,179.31c-1.39,7.39-7.3,14.11-12,18.45h0a59.63,59.63,0,0,1-6.1,5l-2.79-2.85L161,191.05l-4.16,10.17c-4.16,10.17-3,36.19-3.49,43.59-.42,6.46,8,21.59,9.68,26.76a3.27,3.27,0,0,1,.26,1.57c-.7,2.12-21.48,5.31-35,0s-40.88,14.08-41.77,13.73-1.68-47.7-5.86-68.74,2.79-76.26,2.79-76.26l-5.63-2.11-2.54-.95c-7.36.47-5-9.79-5-9.79s.25,10.38,4.73,7.67c2-1.21,1.91-8.26,1.2-15.68-.87-9.09-2.67-18.74-2.69-18.89l3.56,1.17c7.08,2.36,22.76,7.87,28.68,12,1.78,1.26,6.08,4.91,9.41,7.79,2.46,2.11,4.38,3.81,4.38,3.81,11.72,7.65,15.48,7.15,25,10.51l1.27.44c11.61,4.09,24.89,8.94,29.82,18.78,3.81,7.61,10.23,16.46,13.24,20.47C190,178.51,190.58,179.31,190.58,179.31Z"/><path class="cls-5" d="M77.85,139.76l-2.54-.95c-7.36.47-5-9.79-5-9.79s.25,10.38,4.73,7.67c2-1.21,1.91-8.26,1.2-15.68-.87-9.09-2.67-18.74-2.69-18.89l3.56,1.17C78.86,111.76,82,130.52,77.85,139.76Z"/><path class="cls-5" d="M190.58,179.31c-1.39,7.39-7.3,14.11-12,18.45h0a59.63,59.63,0,0,1-6.1,5l-2.79-2.85c9.47-7.59,16.17-17.14,18.78-23.36C189.49,177.89,190.58,179.31,190.58,179.31Z"/><path class="cls-5" d="M143.6,137.14c-1.87,5.9-4.71,11.22-19.31,7-16.45-4.71-7.46-19.61-7.46-19.61,2.46,2.11,2.73,2.38,2.73,2.38,11.72,7.65,12,6,21.59,9.37Z"/><path class="cls-7" d="M178.57,197.76a59.63,59.63,0,0,1-6.1,5L161,191.05l-4.16,10.17c-4.16,10.17-3,36.19-3.49,43.59-8.2-23.12,6.16-65.47,6.16-65.47C163.67,188.88,178.32,197.54,178.57,197.76Z"/><path class="cls-7" d="M163.31,273.14c-.7,2.12-21.48,5.31-35,0s-40.88,14.08-41.77,13.73-1.68-47.7-5.86-68.74,2.79-76.26,2.79-76.26l-8.17-3.06c-7.36.47-5-9.79-5-9.79s.25,10.38,4.73,7.67c2-1.21,1.91-8.26,1.2-15.68,0,0,14.23,12.14,22.39,15,0,0-2.29,17.34-4.48,39.92s-.8,38.11,3.58,53.91,14.16,30.95,27.73,32.6,26.79,12.9,37.61,9.16A3.27,3.27,0,0,1,163.31,273.14Z"/><path class="cls-5" d="M167.05,84.09h0c-.34.4-.56.61-.56.61L121.8,103.22s-6.68-3.64-6.29-17.48c.28-10,5.71-14.54,8.72-16.32a12,12,0,0,1-1-1.32,1,1,0,0,1,.62-1.54,7.55,7.55,0,0,1,1.48.08,15.57,15.57,0,0,1-.24-1.91c-.06-.78.66-1.3,1.23-.89a7.93,7.93,0,0,1,2,1.94l.06-.07A23.4,23.4,0,0,1,144.65,57c3.36-.22,7.45-.57,11.52-1.11,7.83-1,13.92.65,16.2-2.14C172.37,53.79,182,72.8,167.05,84.09Z"/><path class="cls-5" d="M166.19,80.72s4.57,12.67-3,20.23C163.19,101,162.07,85.77,166.19,80.72Z"/><path class="cls-3" d="M139.62,139.44l-.23.22a12.88,12.88,0,0,1-4.36,2.58c-3.88,1.46-12.45-3-16.17-5.16a2.74,2.74,0,0,1-1.08-3.18,67.4,67.4,0,0,0,3.07-20.55,66.77,66.77,0,0,1,3.65-20.59c-.92,5.06.7,12.38,3.18,19.74A196.57,196.57,0,0,0,139.62,139.44Z"/><path class="cls-3" d="M160.23,107.24a21.85,21.85,0,0,1-.84,6.21,20.4,20.4,0,0,1-2.07,4.87l-5.92,10c-2.2,3.72-6.16,5.37-9.84,4.09a29.7,29.7,0,0,1-13.79-9.64c-7.78-10.08-4.29-27-4.29-27s4.34-16.89,17.69-19.86,24,8.2,24,8.2L164,96.53c-.06.69-.16,1.38-.28,2a21.24,21.24,0,0,1-2.26,6.39Z"/><path class="cls-5" d="M153.11,91.73S148,82,141.88,87.62l.47,2s5.7-3.46,9.86,4.18Z"/><path class="cls-4" d="M160.23,107.24a21.85,21.85,0,0,1-.84,6.21c-1.19-1.64-3.89-3.51-9.94-4.28,0,0,3.77-2.11,6.92-1.25.85.23,1.64-.58,1.58-1.6l-.43-6.87a3.58,3.58,0,0,1,2.33-1.18,20.07,20.07,0,0,1,3.9.31,21.24,21.24,0,0,1-2.26,6.39Z"/><path class="cls-5" d="M163.85,96.58a14.63,14.63,0,0,0-4.3-.25l-.64,2a10.42,10.42,0,0,1,4.47.44,1,1,0,0,0,1.34-.85v0A1.16,1.16,0,0,0,163.85,96.58Z"/><path class="cls-13" d="M155.48,116.36l-15.64-6.5s-.3,10.79,8.27,13C154.84,124.64,155.48,116.36,155.48,116.36Z"/><path class="cls-4" d="M140.69,131.79l-.72,7.28-.35.37-.23.22c-2.3-1.25-11.93-7-12.89-15.35a25.83,25.83,0,0,1,1.18-11.81,13.68,13.68,0,0,1,1.46-3C131.06,127.41,140.69,131.79,140.69,131.79Z"/><path class="cls-3" d="M128.18,94.24s-1.59-7.71-6.64-5.93-5.84,18,1.16,17S128.18,94.24,128.18,94.24Z"/><path class="cls-5" d="M143.26,75.59s-2.95.36-3.3,4.78-1,11.94-5.79,11.78-5.27,6.75-5.27,6.75l-3.44-1s-.34-12.29,2-16.47S139.33,71.23,143.26,75.59Z"/><path class="cls-5" d="M142.72,95a4.14,4.14,0,0,1,4.93-1.34c3.29,1.14,3.11,5.3,3.11,5.3A6.49,6.49,0,0,0,142.72,95Z"/><path class="cls-5" d="M158.21,101.86a2.64,2.64,0,0,1,2.53-.22c1.36.62.86,2.72.86,2.72A3,3,0,0,0,158.21,101.86Z"/><polygon class="cls-5" points="250 183.48 195.13 142.41 218.09 99.36 272.95 140.44 250 183.48"/><polygon class="cls-5" points="272.95 140.44 250 183.48 195.13 142.41 197.51 142.21 271.98 135.98 272.63 138.98 272.63 138.99 272.95 140.44"/><path class="cls-13" d="M272.64,139l-22,41.29L249,179l-15-41.14,38-1.9Z"/><polygon class="cls-5" points="249.02 179.02 196.55 139.74 219.51 96.7 271.98 135.98 249.02 179.02"/><path class="cls-3" d="M254.92,118.83h0a4.12,4.12,0,0,0-2.44-2.23,3,3,0,0,0-1.78-2.38,2.4,2.4,0,0,0-1.82-.12c-.28-1.19-1.35-2.11-2.06-1.85l-.47.12a2.83,2.83,0,0,0-.51-1.39h0c-.47-1.27-2.26-2.32-3.06-2,0,0-6.84,1.45-8.45,7.06s-3.69,12.08-1.27,11.69c.69-.12,1.49-.91,2.28-2.07-.85,3.4-1.16,6,.4,5.76.87-.15,1.92-1.36,2.89-3-.66,2.89-.77,5,.63,4.76s2.92-2.71,4.17-5.52c-.81,3.28-1.08,5.77.45,5.52,1.88-.31,3.19-4.82,5.07-8.26,2.2-4,2.13-1.66,4.51-2.75l1.74,1.3A6,6,0,0,0,254.92,118.83Z"/><path class="cls-5" d="M116.83,124.56s1.9-18.68-4.64-20.2c-12.69-3-26.78,19.31-34.42,42.47-11.5,34.85,1.79,61,1.79,61l.23-13.35s-1-29,10.31-52S109.36,113.39,111,115s1.72,6,1.72,6Z"/><path class="cls-5" d="M145.86,137.89s3.8-11.63,16-6.44c10.65,4.53,9.55,18,7.91,35.66s-16.11,61.45-16.11,61.45-.61-15.42,1-24.62c0,0,9.95-38.89,6.37-54.28s-11.57-10.49-11.57-10.49Z"/></g></svg>